<svg width="1024" height="627" viewBox="0 0 1024 627" fill="none" xmlns="http://www.w3.org/2000/svg">
<g clip-path="url(#clip0_41_402)">
<rect width="1024" height="627" rx="40" fill="white"/>
<rect width="1024" height="627" rx="40" fill="white"/>
<rect x="50" y="75" width="924" height="527" rx="40" fill="white"/>
<path d="M90.52 164.46C87.12 164.46 84.16 163.84 81.64 162.6C79.16 161.36 77.2 159.64 75.76 157.44C74.32 155.24 73.48 152.68 73.24 149.76L79.9 149.34C80.18 151.34 80.76 153.04 81.64 154.44C82.52 155.8 83.7 156.84 85.18 157.56C86.7 158.24 88.52 158.58 90.64 158.58C92.48 158.58 94.04 158.36 95.32 157.92C96.64 157.44 97.64 156.74 98.32 155.82C99 154.9 99.34 153.78 99.34 152.46C99.34 151.26 99.04 150.2 98.44 149.28C97.88 148.32 96.78 147.46 95.14 146.7C93.54 145.9 91.18 145.12 88.06 144.36C84.66 143.52 81.94 142.6 79.9 141.6C77.86 140.6 76.38 139.36 75.46 137.88C74.58 136.36 74.14 134.5 74.14 132.3C74.14 129.86 74.72 127.72 75.88 125.88C77.08 124 78.78 122.54 80.98 121.5C83.18 120.46 85.82 119.94 88.9 119.94C92.14 119.94 94.9 120.54 97.18 121.74C99.5 122.94 101.32 124.58 102.64 126.66C104 128.74 104.84 131.12 105.16 133.8L98.5 134.16C98.3 132.52 97.8 131.08 97 129.84C96.2 128.56 95.12 127.58 93.76 126.9C92.4 126.18 90.74 125.82 88.78 125.82C86.3 125.82 84.34 126.4 82.9 127.56C81.5 128.68 80.8 130.18 80.8 132.06C80.8 133.26 81.08 134.28 81.64 135.12C82.24 135.92 83.28 136.62 84.76 137.22C86.28 137.82 88.42 138.46 91.18 139.14C94.86 139.98 97.78 141.02 99.94 142.26C102.14 143.46 103.7 144.88 104.62 146.52C105.54 148.16 106 150.02 106 152.1C106 154.62 105.34 156.82 104.02 158.7C102.74 160.54 100.94 161.96 98.62 162.96C96.3 163.96 93.6 164.46 90.52 164.46ZM112.879 163.5V120.9H119.239V138.78L118.459 138.66C118.819 136.86 119.479 135.4 120.439 134.28C121.399 133.12 122.579 132.26 123.979 131.7C125.379 131.14 126.919 130.86 128.599 130.86C130.919 130.86 132.879 131.38 134.479 132.42C136.079 133.42 137.279 134.84 138.079 136.68C138.919 138.52 139.339 140.62 139.339 142.98V163.5H132.979V144.66C132.979 141.78 132.479 139.66 131.479 138.3C130.519 136.9 128.999 136.2 126.919 136.2C124.599 136.2 122.739 136.94 121.339 138.42C119.939 139.86 119.239 141.98 119.239 144.78V163.5H112.879ZM156.624 164.22C153.304 164.22 150.644 163.46 148.644 161.94C146.684 160.42 145.704 158.28 145.704 155.52C145.704 152.76 146.524 150.62 148.164 149.1C149.844 147.54 152.424 146.42 155.904 145.74L166.884 143.64C166.884 141.16 166.304 139.32 165.144 138.12C163.984 136.88 162.264 136.26 159.984 136.26C157.944 136.26 156.344 136.72 155.184 137.64C154.024 138.52 153.224 139.84 152.784 141.6L146.244 141.18C146.844 137.98 148.324 135.46 150.684 133.62C153.084 131.78 156.184 130.86 159.984 130.86C164.304 130.86 167.584 132.02 169.824 134.34C172.104 136.62 173.244 139.84 173.244 144V156.42C173.244 157.18 173.364 157.72 173.604 158.04C173.884 158.32 174.324 158.46 174.924 158.46H176.064V163.5C175.864 163.54 175.544 163.58 175.104 163.62C174.664 163.66 174.204 163.68 173.724 163.68C172.364 163.68 171.184 163.46 170.184 163.02C169.224 162.58 168.504 161.86 168.024 160.86C167.544 159.82 167.304 158.44 167.304 156.72L167.964 157.02C167.644 158.42 166.944 159.66 165.864 160.74C164.824 161.82 163.484 162.68 161.844 163.32C160.244 163.92 158.504 164.22 156.624 164.22ZM157.644 159.18C159.564 159.18 161.204 158.82 162.564 158.1C163.924 157.34 164.984 156.3 165.744 154.98C166.504 153.66 166.884 152.16 166.884 150.48V148.44L157.524 150.24C155.604 150.6 154.244 151.18 153.444 151.98C152.684 152.74 152.304 153.72 152.304 154.92C152.304 156.28 152.764 157.34 153.684 158.1C154.644 158.82 155.964 159.18 157.644 159.18ZM181.434 163.5V131.58H187.254L187.494 140.04L186.954 139.86C187.394 136.98 188.274 134.88 189.594 133.56C190.954 132.24 192.774 131.58 195.054 131.58H198.114V137.28H195.054C193.454 137.28 192.114 137.54 191.034 138.06C189.954 138.58 189.134 139.38 188.574 140.46C188.054 141.54 187.794 142.94 187.794 144.66V163.5H181.434ZM215.785 164.22C212.665 164.22 209.965 163.54 207.685 162.18C205.445 160.82 203.705 158.88 202.465 156.36C201.265 153.84 200.665 150.9 200.665 147.54C200.665 144.18 201.265 141.26 202.465 138.78C203.705 136.26 205.445 134.32 207.685 132.96C209.925 131.56 212.565 130.86 215.605 130.86C218.485 130.86 221.025 131.54 223.225 132.9C225.425 134.22 227.125 136.14 228.325 138.66C229.565 141.18 230.185 144.22 230.185 147.78V149.4H207.265C207.425 152.52 208.245 154.86 209.725 156.42C211.245 157.98 213.285 158.76 215.845 158.76C217.725 158.76 219.285 158.32 220.525 157.44C221.765 156.56 222.625 155.38 223.105 153.9L229.705 154.32C228.865 157.28 227.205 159.68 224.725 161.52C222.285 163.32 219.305 164.22 215.785 164.22ZM207.265 144.6H223.465C223.265 141.76 222.445 139.66 221.005 138.3C219.605 136.94 217.805 136.26 215.605 136.26C213.325 136.26 211.445 136.98 209.965 138.42C208.525 139.82 207.625 141.88 207.265 144.6ZM252.465 163.5V120.9H269.445C272.485 120.9 275.105 121.42 277.305 122.46C279.505 123.5 281.205 124.98 282.405 126.9C283.605 128.82 284.205 131.1 284.205 133.74C284.205 135.66 283.765 137.38 282.885 138.9C282.045 140.42 280.905 141.64 279.465 142.56C278.065 143.44 276.565 143.94 274.965 144.06L274.665 143.52C277.345 143.52 279.425 144.14 280.905 145.38C282.385 146.58 283.245 148.48 283.485 151.08L284.625 163.5H278.085L277.065 151.92C276.945 150.2 276.365 148.94 275.325 148.14C274.285 147.3 272.585 146.88 270.225 146.88H258.945V163.5H252.465ZM258.945 140.94H269.565C272.005 140.94 273.925 140.34 275.325 139.14C276.765 137.9 277.485 136.16 277.485 133.92C277.485 131.64 276.765 129.9 275.325 128.7C273.885 127.46 271.785 126.84 269.025 126.84H258.945V140.94ZM304.906 164.22C301.786 164.22 299.086 163.54 296.806 162.18C294.566 160.82 292.826 158.88 291.586 156.36C290.386 153.84 289.786 150.9 289.786 147.54C289.786 144.18 290.386 141.26 291.586 138.78C292.826 136.26 294.566 134.32 296.806 132.96C299.046 131.56 301.686 130.86 304.726 130.86C307.606 130.86 310.146 131.54 312.346 132.9C314.546 134.22 316.246 136.14 317.446 138.66C318.686 141.18 319.306 144.22 319.306 147.78V149.4H296.386C296.546 152.52 297.366 154.86 298.846 156.42C300.366 157.98 302.406 158.76 304.966 158.76C306.846 158.76 308.406 158.32 309.646 157.44C310.886 156.56 311.746 155.38 312.226 153.9L318.826 154.32C317.986 157.28 316.326 159.68 313.846 161.52C311.406 163.32 308.426 164.22 304.906 164.22ZM296.386 144.6H312.586C312.386 141.76 311.566 139.66 310.126 138.3C308.726 136.94 306.926 136.26 304.726 136.26C302.446 136.26 300.566 136.98 299.086 138.42C297.646 139.82 296.746 141.88 296.386 144.6ZM325.75 172.5V131.58H331.75L331.93 138.42L331.21 138.06C332.01 135.7 333.33 133.92 335.17 132.72C337.01 131.48 339.13 130.86 341.53 130.86C344.65 130.86 347.21 131.64 349.21 133.2C351.25 134.72 352.75 136.74 353.71 139.26C354.71 141.78 355.21 144.54 355.21 147.54C355.21 150.54 354.71 153.3 353.71 155.82C352.75 158.34 351.25 160.38 349.21 161.94C347.21 163.46 344.65 164.22 341.53 164.22C339.93 164.22 338.43 163.94 337.03 163.38C335.63 162.82 334.43 162.04 333.43 161.04C332.47 160 331.79 158.78 331.39 157.38L332.11 156.66V172.5H325.75ZM340.39 158.7C342.95 158.7 344.95 157.72 346.39 155.76C347.87 153.8 348.61 151.06 348.61 147.54C348.61 144.02 347.87 141.28 346.39 139.32C344.95 137.36 342.95 136.38 340.39 136.38C338.71 136.38 337.25 136.8 336.01 137.64C334.77 138.44 333.81 139.68 333.13 141.36C332.45 143.04 332.11 145.1 332.11 147.54C332.11 149.98 332.43 152.04 333.07 153.72C333.75 155.4 334.71 156.66 335.95 157.5C337.23 158.3 338.71 158.7 340.39 158.7ZM374.808 164.22C371.768 164.22 369.108 163.54 366.828 162.18C364.548 160.82 362.788 158.88 361.548 156.36C360.308 153.84 359.688 150.9 359.688 147.54C359.688 144.14 360.308 141.2 361.548 138.72C362.788 136.24 364.548 134.32 366.828 132.96C369.108 131.56 371.768 130.86 374.808 130.86C377.848 130.86 380.508 131.56 382.788 132.96C385.068 134.32 386.828 136.24 388.068 138.72C389.308 141.2 389.928 144.14 389.928 147.54C389.928 150.9 389.308 153.84 388.068 156.36C386.828 158.88 385.068 160.82 382.788 162.18C380.508 163.54 377.848 164.22 374.808 164.22ZM374.808 158.7C377.528 158.7 379.628 157.72 381.108 155.76C382.588 153.76 383.328 151.02 383.328 147.54C383.328 144.06 382.588 141.34 381.108 139.38C379.628 137.38 377.528 136.38 374.808 136.38C372.128 136.38 370.028 137.38 368.508 139.38C367.028 141.34 366.288 144.06 366.288 147.54C366.288 151.02 367.028 153.76 368.508 155.76C370.028 157.72 372.128 158.7 374.808 158.7ZM396.355 163.5V131.58H402.175L402.415 140.04L401.875 139.86C402.315 136.98 403.195 134.88 404.515 133.56C405.875 132.24 407.695 131.58 409.975 131.58H413.035V137.28H409.975C408.375 137.28 407.035 137.54 405.955 138.06C404.875 138.58 404.055 139.38 403.495 140.46C402.975 141.54 402.715 142.94 402.715 144.66V163.5H396.355ZM429.572 163.5C426.532 163.5 424.292 162.8 422.852 161.4C421.412 160 420.692 157.82 420.692 154.86V124.08H427.052V154.38C427.052 155.86 427.372 156.88 428.012 157.44C428.652 158 429.632 158.28 430.952 158.28H435.512V163.5H429.572ZM415.832 136.8V131.58H435.512V136.8H415.832Z" fill="black"/>
<rect x="70.5" y="220" width="883" height="103" rx="9.5" stroke="url(#paint0_linear_41_402)"/>
<ellipse cx="138.244" cy="441.745" rx="68.2444" ry="68.2449" fill="#126DFB" fill-opacity="0.3" stroke="#5F9EFF" stroke-width="5"/>
<g clip-path="url(#clip1_41_402)">
<path d="M168.586 485.903C168.323 486.1 168.022 486.298 167.758 486.495C167.457 486.693 167.194 486.89 166.893 487.048C166.629 487.206 166.404 487.364 166.14 487.522C166.103 487.562 166.065 487.562 166.027 487.601C165.162 488.155 164.259 488.668 163.356 489.142C163.092 489.3 162.791 489.458 162.528 489.577C162.528 489.577 162.49 489.616 162.453 489.616L161.55 490.09C160.948 490.406 160.308 490.683 159.706 490.96C159.405 491.118 159.066 491.236 158.765 491.355C158.464 491.473 158.126 491.631 157.825 491.75C157.524 491.868 157.185 492.026 156.884 492.145H156.846C156.545 492.263 156.207 492.382 155.906 492.5C155.228 492.737 154.513 492.974 153.836 493.211C153.61 493.29 153.347 493.369 153.121 493.448C152.406 493.686 151.691 493.883 150.977 494.041C150.713 494.12 150.45 494.16 150.149 494.239C149.471 494.397 148.757 494.555 148.079 494.713C147.929 494.752 147.816 494.752 147.665 494.792C147.44 494.831 147.176 494.871 146.95 494.91C146.612 494.95 146.311 495.029 145.972 495.068C145.822 495.108 145.671 495.108 145.521 495.147C145.333 495.187 145.107 495.226 144.881 495.226C144.279 495.305 143.639 495.384 143.037 495.463C142.849 495.503 142.623 495.503 142.435 495.542H142.398C142.134 495.582 141.871 495.582 141.607 495.621C141.344 495.661 141.081 495.661 140.817 495.661C140.667 495.661 140.479 495.7 140.328 495.7C140.027 495.7 139.764 495.74 139.5 495.74C139.124 495.74 138.785 495.779 138.409 495.779H136.528C120.649 495.542 106.389 488.471 96.1919 477.251C96.1919 477.251 96.1919 477.211 96.1543 477.211C95.0255 476.144 96.0038 470.456 100.557 466.86C106.276 462.317 119.972 459.473 119.972 459.473C119.972 459.473 125.277 458.564 144.956 462.87C156.47 465.399 165.237 469.073 170.129 479.028C171.145 481.083 172.16 484.243 168.586 485.903Z" fill="white"/>
<path d="M145.069 462.436C152.293 463.977 160.007 465.636 165.952 470.653C167.946 472.352 169.263 474.841 170.354 477.251C170.881 478.436 171.408 479.661 171.822 480.964C172.047 481.834 172.386 482.821 172.198 483.848C172.16 484.125 171.935 484.481 171.746 484.678C170.881 485.587 169.94 486.14 169 486.851C163.469 490.881 157.11 493.725 150.525 495.226C135.85 498.585 119.972 495.977 107.066 487.878C102.776 485.152 98.8257 481.834 95.4393 477.922C95.063 477.448 95.063 476.658 95.063 476.145C95.1006 474.959 95.4016 473.814 95.7779 472.747C96.6809 470.298 97.8474 467.848 99.8416 466.149C101.271 465.122 102.814 464.253 104.394 463.542C109.361 461.33 114.591 459.789 119.972 459.157C120.423 459.117 120.499 459.789 120.047 459.868C114.892 460.974 109.775 462.633 104.996 464.885C103.266 465.794 101.422 466.584 100.03 468.006C98.7128 469.507 97.7721 471.364 97.0196 473.261C96.5304 474.406 96.1918 476.224 96.3423 477.132C98.7128 480.095 101.497 482.703 104.507 484.955C120.988 497.044 146.01 497.834 163.544 487.76C165.124 486.851 166.667 485.824 168.134 484.757C168.849 484.244 169.602 483.809 170.166 483.216C170.204 483.177 170.166 483.216 170.166 483.256C170.166 483.295 170.129 483.335 170.129 483.335C170.166 482.861 170.016 482.229 169.828 481.597C169.15 479.305 168.059 476.895 166.893 474.801C165.049 471.68 161.926 469.705 158.765 468.125C156.583 467.058 154.288 466.228 151.955 465.438C149.622 464.648 147.251 463.977 144.881 463.384C144.279 463.226 144.467 462.317 145.069 462.436Z" fill="black"/>
</g>
<g clip-path="url(#clip2_41_402)">
<path d="M181.078 510.397H85.9199C85.9199 510.397 91.5263 497.992 94.0097 483.849C95.7405 474.051 97.0198 468.323 101.874 465.162C105.298 462.95 112.635 460.658 115.796 459.473C117.94 458.683 118.392 459.354 119.935 458.92C119.935 459.117 119.972 459.275 119.972 459.473C119.972 459.473 124.036 472.155 134.609 476.658C143.226 480.333 148.343 477.883 149.133 473.814C149.622 471.207 148.079 466.94 147.289 465.557C146.838 465.162 146.537 464.569 146.386 463.977L146.085 462.673C146.8 462.515 147.477 462.318 148.155 462.08C148.38 462.001 148.569 461.922 148.794 461.843C153.121 463.029 162.378 466.861 166.479 470.811C168.097 472.392 171.935 480.293 174.418 491.75C177.278 504.748 181.078 510.397 181.078 510.397Z" fill="black"/>
<path d="M181.944 510.871C153.611 511.069 113.839 511.543 85.9576 511.424C85.2803 511.424 84.7911 510.634 85.0922 510.002C88.4409 502.259 91.0748 494.002 92.768 485.666C92.9562 484.599 93.3701 482.505 93.5582 481.438C94.4236 477.093 95.1009 472.786 97.3209 468.796C98.0734 467.493 99.0517 466.268 100.218 465.28C101.347 464.332 102.664 463.621 103.981 462.989C108.195 461.092 112.447 459.591 116.774 458.208C117.79 457.971 118.806 458.248 119.784 458.011C120.349 457.853 120.951 458.287 120.988 458.92L121.026 459.473L120.01 458.485C120.424 458.485 120.8 458.762 120.913 459.157C121.214 460.065 121.628 461.013 122.042 461.922C123.321 464.648 124.901 467.216 126.82 469.468C129.341 472.47 132.502 474.841 136.114 476.184C139.764 477.606 146.273 478.831 148.079 474.248C148.38 473.419 148.343 472.549 148.23 471.641C147.967 469.784 147.365 467.809 146.499 466.149L146.687 466.386C146.085 465.557 145.859 464.569 145.935 463.621V462.673C145.935 462.594 146.01 462.515 146.085 462.515C146.537 462.357 146.951 462.159 147.402 462.001C147.816 461.804 148.23 461.606 148.644 461.369C148.757 461.29 148.87 461.329 148.983 461.369C151.466 462.041 153.836 462.949 156.207 463.976C159.744 465.517 163.243 467.255 166.291 469.744C167.382 470.574 168.172 471.799 168.812 473.023C170.091 475.394 171.107 477.843 172.01 480.332C173.59 484.678 174.757 489.182 175.773 493.725C177.052 498.742 178.595 503.72 180.965 508.303L181.755 509.725L181.831 509.804V509.844C182.057 510.041 182.094 510.594 181.944 510.871ZM180.213 509.923C180.025 510.12 180.062 510.673 180.213 510.871V510.832L180.138 510.713C177.504 506.17 175.848 501.073 174.494 495.977C173.816 493.488 173.327 490.802 172.65 488.273C171.333 483.295 169.715 478.278 167.344 473.735C166.931 472.984 166.479 472.154 165.915 471.562C164.823 470.495 163.544 469.626 162.265 468.796C160.158 467.493 157.9 466.347 155.605 465.359C153.31 464.371 150.977 463.463 148.606 462.791L149.171 462.752C148.155 462.831 147.176 462.87 146.198 462.831L146.349 462.594C146.574 462.989 146.838 463.66 147.064 464.016C147.327 464.371 147.628 464.648 147.967 464.806C148.042 464.885 148.117 464.964 148.155 465.043C149.509 467.769 150.864 471.838 149.886 474.88C147.628 480.846 140.065 479.898 135.437 478.041C131.561 476.658 128.062 474.011 125.353 470.772C122.644 467.532 120.499 463.818 119.069 459.789L119.972 460.46C119.445 460.46 119.032 460.065 118.994 459.512L118.956 458.999L120.16 459.907C119.784 460.026 119.333 460.065 118.919 460.105C117.865 460.065 117.15 460.026 116.172 460.421C114.893 460.895 113.576 461.369 112.259 461.804C109.662 462.712 107.104 463.66 104.658 464.806C99.0893 467.137 97.4714 471.799 96.1921 477.606C95.59 480.293 95.1009 483.335 94.5741 486.061C92.8433 494.594 90.2094 502.851 86.7854 510.832L85.92 509.37C113.199 509.37 152.557 509.646 180.213 509.923Z" fill="black"/>
<path d="M131.373 480.806C118.392 474.683 113.35 463.739 114.328 460.776C114.328 460.776 114.328 460.737 114.366 460.697C115.043 459.236 116.134 458.051 117.489 457.221C118.241 456.747 119.069 456.312 119.746 456.075C130.019 453.389 143.639 457.932 148.23 462.08C149.886 464.174 151.579 466.268 152.218 471.799C153.121 479.779 144.806 487.167 131.373 480.806Z" fill="white"/>
<path d="M131.185 481.241C124.675 478.159 118.58 473.34 115.118 466.663C114.441 465.28 113.839 463.858 113.651 462.238C113.613 461.685 113.575 461.013 113.839 460.46C114.629 458.801 116.059 457.497 117.639 456.707C118.843 456.036 120.16 455.561 121.477 455.127C123.358 454.771 125.24 454.653 127.159 454.692C133.442 454.89 139.688 456.628 145.257 459.67C145.671 459.907 146.085 460.144 146.499 460.421C146.649 460.5 146.762 460.618 146.95 460.579C147.139 460.539 147.289 460.618 147.44 460.697C147.891 460.974 148.267 461.329 148.681 461.725C149.697 463.028 150.713 464.411 151.39 465.991C152.068 467.572 152.444 469.27 152.67 470.93C153.272 474.327 152.181 478.12 149.66 480.451C144.542 485.271 136.866 483.967 131.185 481.241ZM131.523 480.411C135.738 482.347 140.554 483.572 145.031 482.071C148.644 480.925 151.616 477.488 151.729 473.458C151.767 471.088 151.24 468.599 150.337 466.426C149.848 465.083 148.493 463.384 147.816 462.515C147.402 462.159 146.95 461.883 146.574 461.527L146.461 461.29C146.386 461.092 146.235 461.053 146.123 460.934C145.746 460.697 145.332 460.46 144.919 460.223C141.645 458.445 138.033 457.418 134.421 456.668C130.206 455.838 125.879 455.601 121.628 456.233C121.025 456.312 120.386 456.233 119.784 456.391C119.332 456.589 118.504 456.984 117.978 457.379C116.623 458.208 115.607 459.433 114.892 460.895L114.855 460.934C114.855 460.974 114.817 461.053 114.817 461.092C114.629 462.752 115.381 464.451 116.096 465.991C116.736 467.255 117.489 468.48 118.354 469.665C121.816 474.367 126.444 478.001 131.523 480.411Z" fill="black"/>
</g>
<path d="M148.606 472.945C147.816 477.014 142.699 479.463 134.082 475.789C125.127 471.997 121.251 462.949 120.273 460.263C125.578 449.833 121.891 442.603 121.891 442.603C134.12 441.497 144.806 456.51 144.806 456.51L146.461 463.937C146.612 464.569 146.913 465.122 147.364 465.517C148.154 466.979 149.095 470.337 148.606 472.945Z" fill="white"/>
<path d="M120.085 460.381C120.8 459.236 121.251 457.892 121.552 456.589C122.117 453.863 122.305 451.097 122.343 448.332V447.305C122.23 446.277 121.891 445.211 121.515 444.263C121.026 442.998 122.794 442.208 123.359 443.472C123.434 443.63 123.434 443.907 123.434 444.065C123.547 449.438 123.772 456.352 120.536 460.816C120.311 461.053 119.859 460.697 120.085 460.381ZM145.219 456.431C145.784 456.786 145.972 457.26 146.047 457.734C146.273 458.683 146.198 459.71 146.423 460.697C146.612 461.646 147.176 462.554 147.326 463.542C147.515 464.569 148.079 466.742 148.305 467.809C148.38 468.046 148.229 468.322 147.966 468.362C147.816 468.401 147.703 468.362 147.59 468.283C147.101 467.848 146.875 467.414 146.574 466.86C146.085 465.912 145.746 465.043 145.445 463.976C145.182 463.028 145.295 462.001 145.069 461.013C144.881 460.065 144.354 459.157 144.166 458.169C144.053 457.695 144.015 457.181 144.354 456.589C144.58 456.352 144.956 456.273 145.219 456.431Z" fill="black"/>
<path d="M147.929 466.86C140.742 466.465 134.872 464.095 129.153 453.389C133.969 457.853 139.651 459.552 145.633 460.342L146.424 463.976C146.574 464.609 147.477 466.465 147.929 466.86Z" fill="black"/>
<path d="M147.628 465.399C148.907 467.927 149.66 471.088 148.87 473.893C148.268 475.868 146.537 477.33 144.655 477.883C140.291 479.108 135.249 477.172 131.373 474.999C126.595 472.194 123.058 467.493 120.8 462.357C120.65 461.962 121.176 461.646 121.402 462.041C122.192 463.7 123.095 465.32 124.111 466.782C125.127 468.283 126.294 469.666 127.611 470.89C131.448 474.525 136.641 476.777 141.833 476.777C147.176 476.619 149.208 473.656 147.967 468.204C147.778 467.335 147.477 466.426 147.064 465.675C146.838 465.359 147.402 465.004 147.628 465.399Z" fill="black"/>
<path d="M162.189 417.951C162.866 421.27 160.609 424.825 160.609 433.675C160.609 442.722 159.029 452.559 152.519 459.394C146.913 465.28 140.478 465.043 132.916 458.841C131.862 457.971 128.175 455.048 127.234 454.06C126.143 452.915 125.541 452.085 125.014 451.216C124.562 450.426 124.675 445.843 124.036 444.776C122.38 441.892 122.041 445.013 119.897 442.485C116.924 439.087 113.35 432.252 115.118 420.163C117.978 400.568 132.765 398.277 143.714 400.449C154.739 402.662 160.383 409.22 162.189 417.951Z" fill="white"/>
<path d="M121.778 446.001C120.913 444.5 119.822 443.157 118.806 441.774C117.79 440.312 116.962 438.771 116.285 437.112C112.447 427.354 113.011 414.593 119.822 406.376C124.487 400.766 131.862 398.909 138.635 399.304C145.408 399.739 152.444 401.556 157.448 406.692C160.346 409.655 162.189 413.605 163.017 417.714C163.281 419.018 163.092 420.44 162.791 421.665C161.926 425.102 161.098 428.381 161.023 431.937C161.061 437.231 160.91 442.643 159.443 447.739C158.389 451.137 157.147 454.534 155.191 457.498C153.159 460.5 150.111 462.91 146.612 463.621C139.576 465.122 132.991 460.461 128.325 455.404C128.137 455.167 128.4 454.89 128.626 455.048C131.298 457.181 134.044 459.157 137.017 460.5C145.596 464.648 152.707 460.816 156.47 452.125C159.631 445.803 160.534 438.969 160.27 431.897C160.27 430.119 160.346 428.341 160.571 426.564C160.797 423.996 161.625 421.428 161.587 418.899C160.948 414.791 159.142 410.84 156.432 407.798C149.998 400.647 137.657 398.553 129.002 401.793C118.806 405.586 116.059 416.371 115.494 426.682C115.118 432.845 116.849 438.89 121.289 443.117L123.057 445.053C123.659 445.922 122.38 446.949 121.778 446.001Z" fill="black"/>
<path d="M126.218 433.438C126.218 433.438 125.052 427.512 119.558 428.223C114.817 428.855 113.161 440.786 123.923 444.105" fill="white"/>
<path d="M123.434 438.929C122.569 438.416 121.967 437.546 121.929 436.48C121.967 435.69 122.079 434.781 121.891 433.991C121.778 433.24 121.026 433.043 120.461 433.082C119.859 433.201 119.483 433.991 119.37 434.623C119.37 434.662 119.333 434.781 119.333 434.82C119.295 435.018 118.994 435.018 118.919 434.82C118.43 433.28 119.521 431.581 121.101 431.778C123.321 431.936 123.622 434.386 123.208 436.243C122.982 437.033 123.283 437.744 123.697 438.416L123.773 438.534C123.961 438.771 123.66 439.087 123.434 438.929ZM153.535 429.25C154.1 432.055 155.153 434.662 156.47 437.112C157.637 440.114 154.627 442.959 151.955 442.84C151.654 442.84 151.616 442.406 151.88 442.327C153.573 441.774 155.116 440.588 155.379 438.771C155.492 438.218 155.342 437.744 155.078 437.27C153.836 434.82 153.084 432.015 153.272 429.25C153.272 429.052 153.535 429.052 153.535 429.25Z" fill="black"/>
<path d="M126.03 433.477C125.165 431.146 123.283 428.934 120.763 428.974C120.537 428.934 120.16 429.013 119.935 429.013C119.295 429.053 118.768 429.29 118.279 429.764C115.871 432.292 116.285 436.756 118.242 439.561C118.919 440.549 119.784 441.418 120.763 442.129C121.741 442.84 122.832 443.394 123.998 443.868C124.262 443.947 124.149 444.381 123.886 444.342C121.365 443.789 118.956 442.485 117.301 440.312C114.742 437.072 114.215 431.66 117.263 428.499C117.94 427.867 118.881 427.393 119.822 427.393C120.123 427.393 120.574 427.314 120.875 427.393C122.456 427.472 123.961 428.302 124.939 429.606C125.804 430.712 126.294 432.055 126.444 433.398C126.444 433.635 126.106 433.714 126.03 433.477Z" fill="black"/>
<path d="M167.043 420.598C165.99 424.035 163.469 426.919 161.851 428.855C162.227 426.998 161.888 425.892 161.963 424.588C162.076 422.81 162.678 420.835 162.565 420.045C162.49 419.334 162.34 418.662 162.189 417.951C162.001 417.082 161.775 416.252 161.512 415.423C155.605 421.467 145.483 415.502 145.483 415.502C145.483 415.502 143.338 417.358 139.575 416.924C135.549 416.489 134.458 413.882 134.458 413.882C133.367 421.862 126.18 418.82 127.497 426.761C127.874 428.934 127.874 431.028 126.105 433.201C125.804 432.095 124.337 427.591 119.52 428.223C114.968 428.815 113.237 439.877 122.643 443.67C122.531 447.344 122.907 452.322 122.531 451.018C119.897 442.485 114.629 443.828 112.146 437.388C110.979 434.307 111.167 431.581 111.769 429.566C112.371 427.63 112.334 425.536 111.732 423.601C111.054 421.349 110.528 417.951 111.769 413.842C113.876 406.81 118.392 405.19 119.558 404.361C120.724 403.531 120.16 395.946 128.325 393.575C134.835 391.679 139.726 395.669 141.156 395.393C142.586 395.116 152.594 388.202 160.308 394.721C167.758 401.042 164.974 408.509 164.974 408.509C164.974 408.509 169.602 412.262 167.043 420.598Z" fill="black"/>
<path d="M142.812 431.146C140.78 430.988 138.898 430.08 137.318 428.736C137.017 428.499 137.356 428.025 137.657 428.262C138.823 429.053 140.103 429.606 141.495 429.843C141.946 429.922 142.435 429.961 142.849 429.961C143.602 429.961 143.602 431.186 142.812 431.146ZM153.874 430.593C155.04 430.435 156.395 430.238 157.298 429.369C157.373 429.25 157.561 429.25 157.636 429.369C157.975 429.724 157.109 430.317 156.884 430.514C156.018 431.107 155.04 431.502 154.062 431.779C153.761 431.858 153.46 431.66 153.384 431.344C153.272 430.988 153.535 430.633 153.874 430.593ZM144.618 427.512C145.333 427.946 146.236 427.354 146.273 426.445C146.273 425.971 146.198 425.457 145.897 425.023C144.994 423.759 140.592 421.823 137.544 422.652C134.91 423.364 141.344 425.536 144.618 427.512ZM156.169 427.986C155.642 428.42 154.777 427.907 154.664 427.077C154.589 426.643 154.626 426.169 154.814 425.773C155.416 424.588 158.201 422.968 160.458 423.759C162.415 424.509 158.69 426.05 156.169 427.986Z" fill="black"/>
<path d="M138.56 429.21C138.259 429.487 138.07 429.922 138.033 430.356L137.995 431.462C137.958 432.411 138.635 433.201 139.5 433.24C140.403 433.28 141.156 432.569 141.193 431.66L141.231 430.554V430.435C140.215 430.356 139.387 429.922 138.56 429.21ZM153.987 431.107V431.186L153.949 432.213C153.911 433.082 154.551 433.833 155.379 433.872C156.207 433.912 156.921 433.24 156.959 432.371L156.997 431.344C157.034 430.949 156.884 430.593 156.696 430.317C155.868 430.83 154.927 430.949 153.987 431.107Z" fill="black"/>
<path d="M149.81 446.633C149.848 447.265 149.396 448.371 148.569 449.162C144.317 446.436 142.398 447.858 142.398 447.858C140.893 445.448 141.231 442.169 144.881 444.658C147.402 446.396 148.983 446.673 149.81 446.633Z" fill="black"/>
<path d="M148.531 449.201C147.628 450.031 146.273 450.544 144.429 449.754C143.564 449.398 142.887 448.687 142.36 447.897C142.397 447.897 144.279 446.475 148.531 449.201Z" fill="white"/>
<path d="M150.525 446.514C150.525 446.514 148.945 447.423 144.881 444.697C140.027 441.418 141.005 448.292 144.429 449.754C148.004 451.295 149.848 447.937 149.81 446.672" stroke="black" stroke-width="3" stroke-miterlimit="10" stroke-linecap="round" stroke-linejoin="round"/>
<path d="M142.397 447.897C142.397 447.897 144.316 446.475 148.568 449.201" stroke="black" stroke-width="3" stroke-miterlimit="10" stroke-linecap="round" stroke-linejoin="round"/>
<g filter="url(#filter0_d_41_402)">
<mask id="path-35-inside-1_41_402" fill="white">
<path d="M739 410.66C739 406.241 742.582 402.66 747 402.66H946C950.418 402.66 954 406.241 954 410.66V474.66C954 479.078 950.418 482.66 946 482.66H747C742.582 482.66 739 479.078 739 474.66V410.66Z"/>
</mask>
<path d="M739 410.66C739 406.241 742.582 402.66 747 402.66H946C950.418 402.66 954 406.241 954 410.66V474.66C954 479.078 950.418 482.66 946 482.66H747C742.582 482.66 739 479.078 739 474.66V410.66Z" fill="white" shape-rendering="crispEdges"/>
<path d="M747 402.66V403.66H946V402.66V401.66H747V402.66ZM954 410.66H953V474.66H954H955V410.66H954ZM946 482.66V481.66H747V482.66V483.66H946V482.66ZM739 474.66H740V410.66H739H738V474.66H739ZM747 482.66V481.66C743.134 481.66 740 478.526 740 474.66H739H738C738 479.63 742.029 483.66 747 483.66V482.66ZM954 474.66H953C953 478.526 949.866 481.66 946 481.66V482.66V483.66C950.971 483.66 955 479.63 955 474.66H954ZM946 402.66V403.66C949.866 403.66 953 406.794 953 410.66H954H955C955 405.689 950.971 401.66 946 401.66V402.66ZM747 402.66V401.66C742.029 401.66 738 405.689 738 410.66H739H740C740 406.794 743.134 403.66 747 403.66V402.66Z" fill="#8C8C8C" mask="url(#path-35-inside-1_41_402)"/>
<path d="M781.397 453.66V431.841H795.076V434.675H784.689V441.323H794.362V444.146H784.689V450.826H795.204V453.66H781.397ZM805.343 453.979C804.022 453.979 802.843 453.642 801.806 452.967C800.776 452.285 799.967 451.316 799.377 450.059C798.795 448.795 798.504 447.278 798.504 445.51C798.504 443.741 798.798 442.229 799.388 440.971C799.985 439.714 800.801 438.752 801.838 438.084C802.875 437.417 804.051 437.083 805.365 437.083C806.38 437.083 807.197 437.253 807.815 437.594C808.44 437.928 808.923 438.319 809.264 438.766C809.612 439.214 809.882 439.608 810.073 439.949H810.265V431.841H813.45V453.66H810.34V451.114H810.073C809.882 451.462 809.605 451.859 809.242 452.307C808.887 452.754 808.397 453.145 807.772 453.479C807.147 453.812 806.338 453.979 805.343 453.979ZM806.046 451.263C806.963 451.263 807.737 451.021 808.369 450.538C809.008 450.048 809.491 449.37 809.818 448.503C810.151 447.637 810.318 446.628 810.318 445.478C810.318 444.341 810.155 443.347 809.828 442.495C809.502 441.643 809.022 440.979 808.39 440.503C807.758 440.027 806.977 439.789 806.046 439.789C805.088 439.789 804.289 440.038 803.649 440.535C803.01 441.032 802.527 441.71 802.2 442.569C801.881 443.429 801.721 444.398 801.721 445.478C801.721 446.572 801.884 447.555 802.211 448.429C802.538 449.302 803.021 449.995 803.66 450.506C804.306 451.011 805.102 451.263 806.046 451.263ZM817.997 453.66V437.296H821.182V453.66H817.997ZM819.605 434.771C819.051 434.771 818.576 434.587 818.178 434.217C817.787 433.841 817.592 433.393 817.592 432.875C817.592 432.349 817.787 431.902 818.178 431.533C818.576 431.156 819.051 430.968 819.605 430.968C820.159 430.968 820.632 431.156 821.022 431.533C821.42 431.902 821.619 432.349 821.619 432.875C821.619 433.393 821.42 433.841 821.022 434.217C820.632 434.587 820.159 434.771 819.605 434.771ZM833.106 437.296V439.853H824.168V437.296H833.106ZM826.565 433.376H829.75V448.855C829.75 449.473 829.843 449.938 830.027 450.251C830.212 450.556 830.45 450.765 830.741 450.879C831.039 450.986 831.362 451.039 831.71 451.039C831.966 451.039 832.19 451.021 832.382 450.986C832.573 450.95 832.722 450.922 832.829 450.9L833.404 453.532C833.22 453.603 832.957 453.674 832.616 453.745C832.275 453.823 831.849 453.866 831.338 453.873C830.499 453.887 829.718 453.738 828.994 453.425C828.269 453.113 827.683 452.63 827.236 451.976C826.789 451.323 826.565 450.503 826.565 449.515V433.376ZM843.347 453.99C841.813 453.99 840.474 453.638 839.33 452.935C838.187 452.232 837.299 451.248 836.667 449.984C836.035 448.72 835.719 447.243 835.719 445.552C835.719 443.855 836.035 442.371 836.667 441.099C837.299 439.828 838.187 438.841 839.33 438.138C840.474 437.435 841.813 437.083 843.347 437.083C844.881 437.083 846.219 437.435 847.363 438.138C848.506 438.841 849.394 439.828 850.026 441.099C850.658 442.371 850.974 443.855 850.974 445.552C850.974 447.243 850.658 448.72 850.026 449.984C849.394 451.248 848.506 452.232 847.363 452.935C846.219 453.638 844.881 453.99 843.347 453.99ZM843.357 451.316C844.352 451.316 845.175 451.053 845.829 450.528C846.482 450.002 846.965 449.302 847.278 448.429C847.597 447.555 847.757 446.593 847.757 445.542C847.757 444.498 847.597 443.539 847.278 442.665C846.965 441.785 846.482 441.078 845.829 440.545C845.175 440.013 844.352 439.746 843.357 439.746C842.356 439.746 841.525 440.013 840.864 440.545C840.211 441.078 839.724 441.785 839.405 442.665C839.092 443.539 838.936 444.498 838.936 445.542C838.936 446.593 839.092 447.555 839.405 448.429C839.724 449.302 840.211 450.002 840.864 450.528C841.525 451.053 842.356 451.316 843.357 451.316ZM854.53 453.66V437.296H857.609V439.895H857.779C858.078 439.015 858.603 438.322 859.356 437.818C860.116 437.307 860.975 437.051 861.934 437.051C862.133 437.051 862.367 437.058 862.637 437.072C862.914 437.087 863.131 437.104 863.287 437.126V440.172C863.159 440.137 862.932 440.098 862.605 440.055C862.279 440.006 861.952 439.981 861.625 439.981C860.872 439.981 860.201 440.14 859.612 440.46C859.029 440.773 858.568 441.209 858.227 441.77C857.886 442.324 857.715 442.957 857.715 443.667V453.66H854.53Z" fill="#0A0A0A"/>
<path d="M884 437.66L894 447.66L904 437.66" stroke="#0F172A" stroke-width="1.33333" stroke-linecap="round" stroke-linejoin="round"/>
</g>
</g>
<defs>
<filter id="filter0_d_41_402" x="737" y="401.66" width="219" height="84" filterUnits="userSpaceOnUse" color-interpolation-filters="sRGB">
<feFlood flood-opacity="0" result="BackgroundImageFix"/>
<feColorMatrix in="SourceAlpha" type="matrix" values="0 0 0 0 0 0 0 0 0 0 0 0 0 0 0 0 0 0 127 0" result="hardAlpha"/>
<feOffset dy="1"/>
<feGaussianBlur stdDeviation="1"/>
<feComposite in2="hardAlpha" operator="out"/>
<feColorMatrix type="matrix" values="0 0 0 0 0 0 0 0 0 0 0 0 0 0 0 0 0 0 0.1 0"/>
<feBlend mode="normal" in2="BackgroundImageFix" result="effect1_dropShadow_41_402"/>
<feBlend mode="normal" in="SourceGraphic" in2="effect1_dropShadow_41_402" result="shape"/>
</filter>
<linearGradient id="paint0_linear_41_402" x1="70" y1="271.5" x2="954" y2="271.5" gradientUnits="userSpaceOnUse">
<stop offset="0.5625" stop-color="#7FB1FF" stop-opacity="0.8"/>
</linearGradient>
<clipPath id="clip0_41_402">
<rect width="1024" height="627" rx="40" fill="white"/>
</clipPath>
<clipPath id="clip1_41_402">
<rect x="79.749" y="375.916" width="115.138" height="120.891" rx="57.5691" fill="white"/>
</clipPath>
<clipPath id="clip2_41_402">
<rect x="79.749" y="375.916" width="115.138" height="135.904" rx="57.5691" fill="white"/>
</clipPath>
</defs>
</svg>
