<svg width="744" height="627" viewBox="0 0 744 627" fill="none" xmlns="http://www.w3.org/2000/svg">
<g clip-path="url(#clip0_41_402)">
<rect y="30" width="744" height="567" rx="40" fill="white"/>
<rect x="50" y="68" width="644" height="541" rx="40" fill="white"/>
<path d="M90.52 175.46C87.12 175.46 84.16 174.84 81.64 173.6C79.16 172.36 77.2 170.64 75.76 168.44C74.32 166.24 73.48 163.68 73.24 160.76L79.9 160.34C80.18 162.34 80.76 164.04 81.64 165.44C82.52 166.8 83.7 167.84 85.18 168.56C86.7 169.24 88.52 169.58 90.64 169.58C92.48 169.58 94.04 169.36 95.32 168.92C96.64 168.44 97.64 167.74 98.32 166.82C99 165.9 99.34 164.78 99.34 163.46C99.34 162.26 99.04 161.2 98.44 160.28C97.88 159.32 96.78 158.46 95.14 157.7C93.54 156.9 91.18 156.12 88.06 155.36C84.66 154.52 81.94 153.6 79.9 152.6C77.86 151.6 76.38 150.36 75.46 148.88C74.58 147.36 74.14 145.5 74.14 143.3C74.14 140.86 74.72 138.72 75.88 136.88C77.08 135 78.78 133.54 80.98 132.5C83.18 131.46 85.82 130.94 88.9 130.94C92.14 130.94 94.9 131.54 97.18 132.74C99.5 133.94 101.32 135.58 102.64 137.66C104 139.74 104.84 142.12 105.16 144.8L98.5 145.16C98.3 143.52 97.8 142.08 97 140.84C96.2 139.56 95.12 138.58 93.76 137.9C92.4 137.18 90.74 136.82 88.78 136.82C86.3 136.82 84.34 137.4 82.9 138.56C81.5 139.68 80.8 141.18 80.8 143.06C80.8 144.26 81.08 145.28 81.64 146.12C82.24 146.92 83.28 147.62 84.76 148.22C86.28 148.82 88.42 149.46 91.18 150.14C94.86 150.98 97.78 152.02 99.94 153.26C102.14 154.46 103.7 155.88 104.62 157.52C105.54 159.16 106 161.02 106 163.1C106 165.62 105.34 167.82 104.02 169.7C102.74 171.54 100.94 172.96 98.62 173.96C96.3 174.96 93.6 175.46 90.52 175.46ZM112.879 174.5V131.9H119.239V149.78L118.459 149.66C118.819 147.86 119.479 146.4 120.439 145.28C121.399 144.12 122.579 143.26 123.979 142.7C125.379 142.14 126.919 141.86 128.599 141.86C130.919 141.86 132.879 142.38 134.479 143.42C136.079 144.42 137.279 145.84 138.079 147.68C138.919 149.52 139.339 151.62 139.339 153.98V174.5H132.979V155.66C132.979 152.78 132.479 150.66 131.479 149.3C130.519 147.9 128.999 147.2 126.919 147.2C124.599 147.2 122.739 147.94 121.339 149.42C119.939 150.86 119.239 152.98 119.239 155.78V174.5H112.879ZM156.624 175.22C153.304 175.22 150.644 174.46 148.644 172.94C146.684 171.42 145.704 169.28 145.704 166.52C145.704 163.76 146.524 161.62 148.164 160.1C149.844 158.54 152.424 157.42 155.904 156.74L166.884 154.64C166.884 152.16 166.304 150.32 165.144 149.12C163.984 147.88 162.264 147.26 159.984 147.26C157.944 147.26 156.344 147.72 155.184 148.64C154.024 149.52 153.224 150.84 152.784 152.6L146.244 152.18C146.844 148.98 148.324 146.46 150.684 144.62C153.084 142.78 156.184 141.86 159.984 141.86C164.304 141.86 167.584 143.02 169.824 145.34C172.104 147.62 173.244 150.84 173.244 155V167.42C173.244 168.18 173.364 168.72 173.604 169.04C173.884 169.32 174.324 169.46 174.924 169.46H176.064V174.5C175.864 174.54 175.544 174.58 175.104 174.62C174.664 174.66 174.204 174.68 173.724 174.68C172.364 174.68 171.184 174.46 170.184 174.02C169.224 173.58 168.504 172.86 168.024 171.86C167.544 170.82 167.304 169.44 167.304 167.72L167.964 168.02C167.644 169.42 166.944 170.66 165.864 171.74C164.824 172.82 163.484 173.68 161.844 174.32C160.244 174.92 158.504 175.22 156.624 175.22ZM157.644 170.18C159.564 170.18 161.204 169.82 162.564 169.1C163.924 168.34 164.984 167.3 165.744 165.98C166.504 164.66 166.884 163.16 166.884 161.48V159.44L157.524 161.24C155.604 161.6 154.244 162.18 153.444 162.98C152.684 163.74 152.304 164.72 152.304 165.92C152.304 167.28 152.764 168.34 153.684 169.1C154.644 169.82 155.964 170.18 157.644 170.18ZM181.434 174.5V142.58H187.254L187.494 151.04L186.954 150.86C187.394 147.98 188.274 145.88 189.594 144.56C190.954 143.24 192.774 142.58 195.054 142.58H198.114V148.28H195.054C193.454 148.28 192.114 148.54 191.034 149.06C189.954 149.58 189.134 150.38 188.574 151.46C188.054 152.54 187.794 153.94 187.794 155.66V174.5H181.434ZM215.785 175.22C212.665 175.22 209.965 174.54 207.685 173.18C205.445 171.82 203.705 169.88 202.465 167.36C201.265 164.84 200.665 161.9 200.665 158.54C200.665 155.18 201.265 152.26 202.465 149.78C203.705 147.26 205.445 145.32 207.685 143.96C209.925 142.56 212.565 141.86 215.605 141.86C218.485 141.86 221.025 142.54 223.225 143.9C225.425 145.22 227.125 147.14 228.325 149.66C229.565 152.18 230.185 155.22 230.185 158.78V160.4H207.265C207.425 163.52 208.245 165.86 209.725 167.42C211.245 168.98 213.285 169.76 215.845 169.76C217.725 169.76 219.285 169.32 220.525 168.44C221.765 167.56 222.625 166.38 223.105 164.9L229.705 165.32C228.865 168.28 227.205 170.68 224.725 172.52C222.285 174.32 219.305 175.22 215.785 175.22ZM207.265 155.6H223.465C223.265 152.76 222.445 150.66 221.005 149.3C219.605 147.94 217.805 147.26 215.605 147.26C213.325 147.26 211.445 147.98 209.965 149.42C208.525 150.82 207.625 152.88 207.265 155.6ZM252.465 174.5V131.9H269.445C272.485 131.9 275.105 132.42 277.305 133.46C279.505 134.5 281.205 135.98 282.405 137.9C283.605 139.82 284.205 142.1 284.205 144.74C284.205 146.66 283.765 148.38 282.885 149.9C282.045 151.42 280.905 152.64 279.465 153.56C278.065 154.44 276.565 154.94 274.965 155.06L274.665 154.52C277.345 154.52 279.425 155.14 280.905 156.38C282.385 157.58 283.245 159.48 283.485 162.08L284.625 174.5H278.085L277.065 162.92C276.945 161.2 276.365 159.94 275.325 159.14C274.285 158.3 272.585 157.88 270.225 157.88H258.945V174.5H252.465ZM258.945 151.94H269.565C272.005 151.94 273.925 151.34 275.325 150.14C276.765 148.9 277.485 147.16 277.485 144.92C277.485 142.64 276.765 140.9 275.325 139.7C273.885 138.46 271.785 137.84 269.025 137.84H258.945V151.94ZM304.906 175.22C301.786 175.22 299.086 174.54 296.806 173.18C294.566 171.82 292.826 169.88 291.586 167.36C290.386 164.84 289.786 161.9 289.786 158.54C289.786 155.18 290.386 152.26 291.586 149.78C292.826 147.26 294.566 145.32 296.806 143.96C299.046 142.56 301.686 141.86 304.726 141.86C307.606 141.86 310.146 142.54 312.346 143.9C314.546 145.22 316.246 147.14 317.446 149.66C318.686 152.18 319.306 155.22 319.306 158.78V160.4H296.386C296.546 163.52 297.366 165.86 298.846 167.42C300.366 168.98 302.406 169.76 304.966 169.76C306.846 169.76 308.406 169.32 309.646 168.44C310.886 167.56 311.746 166.38 312.226 164.9L318.826 165.32C317.986 168.28 316.326 170.68 313.846 172.52C311.406 174.32 308.426 175.22 304.906 175.22ZM296.386 155.6H312.586C312.386 152.76 311.566 150.66 310.126 149.3C308.726 147.94 306.926 147.26 304.726 147.26C302.446 147.26 300.566 147.98 299.086 149.42C297.646 150.82 296.746 152.88 296.386 155.6ZM325.75 183.5V142.58H331.75L331.93 149.42L331.21 149.06C332.01 146.7 333.33 144.92 335.17 143.72C337.01 142.48 339.13 141.86 341.53 141.86C344.65 141.86 347.21 142.64 349.21 144.2C351.25 145.72 352.75 147.74 353.71 150.26C354.71 152.78 355.21 155.54 355.21 158.54C355.21 161.54 354.71 164.3 353.71 166.82C352.75 169.34 351.25 171.38 349.21 172.94C347.21 174.46 344.65 175.22 341.53 175.22C339.93 175.22 338.43 174.94 337.03 174.38C335.63 173.82 334.43 173.04 333.43 172.04C332.47 171 331.79 169.78 331.39 168.38L332.11 167.66V183.5H325.75ZM340.39 169.7C342.95 169.7 344.95 168.72 346.39 166.76C347.87 164.8 348.61 162.06 348.61 158.54C348.61 155.02 347.87 152.28 346.39 150.32C344.95 148.36 342.95 147.38 340.39 147.38C338.71 147.38 337.25 147.8 336.01 148.64C334.77 149.44 333.81 150.68 333.13 152.36C332.45 154.04 332.11 156.1 332.11 158.54C332.11 160.98 332.43 163.04 333.07 164.72C333.75 166.4 334.71 167.66 335.95 168.5C337.23 169.3 338.71 169.7 340.39 169.7ZM374.808 175.22C371.768 175.22 369.108 174.54 366.828 173.18C364.548 171.82 362.788 169.88 361.548 167.36C360.308 164.84 359.688 161.9 359.688 158.54C359.688 155.14 360.308 152.2 361.548 149.72C362.788 147.24 364.548 145.32 366.828 143.96C369.108 142.56 371.768 141.86 374.808 141.86C377.848 141.86 380.508 142.56 382.788 143.96C385.068 145.32 386.828 147.24 388.068 149.72C389.308 152.2 389.928 155.14 389.928 158.54C389.928 161.9 389.308 164.84 388.068 167.36C386.828 169.88 385.068 171.82 382.788 173.18C380.508 174.54 377.848 175.22 374.808 175.22ZM374.808 169.7C377.528 169.7 379.628 168.72 381.108 166.76C382.588 164.76 383.328 162.02 383.328 158.54C383.328 155.06 382.588 152.34 381.108 150.38C379.628 148.38 377.528 147.38 374.808 147.38C372.128 147.38 370.028 148.38 368.508 150.38C367.028 152.34 366.288 155.06 366.288 158.54C366.288 162.02 367.028 164.76 368.508 166.76C370.028 168.72 372.128 169.7 374.808 169.7ZM396.355 174.5V142.58H402.175L402.415 151.04L401.875 150.86C402.315 147.98 403.195 145.88 404.515 144.56C405.875 143.24 407.695 142.58 409.975 142.58H413.035V148.28H409.975C408.375 148.28 407.035 148.54 405.955 149.06C404.875 149.58 404.055 150.38 403.495 151.46C402.975 152.54 402.715 153.94 402.715 155.66V174.5H396.355ZM429.572 174.5C426.532 174.5 424.292 173.8 422.852 172.4C421.412 171 420.692 168.82 420.692 165.86V135.08H427.052V165.38C427.052 166.86 427.372 167.88 428.012 168.44C428.652 169 429.632 169.28 430.952 169.28H435.512V174.5H429.572ZM415.832 147.8V142.58H435.512V147.8H415.832Z" fill="black"/>
<rect x="70.5" y="231" width="603" height="81" rx="9.5" stroke="url(#paint0_linear_41_402)"/>
<ellipse cx="138.244" cy="430.745" rx="68.2444" ry="68.2449" fill="#126DFB" fill-opacity="0.3" stroke="#5F9EFF" stroke-width="5"/>
<g clip-path="url(#clip1_41_402)">
<path d="M168.586 474.903C168.323 475.1 168.022 475.298 167.758 475.495C167.457 475.693 167.194 475.89 166.893 476.048C166.629 476.206 166.404 476.364 166.14 476.522C166.103 476.562 166.065 476.562 166.027 476.601C165.162 477.155 164.259 477.668 163.356 478.142C163.092 478.3 162.791 478.458 162.528 478.577C162.528 478.577 162.49 478.616 162.453 478.616L161.55 479.09C160.948 479.406 160.308 479.683 159.706 479.96C159.405 480.118 159.066 480.236 158.765 480.355C158.464 480.473 158.126 480.631 157.825 480.75C157.524 480.868 157.185 481.026 156.884 481.145H156.846C156.545 481.263 156.207 481.382 155.906 481.5C155.228 481.737 154.513 481.974 153.836 482.211C153.61 482.29 153.347 482.369 153.121 482.448C152.406 482.686 151.691 482.883 150.977 483.041C150.713 483.12 150.45 483.16 150.149 483.239C149.471 483.397 148.757 483.555 148.079 483.713C147.929 483.752 147.816 483.752 147.665 483.792C147.44 483.831 147.176 483.871 146.95 483.91C146.612 483.95 146.311 484.029 145.972 484.068C145.822 484.108 145.671 484.108 145.521 484.147C145.333 484.187 145.107 484.226 144.881 484.226C144.279 484.305 143.639 484.384 143.037 484.463C142.849 484.503 142.623 484.503 142.435 484.542H142.398C142.134 484.582 141.871 484.582 141.607 484.621C141.344 484.661 141.081 484.661 140.817 484.661C140.667 484.661 140.479 484.7 140.328 484.7C140.027 484.7 139.764 484.74 139.5 484.74C139.124 484.74 138.785 484.779 138.409 484.779H136.528C120.649 484.542 106.389 477.471 96.1919 466.251C96.1919 466.251 96.1919 466.211 96.1543 466.211C95.0255 465.144 96.0038 459.456 100.557 455.86C106.276 451.317 119.972 448.473 119.972 448.473C119.972 448.473 125.277 447.564 144.956 451.87C156.47 454.399 165.237 458.073 170.129 468.028C171.145 470.083 172.16 473.243 168.586 474.903Z" fill="white"/>
<path d="M145.069 451.436C152.293 452.977 160.007 454.636 165.952 459.653C167.946 461.352 169.263 463.841 170.354 466.251C170.881 467.436 171.408 468.661 171.822 469.964C172.047 470.834 172.386 471.821 172.198 472.848C172.16 473.125 171.935 473.481 171.746 473.678C170.881 474.587 169.94 475.14 169 475.851C163.469 479.881 157.11 482.725 150.525 484.226C135.85 487.585 119.972 484.977 107.066 476.878C102.776 474.152 98.8257 470.834 95.4393 466.922C95.063 466.448 95.063 465.658 95.063 465.145C95.1006 463.959 95.4016 462.814 95.7779 461.747C96.6809 459.298 97.8474 456.848 99.8416 455.149C101.271 454.122 102.814 453.253 104.394 452.542C109.361 450.33 114.591 448.789 119.972 448.157C120.423 448.117 120.499 448.789 120.047 448.868C114.892 449.974 109.775 451.633 104.996 453.885C103.266 454.794 101.422 455.584 100.03 457.006C98.7128 458.507 97.7721 460.364 97.0196 462.261C96.5304 463.406 96.1918 465.224 96.3423 466.132C98.7128 469.095 101.497 471.703 104.507 473.955C120.988 486.044 146.01 486.834 163.544 476.76C165.124 475.851 166.667 474.824 168.134 473.757C168.849 473.244 169.602 472.809 170.166 472.216C170.204 472.177 170.166 472.216 170.166 472.256C170.166 472.295 170.129 472.335 170.129 472.335C170.166 471.861 170.016 471.229 169.828 470.597C169.15 468.305 168.059 465.895 166.893 463.801C165.049 460.68 161.926 458.705 158.765 457.125C156.583 456.058 154.288 455.228 151.955 454.438C149.622 453.648 147.251 452.977 144.881 452.384C144.279 452.226 144.467 451.317 145.069 451.436Z" fill="black"/>
</g>
<g clip-path="url(#clip2_41_402)">
<path d="M181.078 499.397H85.9199C85.9199 499.397 91.5263 486.992 94.0097 472.849C95.7405 463.051 97.0198 457.323 101.874 454.162C105.298 451.95 112.635 449.658 115.796 448.473C117.94 447.683 118.392 448.354 119.935 447.92C119.935 448.117 119.972 448.275 119.972 448.473C119.972 448.473 124.036 461.155 134.609 465.658C143.226 469.333 148.343 466.883 149.133 462.814C149.622 460.207 148.079 455.94 147.289 454.557C146.838 454.162 146.537 453.569 146.386 452.977L146.085 451.673C146.8 451.515 147.477 451.318 148.155 451.08C148.38 451.001 148.569 450.922 148.794 450.843C153.121 452.029 162.378 455.861 166.479 459.811C168.097 461.392 171.935 469.293 174.418 480.75C177.278 493.748 181.078 499.397 181.078 499.397Z" fill="black"/>
<path d="M181.944 499.871C153.611 500.069 113.839 500.543 85.9576 500.424C85.2803 500.424 84.7911 499.634 85.0922 499.002C88.4409 491.259 91.0748 483.002 92.768 474.666C92.9562 473.599 93.3701 471.505 93.5582 470.438C94.4236 466.093 95.1009 461.786 97.3209 457.796C98.0734 456.493 99.0517 455.268 100.218 454.28C101.347 453.332 102.664 452.621 103.981 451.989C108.195 450.092 112.447 448.591 116.774 447.208C117.79 446.971 118.806 447.248 119.784 447.011C120.349 446.853 120.951 447.287 120.988 447.92L121.026 448.473L120.01 447.485C120.424 447.485 120.8 447.762 120.913 448.157C121.214 449.065 121.628 450.013 122.042 450.922C123.321 453.648 124.901 456.216 126.82 458.468C129.341 461.47 132.502 463.841 136.114 465.184C139.764 466.606 146.273 467.831 148.079 463.248C148.38 462.419 148.343 461.549 148.23 460.641C147.967 458.784 147.365 456.809 146.499 455.149L146.687 455.386C146.085 454.557 145.859 453.569 145.935 452.621V451.673C145.935 451.594 146.01 451.515 146.085 451.515C146.537 451.357 146.951 451.159 147.402 451.001C147.816 450.804 148.23 450.606 148.644 450.369C148.757 450.29 148.87 450.329 148.983 450.369C151.466 451.041 153.836 451.949 156.207 452.976C159.744 454.517 163.243 456.255 166.291 458.744C167.382 459.574 168.172 460.799 168.812 462.023C170.091 464.394 171.107 466.843 172.01 469.332C173.59 473.678 174.757 478.182 175.773 482.725C177.052 487.742 178.595 492.72 180.965 497.303L181.755 498.725L181.831 498.804V498.844C182.057 499.041 182.094 499.594 181.944 499.871ZM180.213 498.923C180.025 499.12 180.062 499.673 180.213 499.871V499.832L180.138 499.713C177.504 495.17 175.848 490.073 174.494 484.977C173.816 482.488 173.327 479.802 172.65 477.273C171.333 472.295 169.715 467.278 167.344 462.735C166.931 461.984 166.479 461.154 165.915 460.562C164.823 459.495 163.544 458.626 162.265 457.796C160.158 456.493 157.9 455.347 155.605 454.359C153.31 453.371 150.977 452.463 148.606 451.791L149.171 451.752C148.155 451.831 147.176 451.87 146.198 451.831L146.349 451.594C146.574 451.989 146.838 452.66 147.064 453.016C147.327 453.371 147.628 453.648 147.967 453.806C148.042 453.885 148.117 453.964 148.155 454.043C149.509 456.769 150.864 460.838 149.886 463.88C147.628 469.846 140.065 468.898 135.437 467.041C131.561 465.658 128.062 463.011 125.353 459.772C122.644 456.532 120.499 452.818 119.069 448.789L119.972 449.46C119.445 449.46 119.032 449.065 118.994 448.512L118.956 447.999L120.16 448.907C119.784 449.026 119.333 449.065 118.919 449.105C117.865 449.065 117.15 449.026 116.172 449.421C114.893 449.895 113.576 450.369 112.259 450.804C109.662 451.712 107.104 452.66 104.658 453.806C99.0893 456.137 97.4714 460.799 96.1921 466.606C95.59 469.293 95.1009 472.335 94.5741 475.061C92.8433 483.594 90.2094 491.851 86.7854 499.832L85.92 498.37C113.199 498.37 152.557 498.646 180.213 498.923Z" fill="black"/>
<path d="M131.373 469.806C118.392 463.683 113.35 452.739 114.328 449.776C114.328 449.776 114.328 449.737 114.366 449.697C115.043 448.236 116.134 447.051 117.489 446.221C118.241 445.747 119.069 445.312 119.746 445.075C130.019 442.389 143.639 446.932 148.23 451.08C149.886 453.174 151.579 455.268 152.218 460.799C153.121 468.779 144.806 476.167 131.373 469.806Z" fill="white"/>
<path d="M131.185 470.241C124.675 467.159 118.58 462.34 115.118 455.663C114.441 454.28 113.839 452.858 113.651 451.238C113.613 450.685 113.575 450.013 113.839 449.46C114.629 447.801 116.059 446.497 117.639 445.707C118.843 445.036 120.16 444.561 121.477 444.127C123.358 443.771 125.24 443.653 127.159 443.692C133.442 443.89 139.688 445.628 145.257 448.67C145.671 448.907 146.085 449.144 146.499 449.421C146.649 449.5 146.762 449.618 146.95 449.579C147.139 449.539 147.289 449.618 147.44 449.697C147.891 449.974 148.267 450.329 148.681 450.725C149.697 452.028 150.713 453.411 151.39 454.991C152.068 456.572 152.444 458.27 152.67 459.93C153.272 463.327 152.181 467.12 149.66 469.451C144.542 474.271 136.866 472.967 131.185 470.241ZM131.523 469.411C135.738 471.347 140.554 472.572 145.031 471.071C148.644 469.925 151.616 466.488 151.729 462.458C151.767 460.088 151.24 457.599 150.337 455.426C149.848 454.083 148.493 452.384 147.816 451.515C147.402 451.159 146.95 450.883 146.574 450.527L146.461 450.29C146.386 450.092 146.235 450.053 146.123 449.934C145.746 449.697 145.332 449.46 144.919 449.223C141.645 447.445 138.033 446.418 134.421 445.668C130.206 444.838 125.879 444.601 121.628 445.233C121.025 445.312 120.386 445.233 119.784 445.391C119.332 445.589 118.504 445.984 117.978 446.379C116.623 447.208 115.607 448.433 114.892 449.895L114.855 449.934C114.855 449.974 114.817 450.053 114.817 450.092C114.629 451.752 115.381 453.451 116.096 454.991C116.736 456.255 117.489 457.48 118.354 458.665C121.816 463.367 126.444 467.001 131.523 469.411Z" fill="black"/>
</g>
<path d="M148.606 461.945C147.816 466.014 142.699 468.463 134.082 464.789C125.127 460.997 121.251 451.949 120.273 449.263C125.578 438.833 121.891 431.603 121.891 431.603C134.12 430.497 144.806 445.51 144.806 445.51L146.461 452.937C146.612 453.569 146.913 454.122 147.364 454.517C148.154 455.979 149.095 459.337 148.606 461.945Z" fill="white"/>
<path d="M120.085 449.381C120.8 448.236 121.251 446.892 121.552 445.589C122.117 442.863 122.305 440.097 122.343 437.332V436.305C122.23 435.277 121.891 434.211 121.515 433.263C121.026 431.998 122.794 431.208 123.359 432.472C123.434 432.63 123.434 432.907 123.434 433.065C123.547 438.438 123.772 445.352 120.536 449.816C120.311 450.053 119.859 449.697 120.085 449.381ZM145.219 445.431C145.784 445.786 145.972 446.26 146.047 446.734C146.273 447.683 146.198 448.71 146.423 449.697C146.612 450.646 147.176 451.554 147.326 452.542C147.515 453.569 148.079 455.742 148.305 456.809C148.38 457.046 148.229 457.322 147.966 457.362C147.816 457.401 147.703 457.362 147.59 457.283C147.101 456.848 146.875 456.414 146.574 455.86C146.085 454.912 145.746 454.043 145.445 452.976C145.182 452.028 145.295 451.001 145.069 450.013C144.881 449.065 144.354 448.157 144.166 447.169C144.053 446.695 144.015 446.181 144.354 445.589C144.58 445.352 144.956 445.273 145.219 445.431Z" fill="black"/>
<path d="M147.929 455.86C140.742 455.465 134.872 453.095 129.153 442.389C133.969 446.853 139.651 448.552 145.633 449.342L146.424 452.976C146.574 453.609 147.477 455.465 147.929 455.86Z" fill="black"/>
<path d="M147.628 454.399C148.907 456.927 149.66 460.088 148.87 462.893C148.268 464.868 146.537 466.33 144.655 466.883C140.291 468.108 135.249 466.172 131.373 463.999C126.595 461.194 123.058 456.493 120.8 451.357C120.65 450.962 121.176 450.646 121.402 451.041C122.192 452.7 123.095 454.32 124.111 455.782C125.127 457.283 126.294 458.666 127.611 459.89C131.448 463.525 136.641 465.777 141.833 465.777C147.176 465.619 149.208 462.656 147.967 457.204C147.778 456.335 147.477 455.426 147.064 454.675C146.838 454.359 147.402 454.004 147.628 454.399Z" fill="black"/>
<path d="M162.189 406.951C162.866 410.27 160.609 413.825 160.609 422.675C160.609 431.722 159.029 441.559 152.519 448.394C146.913 454.28 140.478 454.043 132.916 447.841C131.862 446.971 128.175 444.048 127.234 443.06C126.143 441.915 125.541 441.085 125.014 440.216C124.562 439.426 124.675 434.843 124.036 433.776C122.38 430.892 122.041 434.013 119.897 431.485C116.924 428.087 113.35 421.252 115.118 409.163C117.978 389.568 132.765 387.277 143.714 389.449C154.739 391.662 160.383 398.22 162.189 406.951Z" fill="white"/>
<path d="M121.778 435.001C120.913 433.5 119.822 432.157 118.806 430.774C117.79 429.312 116.962 427.771 116.285 426.112C112.447 416.354 113.011 403.593 119.822 395.376C124.487 389.766 131.862 387.909 138.635 388.304C145.408 388.739 152.444 390.556 157.448 395.692C160.346 398.655 162.189 402.605 163.017 406.714C163.281 408.018 163.092 409.44 162.791 410.665C161.926 414.102 161.098 417.381 161.023 420.937C161.061 426.231 160.91 431.643 159.443 436.739C158.389 440.137 157.147 443.534 155.191 446.498C153.159 449.5 150.111 451.91 146.612 452.621C139.576 454.122 132.991 449.461 128.325 444.404C128.137 444.167 128.4 443.89 128.626 444.048C131.298 446.181 134.044 448.157 137.017 449.5C145.596 453.648 152.707 449.816 156.47 441.125C159.631 434.803 160.534 427.969 160.27 420.897C160.27 419.119 160.346 417.341 160.571 415.564C160.797 412.996 161.625 410.428 161.587 407.899C160.948 403.791 159.142 399.84 156.432 396.798C149.998 389.647 137.657 387.553 129.002 390.793C118.806 394.586 116.059 405.371 115.494 415.682C115.118 421.845 116.849 427.89 121.289 432.117L123.057 434.053C123.659 434.922 122.38 435.949 121.778 435.001Z" fill="black"/>
<path d="M126.218 422.438C126.218 422.438 125.052 416.512 119.558 417.223C114.817 417.855 113.161 429.786 123.923 433.105" fill="white"/>
<path d="M123.434 427.929C122.569 427.416 121.967 426.546 121.929 425.48C121.967 424.69 122.079 423.781 121.891 422.991C121.778 422.24 121.026 422.043 120.461 422.082C119.859 422.201 119.483 422.991 119.37 423.623C119.37 423.662 119.333 423.781 119.333 423.82C119.295 424.018 118.994 424.018 118.919 423.82C118.43 422.28 119.521 420.581 121.101 420.778C123.321 420.936 123.622 423.386 123.208 425.243C122.982 426.033 123.283 426.744 123.697 427.416L123.773 427.534C123.961 427.771 123.66 428.087 123.434 427.929ZM153.535 418.25C154.1 421.055 155.153 423.662 156.47 426.112C157.637 429.114 154.627 431.959 151.955 431.84C151.654 431.84 151.616 431.406 151.88 431.327C153.573 430.774 155.116 429.588 155.379 427.771C155.492 427.218 155.342 426.744 155.078 426.27C153.836 423.82 153.084 421.015 153.272 418.25C153.272 418.052 153.535 418.052 153.535 418.25Z" fill="black"/>
<path d="M126.03 422.477C125.165 420.146 123.283 417.934 120.763 417.974C120.537 417.934 120.16 418.013 119.935 418.013C119.295 418.053 118.768 418.29 118.279 418.764C115.871 421.292 116.285 425.756 118.242 428.561C118.919 429.549 119.784 430.418 120.763 431.129C121.741 431.84 122.832 432.394 123.998 432.868C124.262 432.947 124.149 433.381 123.886 433.342C121.365 432.789 118.956 431.485 117.301 429.312C114.742 426.072 114.215 420.66 117.263 417.499C117.94 416.867 118.881 416.393 119.822 416.393C120.123 416.393 120.574 416.314 120.875 416.393C122.456 416.472 123.961 417.302 124.939 418.606C125.804 419.712 126.294 421.055 126.444 422.398C126.444 422.635 126.106 422.714 126.03 422.477Z" fill="black"/>
<path d="M167.043 409.598C165.99 413.035 163.469 415.919 161.851 417.855C162.227 415.998 161.888 414.892 161.963 413.588C162.076 411.81 162.678 409.835 162.565 409.045C162.49 408.334 162.34 407.662 162.189 406.951C162.001 406.082 161.775 405.252 161.512 404.423C155.605 410.467 145.483 404.502 145.483 404.502C145.483 404.502 143.338 406.358 139.575 405.924C135.549 405.489 134.458 402.882 134.458 402.882C133.367 410.862 126.18 407.82 127.497 415.761C127.874 417.934 127.874 420.028 126.105 422.201C125.804 421.095 124.337 416.591 119.52 417.223C114.968 417.815 113.237 428.877 122.643 432.67C122.531 436.344 122.907 441.322 122.531 440.018C119.897 431.485 114.629 432.828 112.146 426.388C110.979 423.307 111.167 420.581 111.769 418.566C112.371 416.63 112.334 414.536 111.732 412.601C111.054 410.349 110.528 406.951 111.769 402.842C113.876 395.81 118.392 394.19 119.558 393.361C120.724 392.531 120.16 384.946 128.325 382.575C134.835 380.679 139.726 384.669 141.156 384.393C142.586 384.116 152.594 377.202 160.308 383.721C167.758 390.042 164.974 397.509 164.974 397.509C164.974 397.509 169.602 401.262 167.043 409.598Z" fill="black"/>
<path d="M142.812 420.146C140.78 419.988 138.898 419.08 137.318 417.736C137.017 417.499 137.356 417.025 137.657 417.262C138.823 418.053 140.103 418.606 141.495 418.843C141.946 418.922 142.435 418.961 142.849 418.961C143.602 418.961 143.602 420.186 142.812 420.146ZM153.874 419.593C155.04 419.435 156.395 419.238 157.298 418.369C157.373 418.25 157.561 418.25 157.636 418.369C157.975 418.724 157.109 419.317 156.884 419.514C156.018 420.107 155.04 420.502 154.062 420.779C153.761 420.858 153.46 420.66 153.384 420.344C153.272 419.988 153.535 419.633 153.874 419.593ZM144.618 416.512C145.333 416.946 146.236 416.354 146.273 415.445C146.273 414.971 146.198 414.457 145.897 414.023C144.994 412.759 140.592 410.823 137.544 411.652C134.91 412.364 141.344 414.536 144.618 416.512ZM156.169 416.986C155.642 417.42 154.777 416.907 154.664 416.077C154.589 415.643 154.626 415.169 154.814 414.773C155.416 413.588 158.201 411.968 160.458 412.759C162.415 413.509 158.69 415.05 156.169 416.986Z" fill="black"/>
<path d="M138.56 418.21C138.259 418.487 138.07 418.922 138.033 419.356L137.995 420.462C137.958 421.411 138.635 422.201 139.5 422.24C140.403 422.28 141.156 421.569 141.193 420.66L141.231 419.554V419.435C140.215 419.356 139.387 418.922 138.56 418.21ZM153.987 420.107V420.186L153.949 421.213C153.911 422.082 154.551 422.833 155.379 422.872C156.207 422.912 156.921 422.24 156.959 421.371L156.997 420.344C157.034 419.949 156.884 419.593 156.696 419.317C155.868 419.83 154.927 419.949 153.987 420.107Z" fill="black"/>
<path d="M149.81 435.633C149.848 436.265 149.396 437.371 148.569 438.162C144.317 435.436 142.398 436.858 142.398 436.858C140.893 434.448 141.231 431.169 144.881 433.658C147.402 435.396 148.983 435.673 149.81 435.633Z" fill="black"/>
<path d="M148.531 438.201C147.628 439.031 146.273 439.544 144.429 438.754C143.564 438.398 142.887 437.687 142.36 436.897C142.397 436.897 144.279 435.475 148.531 438.201Z" fill="white"/>
<path d="M150.525 435.514C150.525 435.514 148.945 436.423 144.881 433.697C140.027 430.418 141.005 437.292 144.429 438.754C148.004 440.295 149.848 436.937 149.81 435.672" stroke="black" stroke-width="3" stroke-miterlimit="10" stroke-linecap="round" stroke-linejoin="round"/>
<path d="M142.397 436.897C142.397 436.897 144.316 435.475 148.568 438.201" stroke="black" stroke-width="3" stroke-miterlimit="10" stroke-linecap="round" stroke-linejoin="round"/>
<g filter="url(#filter0_d_41_402)">
<mask id="path-35-inside-1_41_402" fill="white">
<path d="M459 399.66C459 395.241 462.582 391.66 467 391.66H666C670.418 391.66 674 395.241 674 399.66V463.66C674 468.078 670.418 471.66 666 471.66H467C462.582 471.66 459 468.078 459 463.66V399.66Z"/>
</mask>
<path d="M459 399.66C459 395.241 462.582 391.66 467 391.66H666C670.418 391.66 674 395.241 674 399.66V463.66C674 468.078 670.418 471.66 666 471.66H467C462.582 471.66 459 468.078 459 463.66V399.66Z" fill="white" shape-rendering="crispEdges"/>
<path d="M467 391.66V392.66H666V391.66V390.66H467V391.66ZM674 399.66H673V463.66H674H675V399.66H674ZM666 471.66V470.66H467V471.66V472.66H666V471.66ZM459 463.66H460V399.66H459H458V463.66H459ZM467 471.66V470.66C463.134 470.66 460 467.526 460 463.66H459H458C458 468.63 462.029 472.66 467 472.66V471.66ZM674 463.66H673C673 467.526 669.866 470.66 666 470.66V471.66V472.66C670.971 472.66 675 468.63 675 463.66H674ZM666 391.66V392.66C669.866 392.66 673 395.794 673 399.66H674H675C675 394.689 670.971 390.66 666 390.66V391.66ZM467 391.66V390.66C462.029 390.66 458 394.689 458 399.66H459H460C460 395.794 463.134 392.66 467 392.66V391.66Z" fill="#8C8C8C" mask="url(#path-35-inside-1_41_402)"/>
<path d="M501.397 442.66V420.841H515.076V423.675H504.689V430.323H514.362V433.146H504.689V439.826H515.204V442.66H501.397ZM525.343 442.979C524.022 442.979 522.843 442.642 521.806 441.967C520.776 441.285 519.967 440.316 519.377 439.059C518.795 437.795 518.504 436.278 518.504 434.51C518.504 432.741 518.798 431.229 519.388 429.971C519.985 428.714 520.801 427.752 521.838 427.084C522.875 426.417 524.051 426.083 525.365 426.083C526.38 426.083 527.197 426.253 527.815 426.594C528.44 426.928 528.923 427.319 529.264 427.766C529.612 428.214 529.882 428.608 530.073 428.949H530.265V420.841H533.45V442.66H530.34V440.114H530.073C529.882 440.462 529.605 440.859 529.242 441.307C528.887 441.754 528.397 442.145 527.772 442.479C527.147 442.812 526.338 442.979 525.343 442.979ZM526.046 440.263C526.963 440.263 527.737 440.021 528.369 439.538C529.008 439.048 529.491 438.37 529.818 437.503C530.151 436.637 530.318 435.628 530.318 434.478C530.318 433.341 530.155 432.347 529.828 431.495C529.502 430.643 529.022 429.979 528.39 429.503C527.758 429.027 526.977 428.789 526.046 428.789C525.088 428.789 524.289 429.038 523.649 429.535C523.01 430.032 522.527 430.71 522.2 431.569C521.881 432.429 521.721 433.398 521.721 434.478C521.721 435.572 521.884 436.555 522.211 437.429C522.538 438.302 523.021 438.995 523.66 439.506C524.306 440.011 525.102 440.263 526.046 440.263ZM537.997 442.66V426.296H541.182V442.66H537.997ZM539.605 423.771C539.051 423.771 538.576 423.587 538.178 423.217C537.787 422.841 537.592 422.393 537.592 421.875C537.592 421.349 537.787 420.902 538.178 420.533C538.576 420.156 539.051 419.968 539.605 419.968C540.159 419.968 540.632 420.156 541.022 420.533C541.42 420.902 541.619 421.349 541.619 421.875C541.619 422.393 541.42 422.841 541.022 423.217C540.632 423.587 540.159 423.771 539.605 423.771ZM553.106 426.296V428.853H544.168V426.296H553.106ZM546.565 422.376H549.75V437.855C549.75 438.473 549.843 438.938 550.027 439.251C550.212 439.556 550.45 439.765 550.741 439.879C551.039 439.986 551.362 440.039 551.71 440.039C551.966 440.039 552.19 440.021 552.382 439.986C552.573 439.95 552.722 439.922 552.829 439.9L553.404 442.532C553.22 442.603 552.957 442.674 552.616 442.745C552.275 442.823 551.849 442.866 551.338 442.873C550.499 442.887 549.718 442.738 548.994 442.425C548.269 442.113 547.683 441.63 547.236 440.976C546.789 440.323 546.565 439.503 546.565 438.515V422.376ZM563.347 442.99C561.813 442.99 560.474 442.638 559.33 441.935C558.187 441.232 557.299 440.248 556.667 438.984C556.035 437.72 555.719 436.243 555.719 434.552C555.719 432.855 556.035 431.371 556.667 430.099C557.299 428.828 558.187 427.841 559.33 427.138C560.474 426.435 561.813 426.083 563.347 426.083C564.881 426.083 566.219 426.435 567.363 427.138C568.506 427.841 569.394 428.828 570.026 430.099C570.658 431.371 570.974 432.855 570.974 434.552C570.974 436.243 570.658 437.72 570.026 438.984C569.394 440.248 568.506 441.232 567.363 441.935C566.219 442.638 564.881 442.99 563.347 442.99ZM563.357 440.316C564.352 440.316 565.175 440.053 565.829 439.528C566.482 439.002 566.965 438.302 567.278 437.429C567.597 436.555 567.757 435.593 567.757 434.542C567.757 433.498 567.597 432.539 567.278 431.665C566.965 430.785 566.482 430.078 565.829 429.545C565.175 429.013 564.352 428.746 563.357 428.746C562.356 428.746 561.525 429.013 560.864 429.545C560.211 430.078 559.724 430.785 559.405 431.665C559.092 432.539 558.936 433.498 558.936 434.542C558.936 435.593 559.092 436.555 559.405 437.429C559.724 438.302 560.211 439.002 560.864 439.528C561.525 440.053 562.356 440.316 563.357 440.316ZM574.53 442.66V426.296H577.609V428.895H577.779C578.078 428.015 578.603 427.322 579.356 426.818C580.116 426.307 580.975 426.051 581.934 426.051C582.133 426.051 582.367 426.058 582.637 426.072C582.914 426.087 583.131 426.104 583.287 426.126V429.172C583.159 429.137 582.932 429.098 582.605 429.055C582.279 429.006 581.952 428.981 581.625 428.981C580.872 428.981 580.201 429.14 579.612 429.46C579.029 429.773 578.568 430.209 578.227 430.77C577.886 431.324 577.715 431.957 577.715 432.667V442.66H574.53Z" fill="#0A0A0A"/>
<path d="M604 426.66L614 436.66L624 426.66" stroke="#0F172A" stroke-width="1.33333" stroke-linecap="round" stroke-linejoin="round"/>
</g>
</g>
<defs>
<filter id="filter0_d_41_402" x="457" y="390.66" width="219" height="84" filterUnits="userSpaceOnUse" color-interpolation-filters="sRGB">
<feFlood flood-opacity="0" result="BackgroundImageFix"/>
<feColorMatrix in="SourceAlpha" type="matrix" values="0 0 0 0 0 0 0 0 0 0 0 0 0 0 0 0 0 0 127 0" result="hardAlpha"/>
<feOffset dy="1"/>
<feGaussianBlur stdDeviation="1"/>
<feComposite in2="hardAlpha" operator="out"/>
<feColorMatrix type="matrix" values="0 0 0 0 0 0 0 0 0 0 0 0 0 0 0 0 0 0 0.1 0"/>
<feBlend mode="normal" in2="BackgroundImageFix" result="effect1_dropShadow_41_402"/>
<feBlend mode="normal" in="SourceGraphic" in2="effect1_dropShadow_41_402" result="shape"/>
</filter>
<linearGradient id="paint0_linear_41_402" x1="70" y1="271.5" x2="674" y2="271.5" gradientUnits="userSpaceOnUse">
<stop offset="0.5625" stop-color="#7FB1FF" stop-opacity="0.8"/>
</linearGradient>
<clipPath id="clip0_41_402">
<rect y="30" width="744" height="567" rx="40" fill="white"/>
</clipPath>
<clipPath id="clip1_41_402">
<rect x="79.749" y="364.916" width="115.138" height="120.891" rx="57.5691" fill="white"/>
</clipPath>
<clipPath id="clip2_41_402">
<rect x="79.749" y="364.916" width="115.138" height="135.904" rx="57.5691" fill="white"/>
</clipPath>
</defs>
</svg>
