<svg width="1028" height="606" viewBox="0 0 1028 606" fill="none" xmlns="http://www.w3.org/2000/svg">
<rect width="1027.05" height="605.86" rx="40" fill="white"/>
<rect x="102.854" y="78" width="583.088" height="300.972" rx="40" transform="rotate(15.9792 102.854 78)" fill="#126DFB"/>
<rect x="171.678" y="53.552" width="86.0545" height="323.421" rx="30" transform="rotate(15.9792 171.678 53.552)" fill="white"/>
<rect x="170.992" y="52.3154" width="88.0545" height="325.421" rx="31" transform="rotate(15.9792 170.992 52.3154)" stroke="black" stroke-opacity="0.2" stroke-width="2"/>
<rect x="314.993" y="10.9683" width="86.0545" height="403.813" rx="30" transform="rotate(15.9792 314.993 10.9683)" fill="white"/>
<rect x="314.307" y="9.73161" width="88.0545" height="405.813" rx="31" transform="rotate(15.9792 314.307 9.73161)" stroke="black" stroke-opacity="0.2" stroke-width="2"/>
<rect x="407.729" y="145.016" width="86.0545" height="300.474" rx="30" transform="rotate(15.9792 407.729 145.016)" fill="#10141C"/>
<rect x="510.356" y="244.522" width="86.0545" height="233.064" rx="30" transform="rotate(15.9792 510.356 244.522)" fill="#10141C"/>
<g clip-path="url(#clip0_39_347)">
<rect x="743.601" y="125.199" width="274.039" height="291.275" rx="40" transform="rotate(15.98 743.601 125.199)" fill="#126DFB"/>
<path fill-rule="evenodd" clip-rule="evenodd" d="M863.312 202.635C870.809 204.781 875.146 212.597 873 220.093C870.854 227.59 863.037 231.927 855.541 229.781C819.221 219.383 780.766 237.118 764.876 271.446L764.402 272.492C761.23 279.615 752.885 282.819 745.762 279.648C738.638 276.476 735.434 268.131 738.606 261.008C759.909 213.155 813.081 188.254 863.312 202.635Z" fill="#051391"/>
<path fill-rule="evenodd" clip-rule="evenodd" d="M850.442 213.089C852.91 205.693 860.907 201.698 868.304 204.167C908.049 217.432 936.144 253.058 939.529 294.711C943.048 338.019 919.151 378.847 879.61 397.117C867.831 402.559 855.234 405.733 842.408 406.556C812.808 408.457 783.59 397.774 762.169 376.84C730.989 346.368 722.042 299.886 739.757 260.246C742.939 253.128 751.289 249.936 758.408 253.117C765.526 256.299 768.718 264.649 765.537 271.768C752.654 300.593 759.166 334.423 781.905 356.646C797.568 371.953 818.943 379.768 840.599 378.377C849.968 377.776 859.161 375.46 867.766 371.484C896.568 358.176 913.943 328.49 911.384 296.998C908.943 266.956 888.817 241.165 860.233 231.247L859.364 230.951C851.968 228.483 847.973 220.486 850.442 213.089Z" fill="white"/>
<path d="M782.974 306.235L805.677 281.707L805.745 281.468L788.863 276.635L790.593 270.592L815.122 277.614L813.368 283.742L790.605 308.42L782.974 306.235ZM822.709 318.128C820.914 317.601 819.265 316.803 817.761 315.732C816.269 314.665 815.054 313.277 814.115 311.567C813.176 309.858 812.634 307.794 812.489 305.376C812.355 302.962 812.746 300.156 813.662 296.958C814.513 294.025 815.6 291.498 816.921 289.377C818.258 287.248 819.777 285.552 821.48 284.292C823.194 283.034 825.043 282.233 827.025 281.89C829.01 281.535 831.084 281.667 833.247 282.286C835.579 282.954 837.509 283.998 839.035 285.42C840.564 286.831 841.648 288.465 842.286 290.322C842.935 292.182 843.098 294.107 842.776 296.095L835.487 294.008C835.551 292.709 835.227 291.582 834.515 290.627C833.804 289.673 832.776 289.003 831.434 288.619C829.158 287.967 827.144 288.462 825.394 290.103C823.655 291.748 822.287 294.268 821.29 297.664L821.529 297.733C822.349 296.847 823.307 296.167 824.403 295.693C825.514 295.21 826.694 294.939 827.943 294.878C829.206 294.808 830.475 294.956 831.75 295.321C833.821 295.914 835.524 296.931 836.86 298.372C838.199 299.802 839.092 301.499 839.54 303.461C839.988 305.424 839.899 307.498 839.273 309.683C838.596 312.05 837.441 313.997 835.809 315.525C834.189 317.056 832.245 318.063 829.976 318.546C827.723 319.021 825.3 318.882 822.709 318.128ZM824.336 312.314C825.474 312.64 826.571 312.658 827.626 312.369C828.681 312.081 829.599 311.543 830.378 310.756C831.157 309.97 831.713 308.996 832.045 307.835C832.378 306.675 832.42 305.56 832.172 304.492C831.935 303.426 831.451 302.494 830.719 301.693C829.988 300.893 829.053 300.33 827.915 300.004C827.062 299.76 826.225 299.693 825.406 299.803C824.598 299.916 823.839 300.179 823.13 300.592C822.432 301.008 821.822 301.547 821.3 302.21C820.781 302.862 820.401 303.609 820.16 304.451C819.837 305.578 819.798 306.681 820.043 307.761C820.3 308.844 820.792 309.791 821.52 310.603C822.259 311.418 823.198 311.988 824.336 312.314ZM862.173 321.816L862.701 319.973C863.102 318.573 863.766 317.372 864.693 316.369C865.635 315.358 866.776 314.663 868.116 314.283C869.471 313.895 870.973 313.938 872.623 314.41C874.296 314.889 875.601 315.644 876.537 316.675C877.484 317.71 878.078 318.902 878.32 320.252C878.576 321.593 878.502 322.97 878.098 324.381L877.571 326.224C877.17 327.624 876.504 328.831 875.574 329.845C874.646 330.848 873.507 331.537 872.156 331.914C870.801 332.302 869.299 332.26 867.648 331.787C865.976 331.308 864.673 330.547 863.74 329.505C862.804 328.473 862.208 327.287 861.952 325.945C861.699 324.592 861.773 323.216 862.173 321.816ZM867.669 321.395L867.141 323.238C866.909 324.046 866.885 324.864 867.066 325.692C867.259 326.523 867.874 327.087 868.909 327.383C869.945 327.68 870.751 327.529 871.329 326.931C871.918 326.336 872.331 325.623 872.569 324.792L873.097 322.949C873.335 322.118 873.374 321.292 873.215 320.471C873.056 319.65 872.442 319.086 871.372 318.78C870.348 318.487 869.534 318.642 868.931 319.244C868.327 319.847 867.906 320.564 867.669 321.395ZM849.96 296.674L850.488 294.831C850.892 293.42 851.563 292.214 852.502 291.215C853.444 290.204 854.585 289.509 855.925 289.129C857.276 288.753 858.766 288.797 860.393 289.263C862.077 289.745 863.387 290.502 864.323 291.533C865.259 292.565 865.854 293.757 866.107 295.11C866.363 296.451 866.289 297.828 865.885 299.239L865.357 301.082C864.953 302.493 864.282 303.699 863.343 304.698C862.416 305.701 861.277 306.391 859.925 306.767C858.589 307.135 857.09 307.082 855.428 306.606C853.767 306.13 852.462 305.375 851.515 304.341C850.582 303.298 849.986 302.112 849.726 300.781C849.482 299.443 849.56 298.074 849.96 296.674ZM855.49 296.263L854.962 298.106C854.724 298.937 854.698 299.76 854.882 300.577C855.079 301.396 855.678 301.95 856.679 302.236C857.726 302.536 858.538 302.387 859.116 301.789C859.705 301.194 860.118 300.481 860.356 299.65L860.884 297.807C861.121 296.976 861.161 296.15 861.002 295.329C860.843 294.508 860.223 293.942 859.142 293.633C858.129 293.343 857.325 293.507 856.73 294.124C856.134 294.742 855.721 295.455 855.49 296.263ZM844.61 323.88L878.652 295.802L883.125 297.082L849.082 325.161L844.61 323.88Z" fill="white"/>
</g>
<defs>
<clipPath id="clip0_39_347">
<rect x="743.601" y="125.199" width="274.039" height="291.275" rx="40" transform="rotate(15.98 743.601 125.199)" fill="white"/>
</clipPath>
</defs>
</svg>
