<svg width="744" height="627" viewBox="0 0 744 627" fill="none" xmlns="http://www.w3.org/2000/svg">
<rect x="1" y="30" width="742" height="567" rx="30" fill="white"/>
<g clip-path="url(#clip0_39_347)">
<rect x="228.179" y="34.5359" width="430.126" height="457.18" rx="40" transform="rotate(15.98 228.179 34.5359)" fill="#126DFB"/>
<path fill-rule="evenodd" clip-rule="evenodd" d="M416.076 156.078C427.842 159.447 434.65 171.715 431.282 183.481C427.913 195.247 415.644 202.055 403.878 198.687C346.872 182.367 286.512 210.204 261.573 264.084L260.828 265.725C255.85 276.905 242.752 281.934 231.571 276.957C220.39 271.979 215.361 258.88 220.339 247.7C253.776 172.591 337.234 133.507 416.076 156.078Z" fill="#051391"/>
<path fill-rule="evenodd" clip-rule="evenodd" d="M395.875 172.487C399.75 160.878 412.302 154.608 423.911 158.483C486.295 179.303 530.391 235.222 535.704 300.6C541.228 368.575 503.72 432.658 441.657 461.334C423.169 469.876 403.398 474.857 383.266 476.15C336.806 479.133 290.945 462.366 257.323 429.508C208.384 381.68 194.341 308.721 222.146 246.504C227.14 235.331 240.246 230.321 251.42 235.315C262.593 240.308 267.603 253.415 262.609 264.588C242.389 309.832 252.61 362.931 288.3 397.811C312.885 421.837 346.435 434.104 380.426 431.921C395.131 430.977 409.561 427.341 423.068 421.101C468.274 400.213 495.546 353.618 491.53 304.19C487.698 257.036 456.109 216.555 411.243 200.987L409.88 200.523C398.271 196.649 392.001 184.097 395.875 172.487Z" fill="white"/>
<path d="M319.08 316.539L341.782 292.011L341.85 291.772L324.968 286.939L326.698 280.896L351.228 287.918L349.473 294.046L326.71 318.724L319.08 316.539ZM358.814 328.432C357.019 327.906 355.37 327.107 353.867 326.037C352.375 324.969 351.159 323.581 350.22 321.871C349.281 320.162 348.739 318.098 348.594 315.681C348.461 313.266 348.851 310.46 349.767 307.262C350.619 304.329 351.706 301.802 353.027 299.681C354.363 297.552 355.882 295.857 357.585 294.596C359.3 293.338 361.148 292.538 363.13 292.194C365.116 291.839 367.19 291.971 369.352 292.59C371.685 293.258 373.614 294.303 375.14 295.725C376.67 297.135 377.753 298.769 378.391 300.626C379.041 302.486 379.204 304.411 378.881 306.399L371.592 304.313C371.656 303.013 371.332 301.887 370.621 300.932C369.909 299.977 368.882 299.307 367.539 298.923C365.263 298.271 363.25 298.766 361.499 300.407C359.76 302.052 358.392 304.572 357.396 307.968L357.635 308.037C358.454 307.151 359.413 306.471 360.509 305.997C361.619 305.515 362.799 305.243 364.048 305.182C365.311 305.113 366.58 305.26 367.855 305.625C369.926 306.218 371.63 307.235 372.965 308.677C374.304 310.106 375.198 311.803 375.645 313.766C376.093 315.728 376.004 317.802 375.379 319.987C374.701 322.354 373.547 324.301 371.915 325.829C370.295 327.36 368.35 328.367 366.082 328.85C363.828 329.325 361.405 329.186 358.814 328.432ZM360.441 322.618C361.579 322.944 362.676 322.962 363.731 322.674C364.787 322.385 365.704 321.847 366.483 321.06C367.263 320.274 367.818 319.3 368.151 318.14C368.483 316.979 368.525 315.864 368.277 314.796C368.04 313.731 367.556 312.798 366.825 311.998C366.094 311.197 365.159 310.634 364.021 310.308C363.167 310.064 362.331 309.997 361.511 310.107C360.703 310.22 359.945 310.483 359.235 310.896C358.538 311.312 357.928 311.851 357.405 312.515C356.886 313.166 356.506 313.913 356.265 314.755C355.943 315.882 355.904 316.985 356.149 318.065C356.405 319.148 356.897 320.095 357.625 320.907C358.365 321.722 359.303 322.292 360.441 322.618ZM398.279 332.121L398.807 330.277C399.207 328.877 399.871 327.676 400.799 326.673C401.741 325.663 402.882 324.967 404.222 324.587C405.576 324.2 407.079 324.242 408.729 324.714C410.402 325.193 411.706 325.948 412.642 326.98C413.589 328.014 414.184 329.206 414.425 330.556C414.682 331.898 414.608 333.274 414.204 334.685L413.676 336.529C413.275 337.928 412.61 339.135 411.679 340.149C410.752 341.152 409.612 341.842 408.261 342.218C406.906 342.606 405.404 342.564 403.754 342.091C402.081 341.613 400.778 340.852 399.846 339.809C398.909 338.778 398.313 337.591 398.057 336.25C397.804 334.897 397.878 333.52 398.279 332.121ZM403.774 331.699L403.246 333.543C403.015 334.351 402.99 335.169 403.172 335.996C403.365 336.827 403.979 337.391 405.015 337.687C406.05 337.984 406.857 337.833 407.434 337.235C408.023 336.64 408.437 335.927 408.674 335.097L409.202 333.253C409.44 332.422 409.48 331.596 409.321 330.775C409.162 329.954 408.547 329.39 407.478 329.084C406.453 328.791 405.64 328.946 405.036 329.549C404.433 330.152 404.012 330.868 403.774 331.699ZM386.066 306.979L386.593 305.135C386.997 303.724 387.669 302.519 388.607 301.519C389.549 300.508 390.69 299.813 392.03 299.433C393.382 299.057 394.871 299.101 396.498 299.567C398.183 300.049 399.493 300.806 400.429 301.838C401.365 302.869 401.959 304.061 402.212 305.414C402.468 306.756 402.395 308.132 401.991 309.543L401.463 311.387C401.059 312.798 400.387 314.003 399.449 315.002C398.521 316.005 397.382 316.695 396.031 317.071C394.694 317.44 393.195 317.386 391.533 316.91C389.872 316.435 388.568 315.68 387.62 314.645C386.687 313.602 386.091 312.416 385.832 311.086C385.587 309.747 385.665 308.378 386.066 306.979ZM391.595 306.567L391.067 308.41C390.829 309.241 390.803 310.065 390.988 310.881C391.184 311.701 391.783 312.254 392.784 312.54C393.831 312.84 394.644 312.691 395.221 312.093C395.81 311.498 396.223 310.785 396.461 309.955L396.989 308.111C397.227 307.28 397.266 306.454 397.107 305.633C396.949 304.812 396.329 304.247 395.247 303.937C394.235 303.647 393.43 303.811 392.835 304.429C392.24 305.046 391.826 305.759 391.595 306.567ZM380.715 334.185L414.758 306.106L419.23 307.386L385.187 335.465L380.715 334.185Z" fill="white"/>
</g>
<defs>
<clipPath id="clip0_39_347">
<rect x="228.179" y="34.5359" width="430.126" height="457.18" rx="40" transform="rotate(15.98 228.179 34.5359)" fill="white"/>
</clipPath>
</defs>
</svg>
