<svg width="744" height="627" viewBox="0 0 744 627" fill="none" xmlns="http://www.w3.org/2000/svg">
<g clip-path="url(#clip0_44_644)">
<rect x="-1" y="30" width="746" height="567" rx="30" fill="white"/>
<circle cx="382" cy="621" r="449.5" stroke="url(#paint0_linear_44_644)" stroke-opacity="0.4"/>
<circle cx="385" cy="637" r="199.5" stroke="url(#paint1_linear_44_644)" stroke-opacity="0.5"/>
<circle cx="382" cy="597" r="74.5" stroke="url(#paint2_linear_44_644)"/>
<circle cx="382" cy="605" r="299.5" stroke="url(#paint3_linear_44_644)" stroke-opacity="0.7"/>
<circle cx="128" cy="262" r="75" fill="#F5F5F5"/>
<path d="M128.023 218.473C109.847 218.473 104.532 218.492 103.498 218.578C99.7686 218.888 97.4476 219.475 94.919 220.734C92.9704 221.701 91.4335 222.823 89.9168 224.395C87.1545 227.263 85.4804 230.791 84.8744 234.984C84.5797 237.02 84.494 237.435 84.4766 247.833C84.4699 251.299 84.4766 255.861 84.4766 261.979C84.4766 280.14 84.4967 285.45 84.5838 286.481C84.8851 290.111 85.4543 292.394 86.6596 294.892C88.9632 299.673 93.3628 303.263 98.5458 304.602C100.34 305.064 102.323 305.318 104.867 305.439C105.945 305.486 116.934 305.519 127.93 305.519C138.925 305.519 149.921 305.506 150.972 305.452C153.919 305.314 155.63 305.084 157.521 304.595C162.738 303.249 167.057 299.714 169.407 294.865C170.589 292.428 171.189 290.057 171.46 286.617C171.519 285.867 171.544 273.91 171.544 261.968C171.544 250.024 171.517 238.088 171.458 237.338C171.183 233.843 170.584 231.492 169.364 229.008C168.363 226.974 167.251 225.456 165.637 223.903C162.757 221.152 159.235 219.478 155.038 218.872C153.004 218.578 152.599 218.491 142.192 218.473H128.023Z" fill="url(#paint4_radial_44_644)"/>
<path d="M128.023 218.473C109.847 218.473 104.532 218.492 103.498 218.578C99.7686 218.888 97.4476 219.475 94.919 220.734C92.9704 221.701 91.4335 222.823 89.9168 224.395C87.1545 227.263 85.4804 230.791 84.8744 234.984C84.5797 237.02 84.494 237.435 84.4766 247.833C84.4699 251.299 84.4766 255.861 84.4766 261.979C84.4766 280.14 84.4967 285.45 84.5838 286.481C84.8851 290.111 85.4543 292.394 86.6596 294.892C88.9632 299.673 93.3628 303.263 98.5458 304.602C100.34 305.064 102.323 305.318 104.867 305.439C105.945 305.486 116.934 305.519 127.93 305.519C138.925 305.519 149.921 305.506 150.972 305.452C153.919 305.314 155.63 305.084 157.521 304.595C162.738 303.249 167.057 299.714 169.407 294.865C170.589 292.428 171.189 290.057 171.46 286.617C171.519 285.867 171.544 273.91 171.544 261.968C171.544 250.024 171.517 238.088 171.458 237.338C171.183 233.843 170.584 231.492 169.364 229.008C168.363 226.974 167.251 225.456 165.637 223.903C162.757 221.152 159.235 219.478 155.038 218.872C153.004 218.578 152.599 218.491 142.192 218.473H128.023Z" fill="url(#paint5_radial_44_644)"/>
<path d="M128.003 229.857C119.273 229.857 118.178 229.895 114.749 230.051C111.328 230.208 108.992 230.75 106.948 231.544C104.834 232.365 103.041 233.464 101.254 235.251C99.4661 237.038 98.3679 238.831 97.5443 240.944C96.7474 242.989 96.205 245.325 96.0509 248.746C95.8976 252.174 95.8574 253.27 95.8574 262C95.8574 270.729 95.8963 271.821 96.0516 275.25C96.209 278.672 96.7507 281.008 97.5449 283.051C98.3666 285.165 99.4648 286.959 101.252 288.745C103.038 290.533 104.831 291.634 106.944 292.455C108.989 293.25 111.326 293.792 114.747 293.948C118.175 294.104 119.27 294.143 127.999 294.143C136.729 294.143 137.821 294.104 141.25 293.948C144.672 293.792 147.01 293.25 149.055 292.455C151.169 291.634 152.959 290.533 154.745 288.745C156.533 286.959 157.631 285.165 158.455 283.052C159.245 281.008 159.788 278.671 159.948 275.251C160.102 271.822 160.142 270.729 160.142 262C160.142 253.27 160.102 252.175 159.948 248.746C159.788 245.324 159.245 242.989 158.455 240.945C157.631 238.831 156.533 237.038 154.745 235.251C152.957 233.463 151.169 232.365 149.053 231.544C147.004 230.75 144.667 230.208 141.245 230.051C137.817 229.895 136.725 229.857 127.993 229.857H128.003ZM125.119 235.649C125.975 235.648 126.93 235.649 128.003 235.649C136.585 235.649 137.602 235.68 140.991 235.834C144.125 235.977 145.826 236.501 146.959 236.941C148.459 237.524 149.529 238.22 150.653 239.345C151.778 240.47 152.474 241.542 153.058 243.042C153.498 244.173 154.023 245.874 154.165 249.008C154.319 252.396 154.353 253.414 154.353 261.992C154.353 270.571 154.319 271.588 154.165 274.977C154.022 278.111 153.498 279.812 153.058 280.943C152.476 282.443 151.778 283.511 150.653 284.636C149.528 285.761 148.46 286.457 146.959 287.04C145.828 287.482 144.125 288.004 140.991 288.147C137.603 288.301 136.585 288.335 128.003 288.335C119.42 288.335 118.403 288.301 115.015 288.147C111.881 288.003 110.18 287.479 109.046 287.039C107.546 286.456 106.475 285.76 105.35 284.635C104.225 283.51 103.528 282.441 102.944 280.941C102.504 279.809 101.98 278.108 101.837 274.974C101.683 271.586 101.653 270.568 101.653 261.984C101.653 253.401 101.683 252.388 101.837 249C101.981 245.866 102.504 244.165 102.944 243.032C103.527 241.532 104.225 240.461 105.35 239.336C106.475 238.211 107.546 237.514 109.046 236.93C110.179 236.488 111.881 235.966 115.015 235.822C117.98 235.688 119.129 235.648 125.119 235.641V235.649ZM145.161 240.986C143.031 240.986 141.303 242.712 141.303 244.842C141.303 246.972 143.031 248.699 145.161 248.699C147.29 248.699 149.018 246.972 149.018 244.842C149.018 242.713 147.29 240.985 145.161 240.985V240.986ZM128.003 245.493C118.887 245.493 111.496 252.884 111.496 262C111.496 271.116 118.887 278.503 128.003 278.503C137.119 278.503 144.507 271.116 144.507 262C144.507 252.884 137.119 245.493 128.003 245.493ZM128.003 251.286C133.92 251.286 138.717 256.082 138.717 262C138.717 267.917 133.92 272.714 128.003 272.714C122.085 272.714 117.289 267.917 117.289 262C117.289 256.082 122.085 251.286 128.003 251.286Z" fill="white"/>
<circle cx="228" cy="447" r="75" fill="#F5F5F5"/>
<g clip-path="url(#clip1_44_644)">
<path d="M272.155 447.827C272.155 444.205 271.854 441.563 271.203 438.822H228.881V455.168H253.723C253.222 459.23 250.518 465.347 244.507 469.457L244.423 470.005L257.805 480.134L258.732 480.224C267.246 472.541 272.155 461.236 272.155 447.827Z" fill="#4285F4"/>
<path d="M228.881 490.893C241.051 490.893 251.269 486.977 258.732 480.224L244.507 469.457C240.701 472.051 235.592 473.862 228.881 473.862C216.96 473.862 206.843 466.179 203.237 455.559L202.708 455.603L188.794 466.125L188.612 466.619C196.024 481.007 211.25 490.893 228.881 490.893Z" fill="#34A853"/>
<path d="M203.237 455.559C202.285 452.819 201.734 449.882 201.734 446.848C201.734 443.814 202.285 440.878 203.187 438.137L203.161 437.553L189.073 426.863L188.612 427.077C185.557 433.047 183.804 439.752 183.804 446.848C183.804 453.944 185.557 460.649 188.612 466.619L203.237 455.559Z" fill="#FBBC05"/>
<path d="M228.881 419.834C237.345 419.834 243.055 423.406 246.31 426.392L259.032 414.255C251.219 407.159 241.051 402.803 228.881 402.803C211.25 402.803 196.024 412.689 188.612 427.077L203.187 438.137C206.843 427.517 216.96 419.834 228.881 419.834Z" fill="#EB4335"/>
</g>
<circle cx="372" cy="186" r="75" fill="#F5F5F5"/>
<rect x="327.804" y="143.143" width="88.3929" height="88.3929" rx="30" fill="url(#paint6_linear_44_644)"/>
<path d="M384.226 188.284L385.59 179.758H377.405V173.789C377.405 171.402 378.258 169.526 382.009 169.526H385.931V161.682C383.715 161.341 381.327 161 379.11 161C372.119 161 367.174 165.263 367.174 172.937V179.758H359.5V188.284H367.174V209.941C368.879 210.282 370.584 210.452 372.289 210.452C373.995 210.452 375.7 210.282 377.405 209.941V188.284H384.226Z" fill="#F5F5F5"/>
<circle cx="531.5" cy="437" r="75" fill="#F5F5F5"/>
<g clip-path="url(#clip2_44_644)">
<path d="M552.595 422.704C559.023 427.295 566.897 429.997 575.402 429.997V413.643C573.793 413.644 572.187 413.476 570.612 413.143V426.015C562.108 426.015 554.235 423.314 547.805 418.723V452.095C547.805 468.79 534.261 482.322 517.555 482.322C511.322 482.322 505.528 480.439 500.715 477.21C506.208 482.822 513.869 486.304 522.344 486.304C539.051 486.304 552.596 472.771 552.596 456.076V422.704H552.595ZM558.503 406.205C555.218 402.619 553.062 397.985 552.595 392.861V390.758H548.056C549.198 397.27 553.095 402.833 558.503 406.205ZM511.282 464.399C509.446 461.994 508.454 459.052 508.459 456.028C508.459 448.392 514.654 442.201 522.297 442.201C523.721 442.201 525.137 442.419 526.494 442.849V426.13C524.908 425.913 523.307 425.821 521.706 425.855V438.868C520.348 438.438 518.932 438.219 517.507 438.22C509.864 438.22 503.669 444.411 503.669 452.047C503.669 457.447 506.766 462.121 511.282 464.399Z" fill="#FF004F"/>
<path d="M547.805 418.722C554.235 423.313 562.108 426.015 570.612 426.015V413.142C565.866 412.132 561.663 409.653 558.504 406.205C553.095 402.833 549.199 397.27 548.056 390.758H536.134V456.075C536.107 463.69 529.922 469.855 522.296 469.855C517.802 469.855 513.809 467.715 511.281 464.399C506.765 462.121 503.669 457.446 503.669 452.047C503.669 444.412 509.863 438.221 517.506 438.221C518.971 438.221 520.382 438.449 521.706 438.868V425.855C505.293 426.194 492.093 439.594 492.093 456.075C492.093 464.302 495.38 471.76 500.715 477.21C505.528 480.439 511.322 482.323 517.555 482.323C534.262 482.323 547.806 468.789 547.806 452.095L547.805 418.722Z" fill="black"/>
<path d="M570.612 413.142V409.662C566.332 409.668 562.135 408.47 558.503 406.205C561.718 409.722 565.952 412.147 570.612 413.142ZM548.056 390.758C547.947 390.136 547.863 389.509 547.805 388.88V386.777H531.343V452.095C531.317 459.708 525.133 465.874 517.506 465.874C515.267 465.874 513.153 465.343 511.28 464.399C513.809 467.715 517.802 469.855 522.296 469.855C529.921 469.855 536.107 463.69 536.133 456.075V390.758H548.056ZM521.706 425.855V422.15C520.331 421.962 518.944 421.868 517.556 421.868C500.848 421.868 487.304 435.401 487.304 452.095C487.304 462.56 492.627 471.784 500.715 477.209C495.38 471.76 492.093 464.302 492.093 456.075C492.093 439.595 505.293 426.194 521.706 425.855Z" fill="#00F2EA"/>
</g>
<circle cx="634" cy="246" r="75" fill="#F5F5F5"/>
<g clip-path="url(#clip3_44_644)">
<path d="M676.244 221.119C675.737 218.939 674.748 216.952 673.376 215.354C672.003 213.757 670.295 212.606 668.422 212.016C661.562 209.839 633.955 209.839 633.955 209.839C633.955 209.839 606.347 209.905 599.488 212.082C597.614 212.672 595.906 213.823 594.533 215.42C593.161 217.018 592.172 219.005 591.665 221.186C589.59 235.368 588.785 256.978 591.722 270.593C592.229 272.774 593.218 274.761 594.59 276.358C595.963 277.956 597.671 279.107 599.545 279.697C606.404 281.874 634.012 281.874 634.012 281.874C634.012 281.874 661.619 281.874 668.478 279.697C670.352 279.107 672.06 277.956 673.432 276.359C674.805 274.761 675.794 272.774 676.301 270.593C678.489 256.391 679.164 234.794 676.244 221.119Z" fill="#FF0000"/>
<path d="M625.168 261.292L648.07 245.856L625.168 230.42V261.292Z" fill="white"/>
</g>
</g>
<defs>
<linearGradient id="paint0_linear_44_644" x1="-68" y1="621" x2="832" y2="621" gradientUnits="userSpaceOnUse">
<stop offset="0.5625" stop-color="#7FB1FF" stop-opacity="0.8"/>
</linearGradient>
<linearGradient id="paint1_linear_44_644" x1="185" y1="637" x2="585" y2="637" gradientUnits="userSpaceOnUse">
<stop offset="0.5625" stop-color="#7FB1FF" stop-opacity="0.8"/>
</linearGradient>
<linearGradient id="paint2_linear_44_644" x1="307" y1="597" x2="457" y2="597" gradientUnits="userSpaceOnUse">
<stop offset="0.5625" stop-color="#7FB1FF" stop-opacity="0.8"/>
</linearGradient>
<linearGradient id="paint3_linear_44_644" x1="82" y1="605" x2="682" y2="605" gradientUnits="userSpaceOnUse">
<stop offset="0.5625" stop-color="#7FB1FF" stop-opacity="0.8"/>
</linearGradient>
<radialGradient id="paint4_radial_44_644" cx="0" cy="0" r="1" gradientUnits="userSpaceOnUse" gradientTransform="translate(107.602 312.224) rotate(-90) scale(86.2692 80.259)">
<stop stop-color="#FFDD55"/>
<stop offset="0.1" stop-color="#FFDD55"/>
<stop offset="0.5" stop-color="#FF543E"/>
<stop offset="1" stop-color="#C837AB"/>
</radialGradient>
<radialGradient id="paint5_radial_44_644" cx="0" cy="0" r="1" gradientTransform="matrix(7.57105 37.8126 -155.904 31.2165 69.889 224.744)" gradientUnits="userSpaceOnUse">
<stop stop-color="#3771C8"/>
<stop offset="0.128" stop-color="#3771C8"/>
<stop offset="1" stop-color="#6600FF" stop-opacity="0"/>
</radialGradient>
<linearGradient id="paint6_linear_44_644" x1="4747.45" y1="8724.15" x2="4747.45" y2="143.143" gradientUnits="userSpaceOnUse">
<stop stop-color="#0062E0"/>
<stop offset="1" stop-color="#19AFFF"/>
</linearGradient>
<clipPath id="clip0_44_644">
<rect width="744" height="627" rx="40" fill="white"/>
</clipPath>
<clipPath id="clip1_44_644">
<rect width="88.3929" height="88.3929" fill="white" transform="translate(183.804 402.803)"/>
</clipPath>
<clipPath id="clip2_44_644">
<rect width="88.1008" height="99.7768" fill="white" transform="translate(487.304 386.777)"/>
</clipPath>
<clipPath id="clip3_44_644">
<rect width="88.3929" height="72.3214" fill="white" transform="translate(589.804 209.839)"/>
</clipPath>
</defs>
</svg>
