<svg width="1024" height="627" viewBox="0 0 1024 627" fill="none" xmlns="http://www.w3.org/2000/svg">
<g clip-path="url(#clip0_37_253)">
<rect width="1024" height="627" rx="40" fill="white"/>
<g filter="url(#filter0_f_37_253)">
<path d="M561.5 1728.08C1011.38 1728.08 1376.08 1363.38 1376.08 913.5C1376.08 463.618 1011.38 98.9166 561.5 98.9166C111.618 98.9166 -253.083 463.618 -253.083 913.5C-253.083 1363.38 111.618 1728.08 561.5 1728.08Z" stroke="#126DFB" stroke-opacity="0.4" stroke-width="4" stroke-linecap="round" stroke-linejoin="round"/>
</g>
<g filter="url(#filter1_f_37_253)">
<path d="M562 1651.33C953.202 1651.33 1270.33 1334.2 1270.33 943C1270.33 551.798 953.202 234.667 562 234.667C170.798 234.667 -146.333 551.798 -146.333 943C-146.333 1334.2 170.798 1651.33 562 1651.33Z" stroke="#126DFB" stroke-opacity="0.4" stroke-width="4" stroke-linecap="round" stroke-linejoin="round"/>
</g>
<g filter="url(#filter2_f_37_253)">
<path d="M562.5 1532.08C888.118 1532.08 1152.08 1268.12 1152.08 942.5C1152.08 616.882 888.118 352.917 562.5 352.917C236.882 352.917 -27.0835 616.882 -27.0835 942.5C-27.0835 1268.12 236.882 1532.08 562.5 1532.08Z" stroke="#126DFB" stroke-opacity="0.4" stroke-width="4" stroke-linecap="round" stroke-linejoin="round"/>
</g>
<g filter="url(#filter3_f_37_253)">
<path d="M563 1437.25C824.415 1437.25 1036.33 1225.14 1036.33 963.5C1036.33 701.855 824.415 489.75 563 489.75C301.585 489.75 89.6665 701.855 89.6665 963.5C89.6665 1225.14 301.585 1437.25 563 1437.25Z" stroke="#126DFB" stroke-opacity="0.4" stroke-width="4" stroke-linecap="round" stroke-linejoin="round"/>
</g>
<circle cx="313.005" cy="556.005" r="71.005" fill="#F5F5F5"/>
<g clip-path="url(#clip1_37_253)">
<path d="M313.026 514.797C295.819 514.797 290.787 514.815 289.808 514.896C286.277 515.189 284.08 515.745 281.686 516.937C279.841 517.853 278.386 518.915 276.95 520.404C274.335 523.118 272.75 526.458 272.176 530.428C271.897 532.355 271.816 532.748 271.8 542.593C271.793 545.874 271.8 550.193 271.8 555.985C271.8 573.179 271.819 578.206 271.901 579.182C272.186 582.619 272.725 584.78 273.866 587.145C276.047 591.672 280.213 595.07 285.119 596.338C286.819 596.775 288.695 597.016 291.104 597.13C292.125 597.175 302.528 597.206 312.938 597.206C323.348 597.206 333.758 597.194 334.753 597.143C337.543 597.012 339.163 596.794 340.953 596.331C345.892 595.057 349.981 591.71 352.207 587.12C353.325 584.812 353.893 582.568 354.15 579.311C354.205 578.601 354.229 567.28 354.229 555.975C354.229 544.667 354.204 533.367 354.148 532.657C353.888 529.348 353.32 527.122 352.165 524.77C351.218 522.845 350.165 521.407 348.637 519.937C345.911 517.333 342.576 515.748 338.602 515.175C336.677 514.896 336.293 514.814 326.441 514.797H313.026Z" fill="url(#paint0_radial_37_253)"/>
<path d="M313.026 514.797C295.819 514.797 290.787 514.815 289.808 514.896C286.277 515.189 284.08 515.745 281.686 516.937C279.841 517.853 278.386 518.915 276.95 520.404C274.335 523.118 272.75 526.458 272.176 530.428C271.897 532.355 271.816 532.748 271.8 542.593C271.793 545.874 271.8 550.193 271.8 555.985C271.8 573.179 271.819 578.206 271.901 579.182C272.186 582.619 272.725 584.78 273.866 587.145C276.047 591.672 280.213 595.07 285.119 596.338C286.819 596.775 288.695 597.016 291.104 597.13C292.125 597.175 302.528 597.206 312.938 597.206C323.348 597.206 333.758 597.194 334.753 597.143C337.543 597.012 339.163 596.794 340.953 596.331C345.892 595.057 349.981 591.71 352.207 587.12C353.325 584.812 353.893 582.568 354.15 579.311C354.205 578.601 354.229 567.28 354.229 555.975C354.229 544.667 354.204 533.367 354.148 532.657C353.888 529.348 353.32 527.122 352.165 524.77C351.218 522.845 350.165 521.407 348.637 519.937C345.911 517.333 342.576 515.748 338.602 515.175C336.677 514.896 336.293 514.814 326.441 514.797H313.026Z" fill="url(#paint1_radial_37_253)"/>
<path d="M313.007 525.574C304.743 525.574 303.706 525.61 300.46 525.758C297.22 525.906 295.009 526.419 293.074 527.172C291.073 527.949 289.375 528.989 287.683 530.681C285.991 532.372 284.951 534.07 284.171 536.071C283.417 538.006 282.903 540.218 282.757 543.457C282.612 546.703 282.574 547.74 282.574 556.005C282.574 564.269 282.611 565.303 282.758 568.549C282.907 571.789 283.42 574 284.172 575.935C284.95 577.937 285.989 579.634 287.682 581.326C289.372 583.019 291.07 584.061 293.07 584.838C295.006 585.591 297.218 586.103 300.457 586.252C303.703 586.4 304.74 586.436 313.004 586.436C321.269 586.436 322.303 586.4 325.549 586.252C328.788 586.103 331.002 585.591 332.938 584.838C334.939 584.061 336.634 583.019 338.325 581.326C340.018 579.634 341.058 577.937 341.837 575.936C342.585 574 343.099 571.788 343.251 568.55C343.397 565.304 343.435 564.269 343.435 556.005C343.435 547.74 343.397 546.703 343.251 543.457C343.099 540.218 342.585 538.006 341.837 536.072C341.058 534.07 340.018 532.372 338.325 530.681C336.632 528.988 334.94 527.948 332.936 527.172C330.996 526.419 328.784 525.906 325.544 525.758C322.298 525.61 321.265 525.574 312.998 525.574H313.007ZM310.278 531.058C311.088 531.057 311.992 531.058 313.007 531.058C321.132 531.058 322.095 531.087 325.304 531.233C328.271 531.369 329.881 531.865 330.954 532.281C332.374 532.833 333.387 533.492 334.451 534.557C335.516 535.622 336.175 536.636 336.728 538.057C337.145 539.128 337.641 540.738 337.776 543.705C337.922 546.913 337.954 547.877 337.954 555.998C337.954 564.119 337.922 565.083 337.776 568.291C337.64 571.258 337.145 572.868 336.728 573.939C336.177 575.359 335.516 576.371 334.451 577.435C333.386 578.5 332.375 579.16 330.954 579.711C329.883 580.13 328.271 580.624 325.304 580.76C322.096 580.905 321.132 580.937 313.007 580.937C304.882 580.937 303.919 580.905 300.711 580.76C297.744 580.623 296.134 580.127 295.06 579.71C293.64 579.159 292.626 578.5 291.561 577.434C290.496 576.369 289.836 575.358 289.284 573.937C288.867 572.865 288.371 571.255 288.236 568.288C288.09 565.08 288.061 564.117 288.061 555.99C288.061 547.864 288.09 546.906 288.236 543.698C288.371 540.731 288.867 539.12 289.284 538.048C289.835 536.628 290.496 535.613 291.561 534.548C292.626 533.483 293.64 532.824 295.06 532.271C296.133 531.852 297.744 531.358 300.711 531.222C303.518 531.095 304.606 531.057 310.278 531.05V531.058ZM329.251 536.111C327.235 536.111 325.599 537.745 325.599 539.761C325.599 541.777 327.235 543.413 329.251 543.413C331.267 543.413 332.903 541.777 332.903 539.761C332.903 537.745 331.267 536.11 329.251 536.11V536.111ZM313.007 540.377C304.377 540.377 297.38 547.375 297.38 556.005C297.38 564.635 304.377 571.629 313.007 571.629C321.638 571.629 328.632 564.635 328.632 556.005C328.632 547.375 321.638 540.377 313.007 540.377ZM313.007 545.861C318.609 545.861 323.151 550.403 323.151 556.005C323.151 561.607 318.609 566.149 313.007 566.149C307.405 566.149 302.864 561.607 302.864 556.005C302.864 550.403 307.405 545.861 313.007 545.861Z" fill="white"/>
</g>
<circle cx="882.003" cy="297.003" r="71.0029" fill="#F5F5F5"/>
<g clip-path="url(#clip2_37_253)">
<path d="M923.804 297.786C923.804 294.357 923.519 291.855 922.903 289.261H882.837V304.735H906.355C905.881 308.58 903.32 314.372 897.63 318.263L897.551 318.781L910.219 328.37L911.097 328.456C919.157 321.182 923.804 310.48 923.804 297.786Z" fill="#4285F4"/>
<path d="M882.836 338.556C894.358 338.556 904.031 334.849 911.096 328.456L897.63 318.263C894.026 320.719 889.19 322.433 882.836 322.433C871.551 322.433 861.973 315.159 858.559 305.106L858.059 305.147L844.886 315.108L844.714 315.576C851.731 329.197 866.146 338.556 882.836 338.556Z" fill="#34A853"/>
<path d="M858.559 305.106C857.658 302.511 857.137 299.731 857.137 296.859C857.137 293.986 857.658 291.207 858.512 288.612L858.488 288.06L845.15 277.939L844.714 278.142C841.822 283.794 840.162 290.141 840.162 296.859C840.162 303.577 841.822 309.924 844.714 315.576L858.559 305.106Z" fill="#FBBC05"/>
<path d="M882.836 271.284C890.849 271.284 896.254 274.667 899.337 277.493L911.38 266.003C903.983 259.285 894.358 255.162 882.836 255.162C866.146 255.162 851.731 264.52 844.714 278.141L858.512 288.612C861.973 278.558 871.551 271.284 882.836 271.284Z" fill="#EB4335"/>
</g>
<circle cx="455.005" cy="349.005" r="71.005" fill="#F5F5F5"/>
<rect x="413.163" y="303.907" width="83.6845" height="83.6845" rx="30" fill="url(#paint2_linear_37_253)"/>
<path d="M468.809 362.779L470.445 352.504H460.629V345.312C460.629 342.435 461.652 340.175 466.151 340.175H470.854V330.722C468.196 330.311 465.333 329.9 462.674 329.9C454.289 329.9 448.359 335.037 448.359 344.285V352.504H439.156V362.779H448.359V388.877C450.404 389.288 452.449 389.494 454.494 389.494C456.539 389.494 458.584 389.288 460.629 388.877V362.779H468.809Z" fill="#F5F5F5"/>
<circle cx="698.005" cy="93.005" r="71.005" fill="#F5F5F5"/>
<g clip-path="url(#clip3_37_253)">
<path d="M718.181 79.4703C724.286 83.8171 731.766 86.3747 739.845 86.3747V70.8925C738.316 70.8928 736.791 70.734 735.295 70.4184V82.6051C727.217 82.6051 719.738 80.0476 713.631 75.7011V107.296C713.631 123.101 700.766 135.913 684.897 135.913C678.976 135.913 673.473 134.13 668.901 131.073C674.119 136.386 681.396 139.682 689.446 139.682C705.316 139.682 718.181 126.87 718.181 111.064V79.4703H718.181ZM723.793 63.8506C720.673 60.4555 718.624 56.0679 718.181 51.2173V49.226H713.869C714.955 55.3911 718.656 60.6583 723.793 63.8506ZM678.938 118.944C677.195 116.668 676.253 113.883 676.257 111.019C676.257 103.79 682.141 97.9293 689.401 97.9293C690.754 97.9289 692.099 98.1353 693.388 98.5427V82.7144C691.882 82.5088 690.361 82.4215 688.841 82.4535V94.7734C687.55 94.366 686.205 94.159 684.852 94.1603C677.592 94.1603 671.708 100.021 671.708 107.251C671.708 112.362 674.649 116.788 678.938 118.944Z" fill="#FF004F"/>
<path d="M713.631 75.7007C719.739 80.0472 727.217 82.6048 735.295 82.6048V70.4181C730.786 69.4615 726.794 67.1148 723.793 63.8506C718.656 60.6579 714.955 55.3908 713.869 49.226H702.545V111.064C702.519 118.273 696.645 124.11 689.401 124.11C685.132 124.11 681.339 122.083 678.937 118.944C674.648 116.788 671.707 112.362 671.707 107.251C671.707 100.022 677.591 94.1606 684.851 94.1606C686.242 94.1606 687.583 94.3763 688.84 94.7738V82.4538C673.25 82.7746 660.712 95.4613 660.712 111.064C660.712 118.853 663.834 125.914 668.902 131.073C673.473 134.13 678.977 135.913 684.898 135.913C700.767 135.913 713.632 123.101 713.632 107.296L713.631 75.7007Z" fill="black"/>
<path d="M735.295 70.4181V67.1229C731.229 67.129 727.243 65.995 723.793 63.8503C726.847 67.1801 730.868 69.4761 735.295 70.4181ZM713.869 49.226C713.766 48.6369 713.686 48.0439 713.631 47.4484V45.457H697.995V107.296C697.97 114.504 692.096 120.341 684.851 120.341C682.724 120.341 680.716 119.838 678.937 118.945C681.339 122.084 685.132 124.11 689.401 124.11C696.644 124.11 702.519 118.273 702.545 111.064V49.226H713.869ZM688.841 82.4538V78.9458C687.534 78.768 686.217 78.6787 684.898 78.6794C669.028 78.6794 656.163 91.4915 656.163 107.296C656.163 117.204 661.219 125.936 668.902 131.072C663.834 125.914 660.712 118.852 660.712 111.064C660.712 95.4613 673.25 82.7746 688.841 82.4538Z" fill="#00F2EA"/>
</g>
<circle cx="142.005" cy="226.005" r="71.005" fill="#F5F5F5"/>
<g clip-path="url(#clip4_37_253)">
<path d="M181.999 202.45C181.519 200.386 180.583 198.504 179.283 196.992C177.984 195.48 176.367 194.39 174.593 193.831C168.099 191.771 141.962 191.771 141.962 191.771C141.962 191.771 115.825 191.833 109.331 193.894C107.557 194.452 105.94 195.542 104.64 197.054C103.341 198.566 102.405 200.448 101.925 202.513C99.9603 215.939 99.1983 236.399 101.979 249.288C102.459 251.352 103.395 253.234 104.694 254.746C105.994 256.258 107.611 257.348 109.385 257.907C115.879 259.968 142.016 259.968 142.016 259.968C142.016 259.968 168.152 259.968 174.646 257.907C176.42 257.348 178.037 256.259 179.337 254.746C180.636 253.234 181.572 251.353 182.052 249.288C184.124 235.843 184.763 215.396 181.999 202.45Z" fill="#FF0000"/>
<path d="M133.643 240.482L155.325 225.869L133.643 211.255V240.482Z" fill="white"/>
</g>
</g>
<defs>
<filter id="filter0_f_37_253" x="-421" y="-69" width="1965" height="1965" filterUnits="userSpaceOnUse" color-interpolation-filters="sRGB">
<feFlood flood-opacity="0" result="BackgroundImageFix"/>
<feBlend mode="normal" in="SourceGraphic" in2="BackgroundImageFix" result="shape"/>
<feGaussianBlur stdDeviation="2.5" result="effect1_foregroundBlur_37_253"/>
</filter>
<filter id="filter1_f_37_253" x="-293" y="88" width="1710" height="1710" filterUnits="userSpaceOnUse" color-interpolation-filters="sRGB">
<feFlood flood-opacity="0" result="BackgroundImageFix"/>
<feBlend mode="normal" in="SourceGraphic" in2="BackgroundImageFix" result="shape"/>
<feGaussianBlur stdDeviation="2.5" result="effect1_foregroundBlur_37_253"/>
</filter>
<filter id="filter2_f_37_253" x="-150" y="230" width="1425" height="1425" filterUnits="userSpaceOnUse" color-interpolation-filters="sRGB">
<feFlood flood-opacity="0" result="BackgroundImageFix"/>
<feBlend mode="normal" in="SourceGraphic" in2="BackgroundImageFix" result="shape"/>
<feGaussianBlur stdDeviation="2.5" result="effect1_foregroundBlur_37_253"/>
</filter>
<filter id="filter3_f_37_253" x="-10" y="390" width="1146" height="1147" filterUnits="userSpaceOnUse" color-interpolation-filters="sRGB">
<feFlood flood-opacity="0" result="BackgroundImageFix"/>
<feBlend mode="normal" in="SourceGraphic" in2="BackgroundImageFix" result="shape"/>
<feGaussianBlur stdDeviation="2.5" result="effect1_foregroundBlur_37_253"/>
</filter>
<radialGradient id="paint0_radial_37_253" cx="0" cy="0" r="1" gradientUnits="userSpaceOnUse" gradientTransform="translate(293.693 603.554) rotate(-90) scale(81.6739 75.9839)">
<stop stop-color="#FFDD55"/>
<stop offset="0.1" stop-color="#FFDD55"/>
<stop offset="0.5" stop-color="#FF543E"/>
<stop offset="1" stop-color="#C837AB"/>
</radialGradient>
<radialGradient id="paint1_radial_37_253" cx="0" cy="0" r="1" gradientTransform="matrix(7.16776 35.7984 -147.6 29.5537 257.989 520.733)" gradientUnits="userSpaceOnUse">
<stop stop-color="#3771C8"/>
<stop offset="0.128" stop-color="#3771C8"/>
<stop offset="1" stop-color="#6600FF" stop-opacity="0"/>
</radialGradient>
<linearGradient id="paint2_linear_37_253" x1="4597.39" y1="8427.83" x2="4597.39" y2="303.907" gradientUnits="userSpaceOnUse">
<stop stop-color="#0062E0"/>
<stop offset="1" stop-color="#19AFFF"/>
</linearGradient>
<clipPath id="clip0_37_253">
<rect width="1024" height="627" rx="40" fill="white"/>
</clipPath>
<clipPath id="clip1_37_253">
<rect width="83.687" height="83.6845" fill="white" transform="translate(271.163 514.163)"/>
</clipPath>
<clipPath id="clip2_37_253">
<rect width="83.682" height="83.682" fill="white" transform="translate(840.162 255.162)"/>
</clipPath>
<clipPath id="clip3_37_253">
<rect width="83.6845" height="94.462" fill="white" transform="translate(656.163 45.457)"/>
</clipPath>
<clipPath id="clip4_37_253">
<rect width="83.6845" height="68.4691" fill="white" transform="translate(100.163 191.771)"/>
</clipPath>
</defs>
</svg>
