<svg width="1728" height="1117" viewBox="0 0 1728 1117" fill="none" xmlns="http://www.w3.org/2000/svg">
<rect width="1728" height="1117" rx="40" fill="url(#paint0_linear_27_478)"/>
<path d="M126 140C126 117.909 143.909 100 166 100H1728V1117H126V140Z" fill="white"/>
<path d="M347.249 297.613C350.317 284.962 368.308 284.962 371.376 297.613L379.816 332.421C380.911 336.937 384.438 340.464 388.954 341.559L423.762 349.999C436.413 353.067 436.413 371.058 423.762 374.126L388.954 382.566C384.438 383.661 380.911 387.188 379.816 391.704L371.376 426.512C368.308 439.163 350.317 439.163 347.249 426.512L338.809 391.704C337.714 387.188 334.187 383.661 329.671 382.566L294.863 374.126C282.212 371.058 282.212 353.067 294.863 349.999L329.671 341.559C334.187 340.464 337.714 336.937 338.809 332.421L347.249 297.613Z" fill="#126DFB"/>
<path d="M448.576 419.089C450.464 411.304 461.536 411.304 463.424 419.089L468.618 440.509C469.292 443.288 471.462 445.458 474.241 446.132L495.661 451.326C503.446 453.214 503.446 464.286 495.661 466.174L474.241 471.368C471.462 472.042 469.292 474.212 468.618 476.991L463.424 498.411C461.536 506.196 450.464 506.196 448.576 498.411L443.382 476.991C442.708 474.212 440.538 472.042 437.759 471.368L416.339 466.174C408.554 464.286 408.554 453.214 416.339 451.326L437.759 446.132C440.538 445.458 442.708 443.288 443.382 440.509L448.576 419.089Z" fill="#126DFB"/>
<path d="M485.253 296.222C486.492 291.113 493.758 291.113 494.997 296.222L498.405 310.279C498.848 312.103 500.272 313.527 502.096 313.97L516.153 317.378C521.262 318.617 521.262 325.883 516.153 327.122L502.096 330.53C500.272 330.973 498.848 332.397 498.405 334.221L494.997 348.278C493.758 353.387 486.492 353.387 485.253 348.278L481.845 334.221C481.402 332.397 479.978 330.973 478.154 330.53L464.097 327.122C458.988 325.883 458.988 318.617 464.097 317.378L478.154 313.97C479.978 313.527 481.402 312.103 481.845 310.279L485.253 296.222Z" fill="#126DFB"/>
<path fill-rule="evenodd" clip-rule="evenodd" d="M490.125 298.716L487.343 310.189C486.231 314.775 482.65 318.356 478.064 319.468L466.591 322.25L478.064 325.032C482.65 326.144 486.231 329.725 487.343 334.311L490.125 345.784L492.907 334.311C494.019 329.725 497.6 326.144 502.186 325.032L513.659 322.25L502.186 319.468C497.6 318.356 494.019 314.775 492.907 310.189L490.125 298.716ZM495.693 292.504C494.277 286.665 485.973 286.665 484.557 292.504L480.662 308.569C480.156 310.654 478.529 312.281 476.444 312.787L460.379 316.682C454.54 318.098 454.54 326.402 460.379 327.818L476.444 331.713C478.529 332.219 480.156 333.846 480.662 335.931L484.557 351.996C485.973 357.835 494.277 357.835 495.693 351.996L499.588 335.931C500.094 333.846 501.721 332.219 503.806 331.713L519.871 327.818C525.71 326.402 525.71 318.098 519.871 316.682L503.806 312.787C501.721 312.281 500.094 310.654 499.588 308.569L495.693 292.504Z" fill="#126DFB"/>
<path d="M353.625 515.625C347.343 515.625 342.25 510.532 342.25 504.25C342.25 497.968 347.343 492.875 353.625 492.875C359.907 492.875 365 497.968 365 504.25C365 510.532 359.907 515.625 353.625 515.625Z" fill="#126DFB"/>
<path d="M296.75 470.125C290.468 470.125 285.375 465.032 285.375 458.75C285.375 452.468 290.468 447.375 296.75 447.375C303.032 447.375 308.125 452.468 308.125 458.75C308.125 465.032 303.032 470.125 296.75 470.125Z" fill="#126DFB"/>
<path d="M421.875 288.125C415.593 288.125 410.5 283.032 410.5 276.75C410.5 270.468 415.593 265.375 421.875 265.375C428.157 265.375 433.25 270.468 433.25 276.75C433.25 283.032 428.157 288.125 421.875 288.125Z" fill="#126DFB"/>
<path d="M524.25 413.25C517.968 413.25 512.875 408.157 512.875 401.875C512.875 395.593 517.968 390.5 524.25 390.5C530.532 390.5 535.625 395.593 535.625 401.875C535.625 408.157 530.532 413.25 524.25 413.25Z" fill="#126DFB"/>
<path d="M638.2 445.5H620.729L659.987 336.409H679.003L718.261 445.5H700.789L669.947 356.224H669.095L638.2 445.5ZM641.13 402.78H697.806V416.629H641.13V402.78ZM750.224 336.409V445.5H733.764V336.409H750.224ZM829.851 336.409V445.5H813.391V336.409H829.851ZM868.219 396.92V445.5H852.293V363.682H867.58V376.999H868.592C870.474 372.666 873.422 369.186 877.435 366.558C881.483 363.93 886.579 362.616 892.722 362.616C898.298 362.616 903.18 363.788 907.371 366.132C911.561 368.44 914.81 371.885 917.119 376.466C919.427 381.047 920.581 386.711 920.581 393.458V445.5H904.654V395.376C904.654 389.445 903.109 384.811 900.02 381.473C896.93 378.099 892.687 376.413 887.289 376.413C883.596 376.413 880.311 377.212 877.435 378.81C874.594 380.408 872.339 382.751 870.67 385.841C869.036 388.895 868.219 392.588 868.219 396.92ZM1003 383.657L988.566 386.214C987.962 384.367 987.004 382.609 985.69 380.94C984.411 379.271 982.671 377.904 980.469 376.839C978.268 375.773 975.516 375.241 972.213 375.241C967.703 375.241 963.939 376.253 960.92 378.277C957.902 380.266 956.393 382.84 956.393 386.001C956.393 388.735 957.405 390.937 959.429 392.606C961.453 394.275 964.72 395.642 969.23 396.707L982.227 399.69C989.756 401.43 995.366 404.112 999.06 407.734C1002.75 411.356 1004.6 416.061 1004.6 421.849C1004.6 426.75 1003.18 431.118 1000.34 434.953C997.533 438.753 993.609 441.736 988.566 443.902C983.559 446.068 977.753 447.151 971.148 447.151C961.986 447.151 954.511 445.198 948.722 441.292C942.934 437.35 939.383 431.757 938.069 424.513L953.463 422.169C954.422 426.182 956.393 429.218 959.376 431.278C962.359 433.302 966.247 434.314 971.041 434.314C976.261 434.314 980.434 433.231 983.559 431.065C986.684 428.863 988.246 426.182 988.246 423.021C988.246 420.464 987.288 418.316 985.37 416.576C983.488 414.836 980.594 413.522 976.688 412.634L962.838 409.598C955.203 407.858 949.557 405.088 945.899 401.288C942.277 397.489 940.466 392.677 940.466 386.853C940.466 382.023 941.815 377.798 944.514 374.175C947.213 370.553 950.942 367.73 955.7 365.706C960.459 363.646 965.91 362.616 972.053 362.616C980.896 362.616 987.856 364.534 992.934 368.369C998.012 372.169 1001.37 377.265 1003 383.657ZM1021.86 445.5V363.682H1037.79V445.5H1021.86ZM1029.9 351.058C1027.13 351.058 1024.76 350.134 1022.77 348.288C1020.81 346.406 1019.84 344.168 1019.84 341.576C1019.84 338.948 1020.81 336.711 1022.77 334.864C1024.76 332.982 1027.13 332.041 1029.9 332.041C1032.67 332.041 1035.04 332.982 1036.99 334.864C1038.98 336.711 1039.97 338.948 1039.97 341.576C1039.97 344.168 1038.98 346.406 1036.99 348.288C1035.04 350.134 1032.67 351.058 1029.9 351.058ZM1093.27 477.886C1086.77 477.886 1081.18 477.034 1076.49 475.33C1071.84 473.625 1068.04 471.37 1065.09 468.565C1062.14 465.759 1059.94 462.688 1058.49 459.349L1072.17 453.703C1073.13 455.266 1074.41 456.917 1076.01 458.657C1077.64 460.433 1079.85 461.942 1082.62 463.185C1085.42 464.428 1089.02 465.049 1093.43 465.049C1099.47 465.049 1104.45 463.575 1108.4 460.628C1112.34 457.716 1114.31 453.064 1114.31 446.672V430.585H1113.3C1112.34 432.325 1110.95 434.261 1109.14 436.391C1107.37 438.522 1104.92 440.369 1101.79 441.931C1098.67 443.494 1094.6 444.275 1089.59 444.275C1083.13 444.275 1077.31 442.766 1072.12 439.747C1066.97 436.693 1062.89 432.201 1059.87 426.271C1056.89 420.305 1055.4 412.972 1055.4 404.271C1055.4 395.571 1056.87 388.114 1059.82 381.899C1062.8 375.685 1066.88 370.926 1072.07 367.624C1077.25 364.286 1083.13 362.616 1089.7 362.616C1094.78 362.616 1098.88 363.469 1102 365.173C1105.13 366.842 1107.56 368.795 1109.3 371.033C1111.08 373.27 1112.44 375.241 1113.4 376.945H1114.58V363.682H1130.18V447.311C1130.18 454.342 1128.55 460.113 1125.28 464.623C1122.01 469.133 1117.59 472.471 1112.02 474.637C1106.48 476.803 1100.23 477.886 1093.27 477.886ZM1093.11 431.065C1097.69 431.065 1101.56 429.999 1104.72 427.869C1107.92 425.702 1110.33 422.613 1111.97 418.6C1113.63 414.552 1114.47 409.705 1114.47 404.058C1114.47 398.554 1113.65 393.707 1112.02 389.516C1110.38 385.326 1107.99 382.059 1104.83 379.715C1101.67 377.336 1097.76 376.146 1093.11 376.146C1088.31 376.146 1084.32 377.389 1081.12 379.875C1077.93 382.325 1075.51 385.663 1073.88 389.889C1072.28 394.115 1071.48 398.838 1071.48 404.058C1071.48 409.42 1072.3 414.126 1073.93 418.174C1075.57 422.222 1077.98 425.383 1081.18 427.656C1084.41 429.928 1088.39 431.065 1093.11 431.065ZM1167.22 396.92V445.5H1151.29V336.409H1167.01V376.999H1168.02C1169.94 372.595 1172.87 369.097 1176.81 366.505C1180.75 363.913 1185.9 362.616 1192.25 362.616C1197.87 362.616 1202.77 363.771 1206.96 366.079C1211.18 368.387 1214.45 371.832 1216.76 376.413C1219.1 380.958 1220.27 386.64 1220.27 393.458V445.5H1204.35V395.376C1204.35 389.374 1202.8 384.722 1199.71 381.42C1196.62 378.082 1192.33 376.413 1186.82 376.413C1183.06 376.413 1179.68 377.212 1176.7 378.81C1173.75 380.408 1171.43 382.751 1169.72 385.841C1168.05 388.895 1167.22 392.588 1167.22 396.92ZM1279.47 363.682V376.466H1234.78V363.682H1279.47ZM1246.76 344.08H1262.69V421.477C1262.69 424.566 1263.15 426.892 1264.08 428.455C1265 429.982 1266.19 431.029 1267.64 431.597C1269.14 432.13 1270.75 432.396 1272.49 432.396C1273.77 432.396 1274.89 432.308 1275.85 432.13C1276.81 431.952 1277.55 431.81 1278.08 431.704L1280.96 444.861C1280.04 445.216 1278.72 445.571 1277.02 445.926C1275.31 446.317 1273.18 446.53 1270.63 446.565C1266.44 446.636 1262.53 445.891 1258.91 444.328C1255.29 442.766 1252.36 440.351 1250.12 437.084C1247.88 433.817 1246.76 429.715 1246.76 424.779V344.08Z" fill="black"/>
<rect x="274" y="597" width="1396" height="330" rx="30" fill="white"/>
<path d="M307.026 664V659.909C307.026 658.702 307.253 657.43 307.707 656.095C308.162 654.76 308.794 653.482 309.604 652.26C310.413 651.038 311.365 649.994 312.459 649.128L315.612 651.386C314.746 652.651 314.007 653.972 313.396 655.349C312.786 656.727 312.48 658.226 312.48 659.845V664H307.026ZM317.892 664V659.909C317.892 658.702 318.119 657.43 318.574 656.095C319.028 654.76 319.661 653.482 320.47 652.26C321.28 651.038 322.232 649.994 323.325 649.128L326.479 651.386C325.612 652.651 324.874 653.972 324.263 655.349C323.652 656.727 323.347 658.226 323.347 659.845V664H317.892ZM347.845 694V650.364H363.399C366.779 650.364 369.585 650.946 371.815 652.111C374.059 653.276 375.735 654.888 376.843 656.947C377.951 658.993 378.505 661.358 378.505 664.043C378.505 666.713 377.944 669.064 376.822 671.095C375.714 673.112 374.038 674.682 371.794 675.804C369.564 676.926 366.758 677.487 363.377 677.487H351.595V671.82H362.781C364.912 671.82 366.645 671.514 367.98 670.903C369.329 670.293 370.316 669.405 370.941 668.24C371.566 667.075 371.879 665.676 371.879 664.043C371.879 662.395 371.559 660.967 370.92 659.76C370.295 658.553 369.308 657.629 367.958 656.99C366.623 656.337 364.869 656.01 362.696 656.01H354.429V694H347.845ZM369.386 674.312L380.167 694H372.667L362.099 674.312H369.386ZM399.45 694.661C396.226 694.661 393.449 693.972 391.119 692.594C388.804 691.202 387.014 689.249 385.75 686.734C384.5 684.206 383.875 681.244 383.875 677.849C383.875 674.497 384.5 671.543 385.75 668.986C387.014 666.429 388.776 664.433 391.034 662.999C393.307 661.564 395.963 660.847 399.003 660.847C400.849 660.847 402.639 661.152 404.372 661.763C406.105 662.374 407.661 663.332 409.038 664.639C410.416 665.946 411.503 667.643 412.298 669.732C413.094 671.805 413.491 674.327 413.491 677.295V679.554H387.476V674.781H407.249C407.249 673.105 406.908 671.621 406.226 670.328C405.544 669.021 404.585 667.991 403.349 667.239C402.128 666.486 400.693 666.109 399.045 666.109C397.256 666.109 395.693 666.55 394.358 667.43C393.037 668.297 392.014 669.433 391.29 670.839C390.58 672.232 390.224 673.744 390.224 675.378V679.107C390.224 681.294 390.608 683.155 391.375 684.689C392.156 686.223 393.243 687.395 394.635 688.205C396.027 689 397.653 689.398 399.514 689.398C400.722 689.398 401.822 689.227 402.817 688.886C403.811 688.531 404.67 688.006 405.395 687.31C406.119 686.614 406.673 685.754 407.057 684.732L413.087 685.818C412.604 687.594 411.737 689.149 410.487 690.484C409.251 691.805 407.696 692.835 405.821 693.574C403.96 694.298 401.837 694.661 399.45 694.661ZM434.096 694.661C430.928 694.661 428.201 693.943 425.914 692.509C423.641 691.06 421.894 689.064 420.672 686.521C419.451 683.979 418.84 681.067 418.84 677.786C418.84 674.462 419.465 671.528 420.715 668.986C421.965 666.429 423.726 664.433 425.999 662.999C428.272 661.564 430.949 660.847 434.032 660.847C436.517 660.847 438.733 661.308 440.679 662.232C442.625 663.141 444.195 664.419 445.388 666.067C446.596 667.714 447.313 669.639 447.54 671.841H441.34C440.999 670.307 440.218 668.986 438.996 667.878C437.789 666.77 436.169 666.216 434.138 666.216C432.363 666.216 430.807 666.685 429.472 667.622C428.151 668.545 427.121 669.866 426.382 671.585C425.644 673.29 425.275 675.307 425.275 677.636C425.275 680.023 425.637 682.082 426.361 683.815C427.086 685.548 428.108 686.891 429.429 687.842C430.765 688.794 432.334 689.27 434.138 689.27C435.346 689.27 436.439 689.05 437.419 688.609C438.414 688.155 439.245 687.509 439.912 686.67C440.594 685.832 441.07 684.824 441.34 683.645H447.54C447.313 685.761 446.624 687.651 445.473 689.312C444.323 690.974 442.782 692.281 440.85 693.233C438.932 694.185 436.681 694.661 434.096 694.661ZM454.103 694V661.273H460.474V694H454.103ZM457.32 656.223C456.212 656.223 455.261 655.854 454.465 655.115C453.684 654.362 453.293 653.467 453.293 652.43C453.293 651.379 453.684 650.484 454.465 649.746C455.261 648.993 456.212 648.616 457.32 648.616C458.428 648.616 459.373 648.993 460.154 649.746C460.95 650.484 461.347 651.379 461.347 652.43C461.347 653.467 460.95 654.362 460.154 655.115C459.373 655.854 458.428 656.223 457.32 656.223ZM468.794 706.273V661.273H475.016V666.578H475.549C475.918 665.896 476.451 665.108 477.147 664.213C477.843 663.318 478.809 662.537 480.044 661.869C481.28 661.188 482.914 660.847 484.945 660.847C487.587 660.847 489.945 661.514 492.019 662.849C494.093 664.185 495.719 666.109 496.898 668.624C498.091 671.138 498.688 674.163 498.688 677.7C498.688 681.237 498.098 684.27 496.919 686.798C495.74 689.312 494.121 691.251 492.061 692.615C490.002 693.964 487.651 694.639 485.009 694.639C483.02 694.639 481.394 694.305 480.13 693.638C478.88 692.97 477.9 692.189 477.189 691.294C476.479 690.399 475.932 689.604 475.549 688.908H475.165V706.273H468.794ZM475.037 677.636C475.037 679.937 475.371 681.955 476.039 683.688C476.706 685.42 477.672 686.777 478.936 687.757C480.201 688.723 481.749 689.206 483.581 689.206C485.485 689.206 487.076 688.702 488.354 687.693C489.632 686.67 490.598 685.286 491.252 683.538C491.919 681.791 492.253 679.824 492.253 677.636C492.253 675.477 491.926 673.538 491.273 671.82C490.634 670.101 489.668 668.744 488.375 667.75C487.097 666.756 485.499 666.259 483.581 666.259C481.735 666.259 480.172 666.734 478.894 667.686C477.63 668.638 476.671 669.966 476.017 671.67C475.364 673.375 475.037 675.364 475.037 677.636ZM519.681 694.661C516.456 694.661 513.679 693.972 511.35 692.594C509.034 691.202 507.245 689.249 505.98 686.734C504.73 684.206 504.105 681.244 504.105 677.849C504.105 674.497 504.73 671.543 505.98 668.986C507.245 666.429 509.006 664.433 511.265 662.999C513.537 661.564 516.194 660.847 519.233 660.847C521.08 660.847 522.87 661.152 524.603 661.763C526.336 662.374 527.891 663.332 529.269 664.639C530.647 665.946 531.733 667.643 532.529 669.732C533.324 671.805 533.722 674.327 533.722 677.295V679.554H507.706V674.781H527.479C527.479 673.105 527.138 671.621 526.456 670.328C525.775 669.021 524.816 667.991 523.58 667.239C522.358 666.486 520.924 666.109 519.276 666.109C517.486 666.109 515.924 666.55 514.588 667.43C513.267 668.297 512.245 669.433 511.52 670.839C510.81 672.232 510.455 673.744 510.455 675.378V679.107C510.455 681.294 510.838 683.155 511.605 684.689C512.387 686.223 513.473 687.395 514.865 688.205C516.257 689 517.884 689.398 519.745 689.398C520.952 689.398 522.053 689.227 523.047 688.886C524.042 688.531 524.901 688.006 525.625 687.31C526.35 686.614 526.904 685.754 527.287 684.732L533.317 685.818C532.834 687.594 531.968 689.149 530.718 690.484C529.482 691.805 527.926 692.835 526.051 693.574C524.191 694.298 522.067 694.661 519.681 694.661ZM559.823 672.8V678.318H540.477V672.8H559.823ZM592.588 669.263L586.814 670.286C586.572 669.547 586.189 668.844 585.663 668.176C585.152 667.509 584.456 666.962 583.575 666.536C582.695 666.109 581.594 665.896 580.273 665.896C578.469 665.896 576.963 666.301 575.756 667.111C574.548 667.906 573.945 668.936 573.945 670.2C573.945 671.294 574.349 672.175 575.159 672.842C575.969 673.51 577.276 674.057 579.08 674.483L584.278 675.676C587.29 676.372 589.534 677.445 591.011 678.893C592.489 680.342 593.227 682.224 593.227 684.54C593.227 686.5 592.659 688.247 591.523 689.781C590.401 691.301 588.831 692.494 586.814 693.361C584.811 694.227 582.489 694.661 579.847 694.661C576.182 694.661 573.192 693.879 570.876 692.317C568.561 690.74 567.141 688.503 566.615 685.605L572.773 684.668C573.156 686.273 573.945 687.487 575.138 688.311C576.331 689.121 577.886 689.526 579.804 689.526C581.892 689.526 583.561 689.092 584.811 688.226C586.061 687.345 586.686 686.273 586.686 685.009C586.686 683.986 586.303 683.126 585.536 682.43C584.783 681.734 583.625 681.209 582.062 680.854L576.523 679.639C573.469 678.943 571.21 677.835 569.747 676.315C568.298 674.795 567.574 672.871 567.574 670.541C567.574 668.609 568.114 666.919 569.193 665.47C570.273 664.021 571.764 662.892 573.668 662.082C575.571 661.259 577.751 660.847 580.209 660.847C583.746 660.847 586.53 661.614 588.561 663.148C590.592 664.668 591.935 666.706 592.588 669.263ZM615.259 661.273V666.386H597.382V661.273H615.259ZM602.176 653.432H608.547V684.391C608.547 685.626 608.732 686.557 609.101 687.182C609.471 687.793 609.946 688.212 610.529 688.439C611.125 688.652 611.772 688.759 612.468 688.759C612.979 688.759 613.426 688.723 613.81 688.652C614.194 688.581 614.492 688.524 614.705 688.482L615.855 693.744C615.486 693.886 614.961 694.028 614.279 694.17C613.597 694.327 612.745 694.412 611.722 694.426C610.046 694.455 608.483 694.156 607.034 693.531C605.586 692.906 604.414 691.94 603.519 690.634C602.624 689.327 602.176 687.686 602.176 685.712V653.432ZM626.083 706.273C625.131 706.273 624.265 706.195 623.484 706.038C622.702 705.896 622.12 705.74 621.737 705.57L623.271 700.349C624.435 700.662 625.472 700.797 626.381 700.754C627.29 700.712 628.093 700.371 628.789 699.732C629.499 699.092 630.124 698.048 630.664 696.599L631.452 694.426L619.478 661.273H626.296L634.585 686.67H634.925L643.214 661.273H650.053L636.566 698.368C635.941 700.072 635.146 701.514 634.18 702.693C633.214 703.886 632.063 704.781 630.728 705.378C629.393 705.974 627.844 706.273 626.083 706.273ZM662.161 650.364V694H655.79V650.364H662.161ZM684.587 694.661C681.363 694.661 678.586 693.972 676.256 692.594C673.941 691.202 672.151 689.249 670.887 686.734C669.637 684.206 669.012 681.244 669.012 677.849C669.012 674.497 669.637 671.543 670.887 668.986C672.151 666.429 673.912 664.433 676.171 662.999C678.444 661.564 681.1 660.847 684.14 660.847C685.986 660.847 687.776 661.152 689.509 661.763C691.242 662.374 692.797 663.332 694.175 664.639C695.553 665.946 696.64 667.643 697.435 669.732C698.23 671.805 698.628 674.327 698.628 677.295V679.554H672.613V674.781H692.385C692.385 673.105 692.044 671.621 691.363 670.328C690.681 669.021 689.722 667.991 688.486 667.239C687.265 666.486 685.83 666.109 684.182 666.109C682.392 666.109 680.83 666.55 679.495 667.43C678.174 668.297 677.151 669.433 676.426 670.839C675.716 672.232 675.361 673.744 675.361 675.378V679.107C675.361 681.294 675.745 683.155 676.512 684.689C677.293 686.223 678.38 687.395 679.772 688.205C681.164 689 682.79 689.398 684.651 689.398C685.858 689.398 686.959 689.227 687.953 688.886C688.948 688.531 689.807 688.006 690.532 687.31C691.256 686.614 691.81 685.754 692.194 684.732L698.223 685.818C697.74 687.594 696.874 689.149 695.624 690.484C694.388 691.805 692.833 692.835 690.958 693.574C689.097 694.298 686.973 694.661 684.587 694.661ZM749.073 661.273L737.205 694H730.387L718.498 661.273H725.337L733.625 686.457H733.966L742.233 661.273H749.073ZM754.81 694V661.273H761.181V694H754.81ZM758.027 656.223C756.919 656.223 755.968 655.854 755.172 655.115C754.391 654.362 754 653.467 754 652.43C754 651.379 754.391 650.484 755.172 649.746C755.968 648.993 756.919 648.616 758.027 648.616C759.135 648.616 760.08 648.993 760.861 649.746C761.657 650.484 762.054 651.379 762.054 652.43C762.054 653.467 761.657 654.362 760.861 655.115C760.08 655.854 759.135 656.223 758.027 656.223ZM781.753 694.639C779.111 694.639 776.753 693.964 774.679 692.615C772.619 691.251 771 689.312 769.821 686.798C768.656 684.27 768.074 681.237 768.074 677.7C768.074 674.163 768.663 671.138 769.842 668.624C771.036 666.109 772.669 664.185 774.743 662.849C776.817 661.514 779.168 660.847 781.795 660.847C783.827 660.847 785.46 661.188 786.696 661.869C787.946 662.537 788.912 663.318 789.594 664.213C790.29 665.108 790.83 665.896 791.213 666.578H791.597V650.364H797.967V694H791.746V688.908H791.213C790.83 689.604 790.276 690.399 789.551 691.294C788.841 692.189 787.861 692.97 786.611 693.638C785.361 694.305 783.741 694.639 781.753 694.639ZM783.159 689.206C784.991 689.206 786.54 688.723 787.804 687.757C789.082 686.777 790.048 685.42 790.702 683.688C791.369 681.955 791.703 679.937 791.703 677.636C791.703 675.364 791.376 673.375 790.723 671.67C790.07 669.966 789.111 668.638 787.847 667.686C786.582 666.734 785.02 666.259 783.159 666.259C781.241 666.259 779.643 666.756 778.365 667.75C777.087 668.744 776.121 670.101 775.467 671.82C774.828 673.538 774.509 675.477 774.509 677.636C774.509 679.824 774.835 681.791 775.489 683.538C776.142 685.286 777.108 686.67 778.386 687.693C779.679 688.702 781.27 689.206 783.159 689.206ZM820.915 694.661C817.691 694.661 814.914 693.972 812.584 692.594C810.269 691.202 808.479 689.249 807.215 686.734C805.965 684.206 805.34 681.244 805.34 677.849C805.34 674.497 805.965 671.543 807.215 668.986C808.479 666.429 810.24 664.433 812.499 662.999C814.772 661.564 817.428 660.847 820.468 660.847C822.314 660.847 824.104 661.152 825.837 661.763C827.57 662.374 829.125 663.332 830.503 664.639C831.881 665.946 832.968 667.643 833.763 669.732C834.559 671.805 834.956 674.327 834.956 677.295V679.554H808.941V674.781H828.713C828.713 673.105 828.373 671.621 827.691 670.328C827.009 669.021 826.05 667.991 824.814 667.239C823.593 666.486 822.158 666.109 820.51 666.109C818.721 666.109 817.158 666.55 815.823 667.43C814.502 668.297 813.479 669.433 812.755 670.839C812.044 672.232 811.689 673.744 811.689 675.378V679.107C811.689 681.294 812.073 683.155 812.84 684.689C813.621 686.223 814.708 687.395 816.1 688.205C817.492 689 819.118 689.398 820.979 689.398C822.186 689.398 823.287 689.227 824.282 688.886C825.276 688.531 826.135 688.006 826.86 687.31C827.584 686.614 828.138 685.754 828.522 684.732L834.551 685.818C834.069 687.594 833.202 689.149 831.952 690.484C830.716 691.805 829.161 692.835 827.286 693.574C825.425 694.298 823.301 694.661 820.915 694.661ZM855.56 694.661C852.492 694.661 849.815 693.957 847.528 692.551C845.241 691.145 843.465 689.178 842.201 686.649C840.937 684.121 840.305 681.166 840.305 677.786C840.305 674.391 840.937 671.422 842.201 668.879C843.465 666.337 845.241 664.362 847.528 662.956C849.815 661.55 852.492 660.847 855.56 660.847C858.629 660.847 861.306 661.55 863.593 662.956C865.88 664.362 867.656 666.337 868.92 668.879C870.184 671.422 870.816 674.391 870.816 677.786C870.816 681.166 870.184 684.121 868.92 686.649C867.656 689.178 865.88 691.145 863.593 692.551C861.306 693.957 858.629 694.661 855.56 694.661ZM855.582 689.312C857.57 689.312 859.218 688.787 860.525 687.736C861.832 686.685 862.798 685.286 863.423 683.538C864.062 681.791 864.381 679.866 864.381 677.764C864.381 675.676 864.062 673.759 863.423 672.011C862.798 670.25 861.832 668.837 860.525 667.771C859.218 666.706 857.57 666.173 855.582 666.173C853.579 666.173 851.917 666.706 850.596 667.771C849.289 668.837 848.316 670.25 847.677 672.011C847.052 673.759 846.739 675.676 846.739 677.764C846.739 679.866 847.052 681.791 847.677 683.538C848.316 685.286 849.289 686.685 850.596 687.736C851.917 688.787 853.579 689.312 855.582 689.312ZM902.201 669.263L896.427 670.286C896.186 669.547 895.802 668.844 895.277 668.176C894.765 667.509 894.069 666.962 893.189 666.536C892.308 666.109 891.207 665.896 889.886 665.896C888.082 665.896 886.576 666.301 885.369 667.111C884.162 667.906 883.558 668.936 883.558 670.2C883.558 671.294 883.963 672.175 884.772 672.842C885.582 673.51 886.889 674.057 888.693 674.483L893.892 675.676C896.903 676.372 899.147 677.445 900.625 678.893C902.102 680.342 902.841 682.224 902.841 684.54C902.841 686.5 902.272 688.247 901.136 689.781C900.014 691.301 898.444 692.494 896.427 693.361C894.424 694.227 892.102 694.661 889.46 694.661C885.795 694.661 882.805 693.879 880.49 692.317C878.174 690.74 876.754 688.503 876.228 685.605L882.386 684.668C882.77 686.273 883.558 687.487 884.751 688.311C885.944 689.121 887.5 689.526 889.417 689.526C891.505 689.526 893.174 689.092 894.424 688.226C895.674 687.345 896.299 686.273 896.299 685.009C896.299 683.986 895.916 683.126 895.149 682.43C894.396 681.734 893.238 681.209 891.676 680.854L886.136 679.639C883.082 678.943 880.824 677.835 879.36 676.315C877.912 674.795 877.187 672.871 877.187 670.541C877.187 668.609 877.727 666.919 878.806 665.47C879.886 664.021 881.377 662.892 883.281 662.082C885.184 661.259 887.365 660.847 889.822 660.847C893.359 660.847 896.143 661.614 898.174 663.148C900.206 664.668 901.548 666.706 902.201 669.263ZM932.319 694L922.689 661.273H929.272L935.686 685.307H936.005L942.44 661.273H949.024L955.416 685.2H955.735L962.106 661.273H968.69L959.081 694H952.582L945.934 670.371H945.444L938.797 694H932.319ZM974.486 694V661.273H980.857V694H974.486ZM977.703 656.223C976.595 656.223 975.643 655.854 974.848 655.115C974.067 654.362 973.676 653.467 973.676 652.43C973.676 651.379 974.067 650.484 974.848 649.746C975.643 648.993 976.595 648.616 977.703 648.616C978.811 648.616 979.756 648.993 980.537 649.746C981.332 650.484 981.73 651.379 981.73 652.43C981.73 653.467 981.332 654.362 980.537 655.115C979.756 655.854 978.811 656.223 977.703 656.223ZM1004.45 661.273V666.386H986.578V661.273H1004.45ZM991.372 653.432H997.743V684.391C997.743 685.626 997.927 686.557 998.297 687.182C998.666 687.793 999.142 688.212 999.724 688.439C1000.32 688.652 1000.97 688.759 1001.66 688.759C1002.17 688.759 1002.62 688.723 1003.01 688.652C1003.39 688.581 1003.69 688.524 1003.9 688.482L1005.05 693.744C1004.68 693.886 1004.16 694.028 1003.47 694.17C1002.79 694.327 1001.94 694.412 1000.92 694.426C999.241 694.455 997.679 694.156 996.23 693.531C994.781 692.906 993.609 691.94 992.714 690.634C991.819 689.327 991.372 687.686 991.372 685.712V653.432ZM1018.33 674.568V694H1011.95V650.364H1018.24V666.599H1018.64C1019.41 664.838 1020.58 663.439 1022.16 662.402C1023.74 661.365 1025.8 660.847 1028.34 660.847C1030.58 660.847 1032.54 661.308 1034.22 662.232C1035.91 663.155 1037.22 664.533 1038.14 666.365C1039.08 668.183 1039.55 670.456 1039.55 673.183V694H1033.18V673.95C1033.18 671.55 1032.56 669.689 1031.32 668.368C1030.09 667.033 1028.37 666.365 1026.17 666.365C1024.66 666.365 1023.31 666.685 1022.12 667.324C1020.94 667.963 1020.01 668.901 1019.33 670.136C1018.66 671.358 1018.33 672.835 1018.33 674.568ZM1085.52 706.273V688.908H1085.14C1084.76 689.604 1084.2 690.399 1083.48 691.294C1082.77 692.189 1081.79 692.97 1080.54 693.638C1079.29 694.305 1077.67 694.639 1075.68 694.639C1073.04 694.639 1070.68 693.964 1068.6 692.615C1066.55 691.251 1064.93 689.312 1063.75 686.798C1062.58 684.27 1062 681.237 1062 677.7C1062 674.163 1062.59 671.138 1063.77 668.624C1064.96 666.109 1066.59 664.185 1068.67 662.849C1070.74 661.514 1073.09 660.847 1075.72 660.847C1077.75 660.847 1079.39 661.188 1080.62 661.869C1081.87 662.537 1082.84 663.318 1083.52 664.213C1084.22 665.108 1084.76 665.896 1085.14 666.578H1085.67V661.273H1091.89V706.273H1085.52ZM1077.08 689.206C1078.92 689.206 1080.47 688.723 1081.73 687.757C1083.01 686.777 1083.97 685.42 1084.63 683.688C1085.3 681.955 1085.63 679.937 1085.63 677.636C1085.63 675.364 1085.3 673.375 1084.65 671.67C1084 669.966 1083.04 668.638 1081.77 667.686C1080.51 666.734 1078.95 666.259 1077.08 666.259C1075.17 666.259 1073.57 666.756 1072.29 667.75C1071.01 668.744 1070.05 670.101 1069.39 671.82C1068.75 673.538 1068.43 675.477 1068.43 677.636C1068.43 679.824 1068.76 681.791 1069.41 683.538C1070.07 685.286 1071.03 686.67 1072.31 687.693C1073.6 688.702 1075.2 689.206 1077.08 689.206ZM1120.94 680.428V661.273H1127.33V694H1121.07V688.332H1120.73C1119.97 690.08 1118.77 691.536 1117.1 692.7C1115.46 693.851 1113.4 694.426 1110.95 694.426C1108.84 694.426 1106.98 693.964 1105.36 693.041C1103.76 692.104 1102.5 690.719 1101.57 688.886C1100.66 687.054 1100.21 684.788 1100.21 682.089V661.273H1106.58V681.322C1106.58 683.553 1107.2 685.328 1108.43 686.649C1109.67 687.97 1111.27 688.631 1113.25 688.631C1114.44 688.631 1115.63 688.332 1116.81 687.736C1118 687.139 1118.99 686.237 1119.77 685.03C1120.56 683.822 1120.95 682.288 1120.94 680.428ZM1135.64 694V661.273H1142.01V694H1135.64ZM1138.86 656.223C1137.75 656.223 1136.8 655.854 1136 655.115C1135.22 654.362 1134.83 653.467 1134.83 652.43C1134.83 651.379 1135.22 650.484 1136 649.746C1136.8 648.993 1137.75 648.616 1138.86 648.616C1139.97 648.616 1140.91 648.993 1141.69 649.746C1142.49 650.484 1142.89 651.379 1142.89 652.43C1142.89 653.467 1142.49 654.362 1141.69 655.115C1140.91 655.854 1139.97 656.223 1138.86 656.223ZM1164.12 694.661C1160.95 694.661 1158.22 693.943 1155.94 692.509C1153.66 691.06 1151.92 689.064 1150.7 686.521C1149.47 683.979 1148.86 681.067 1148.86 677.786C1148.86 674.462 1149.49 671.528 1150.74 668.986C1151.99 666.429 1153.75 664.433 1156.02 662.999C1158.3 661.564 1160.97 660.847 1164.06 660.847C1166.54 660.847 1168.76 661.308 1170.7 662.232C1172.65 663.141 1174.22 664.419 1175.41 666.067C1176.62 667.714 1177.34 669.639 1177.56 671.841H1171.36C1171.02 670.307 1170.24 668.986 1169.02 667.878C1167.81 666.77 1166.19 666.216 1164.16 666.216C1162.39 666.216 1160.83 666.685 1159.5 667.622C1158.17 668.545 1157.14 669.866 1156.41 671.585C1155.67 673.29 1155.3 675.307 1155.3 677.636C1155.3 680.023 1155.66 682.082 1156.38 683.815C1157.11 685.548 1158.13 686.891 1159.45 687.842C1160.79 688.794 1162.36 689.27 1164.16 689.27C1165.37 689.27 1166.46 689.05 1167.44 688.609C1168.44 688.155 1169.27 687.509 1169.94 686.67C1170.62 685.832 1171.09 684.824 1171.36 683.645H1177.56C1177.34 685.761 1176.65 687.651 1175.5 689.312C1174.35 690.974 1172.81 692.281 1170.87 693.233C1168.96 694.185 1166.7 694.661 1164.12 694.661ZM1189.99 682.899L1189.94 675.122H1191.05L1204.09 661.273H1211.72L1196.85 677.04H1195.85L1189.99 682.899ZM1184.13 694V650.364H1190.5V694H1184.13ZM1204.79 694L1193.08 678.446L1197.46 673.993L1212.61 694H1204.79ZM1246.69 694.661C1243.52 694.661 1240.79 693.943 1238.51 692.509C1236.23 691.06 1234.49 689.064 1233.27 686.521C1232.04 683.979 1231.43 681.067 1231.43 677.786C1231.43 674.462 1232.06 671.528 1233.31 668.986C1234.56 666.429 1236.32 664.433 1238.59 662.999C1240.87 661.564 1243.54 660.847 1246.63 660.847C1249.11 660.847 1251.33 661.308 1253.27 662.232C1255.22 663.141 1256.79 664.419 1257.98 666.067C1259.19 667.714 1259.91 669.639 1260.13 671.841H1253.93C1253.59 670.307 1252.81 668.986 1251.59 667.878C1250.38 666.77 1248.76 666.216 1246.73 666.216C1244.96 666.216 1243.4 666.685 1242.07 667.622C1240.74 668.545 1239.71 669.866 1238.98 671.585C1238.24 673.29 1237.87 675.307 1237.87 677.636C1237.87 680.023 1238.23 682.082 1238.95 683.815C1239.68 685.548 1240.7 686.891 1242.02 687.842C1243.36 688.794 1244.93 689.27 1246.73 689.27C1247.94 689.27 1249.03 689.05 1250.01 688.609C1251.01 688.155 1251.84 687.509 1252.51 686.67C1253.19 685.832 1253.66 684.824 1253.93 683.645H1260.13C1259.91 685.761 1259.22 687.651 1258.07 689.312C1256.92 690.974 1255.38 692.281 1253.44 693.233C1251.53 694.185 1249.27 694.661 1246.69 694.661ZM1287.43 680.428V661.273H1293.82V694H1287.56V688.332H1287.22C1286.46 690.08 1285.25 691.536 1283.59 692.7C1281.95 693.851 1279.89 694.426 1277.44 694.426C1275.33 694.426 1273.47 693.964 1271.85 693.041C1270.25 692.104 1268.98 690.719 1268.06 688.886C1267.15 687.054 1266.7 684.788 1266.7 682.089V661.273H1273.07V681.322C1273.07 683.553 1273.69 685.328 1274.92 686.649C1276.16 687.97 1277.76 688.631 1279.74 688.631C1280.93 688.631 1282.12 688.332 1283.29 687.736C1284.49 687.139 1285.48 686.237 1286.26 685.03C1287.05 683.822 1287.44 682.288 1287.43 680.428ZM1317.41 661.273V666.386H1299.53V661.273H1317.41ZM1304.32 653.432H1310.7V684.391C1310.7 685.626 1310.88 686.557 1311.25 687.182C1311.62 687.793 1312.09 688.212 1312.68 688.439C1313.27 688.652 1313.92 688.759 1314.62 688.759C1315.13 688.759 1315.57 688.723 1315.96 688.652C1316.34 688.581 1316.64 688.524 1316.85 688.482L1318 693.744C1317.63 693.886 1317.11 694.028 1316.43 694.17C1315.75 694.327 1314.89 694.412 1313.87 694.426C1312.19 694.455 1310.63 694.156 1309.18 693.531C1307.73 692.906 1306.56 691.94 1305.67 690.634C1304.77 689.327 1304.32 687.686 1304.32 685.712V653.432ZM1348.2 669.263L1342.43 670.286C1342.19 669.547 1341.8 668.844 1341.28 668.176C1340.77 667.509 1340.07 666.962 1339.19 666.536C1338.31 666.109 1337.21 665.896 1335.89 665.896C1334.08 665.896 1332.58 666.301 1331.37 667.111C1330.16 667.906 1329.56 668.936 1329.56 670.2C1329.56 671.294 1329.96 672.175 1330.77 672.842C1331.58 673.51 1332.89 674.057 1334.69 674.483L1339.89 675.676C1342.9 676.372 1345.15 677.445 1346.62 678.893C1348.1 680.342 1348.84 682.224 1348.84 684.54C1348.84 686.5 1348.27 688.247 1347.14 689.781C1346.01 691.301 1344.44 692.494 1342.43 693.361C1340.42 694.227 1338.1 694.661 1335.46 694.661C1331.8 694.661 1328.81 693.879 1326.49 692.317C1324.17 690.74 1322.75 688.503 1322.23 685.605L1328.39 684.668C1328.77 686.273 1329.56 687.487 1330.75 688.311C1331.94 689.121 1333.5 689.526 1335.42 689.526C1337.51 689.526 1339.17 689.092 1340.42 688.226C1341.67 687.345 1342.3 686.273 1342.3 685.009C1342.3 683.986 1341.92 683.126 1341.15 682.43C1340.4 681.734 1339.24 681.209 1337.68 680.854L1332.14 679.639C1329.08 678.943 1326.82 677.835 1325.36 676.315C1323.91 674.795 1323.19 672.871 1323.19 670.541C1323.19 668.609 1323.73 666.919 1324.81 665.47C1325.89 664.021 1327.38 662.892 1329.28 662.082C1331.18 661.259 1333.36 660.847 1335.82 660.847C1339.36 660.847 1342.14 661.614 1344.17 663.148C1346.21 664.668 1347.55 666.706 1348.2 669.263ZM1380.75 694.724C1378.67 694.724 1376.8 694.341 1375.12 693.574C1373.45 692.793 1372.12 691.663 1371.14 690.186C1370.17 688.709 1369.69 686.898 1369.69 684.753C1369.69 682.906 1370.05 681.386 1370.76 680.193C1371.47 679 1372.42 678.055 1373.63 677.359C1374.84 676.663 1376.19 676.138 1377.68 675.783C1379.17 675.428 1380.69 675.158 1382.24 674.973C1384.2 674.746 1385.79 674.561 1387.01 674.419C1388.23 674.263 1389.12 674.014 1389.68 673.673C1390.23 673.332 1390.51 672.778 1390.51 672.011V671.862C1390.51 670.001 1389.98 668.56 1388.93 667.537C1387.89 666.514 1386.34 666.003 1384.29 666.003C1382.14 666.003 1380.45 666.479 1379.21 667.43C1377.99 668.368 1377.15 669.412 1376.68 670.562L1370.69 669.199C1371.4 667.21 1372.44 665.605 1373.8 664.384C1375.18 663.148 1376.76 662.253 1378.55 661.699C1380.34 661.131 1382.23 660.847 1384.2 660.847C1385.51 660.847 1386.89 661.003 1388.35 661.315C1389.83 661.614 1391.21 662.168 1392.49 662.977C1393.78 663.787 1394.84 664.945 1395.66 666.45C1396.49 667.942 1396.9 669.881 1396.9 672.267V694H1390.68V689.526H1390.42C1390.01 690.349 1389.39 691.159 1388.57 691.955C1387.74 692.75 1386.69 693.411 1385.39 693.936C1384.1 694.462 1382.55 694.724 1380.75 694.724ZM1382.13 689.611C1383.89 689.611 1385.4 689.263 1386.65 688.567C1387.91 687.871 1388.87 686.962 1389.53 685.839C1390.19 684.703 1390.53 683.489 1390.53 682.196V677.977C1390.3 678.205 1389.86 678.418 1389.21 678.616C1388.57 678.801 1387.84 678.964 1387.01 679.107C1386.19 679.234 1385.39 679.355 1384.6 679.469C1383.82 679.568 1383.17 679.653 1382.64 679.724C1381.41 679.881 1380.28 680.143 1379.26 680.513C1378.25 680.882 1377.44 681.415 1376.83 682.111C1376.23 682.793 1375.93 683.702 1375.93 684.838C1375.93 686.415 1376.52 687.608 1377.68 688.418C1378.84 689.213 1380.33 689.611 1382.13 689.611ZM1411.5 674.568V694H1405.13V661.273H1411.25V666.599H1411.65C1412.41 664.866 1413.59 663.474 1415.19 662.423C1416.81 661.372 1418.85 660.847 1421.31 660.847C1423.54 660.847 1425.49 661.315 1427.17 662.253C1428.84 663.176 1430.14 664.554 1431.06 666.386C1431.99 668.219 1432.45 670.484 1432.45 673.183V694H1426.08V673.95C1426.08 671.578 1425.46 669.724 1424.23 668.389C1422.99 667.04 1421.29 666.365 1419.13 666.365C1417.66 666.365 1416.34 666.685 1415.19 667.324C1414.05 667.963 1413.15 668.901 1412.49 670.136C1411.83 671.358 1411.5 672.835 1411.5 674.568ZM1453 694.639C1450.35 694.639 1448 693.964 1445.92 692.615C1443.86 691.251 1442.24 689.312 1441.06 686.798C1439.9 684.27 1439.32 681.237 1439.32 677.7C1439.32 674.163 1439.91 671.138 1441.08 668.624C1442.28 666.109 1443.91 664.185 1445.99 662.849C1448.06 661.514 1450.41 660.847 1453.04 660.847C1455.07 660.847 1456.7 661.188 1457.94 661.869C1459.19 662.537 1460.15 663.318 1460.84 664.213C1461.53 665.108 1462.07 665.896 1462.46 666.578H1462.84V650.364H1469.21V694H1462.99V688.908H1462.46C1462.07 689.604 1461.52 690.399 1460.79 691.294C1460.08 692.189 1459.1 692.97 1457.85 693.638C1456.6 694.305 1454.98 694.639 1453 694.639ZM1454.4 689.206C1456.23 689.206 1457.78 688.723 1459.05 687.757C1460.32 686.777 1461.29 685.42 1461.94 683.688C1462.61 681.955 1462.95 679.937 1462.95 677.636C1462.95 675.364 1462.62 673.375 1461.97 671.67C1461.31 669.966 1460.35 668.638 1459.09 667.686C1457.82 666.734 1456.26 666.259 1454.4 666.259C1452.48 666.259 1450.89 666.756 1449.61 667.75C1448.33 668.744 1447.36 670.101 1446.71 671.82C1446.07 673.538 1445.75 675.477 1445.75 677.636C1445.75 679.824 1446.08 681.791 1446.73 683.538C1447.38 685.286 1448.35 686.67 1449.63 687.693C1450.92 688.702 1452.51 689.206 1454.4 689.206ZM332.807 759.263L327.033 760.286C326.791 759.547 326.408 758.844 325.882 758.176C325.371 757.509 324.675 756.962 323.794 756.536C322.913 756.109 321.813 755.896 320.491 755.896C318.688 755.896 317.182 756.301 315.974 757.111C314.767 757.906 314.163 758.936 314.163 760.2C314.163 761.294 314.568 762.175 315.378 762.842C316.188 763.51 317.494 764.057 319.298 764.483L324.497 765.676C327.509 766.372 329.753 767.445 331.23 768.893C332.707 770.342 333.446 772.224 333.446 774.54C333.446 776.5 332.878 778.247 331.741 779.781C330.619 781.301 329.05 782.494 327.033 783.361C325.03 784.227 322.707 784.661 320.065 784.661C316.401 784.661 313.411 783.879 311.095 782.317C308.78 780.74 307.359 778.503 306.834 775.605L312.991 774.668C313.375 776.273 314.163 777.487 315.357 778.311C316.55 779.121 318.105 779.526 320.023 779.526C322.111 779.526 323.78 779.092 325.03 778.226C326.28 777.345 326.905 776.273 326.905 775.009C326.905 773.986 326.521 773.126 325.754 772.43C325.001 771.734 323.844 771.209 322.281 770.854L316.741 769.639C313.688 768.943 311.429 767.835 309.966 766.315C308.517 764.795 307.793 762.871 307.793 760.541C307.793 758.609 308.332 756.919 309.412 755.47C310.491 754.021 311.983 752.892 313.886 752.082C315.79 751.259 317.97 750.847 320.428 750.847C323.964 750.847 326.749 751.614 328.78 753.148C330.811 754.668 332.153 756.706 332.807 759.263ZM349.725 784.724C347.651 784.724 345.776 784.341 344.1 783.574C342.424 782.793 341.096 781.663 340.115 780.186C339.15 778.709 338.667 776.898 338.667 774.753C338.667 772.906 339.022 771.386 339.732 770.193C340.442 769 341.401 768.055 342.608 767.359C343.816 766.663 345.165 766.138 346.657 765.783C348.148 765.428 349.668 765.158 351.216 764.973C353.176 764.746 354.767 764.561 355.989 764.419C357.211 764.263 358.098 764.014 358.652 763.673C359.206 763.332 359.483 762.778 359.483 762.011V761.862C359.483 760.001 358.958 758.56 357.907 757.537C356.87 756.514 355.321 756.003 353.262 756.003C351.117 756.003 349.426 756.479 348.191 757.43C346.969 758.368 346.124 759.412 345.655 760.562L339.668 759.199C340.378 757.21 341.415 755.605 342.779 754.384C344.157 753.148 345.74 752.253 347.53 751.699C349.32 751.131 351.202 750.847 353.176 750.847C354.483 750.847 355.868 751.003 357.331 751.315C358.809 751.614 360.186 752.168 361.465 752.977C362.757 753.787 363.816 754.945 364.64 756.45C365.463 757.942 365.875 759.881 365.875 762.267V784H359.654V779.526H359.398C358.986 780.349 358.368 781.159 357.544 781.955C356.721 782.75 355.662 783.411 354.37 783.936C353.077 784.462 351.529 784.724 349.725 784.724ZM351.11 779.611C352.871 779.611 354.377 779.263 355.627 778.567C356.891 777.871 357.85 776.962 358.503 775.839C359.171 774.703 359.505 773.489 359.505 772.196V767.977C359.277 768.205 358.837 768.418 358.184 768.616C357.544 768.801 356.813 768.964 355.989 769.107C355.165 769.234 354.363 769.355 353.581 769.469C352.8 769.568 352.147 769.653 351.621 769.724C350.385 769.881 349.256 770.143 348.233 770.513C347.225 770.882 346.415 771.415 345.804 772.111C345.208 772.793 344.909 773.702 344.909 774.838C344.909 776.415 345.492 777.608 346.657 778.418C347.821 779.213 349.306 779.611 351.11 779.611ZM389.388 751.273V756.386H371.511V751.273H389.388ZM376.305 743.432H382.676V774.391C382.676 775.626 382.861 776.557 383.23 777.182C383.599 777.793 384.075 778.212 384.658 778.439C385.254 778.652 385.901 778.759 386.597 778.759C387.108 778.759 387.555 778.723 387.939 778.652C388.322 778.581 388.621 778.524 388.834 778.482L389.984 783.744C389.615 783.886 389.089 784.028 388.408 784.17C387.726 784.327 386.874 784.412 385.851 784.426C384.175 784.455 382.612 784.156 381.163 783.531C379.714 782.906 378.543 781.94 377.648 780.634C376.753 779.327 376.305 777.686 376.305 775.712V743.432ZM396.185 784V751.273H402.556V784H396.185ZM399.402 746.223C398.294 746.223 397.343 745.854 396.547 745.115C395.766 744.362 395.375 743.467 395.375 742.43C395.375 741.379 395.766 740.484 396.547 739.746C397.343 738.993 398.294 738.616 399.402 738.616C400.51 738.616 401.455 738.993 402.236 739.746C403.032 740.484 403.429 741.379 403.429 742.43C403.429 743.467 403.032 744.362 402.236 745.115C401.455 745.854 400.51 746.223 399.402 746.223ZM435.401 759.263L429.626 760.286C429.385 759.547 429.001 758.844 428.476 758.176C427.964 757.509 427.268 756.962 426.388 756.536C425.507 756.109 424.406 755.896 423.085 755.896C421.281 755.896 419.776 756.301 418.568 757.111C417.361 757.906 416.757 758.936 416.757 760.2C416.757 761.294 417.162 762.175 417.972 762.842C418.781 763.51 420.088 764.057 421.892 764.483L427.091 765.676C430.102 766.372 432.347 767.445 433.824 768.893C435.301 770.342 436.04 772.224 436.04 774.54C436.04 776.5 435.472 778.247 434.335 779.781C433.213 781.301 431.643 782.494 429.626 783.361C427.624 784.227 425.301 784.661 422.659 784.661C418.994 784.661 416.004 783.879 413.689 782.317C411.374 780.74 409.953 778.503 409.428 775.605L415.585 774.668C415.969 776.273 416.757 777.487 417.95 778.311C419.143 779.121 420.699 779.526 422.616 779.526C424.705 779.526 426.374 779.092 427.624 778.226C428.874 777.345 429.499 776.273 429.499 775.009C429.499 773.986 429.115 773.126 428.348 772.43C427.595 771.734 426.438 771.209 424.875 770.854L419.335 769.639C416.281 768.943 414.023 767.835 412.56 766.315C411.111 764.795 410.386 762.871 410.386 760.541C410.386 758.609 410.926 756.919 412.006 755.47C413.085 754.021 414.577 752.892 416.48 752.082C418.384 751.259 420.564 750.847 423.021 750.847C426.558 750.847 429.342 751.614 431.374 753.148C433.405 754.668 434.747 756.706 435.401 759.263ZM458.37 751.273V756.386H439.875V751.273H458.37ZM444.946 784V747.48C444.946 745.435 445.394 743.737 446.289 742.388C447.184 741.024 448.37 740.009 449.847 739.341C451.324 738.659 452.929 738.318 454.662 738.318C455.941 738.318 457.034 738.425 457.944 738.638C458.853 738.837 459.527 739.021 459.968 739.192L458.476 744.348C458.178 744.263 457.794 744.163 457.326 744.05C456.857 743.922 456.289 743.858 455.621 743.858C454.073 743.858 452.965 744.241 452.297 745.009C451.644 745.776 451.317 746.884 451.317 748.332V784H444.946ZM468.72 796.273C467.768 796.273 466.902 796.195 466.12 796.038C465.339 795.896 464.757 795.74 464.373 795.57L465.907 790.349C467.072 790.662 468.109 790.797 469.018 790.754C469.927 790.712 470.73 790.371 471.426 789.732C472.136 789.092 472.761 788.048 473.301 786.599L474.089 784.426L462.115 751.273H468.933L477.221 776.67H477.562L485.85 751.273H492.69L479.203 788.368C478.578 790.072 477.782 791.514 476.816 792.693C475.85 793.886 474.7 794.781 473.365 795.378C472.029 795.974 470.481 796.273 468.72 796.273ZM498.427 784V751.273H504.798V784H498.427ZM501.645 746.223C500.537 746.223 499.585 745.854 498.789 745.115C498.008 744.362 497.618 743.467 497.618 742.43C497.618 741.379 498.008 740.484 498.789 739.746C499.585 738.993 500.537 738.616 501.645 738.616C502.752 738.616 503.697 738.993 504.478 739.746C505.274 740.484 505.672 741.379 505.672 742.43C505.672 743.467 505.274 744.362 504.478 745.115C503.697 745.854 502.752 746.223 501.645 746.223ZM519.489 764.568V784H513.119V751.273H519.234V756.599H519.638C520.391 754.866 521.57 753.474 523.175 752.423C524.795 751.372 526.833 750.847 529.29 750.847C531.521 750.847 533.474 751.315 535.15 752.253C536.826 753.176 538.126 754.554 539.049 756.386C539.972 758.219 540.434 760.484 540.434 763.183V784H534.063V763.95C534.063 761.578 533.445 759.724 532.21 758.389C530.974 757.04 529.276 756.365 527.117 756.365C525.64 756.365 524.326 756.685 523.175 757.324C522.039 757.963 521.137 758.901 520.469 760.136C519.816 761.358 519.489 762.835 519.489 764.568ZM562.45 796.955C559.85 796.955 557.613 796.614 555.738 795.932C553.877 795.25 552.357 794.348 551.178 793.226C549.999 792.104 549.119 790.875 548.536 789.54L554.012 787.281C554.396 787.906 554.907 788.567 555.546 789.263C556.2 789.973 557.08 790.577 558.188 791.074C559.31 791.571 560.752 791.82 562.513 791.82C564.928 791.82 566.924 791.23 568.501 790.051C570.077 788.886 570.866 787.026 570.866 784.469V778.034H570.461C570.077 778.73 569.523 779.504 568.799 780.357C568.089 781.209 567.109 781.947 565.859 782.572C564.609 783.197 562.982 783.51 560.979 783.51C558.394 783.51 556.065 782.906 553.991 781.699C551.931 780.477 550.298 778.68 549.09 776.308C547.897 773.922 547.3 770.989 547.3 767.509C547.3 764.028 547.89 761.045 549.069 758.56C550.262 756.074 551.896 754.17 553.969 752.849C556.043 751.514 558.394 750.847 561.022 750.847C563.053 750.847 564.694 751.188 565.944 751.869C567.194 752.537 568.167 753.318 568.863 754.213C569.573 755.108 570.12 755.896 570.504 756.578H570.972V751.273H577.215V784.724C577.215 787.537 576.562 789.845 575.255 791.649C573.948 793.453 572.18 794.788 569.95 795.655C567.734 796.521 565.234 796.955 562.45 796.955ZM562.386 778.226C564.218 778.226 565.766 777.8 567.031 776.947C568.309 776.081 569.275 774.845 569.928 773.24C570.596 771.621 570.93 769.682 570.93 767.423C570.93 765.222 570.603 763.283 569.95 761.607C569.296 759.93 568.337 758.624 567.073 757.686C565.809 756.734 564.246 756.259 562.386 756.259C560.468 756.259 558.87 756.756 557.592 757.75C556.313 758.73 555.347 760.065 554.694 761.756C554.055 763.446 553.735 765.335 553.735 767.423C553.735 769.568 554.062 771.45 554.715 773.07C555.369 774.689 556.335 775.953 557.613 776.862C558.906 777.771 560.496 778.226 562.386 778.226ZM629.135 751.273L617.267 784H610.449L598.56 751.273H605.4L613.688 776.457H614.029L622.296 751.273H629.135ZM634.873 784V751.273H641.243V784H634.873ZM638.09 746.223C636.982 746.223 636.03 745.854 635.235 745.115C634.453 744.362 634.063 743.467 634.063 742.43C634.063 741.379 634.453 740.484 635.235 739.746C636.03 738.993 636.982 738.616 638.09 738.616C639.198 738.616 640.142 738.993 640.924 739.746C641.719 740.484 642.117 741.379 642.117 742.43C642.117 743.467 641.719 744.362 640.924 745.115C640.142 745.854 639.198 746.223 638.09 746.223ZM674.088 759.263L668.314 760.286C668.072 759.547 667.689 758.844 667.163 758.176C666.652 757.509 665.956 756.962 665.075 756.536C664.195 756.109 663.094 755.896 661.773 755.896C659.969 755.896 658.463 756.301 657.256 757.111C656.048 757.906 655.445 758.936 655.445 760.2C655.445 761.294 655.849 762.175 656.659 762.842C657.469 763.51 658.776 764.057 660.58 764.483L665.778 765.676C668.79 766.372 671.034 767.445 672.511 768.893C673.989 770.342 674.727 772.224 674.727 774.54C674.727 776.5 674.159 778.247 673.023 779.781C671.901 781.301 670.331 782.494 668.314 783.361C666.311 784.227 663.989 784.661 661.347 784.661C657.682 784.661 654.692 783.879 652.376 782.317C650.061 780.74 648.641 778.503 648.115 775.605L654.273 774.668C654.656 776.273 655.445 777.487 656.638 778.311C657.831 779.121 659.386 779.526 661.304 779.526C663.392 779.526 665.061 779.092 666.311 778.226C667.561 777.345 668.186 776.273 668.186 775.009C668.186 773.986 667.803 773.126 667.036 772.43C666.283 771.734 665.125 771.209 663.562 770.854L658.023 769.639C654.969 768.943 652.71 767.835 651.247 766.315C649.798 764.795 649.074 762.871 649.074 760.541C649.074 758.609 649.614 756.919 650.693 755.47C651.773 754.021 653.264 752.892 655.168 752.082C657.071 751.259 659.251 750.847 661.709 750.847C665.246 750.847 668.03 751.614 670.061 753.148C672.092 754.668 673.435 756.706 674.088 759.263ZM702.213 770.428V751.273H708.605V784H702.341V778.332H702C701.248 780.08 700.04 781.536 698.378 782.7C696.73 783.851 694.678 784.426 692.221 784.426C690.118 784.426 688.257 783.964 686.638 783.041C685.033 782.104 683.769 780.719 682.846 778.886C681.936 777.054 681.482 774.788 681.482 772.089V751.273H687.853V771.322C687.853 773.553 688.471 775.328 689.706 776.649C690.942 777.97 692.547 778.631 694.522 778.631C695.715 778.631 696.901 778.332 698.08 777.736C699.273 777.139 700.26 776.237 701.042 775.03C701.837 773.822 702.228 772.288 702.213 770.428ZM726.44 784.724C724.366 784.724 722.491 784.341 720.815 783.574C719.138 782.793 717.81 781.663 716.83 780.186C715.864 778.709 715.381 776.898 715.381 774.753C715.381 772.906 715.737 771.386 716.447 770.193C717.157 769 718.116 768.055 719.323 767.359C720.531 766.663 721.88 766.138 723.371 765.783C724.863 765.428 726.383 765.158 727.931 764.973C729.891 764.746 731.482 764.561 732.704 764.419C733.925 764.263 734.813 764.014 735.367 763.673C735.921 763.332 736.198 762.778 736.198 762.011V761.862C736.198 760.001 735.673 758.56 734.621 757.537C733.585 756.514 732.036 756.003 729.977 756.003C727.832 756.003 726.141 756.479 724.906 757.43C723.684 758.368 722.839 759.412 722.37 760.562L716.383 759.199C717.093 757.21 718.13 755.605 719.494 754.384C720.871 753.148 722.455 752.253 724.245 751.699C726.035 751.131 727.917 750.847 729.891 750.847C731.198 750.847 732.583 751.003 734.046 751.315C735.523 751.614 736.901 752.168 738.18 752.977C739.472 753.787 740.531 754.945 741.354 756.45C742.178 757.942 742.59 759.881 742.59 762.267V784H736.369V779.526H736.113C735.701 780.349 735.083 781.159 734.259 781.955C733.435 782.75 732.377 783.411 731.085 783.936C729.792 784.462 728.244 784.724 726.44 784.724ZM727.825 779.611C729.586 779.611 731.092 779.263 732.342 778.567C733.606 777.871 734.565 776.962 735.218 775.839C735.886 774.703 736.219 773.489 736.219 772.196V767.977C735.992 768.205 735.552 768.418 734.898 768.616C734.259 768.801 733.528 768.964 732.704 769.107C731.88 769.234 731.077 769.355 730.296 769.469C729.515 769.568 728.862 769.653 728.336 769.724C727.1 769.881 725.971 770.143 724.948 770.513C723.94 770.882 723.13 771.415 722.519 772.111C721.923 772.793 721.624 773.702 721.624 774.838C721.624 776.415 722.207 777.608 723.371 778.418C724.536 779.213 726.021 779.611 727.825 779.611ZM757.196 740.364V784H750.826V740.364H757.196ZM790.041 759.263L784.267 760.286C784.026 759.547 783.642 758.844 783.116 758.176C782.605 757.509 781.909 756.962 781.028 756.536C780.148 756.109 779.047 755.896 777.726 755.896C775.922 755.896 774.416 756.301 773.209 757.111C772.001 757.906 771.398 758.936 771.398 760.2C771.398 761.294 771.803 762.175 772.612 762.842C773.422 763.51 774.729 764.057 776.533 764.483L781.732 765.676C784.743 766.372 786.987 767.445 788.464 768.893C789.942 770.342 790.68 772.224 790.68 774.54C790.68 776.5 790.112 778.247 788.976 779.781C787.854 781.301 786.284 782.494 784.267 783.361C782.264 784.227 779.942 784.661 777.3 784.661C773.635 784.661 770.645 783.879 768.33 782.317C766.014 780.74 764.594 778.503 764.068 775.605L770.226 774.668C770.609 776.273 771.398 777.487 772.591 778.311C773.784 779.121 775.339 779.526 777.257 779.526C779.345 779.526 781.014 779.092 782.264 778.226C783.514 777.345 784.139 776.273 784.139 775.009C784.139 773.986 783.756 773.126 782.989 772.43C782.236 771.734 781.078 771.209 779.516 770.854L773.976 769.639C770.922 768.943 768.663 767.835 767.2 766.315C765.751 764.795 765.027 762.871 765.027 760.541C765.027 758.609 765.567 756.919 766.646 755.47C767.726 754.021 769.217 752.892 771.121 752.082C773.024 751.259 775.205 750.847 777.662 750.847C781.199 750.847 783.983 751.614 786.014 753.148C788.045 754.668 789.388 756.706 790.041 759.263ZM814.918 765.889C814.918 760.548 815.621 755.634 817.027 751.145C818.433 746.656 820.486 742.516 823.185 738.723H829.023C827.972 740.129 826.991 741.855 826.082 743.901C825.173 745.946 824.378 748.19 823.696 750.634C823.014 753.062 822.482 755.584 822.098 758.197C821.714 760.797 821.523 763.361 821.523 765.889C821.523 769.27 821.857 772.693 822.524 776.159C823.192 779.625 824.094 782.842 825.23 785.811C826.366 788.78 827.631 791.202 829.023 793.077H823.185C820.486 789.284 818.433 785.143 817.027 780.655C815.621 776.166 814.918 771.244 814.918 765.889ZM835.49 796.273V751.273H841.711V756.578H842.244C842.613 755.896 843.146 755.108 843.842 754.213C844.538 753.318 845.504 752.537 846.74 751.869C847.975 751.188 849.609 750.847 851.64 750.847C854.282 750.847 856.64 751.514 858.714 752.849C860.788 754.185 862.414 756.109 863.593 758.624C864.787 761.138 865.383 764.163 865.383 767.7C865.383 771.237 864.794 774.27 863.615 776.798C862.436 779.312 860.816 781.251 858.757 782.615C856.697 783.964 854.346 784.639 851.704 784.639C849.716 784.639 848.089 784.305 846.825 783.638C845.575 782.97 844.595 782.189 843.885 781.294C843.174 780.399 842.627 779.604 842.244 778.908H841.86V796.273H835.49ZM841.733 767.636C841.733 769.937 842.066 771.955 842.734 773.688C843.402 775.42 844.368 776.777 845.632 777.757C846.896 778.723 848.444 779.206 850.277 779.206C852.18 779.206 853.771 778.702 855.049 777.693C856.328 776.67 857.294 775.286 857.947 773.538C858.615 771.791 858.949 769.824 858.949 767.636C858.949 765.477 858.622 763.538 857.968 761.82C857.329 760.101 856.363 758.744 855.071 757.75C853.792 756.756 852.194 756.259 850.277 756.259C848.43 756.259 846.868 756.734 845.589 757.686C844.325 758.638 843.366 759.966 842.713 761.67C842.059 763.375 841.733 765.364 841.733 767.636ZM886.056 784.661C882.988 784.661 880.311 783.957 878.024 782.551C875.737 781.145 873.961 779.178 872.697 776.649C871.433 774.121 870.801 771.166 870.801 767.786C870.801 764.391 871.433 761.422 872.697 758.879C873.961 756.337 875.737 754.362 878.024 752.956C880.311 751.55 882.988 750.847 886.056 750.847C889.125 750.847 891.802 751.55 894.089 752.956C896.376 754.362 898.152 756.337 899.416 758.879C900.68 761.422 901.312 764.391 901.312 767.786C901.312 771.166 900.68 774.121 899.416 776.649C898.152 779.178 896.376 781.145 894.089 782.551C891.802 783.957 889.125 784.661 886.056 784.661ZM886.078 779.312C888.066 779.312 889.714 778.787 891.021 777.736C892.328 776.685 893.294 775.286 893.919 773.538C894.558 771.791 894.877 769.866 894.877 767.764C894.877 765.676 894.558 763.759 893.919 762.011C893.294 760.25 892.328 758.837 891.021 757.771C889.714 756.706 888.066 756.173 886.078 756.173C884.075 756.173 882.413 756.706 881.092 757.771C879.785 758.837 878.812 760.25 878.173 762.011C877.548 763.759 877.235 765.676 877.235 767.764C877.235 769.866 877.548 771.791 878.173 773.538C878.812 775.286 879.785 776.685 881.092 777.736C882.413 778.787 884.075 779.312 886.078 779.312ZM928.905 770.428V751.273H935.297V784H929.033V778.332H928.692C927.939 780.08 926.732 781.536 925.07 782.7C923.422 783.851 921.369 784.426 918.912 784.426C916.81 784.426 914.949 783.964 913.33 783.041C911.724 782.104 910.46 780.719 909.537 778.886C908.628 777.054 908.173 774.788 908.173 772.089V751.273H914.544V771.322C914.544 773.553 915.162 775.328 916.398 776.649C917.634 777.97 919.239 778.631 921.213 778.631C922.406 778.631 923.592 778.332 924.771 777.736C925.964 777.139 926.952 776.237 927.733 775.03C928.528 773.822 928.919 772.288 928.905 770.428ZM943.607 784V751.273H949.765V756.472H950.105C950.702 754.71 951.753 753.325 953.259 752.317C954.779 751.294 956.498 750.783 958.415 750.783C958.813 750.783 959.282 750.797 959.821 750.825C960.375 750.854 960.809 750.889 961.121 750.932V757.026C960.865 756.955 960.411 756.876 959.757 756.791C959.104 756.692 958.451 756.642 957.797 756.642C956.292 756.642 954.949 756.962 953.77 757.601C952.605 758.226 951.682 759.099 951 760.222C950.319 761.33 949.978 762.594 949.978 764.014V784H943.607ZM966.384 784V751.273H972.755V784H966.384ZM969.602 746.223C968.494 746.223 967.542 745.854 966.746 745.115C965.965 744.362 965.575 743.467 965.575 742.43C965.575 741.379 965.965 740.484 966.746 739.746C967.542 738.993 968.494 738.616 969.602 738.616C970.71 738.616 971.654 738.993 972.435 739.746C973.231 740.484 973.629 741.379 973.629 742.43C973.629 743.467 973.231 744.362 972.435 745.115C971.654 745.854 970.71 746.223 969.602 746.223ZM987.446 764.568V784H981.076V751.273H987.191V756.599H987.596C988.348 754.866 989.527 753.474 991.132 752.423C992.752 751.372 994.79 750.847 997.248 750.847C999.478 750.847 1001.43 751.315 1003.11 752.253C1004.78 753.176 1006.08 754.554 1007.01 756.386C1007.93 758.219 1008.39 760.484 1008.39 763.183V784H1002.02V763.95C1002.02 761.578 1001.4 759.724 1000.17 758.389C998.931 757.04 997.233 756.365 995.074 756.365C993.597 756.365 992.283 756.685 991.132 757.324C989.996 757.963 989.094 758.901 988.426 760.136C987.773 761.358 987.446 762.835 987.446 764.568ZM1030.41 796.955C1027.81 796.955 1025.57 796.614 1023.69 795.932C1021.83 795.25 1020.31 794.348 1019.14 793.226C1017.96 792.104 1017.08 790.875 1016.49 789.54L1021.97 787.281C1022.35 787.906 1022.86 788.567 1023.5 789.263C1024.16 789.973 1025.04 790.577 1026.15 791.074C1027.27 791.571 1028.71 791.82 1030.47 791.82C1032.89 791.82 1034.88 791.23 1036.46 790.051C1038.03 788.886 1038.82 787.026 1038.82 784.469V778.034H1038.42C1038.03 778.73 1037.48 779.504 1036.76 780.357C1036.05 781.209 1035.07 781.947 1033.82 782.572C1032.57 783.197 1030.94 783.51 1028.94 783.51C1026.35 783.51 1024.02 782.906 1021.95 781.699C1019.89 780.477 1018.25 778.68 1017.05 776.308C1015.85 773.922 1015.26 770.989 1015.26 767.509C1015.26 764.028 1015.85 761.045 1017.03 758.56C1018.22 756.074 1019.85 754.17 1021.93 752.849C1024 751.514 1026.35 750.847 1028.98 750.847C1031.01 750.847 1032.65 751.188 1033.9 751.869C1035.15 752.537 1036.12 753.318 1036.82 754.213C1037.53 755.108 1038.08 755.896 1038.46 756.578H1038.93V751.273H1045.17V784.724C1045.17 787.537 1044.52 789.845 1043.21 791.649C1041.91 793.453 1040.14 794.788 1037.91 795.655C1035.69 796.521 1033.19 796.955 1030.41 796.955ZM1030.34 778.226C1032.18 778.226 1033.72 777.8 1034.99 776.947C1036.27 776.081 1037.23 774.845 1037.89 773.24C1038.55 771.621 1038.89 769.682 1038.89 767.423C1038.89 765.222 1038.56 763.283 1037.91 761.607C1037.25 759.93 1036.29 758.624 1035.03 757.686C1033.77 756.734 1032.2 756.259 1030.34 756.259C1028.43 756.259 1026.83 756.756 1025.55 757.75C1024.27 758.73 1023.3 760.065 1022.65 761.756C1022.01 763.446 1021.69 765.335 1021.69 767.423C1021.69 769.568 1022.02 771.45 1022.67 773.07C1023.33 774.689 1024.29 775.953 1025.57 776.862C1026.86 777.771 1028.45 778.226 1030.34 778.226ZM1061.75 778.034L1061.44 780.357C1061.22 782.061 1060.86 783.837 1060.35 785.683C1059.85 787.544 1059.33 789.27 1058.79 790.861C1058.27 792.452 1057.83 793.716 1057.49 794.653H1052.98C1053.16 793.773 1053.42 792.58 1053.74 791.074C1054.07 789.582 1054.39 787.913 1054.7 786.067C1055.01 784.22 1055.25 782.338 1055.41 780.42L1055.62 778.034H1061.75ZM1109.95 759.263L1104.18 760.286C1103.94 759.547 1103.55 758.844 1103.03 758.176C1102.52 757.509 1101.82 756.962 1100.94 756.536C1100.06 756.109 1098.96 755.896 1097.64 755.896C1095.83 755.896 1094.33 756.301 1093.12 757.111C1091.91 757.906 1091.31 758.936 1091.31 760.2C1091.31 761.294 1091.71 762.175 1092.52 762.842C1093.33 763.51 1094.64 764.057 1096.44 764.483L1101.64 765.676C1104.65 766.372 1106.9 767.445 1108.37 768.893C1109.85 770.342 1110.59 772.224 1110.59 774.54C1110.59 776.5 1110.02 778.247 1108.89 779.781C1107.76 781.301 1106.19 782.494 1104.18 783.361C1102.17 784.227 1099.85 784.661 1097.21 784.661C1093.55 784.661 1090.56 783.879 1088.24 782.317C1085.92 780.74 1084.5 778.503 1083.98 775.605L1090.14 774.668C1090.52 776.273 1091.31 777.487 1092.5 778.311C1093.69 779.121 1095.25 779.526 1097.17 779.526C1099.26 779.526 1100.92 779.092 1102.17 778.226C1103.42 777.345 1104.05 776.273 1104.05 775.009C1104.05 773.986 1103.67 773.126 1102.9 772.43C1102.15 771.734 1100.99 771.209 1099.43 770.854L1093.89 769.639C1090.83 768.943 1088.57 767.835 1087.11 766.315C1085.66 764.795 1084.94 762.871 1084.94 760.541C1084.94 758.609 1085.48 756.919 1086.56 755.47C1087.64 754.021 1089.13 752.892 1091.03 752.082C1092.93 751.259 1095.11 750.847 1097.57 750.847C1101.11 750.847 1103.89 751.614 1105.92 753.148C1107.96 754.668 1109.3 756.706 1109.95 759.263ZM1117.35 784V751.273H1123.72V784H1117.35ZM1120.56 746.223C1119.45 746.223 1118.5 745.854 1117.71 745.115C1116.93 744.362 1116.54 743.467 1116.54 742.43C1116.54 741.379 1116.93 740.484 1117.71 739.746C1118.5 738.993 1119.45 738.616 1120.56 738.616C1121.67 738.616 1122.62 738.993 1123.4 739.746C1124.19 740.484 1124.59 741.379 1124.59 742.43C1124.59 743.467 1124.19 744.362 1123.4 745.115C1122.62 745.854 1121.67 746.223 1120.56 746.223ZM1131.35 784V779.632L1149.08 757.111V756.812H1131.93V751.273H1157.03V755.918L1139.98 778.162V778.46H1157.63V784H1131.35ZM1164.21 784V779.632L1181.94 757.111V756.812H1164.79V751.273H1189.88V755.918L1172.84 778.162V778.46H1190.48V784H1164.21ZM1204.12 740.364V784H1197.75V740.364H1204.12ZM1212.44 784V751.273H1218.81V784H1212.44ZM1215.66 746.223C1214.55 746.223 1213.6 745.854 1212.8 745.115C1212.02 744.362 1211.63 743.467 1211.63 742.43C1211.63 741.379 1212.02 740.484 1212.8 739.746C1213.6 738.993 1214.55 738.616 1215.66 738.616C1216.76 738.616 1217.71 738.993 1218.49 739.746C1219.29 740.484 1219.68 741.379 1219.68 742.43C1219.68 743.467 1219.29 744.362 1218.49 745.115C1217.71 745.854 1216.76 746.223 1215.66 746.223ZM1233.5 764.568V784H1227.13V751.273H1233.25V756.599H1233.65C1234.4 754.866 1235.58 753.474 1237.19 752.423C1238.81 751.372 1240.84 750.847 1243.3 750.847C1245.53 750.847 1247.49 751.315 1249.16 752.253C1250.84 753.176 1252.14 754.554 1253.06 756.386C1253.98 758.219 1254.45 760.484 1254.45 763.183V784H1248.07V763.95C1248.07 761.578 1247.46 759.724 1246.22 758.389C1244.99 757.04 1243.29 756.365 1241.13 756.365C1239.65 756.365 1238.34 756.685 1237.19 757.324C1236.05 757.963 1235.15 758.901 1234.48 760.136C1233.83 761.358 1233.5 762.835 1233.5 764.568ZM1276.46 796.955C1273.86 796.955 1271.62 796.614 1269.75 795.932C1267.89 795.25 1266.37 794.348 1265.19 793.226C1264.01 792.104 1263.13 790.875 1262.55 789.54L1268.02 787.281C1268.41 787.906 1268.92 788.567 1269.56 789.263C1270.21 789.973 1271.09 790.577 1272.2 791.074C1273.32 791.571 1274.76 791.82 1276.53 791.82C1278.94 791.82 1280.94 791.23 1282.51 790.051C1284.09 788.886 1284.88 787.026 1284.88 784.469V778.034H1284.47C1284.09 778.73 1283.54 779.504 1282.81 780.357C1282.1 781.209 1281.12 781.947 1279.87 782.572C1278.62 783.197 1276.99 783.51 1274.99 783.51C1272.41 783.51 1270.08 782.906 1268 781.699C1265.94 780.477 1264.31 778.68 1263.1 776.308C1261.91 773.922 1261.31 770.989 1261.31 767.509C1261.31 764.028 1261.9 761.045 1263.08 758.56C1264.27 756.074 1265.91 754.17 1267.98 752.849C1270.06 751.514 1272.41 750.847 1275.03 750.847C1277.06 750.847 1278.71 751.188 1279.96 751.869C1281.21 752.537 1282.18 753.318 1282.87 754.213C1283.58 755.108 1284.13 755.896 1284.52 756.578H1284.98V751.273H1291.23V784.724C1291.23 787.537 1290.57 789.845 1289.27 791.649C1287.96 793.453 1286.19 794.788 1283.96 795.655C1281.75 796.521 1279.25 796.955 1276.46 796.955ZM1276.4 778.226C1278.23 778.226 1279.78 777.8 1281.04 776.947C1282.32 776.081 1283.29 774.845 1283.94 773.24C1284.61 771.621 1284.94 769.682 1284.94 767.423C1284.94 765.222 1284.61 763.283 1283.96 761.607C1283.31 759.93 1282.35 758.624 1281.08 757.686C1279.82 756.734 1278.26 756.259 1276.4 756.259C1274.48 756.259 1272.88 756.756 1271.6 757.75C1270.32 758.73 1269.36 760.065 1268.71 761.756C1268.07 763.446 1267.75 765.335 1267.75 767.423C1267.75 769.568 1268.07 771.45 1268.73 773.07C1269.38 774.689 1270.35 775.953 1271.62 776.862C1272.92 777.771 1274.51 778.226 1276.4 778.226ZM1307.81 778.034L1307.49 780.357C1307.28 782.061 1306.91 783.837 1306.4 785.683C1305.91 787.544 1305.39 789.27 1304.85 790.861C1304.32 792.452 1303.89 793.716 1303.55 794.653H1299.03C1299.22 793.773 1299.47 792.58 1299.8 791.074C1300.12 789.582 1300.44 787.913 1300.76 786.067C1301.07 784.22 1301.3 782.338 1301.46 780.42L1301.67 778.034H1307.81ZM1352.21 770.428V751.273H1358.61V784H1352.34V778.332H1352C1351.25 780.08 1350.04 781.536 1348.38 782.7C1346.73 783.851 1344.68 784.426 1342.22 784.426C1340.12 784.426 1338.26 783.964 1336.64 783.041C1335.03 782.104 1333.77 780.719 1332.85 778.886C1331.94 777.054 1331.48 774.788 1331.48 772.089V751.273H1337.85V771.322C1337.85 773.553 1338.47 775.328 1339.71 776.649C1340.94 777.97 1342.55 778.631 1344.52 778.631C1345.71 778.631 1346.9 778.332 1348.08 777.736C1349.27 777.139 1350.26 776.237 1351.04 775.03C1351.84 773.822 1352.23 772.288 1352.21 770.428ZM1373.29 764.568V784H1366.92V751.273H1373.03V756.599H1373.44C1374.19 754.866 1375.37 753.474 1376.97 752.423C1378.59 751.372 1380.63 750.847 1383.09 750.847C1385.32 750.847 1387.27 751.315 1388.95 752.253C1390.62 753.176 1391.92 754.554 1392.85 756.386C1393.77 758.219 1394.23 760.484 1394.23 763.183V784H1387.86V763.95C1387.86 761.578 1387.24 759.724 1386.01 758.389C1384.77 757.04 1383.07 756.365 1380.91 756.365C1379.44 756.365 1378.12 756.685 1376.97 757.324C1375.84 757.963 1374.93 758.901 1374.27 760.136C1373.61 761.358 1373.29 762.835 1373.29 764.568ZM1403.04 784V740.364H1409.41V756.578H1409.79C1410.16 755.896 1410.69 755.108 1411.39 754.213C1412.08 753.318 1413.05 752.537 1414.29 751.869C1415.52 751.188 1417.16 750.847 1419.19 750.847C1421.83 750.847 1424.19 751.514 1426.26 752.849C1428.33 754.185 1429.96 756.109 1431.14 758.624C1432.33 761.138 1432.93 764.163 1432.93 767.7C1432.93 771.237 1432.34 774.27 1431.16 776.798C1429.98 779.312 1428.36 781.251 1426.3 782.615C1424.24 783.964 1421.89 784.639 1419.25 784.639C1417.26 784.639 1415.64 784.305 1414.37 783.638C1413.12 782.97 1412.14 782.189 1411.43 781.294C1410.72 780.399 1410.17 779.604 1409.79 778.908H1409.26V784H1403.04ZM1409.28 767.636C1409.28 769.937 1409.61 771.955 1410.28 773.688C1410.95 775.42 1411.91 776.777 1413.18 777.757C1414.44 778.723 1415.99 779.206 1417.82 779.206C1419.73 779.206 1421.32 778.702 1422.6 777.693C1423.87 776.67 1424.84 775.286 1425.49 773.538C1426.16 771.791 1426.5 769.824 1426.5 767.636C1426.5 765.477 1426.17 763.538 1425.51 761.82C1424.88 760.101 1423.91 758.744 1422.62 757.75C1421.34 756.756 1419.74 756.259 1417.82 756.259C1415.98 756.259 1414.41 756.734 1413.14 757.686C1411.87 758.638 1410.91 759.966 1410.26 761.67C1409.61 763.375 1409.28 765.364 1409.28 767.636ZM1453.62 784.661C1450.55 784.661 1447.87 783.957 1445.59 782.551C1443.3 781.145 1441.52 779.178 1440.26 776.649C1439 774.121 1438.36 771.166 1438.36 767.786C1438.36 764.391 1439 761.422 1440.26 758.879C1441.52 756.337 1443.3 754.362 1445.59 752.956C1447.87 751.55 1450.55 750.847 1453.62 750.847C1456.69 750.847 1459.36 751.55 1461.65 752.956C1463.94 754.362 1465.71 756.337 1466.98 758.879C1468.24 761.422 1468.87 764.391 1468.87 767.786C1468.87 771.166 1468.24 774.121 1466.98 776.649C1465.71 779.178 1463.94 781.145 1461.65 782.551C1459.36 783.957 1456.69 784.661 1453.62 784.661ZM1453.64 779.312C1455.63 779.312 1457.28 778.787 1458.58 777.736C1459.89 776.685 1460.86 775.286 1461.48 773.538C1462.12 771.791 1462.44 769.866 1462.44 767.764C1462.44 765.676 1462.12 763.759 1461.48 762.011C1460.86 760.25 1459.89 758.837 1458.58 757.771C1457.28 756.706 1455.63 756.173 1453.64 756.173C1451.64 756.173 1449.98 756.706 1448.65 757.771C1447.35 758.837 1446.37 760.25 1445.74 762.011C1445.11 763.759 1444.8 765.676 1444.8 767.764C1444.8 769.866 1445.11 771.791 1445.74 773.538C1446.37 775.286 1447.35 776.685 1448.65 777.736C1449.98 778.787 1451.64 779.312 1453.64 779.312ZM1479.48 751.273L1486.7 764.014L1493.99 751.273H1500.95L1490.75 767.636L1501.04 784H1494.07L1486.7 771.77L1479.35 784H1472.36L1482.54 767.636L1472.49 751.273H1479.48ZM1507.24 784V751.273H1513.61V784H1507.24ZM1510.46 746.223C1509.35 746.223 1508.4 745.854 1507.61 745.115C1506.82 744.362 1506.43 743.467 1506.43 742.43C1506.43 741.379 1506.82 740.484 1507.61 739.746C1508.4 738.993 1509.35 738.616 1510.46 738.616C1511.57 738.616 1512.51 738.993 1513.29 739.746C1514.09 740.484 1514.49 741.379 1514.49 742.43C1514.49 743.467 1514.09 744.362 1513.29 745.115C1512.51 745.854 1511.57 746.223 1510.46 746.223ZM1528.31 764.568V784H1521.94V751.273H1528.05V756.599H1528.45C1529.21 754.866 1530.39 753.474 1531.99 752.423C1533.61 751.372 1535.65 750.847 1538.11 750.847C1540.34 750.847 1542.29 751.315 1543.97 752.253C1545.64 753.176 1546.94 754.554 1547.87 756.386C1548.79 758.219 1549.25 760.484 1549.25 763.183V784H1542.88V763.95C1542.88 761.578 1542.26 759.724 1541.03 758.389C1539.79 757.04 1538.09 756.365 1535.93 756.365C1534.46 756.365 1533.14 756.685 1531.99 757.324C1530.86 757.963 1529.95 758.901 1529.29 760.136C1528.63 761.358 1528.31 762.835 1528.31 764.568ZM1571.27 796.955C1568.67 796.955 1566.43 796.614 1564.55 795.932C1562.69 795.25 1561.17 794.348 1559.99 793.226C1558.82 792.104 1557.94 790.875 1557.35 789.54L1562.83 787.281C1563.21 787.906 1563.72 788.567 1564.36 789.263C1565.02 789.973 1565.9 790.577 1567 791.074C1568.13 791.571 1569.57 791.82 1571.33 791.82C1573.74 791.82 1575.74 791.23 1577.32 790.051C1578.89 788.886 1579.68 787.026 1579.68 784.469V778.034H1579.28C1578.89 778.73 1578.34 779.504 1577.62 780.357C1576.91 781.209 1575.93 781.947 1574.68 782.572C1573.43 783.197 1571.8 783.51 1569.8 783.51C1567.21 783.51 1564.88 782.906 1562.81 781.699C1560.75 780.477 1559.11 778.68 1557.91 776.308C1556.71 773.922 1556.12 770.989 1556.12 767.509C1556.12 764.028 1556.71 761.045 1557.89 758.56C1559.08 756.074 1560.71 754.17 1562.79 752.849C1564.86 751.514 1567.21 750.847 1569.84 750.847C1571.87 750.847 1573.51 751.188 1574.76 751.869C1576.01 752.537 1576.98 753.318 1577.68 754.213C1578.39 755.108 1578.94 755.896 1579.32 756.578H1579.79V751.273H1586.03V784.724C1586.03 787.537 1585.38 789.845 1584.07 791.649C1582.76 793.453 1581 794.788 1578.77 795.655C1576.55 796.521 1574.05 796.955 1571.27 796.955ZM1571.2 778.226C1573.03 778.226 1574.58 777.8 1575.85 776.947C1577.13 776.081 1578.09 774.845 1578.74 773.24C1579.41 771.621 1579.75 769.682 1579.75 767.423C1579.75 765.222 1579.42 763.283 1578.77 761.607C1578.11 759.93 1577.15 758.624 1575.89 757.686C1574.63 756.734 1573.06 756.259 1571.2 756.259C1569.28 756.259 1567.69 756.756 1566.41 757.75C1565.13 758.73 1564.16 760.065 1563.51 761.756C1562.87 763.446 1562.55 765.335 1562.55 767.423C1562.55 769.568 1562.88 771.45 1563.53 773.07C1564.19 774.689 1565.15 775.953 1566.43 776.862C1567.72 777.771 1569.31 778.226 1571.2 778.226ZM1606.58 765.889C1606.58 771.244 1605.87 776.166 1604.47 780.655C1603.06 785.143 1601.01 789.284 1598.31 793.077H1592.47C1593.52 791.67 1594.5 789.945 1595.41 787.899C1596.32 785.854 1597.12 783.616 1597.8 781.188C1598.48 778.744 1599.01 776.216 1599.4 773.602C1599.78 770.989 1599.97 768.418 1599.97 765.889C1599.97 762.523 1599.64 759.107 1598.97 755.641C1598.3 752.175 1597.4 748.957 1596.26 745.989C1595.13 743.02 1593.86 740.598 1592.47 738.723H1598.31C1601.01 742.516 1603.06 746.656 1604.47 751.145C1605.87 755.634 1606.58 760.548 1606.58 765.889ZM322.068 874.661C319 874.661 316.322 873.957 314.036 872.551C311.749 871.145 309.973 869.178 308.709 866.649C307.445 864.121 306.812 861.166 306.812 857.786C306.812 854.391 307.445 851.422 308.709 848.879C309.973 846.337 311.749 844.362 314.036 842.956C316.322 841.55 319 840.847 322.068 840.847C325.136 840.847 327.814 841.55 330.101 842.956C332.388 844.362 334.163 846.337 335.428 848.879C336.692 851.422 337.324 854.391 337.324 857.786C337.324 861.166 336.692 864.121 335.428 866.649C334.163 869.178 332.388 871.145 330.101 872.551C327.814 873.957 325.136 874.661 322.068 874.661ZM322.089 869.312C324.078 869.312 325.726 868.787 327.033 867.736C328.339 866.685 329.305 865.286 329.93 863.538C330.57 861.791 330.889 859.866 330.889 857.764C330.889 855.676 330.57 853.759 329.93 852.011C329.305 850.25 328.339 848.837 327.033 847.771C325.726 846.706 324.078 846.173 322.089 846.173C320.087 846.173 318.425 846.706 317.104 847.771C315.797 848.837 314.824 850.25 314.185 852.011C313.56 853.759 313.247 855.676 313.247 857.764C313.247 859.866 313.56 861.791 314.185 863.538C314.824 865.286 315.797 866.685 317.104 867.736C318.425 868.787 320.087 869.312 322.089 869.312ZM364.917 860.428V841.273H371.309V874H365.044V868.332H364.703C363.951 870.08 362.743 871.536 361.081 872.7C359.434 873.851 357.381 874.426 354.924 874.426C352.821 874.426 350.961 873.964 349.341 873.041C347.736 872.104 346.472 870.719 345.549 868.886C344.64 867.054 344.185 864.788 344.185 862.089V841.273H350.556V861.322C350.556 863.553 351.174 865.328 352.409 866.649C353.645 867.97 355.25 868.631 357.225 868.631C358.418 868.631 359.604 868.332 360.783 867.736C361.976 867.139 362.963 866.237 363.745 865.03C364.54 863.822 364.931 862.288 364.917 860.428ZM394.896 841.273V846.386H377.019V841.273H394.896ZM381.813 833.432H388.184V864.391C388.184 865.626 388.369 866.557 388.738 867.182C389.107 867.793 389.583 868.212 390.165 868.439C390.762 868.652 391.408 868.759 392.104 868.759C392.616 868.759 393.063 868.723 393.447 868.652C393.83 868.581 394.129 868.524 394.342 868.482L395.492 873.744C395.123 873.886 394.597 874.028 393.915 874.17C393.234 874.327 392.381 874.412 391.359 874.426C389.683 874.455 388.12 874.156 386.671 873.531C385.222 872.906 384.05 871.94 383.156 870.634C382.261 869.327 381.813 867.686 381.813 865.712V833.432ZM401.693 886.273V841.273H407.914V846.578H408.447C408.816 845.896 409.349 845.108 410.045 844.213C410.741 843.318 411.707 842.537 412.943 841.869C414.179 841.188 415.812 840.847 417.843 840.847C420.485 840.847 422.843 841.514 424.917 842.849C426.991 844.185 428.618 846.109 429.797 848.624C430.99 851.138 431.586 854.163 431.586 857.7C431.586 861.237 430.997 864.27 429.818 866.798C428.639 869.312 427.02 871.251 424.96 872.615C422.9 873.964 420.549 874.639 417.907 874.639C415.919 874.639 414.292 874.305 413.028 873.638C411.778 872.97 410.798 872.189 410.088 871.294C409.377 870.399 408.831 869.604 408.447 868.908H408.064V886.273H401.693ZM407.936 857.636C407.936 859.937 408.27 861.955 408.937 863.688C409.605 865.42 410.571 866.777 411.835 867.757C413.099 868.723 414.647 869.206 416.48 869.206C418.383 869.206 419.974 868.702 421.252 867.693C422.531 866.67 423.497 865.286 424.15 863.538C424.818 861.791 425.152 859.824 425.152 857.636C425.152 855.477 424.825 853.538 424.172 851.82C423.532 850.101 422.566 848.744 421.274 847.75C419.995 846.756 418.397 846.259 416.48 846.259C414.633 846.259 413.071 846.734 411.792 847.686C410.528 848.638 409.569 849.966 408.916 851.67C408.262 853.375 407.936 855.364 407.936 857.636ZM452.579 874.661C449.355 874.661 446.578 873.972 444.248 872.594C441.933 871.202 440.143 869.249 438.879 866.734C437.629 864.206 437.004 861.244 437.004 857.849C437.004 854.497 437.629 851.543 438.879 848.986C440.143 846.429 441.904 844.433 444.163 842.999C446.436 841.564 449.092 840.847 452.132 840.847C453.978 840.847 455.768 841.152 457.501 841.763C459.234 842.374 460.789 843.332 462.167 844.639C463.545 845.946 464.632 847.643 465.427 849.732C466.223 851.805 466.62 854.327 466.62 857.295V859.554H440.605V854.781H460.377C460.377 853.105 460.037 851.621 459.355 850.328C458.673 849.021 457.714 847.991 456.478 847.239C455.257 846.486 453.822 846.109 452.174 846.109C450.385 846.109 448.822 846.55 447.487 847.43C446.166 848.297 445.143 849.433 444.419 850.839C443.708 852.232 443.353 853.744 443.353 855.378V859.107C443.353 861.294 443.737 863.155 444.504 864.689C445.285 866.223 446.372 867.395 447.764 868.205C449.156 869 450.782 869.398 452.643 869.398C453.85 869.398 454.951 869.227 455.946 868.886C456.94 868.531 457.799 868.006 458.524 867.31C459.248 866.614 459.802 865.754 460.186 864.732L466.216 865.818C465.733 867.594 464.866 869.149 463.616 870.484C462.38 871.805 460.825 872.835 458.95 873.574C457.089 874.298 454.966 874.661 452.579 874.661ZM473.439 874V841.273H479.597V846.472H479.938C480.534 844.71 481.585 843.325 483.091 842.317C484.611 841.294 486.33 840.783 488.247 840.783C488.645 840.783 489.114 840.797 489.653 840.825C490.207 840.854 490.641 840.889 490.953 840.932V847.026C490.697 846.955 490.243 846.876 489.589 846.791C488.936 846.692 488.283 846.642 487.629 846.642C486.124 846.642 484.781 846.962 483.602 847.601C482.438 848.226 481.514 849.099 480.832 850.222C480.151 851.33 479.81 852.594 479.81 854.014V874H473.439ZM513.725 841.273V846.386H495.231V841.273H513.725ZM500.302 874V837.48C500.302 835.435 500.749 833.737 501.644 832.388C502.539 831.024 503.725 830.009 505.202 829.341C506.68 828.659 508.285 828.318 510.018 828.318C511.296 828.318 512.39 828.425 513.299 828.638C514.208 828.837 514.883 829.021 515.323 829.192L513.832 834.348C513.533 834.263 513.15 834.163 512.681 834.05C512.212 833.922 511.644 833.858 510.977 833.858C509.428 833.858 508.32 834.241 507.653 835.009C506.999 835.776 506.673 836.884 506.673 838.332V874H500.302ZM532.545 874.661C529.477 874.661 526.799 873.957 524.512 872.551C522.225 871.145 520.45 869.178 519.185 866.649C517.921 864.121 517.289 861.166 517.289 857.786C517.289 854.391 517.921 851.422 519.185 848.879C520.45 846.337 522.225 844.362 524.512 842.956C526.799 841.55 529.477 840.847 532.545 840.847C535.613 840.847 538.29 841.55 540.577 842.956C542.864 844.362 544.64 846.337 545.904 848.879C547.168 851.422 547.8 854.391 547.8 857.786C547.8 861.166 547.168 864.121 545.904 866.649C544.64 869.178 542.864 871.145 540.577 872.551C538.29 873.957 535.613 874.661 532.545 874.661ZM532.566 869.312C534.555 869.312 536.202 868.787 537.509 867.736C538.816 866.685 539.782 865.286 540.407 863.538C541.046 861.791 541.366 859.866 541.366 857.764C541.366 855.676 541.046 853.759 540.407 852.011C539.782 850.25 538.816 848.837 537.509 847.771C536.202 846.706 534.555 846.173 532.566 846.173C530.563 846.173 528.901 846.706 527.58 847.771C526.273 848.837 525.3 850.25 524.661 852.011C524.036 853.759 523.724 855.676 523.724 857.764C523.724 859.866 524.036 861.791 524.661 863.538C525.3 865.286 526.273 866.685 527.58 867.736C528.901 868.787 530.563 869.312 532.566 869.312ZM554.662 874V841.273H560.819V846.472H561.16C561.757 844.71 562.808 843.325 564.314 842.317C565.833 841.294 567.552 840.783 569.47 840.783C569.868 840.783 570.336 840.797 570.876 840.825C571.43 840.854 571.863 840.889 572.176 840.932V847.026C571.92 846.955 571.466 846.876 570.812 846.791C570.159 846.692 569.505 846.642 568.852 846.642C567.346 846.642 566.004 846.962 564.825 847.601C563.66 848.226 562.737 849.099 562.055 850.222C561.373 851.33 561.032 852.594 561.032 854.014V874H554.662ZM577.439 874V841.273H583.554V846.599H583.959C584.641 844.795 585.756 843.389 587.304 842.381C588.852 841.358 590.706 840.847 592.865 840.847C595.053 840.847 596.885 841.358 598.362 842.381C599.854 843.403 600.955 844.81 601.665 846.599H602.006C602.787 844.852 604.03 843.46 605.734 842.423C607.439 841.372 609.47 840.847 611.828 840.847C614.797 840.847 617.219 841.777 619.094 843.638C620.983 845.499 621.928 848.304 621.928 852.054V874H615.557V852.651C615.557 850.435 614.953 848.83 613.746 847.835C612.538 846.841 611.097 846.344 609.42 846.344C607.347 846.344 605.734 846.983 604.584 848.261C603.433 849.526 602.858 851.152 602.858 853.141V874H596.509V852.246C596.509 850.47 595.955 849.043 594.847 847.963C593.739 846.884 592.297 846.344 590.521 846.344C589.314 846.344 588.199 846.663 587.176 847.303C586.168 847.928 585.351 848.801 584.726 849.923C584.115 851.045 583.81 852.345 583.81 853.822V874H577.439ZM661.122 841.273V846.386H643.246V841.273H661.122ZM648.04 833.432H654.411V864.391C654.411 865.626 654.595 866.557 654.964 867.182C655.334 867.793 655.81 868.212 656.392 868.439C656.989 868.652 657.635 868.759 658.331 868.759C658.842 868.759 659.29 868.723 659.673 868.652C660.057 868.581 660.355 868.524 660.568 868.482L661.719 873.744C661.349 873.886 660.824 874.028 660.142 874.17C659.46 874.327 658.608 874.412 657.585 874.426C655.909 874.455 654.347 874.156 652.898 873.531C651.449 872.906 650.277 871.94 649.382 870.634C648.487 869.327 648.04 867.686 648.04 865.712V833.432ZM667.919 874V841.273H674.077V846.472H674.418C675.015 844.71 676.066 843.325 677.571 842.317C679.091 841.294 680.81 840.783 682.728 840.783C683.125 840.783 683.594 840.797 684.134 840.825C684.688 840.854 685.121 840.889 685.434 840.932V847.026C685.178 846.955 684.723 846.876 684.07 846.791C683.417 846.692 682.763 846.642 682.11 846.642C680.604 846.642 679.262 846.962 678.083 847.601C676.918 848.226 675.995 849.099 675.313 850.222C674.631 851.33 674.29 852.594 674.29 854.014V874H667.919ZM699.928 874.724C697.854 874.724 695.979 874.341 694.303 873.574C692.627 872.793 691.299 871.663 690.319 870.186C689.353 868.709 688.87 866.898 688.87 864.753C688.87 862.906 689.225 861.386 689.935 860.193C690.645 859 691.604 858.055 692.811 857.359C694.019 856.663 695.368 856.138 696.86 855.783C698.351 855.428 699.871 855.158 701.419 854.973C703.38 854.746 704.971 854.561 706.192 854.419C707.414 854.263 708.301 854.014 708.855 853.673C709.409 853.332 709.686 852.778 709.686 852.011V851.862C709.686 850.001 709.161 848.56 708.11 847.537C707.073 846.514 705.525 846.003 703.465 846.003C701.32 846.003 699.63 846.479 698.394 847.43C697.172 848.368 696.327 849.412 695.858 850.562L689.871 849.199C690.581 847.21 691.618 845.605 692.982 844.384C694.36 843.148 695.944 842.253 697.733 841.699C699.523 841.131 701.405 840.847 703.38 840.847C704.686 840.847 706.071 841.003 707.534 841.315C709.012 841.614 710.39 842.168 711.668 842.977C712.961 843.787 714.019 844.945 714.843 846.45C715.667 847.942 716.078 849.881 716.078 852.267V874H709.857V869.526H709.601C709.189 870.349 708.571 871.159 707.748 871.955C706.924 872.75 705.865 873.411 704.573 873.936C703.28 874.462 701.732 874.724 699.928 874.724ZM701.313 869.611C703.074 869.611 704.58 869.263 705.83 868.567C707.094 867.871 708.053 866.962 708.706 865.839C709.374 864.703 709.708 863.489 709.708 862.196V857.977C709.48 858.205 709.04 858.418 708.387 858.616C707.748 858.801 707.016 858.964 706.192 859.107C705.368 859.234 704.566 859.355 703.784 859.469C703.003 859.568 702.35 859.653 701.824 859.724C700.588 859.881 699.459 860.143 698.436 860.513C697.428 860.882 696.618 861.415 696.007 862.111C695.411 862.793 695.113 863.702 695.113 864.838C695.113 866.415 695.695 867.608 696.86 868.418C698.025 869.213 699.509 869.611 701.313 869.611ZM736.565 874.639C733.923 874.639 731.565 873.964 729.491 872.615C727.432 871.251 725.813 869.312 724.634 866.798C723.469 864.27 722.886 861.237 722.886 857.7C722.886 854.163 723.476 851.138 724.655 848.624C725.848 846.109 727.482 844.185 729.555 842.849C731.629 841.514 733.98 840.847 736.608 840.847C738.639 840.847 740.273 841.188 741.509 841.869C742.759 842.537 743.724 843.318 744.406 844.213C745.102 845.108 745.642 845.896 746.026 846.578H746.409V830.364H752.78V874H746.558V868.908H746.026C745.642 869.604 745.088 870.399 744.364 871.294C743.653 872.189 742.673 872.97 741.423 873.638C740.173 874.305 738.554 874.639 736.565 874.639ZM737.972 869.206C739.804 869.206 741.352 868.723 742.616 867.757C743.895 866.777 744.861 865.42 745.514 863.688C746.182 861.955 746.516 859.937 746.516 857.636C746.516 855.364 746.189 853.375 745.536 851.67C744.882 849.966 743.923 848.638 742.659 847.686C741.395 846.734 739.832 846.259 737.972 846.259C736.054 846.259 734.456 846.756 733.178 847.75C731.899 848.744 730.933 850.101 730.28 851.82C729.641 853.538 729.321 855.477 729.321 857.636C729.321 859.824 729.648 861.791 730.301 863.538C730.955 865.286 731.92 866.67 733.199 867.693C734.491 868.702 736.082 869.206 737.972 869.206ZM761.623 874V841.273H767.993V874H761.623ZM764.84 836.223C763.732 836.223 762.78 835.854 761.985 835.115C761.203 834.362 760.813 833.467 760.813 832.43C760.813 831.379 761.203 830.484 761.985 829.746C762.78 828.993 763.732 828.616 764.84 828.616C765.948 828.616 766.892 828.993 767.674 829.746C768.469 830.484 768.867 831.379 768.867 832.43C768.867 833.467 768.469 834.362 767.674 835.115C766.892 835.854 765.948 836.223 764.84 836.223ZM791.591 841.273V846.386H773.714V841.273H791.591ZM778.509 833.432H784.879V864.391C784.879 865.626 785.064 866.557 785.433 867.182C785.803 867.793 786.278 868.212 786.861 868.439C787.457 868.652 788.104 868.759 788.8 868.759C789.311 868.759 789.759 868.723 790.142 868.652C790.526 868.581 790.824 868.524 791.037 868.482L792.188 873.744C791.818 873.886 791.293 874.028 790.611 874.17C789.929 874.327 789.077 874.412 788.054 874.426C786.378 874.455 784.815 874.156 783.366 873.531C781.918 872.906 780.746 871.94 779.851 870.634C778.956 869.327 778.509 867.686 778.509 865.712V833.432ZM798.388 874V841.273H804.759V874H798.388ZM801.605 836.223C800.498 836.223 799.546 835.854 798.75 835.115C797.969 834.362 797.578 833.467 797.578 832.43C797.578 831.379 797.969 830.484 798.75 829.746C799.546 828.993 800.498 828.616 801.605 828.616C802.713 828.616 803.658 828.993 804.439 829.746C805.235 830.484 805.632 831.379 805.632 832.43C805.632 833.467 805.235 834.362 804.439 835.115C803.658 835.854 802.713 836.223 801.605 836.223ZM826.865 874.661C823.797 874.661 821.119 873.957 818.832 872.551C816.545 871.145 814.77 869.178 813.506 866.649C812.241 864.121 811.609 861.166 811.609 857.786C811.609 854.391 812.241 851.422 813.506 848.879C814.77 846.337 816.545 844.362 818.832 842.956C821.119 841.55 823.797 840.847 826.865 840.847C829.933 840.847 832.611 841.55 834.898 842.956C837.185 844.362 838.96 846.337 840.224 848.879C841.489 851.422 842.121 854.391 842.121 857.786C842.121 861.166 841.489 864.121 840.224 866.649C838.96 869.178 837.185 871.145 834.898 872.551C832.611 873.957 829.933 874.661 826.865 874.661ZM826.886 869.312C828.875 869.312 830.523 868.787 831.83 867.736C833.136 866.685 834.102 865.286 834.727 863.538C835.366 861.791 835.686 859.866 835.686 857.764C835.686 855.676 835.366 853.759 834.727 852.011C834.102 850.25 833.136 848.837 831.83 847.771C830.523 846.706 828.875 846.173 826.886 846.173C824.884 846.173 823.222 846.706 821.901 847.771C820.594 848.837 819.621 850.25 818.982 852.011C818.357 853.759 818.044 855.676 818.044 857.764C818.044 859.866 818.357 861.791 818.982 863.538C819.621 865.286 820.594 866.685 821.901 867.736C823.222 868.787 824.884 869.312 826.886 869.312ZM855.353 854.568V874H848.982V841.273H855.097V846.599H855.502C856.255 844.866 857.434 843.474 859.039 842.423C860.658 841.372 862.696 840.847 865.154 840.847C867.384 840.847 869.337 841.315 871.013 842.253C872.689 843.176 873.989 844.554 874.912 846.386C875.836 848.219 876.297 850.484 876.297 853.183V874H869.926V853.95C869.926 851.578 869.309 849.724 868.073 848.389C866.837 847.04 865.14 846.365 862.98 846.365C861.503 846.365 860.189 846.685 859.039 847.324C857.902 847.963 857 848.901 856.333 850.136C855.679 851.358 855.353 852.835 855.353 854.568ZM894.115 874.724C892.042 874.724 890.167 874.341 888.49 873.574C886.814 872.793 885.486 871.663 884.506 870.186C883.54 868.709 883.057 866.898 883.057 864.753C883.057 862.906 883.412 861.386 884.123 860.193C884.833 859 885.792 858.055 886.999 857.359C888.206 856.663 889.556 856.138 891.047 855.783C892.539 855.428 894.059 855.158 895.607 854.973C897.567 854.746 899.158 854.561 900.38 854.419C901.601 854.263 902.489 854.014 903.043 853.673C903.597 853.332 903.874 852.778 903.874 852.011V851.862C903.874 850.001 903.348 848.56 902.297 847.537C901.26 846.514 899.712 846.003 897.652 846.003C895.507 846.003 893.817 846.479 892.581 847.43C891.36 848.368 890.515 849.412 890.046 850.562L884.059 849.199C884.769 847.21 885.806 845.605 887.169 844.384C888.547 843.148 890.131 842.253 891.921 841.699C893.711 841.131 895.593 840.847 897.567 840.847C898.874 840.847 900.259 841.003 901.722 841.315C903.199 841.614 904.577 842.168 905.855 842.977C907.148 843.787 908.206 844.945 909.03 846.45C909.854 847.942 910.266 849.881 910.266 852.267V874H904.044V869.526H903.789C903.377 870.349 902.759 871.159 901.935 871.955C901.111 872.75 900.053 873.411 898.76 873.936C897.468 874.462 895.919 874.724 894.115 874.724ZM895.5 869.611C897.262 869.611 898.767 869.263 900.017 868.567C901.282 867.871 902.24 866.962 902.894 865.839C903.561 864.703 903.895 863.489 903.895 862.196V857.977C903.668 858.205 903.228 858.418 902.574 858.616C901.935 858.801 901.203 858.964 900.38 859.107C899.556 859.234 898.753 859.355 897.972 859.469C897.191 859.568 896.537 859.653 896.012 859.724C894.776 859.881 893.647 860.143 892.624 860.513C891.615 860.882 890.806 861.415 890.195 862.111C889.598 862.793 889.3 863.702 889.3 864.838C889.3 866.415 889.882 867.608 891.047 868.418C892.212 869.213 893.696 869.611 895.5 869.611ZM924.872 830.364V874H918.501V830.364H924.872ZM964.397 841.273V846.386H945.903V841.273H964.397ZM950.974 874V837.48C950.974 835.435 951.421 833.737 952.316 832.388C953.211 831.024 954.397 830.009 955.874 829.341C957.352 828.659 958.957 828.318 960.69 828.318C961.968 828.318 963.062 828.425 963.971 828.638C964.88 828.837 965.555 829.021 965.995 829.192L964.504 834.348C964.205 834.263 963.822 834.163 963.353 834.05C962.884 833.922 962.316 833.858 961.648 833.858C960.1 833.858 958.992 834.241 958.325 835.009C957.671 835.776 957.344 836.884 957.344 838.332V874H950.974ZM983.217 874.661C980.148 874.661 977.471 873.957 975.184 872.551C972.897 871.145 971.121 869.178 969.857 866.649C968.593 864.121 967.961 861.166 967.961 857.786C967.961 854.391 968.593 851.422 969.857 848.879C971.121 846.337 972.897 844.362 975.184 842.956C977.471 841.55 980.148 840.847 983.217 840.847C986.285 840.847 988.962 841.55 991.249 842.956C993.536 844.362 995.312 846.337 996.576 848.879C997.84 851.422 998.472 854.391 998.472 857.786C998.472 861.166 997.84 864.121 996.576 866.649C995.312 869.178 993.536 871.145 991.249 872.551C988.962 873.957 986.285 874.661 983.217 874.661ZM983.238 869.312C985.227 869.312 986.874 868.787 988.181 867.736C989.488 866.685 990.454 865.286 991.079 863.538C991.718 861.791 992.038 859.866 992.038 857.764C992.038 855.676 991.718 853.759 991.079 852.011C990.454 850.25 989.488 848.837 988.181 847.771C986.874 846.706 985.227 846.173 983.238 846.173C981.235 846.173 979.573 846.706 978.252 847.771C976.945 848.837 975.972 850.25 975.333 852.011C974.708 853.759 974.396 855.676 974.396 857.764C974.396 859.866 974.708 861.791 975.333 863.538C975.972 865.286 976.945 866.685 978.252 867.736C979.573 868.787 981.235 869.312 983.238 869.312ZM1019.12 874.661C1016.05 874.661 1013.37 873.957 1011.09 872.551C1008.8 871.145 1007.02 869.178 1005.76 866.649C1004.5 864.121 1003.86 861.166 1003.86 857.786C1003.86 854.391 1004.5 851.422 1005.76 848.879C1007.02 846.337 1008.8 844.362 1011.09 842.956C1013.37 841.55 1016.05 840.847 1019.12 840.847C1022.19 840.847 1024.86 841.55 1027.15 842.956C1029.44 844.362 1031.21 846.337 1032.48 848.879C1033.74 851.422 1034.37 854.391 1034.37 857.786C1034.37 861.166 1033.74 864.121 1032.48 866.649C1031.21 869.178 1029.44 871.145 1027.15 872.551C1024.86 873.957 1022.19 874.661 1019.12 874.661ZM1019.14 869.312C1021.13 869.312 1022.78 868.787 1024.08 867.736C1025.39 866.685 1026.36 865.286 1026.98 863.538C1027.62 861.791 1027.94 859.866 1027.94 857.764C1027.94 855.676 1027.62 853.759 1026.98 852.011C1026.36 850.25 1025.39 848.837 1024.08 847.771C1022.78 846.706 1021.13 846.173 1019.14 846.173C1017.14 846.173 1015.48 846.706 1014.15 847.771C1012.85 848.837 1011.87 850.25 1011.24 852.011C1010.61 853.759 1010.3 855.676 1010.3 857.764C1010.3 859.866 1010.61 861.791 1011.24 863.538C1011.87 865.286 1012.85 866.685 1014.15 867.736C1015.48 868.787 1017.14 869.312 1019.14 869.312ZM1053.49 874.639C1050.85 874.639 1048.49 873.964 1046.41 872.615C1044.35 871.251 1042.73 869.312 1041.56 866.798C1040.39 864.27 1039.81 861.237 1039.81 857.7C1039.81 854.163 1040.4 851.138 1041.58 848.624C1042.77 846.109 1044.4 844.185 1046.48 842.849C1048.55 841.514 1050.9 840.847 1053.53 840.847C1055.56 840.847 1057.19 841.188 1058.43 841.869C1059.68 842.537 1060.65 843.318 1061.33 844.213C1062.02 845.108 1062.56 845.896 1062.95 846.578H1063.33V830.364H1069.7V874H1063.48V868.908H1062.95C1062.56 869.604 1062.01 870.399 1061.29 871.294C1060.58 872.189 1059.6 872.97 1058.35 873.638C1057.1 874.305 1055.48 874.639 1053.49 874.639ZM1054.89 869.206C1056.73 869.206 1058.27 868.723 1059.54 867.757C1060.82 866.777 1061.78 865.42 1062.44 863.688C1063.1 861.955 1063.44 859.937 1063.44 857.636C1063.44 855.364 1063.11 853.375 1062.46 851.67C1061.8 849.966 1060.85 848.638 1059.58 847.686C1058.32 846.734 1056.75 846.259 1054.89 846.259C1052.98 846.259 1051.38 846.756 1050.1 847.75C1048.82 848.744 1047.86 850.101 1047.2 851.82C1046.56 853.538 1046.24 855.477 1046.24 857.636C1046.24 859.824 1046.57 861.791 1047.22 863.538C1047.88 865.286 1048.84 866.67 1050.12 867.693C1051.41 868.702 1053 869.206 1054.89 869.206ZM1103.7 874.724C1101.62 874.724 1099.75 874.341 1098.07 873.574C1096.4 872.793 1095.07 871.663 1094.09 870.186C1093.12 868.709 1092.64 866.898 1092.64 864.753C1092.64 862.906 1092.99 861.386 1093.7 860.193C1094.41 859 1095.37 858.055 1096.58 857.359C1097.79 856.663 1099.14 856.138 1100.63 855.783C1102.12 855.428 1103.64 855.158 1105.19 854.973C1107.15 854.746 1108.74 854.561 1109.96 854.419C1111.18 854.263 1112.07 854.014 1112.62 853.673C1113.18 853.332 1113.46 852.778 1113.46 852.011V851.862C1113.46 850.001 1112.93 848.56 1111.88 847.537C1110.84 846.514 1109.29 846.003 1107.23 846.003C1105.09 846.003 1103.4 846.479 1102.16 847.43C1100.94 848.368 1100.1 849.412 1099.63 850.562L1093.64 849.199C1094.35 847.21 1095.39 845.605 1096.75 844.384C1098.13 843.148 1099.71 842.253 1101.5 841.699C1103.29 841.131 1105.17 840.847 1107.15 840.847C1108.46 840.847 1109.84 841.003 1111.3 841.315C1112.78 841.614 1114.16 842.168 1115.44 842.977C1116.73 843.787 1117.79 844.945 1118.61 846.45C1119.44 847.942 1119.85 849.881 1119.85 852.267V874H1113.63V869.526H1113.37C1112.96 870.349 1112.34 871.159 1111.52 871.955C1110.69 872.75 1109.63 873.411 1108.34 873.936C1107.05 874.462 1105.5 874.724 1103.7 874.724ZM1105.08 869.611C1106.84 869.611 1108.35 869.263 1109.6 868.567C1110.86 867.871 1111.82 866.962 1112.48 865.839C1113.14 864.703 1113.48 863.489 1113.48 862.196V857.977C1113.25 858.205 1112.81 858.418 1112.16 858.616C1111.52 858.801 1110.79 858.964 1109.96 859.107C1109.14 859.234 1108.34 859.355 1107.55 859.469C1106.77 859.568 1106.12 859.653 1105.59 859.724C1104.36 859.881 1103.23 860.143 1102.21 860.513C1101.2 860.882 1100.39 861.415 1099.78 862.111C1099.18 862.793 1098.88 863.702 1098.88 864.838C1098.88 866.415 1099.46 867.608 1100.63 868.418C1101.79 869.213 1103.28 869.611 1105.08 869.611ZM1140.33 874.639C1137.69 874.639 1135.33 873.964 1133.26 872.615C1131.2 871.251 1129.58 869.312 1128.4 866.798C1127.24 864.27 1126.66 861.237 1126.66 857.7C1126.66 854.163 1127.25 851.138 1128.42 848.624C1129.62 846.109 1131.25 844.185 1133.32 842.849C1135.4 841.514 1137.75 840.847 1140.38 840.847C1142.41 840.847 1144.04 841.188 1145.28 841.869C1146.53 842.537 1147.49 843.318 1148.18 844.213C1148.87 845.108 1149.41 845.896 1149.8 846.578H1150.18V830.364H1156.55V874H1150.33V868.908H1149.8C1149.41 869.604 1148.86 870.399 1148.13 871.294C1147.42 872.189 1146.44 872.97 1145.19 873.638C1143.94 874.305 1142.32 874.639 1140.33 874.639ZM1141.74 869.206C1143.57 869.206 1145.12 868.723 1146.39 867.757C1147.66 866.777 1148.63 865.42 1149.28 863.688C1149.95 861.955 1150.29 859.937 1150.29 857.636C1150.29 855.364 1149.96 853.375 1149.31 851.67C1148.65 849.966 1147.69 848.638 1146.43 847.686C1145.16 846.734 1143.6 846.259 1141.74 846.259C1139.82 846.259 1138.23 846.756 1136.95 847.75C1135.67 848.744 1134.7 850.101 1134.05 851.82C1133.41 853.538 1133.09 855.477 1133.09 857.636C1133.09 859.824 1133.42 861.791 1134.07 863.538C1134.72 865.286 1135.69 866.67 1136.97 867.693C1138.26 868.702 1139.85 869.206 1141.74 869.206ZM1189.92 849.263L1184.14 850.286C1183.9 849.547 1183.52 848.844 1182.99 848.176C1182.48 847.509 1181.78 846.962 1180.9 846.536C1180.02 846.109 1178.92 845.896 1177.6 845.896C1175.8 845.896 1174.29 846.301 1173.08 847.111C1171.88 847.906 1171.27 848.936 1171.27 850.2C1171.27 851.294 1171.68 852.175 1172.49 852.842C1173.3 853.51 1174.6 854.057 1176.41 854.483L1181.61 855.676C1184.62 856.372 1186.86 857.445 1188.34 858.893C1189.82 860.342 1190.56 862.224 1190.56 864.54C1190.56 866.5 1189.99 868.247 1188.85 869.781C1187.73 871.301 1186.16 872.494 1184.14 873.361C1182.14 874.227 1179.82 874.661 1177.17 874.661C1173.51 874.661 1170.52 873.879 1168.2 872.317C1165.89 870.74 1164.47 868.503 1163.94 865.605L1170.1 864.668C1170.48 866.273 1171.27 867.487 1172.47 868.311C1173.66 869.121 1175.21 869.526 1177.13 869.526C1179.22 869.526 1180.89 869.092 1182.14 868.226C1183.39 867.345 1184.01 866.273 1184.01 865.009C1184.01 863.986 1183.63 863.126 1182.86 862.43C1182.11 861.734 1180.95 861.209 1179.39 860.854L1173.85 859.639C1170.8 858.943 1168.54 857.835 1167.08 856.315C1165.63 854.795 1164.9 852.871 1164.9 850.541C1164.9 848.609 1165.44 846.919 1166.52 845.47C1167.6 844.021 1169.09 842.892 1171 842.082C1172.9 841.259 1175.08 840.847 1177.54 840.847C1181.07 840.847 1183.86 841.614 1185.89 843.148C1187.92 844.668 1189.26 846.706 1189.92 849.263ZM1211.68 844V839.909C1211.68 838.702 1211.91 837.43 1212.36 836.095C1212.82 834.76 1213.45 833.482 1214.26 832.26C1215.07 831.038 1216.02 829.994 1217.12 829.128L1220.27 831.386C1219.4 832.651 1218.66 833.972 1218.05 835.349C1217.44 836.727 1217.14 838.226 1217.14 839.845V844H1211.68ZM1222.55 844V839.909C1222.55 838.702 1222.78 837.43 1223.23 836.095C1223.68 834.76 1224.32 833.482 1225.13 832.26C1225.94 831.038 1226.89 829.994 1227.98 829.128L1231.13 831.386C1230.27 832.651 1229.53 833.972 1228.92 835.349C1228.31 836.727 1228 838.226 1228 839.845V844H1222.55Z" fill="#464646"/>
<defs>
<linearGradient id="paint0_linear_27_478" x1="0" y1="558.5" x2="1728" y2="558.5" gradientUnits="userSpaceOnUse">
<stop offset="0.5625" stop-color="#7FB1FF" stop-opacity="0.8"/>
</linearGradient>
</defs>
</svg>
