<svg width="1728" height="1117" viewBox="0 0 1728 1117" fill="none" xmlns="http://www.w3.org/2000/svg">
<g clip-path="url(#clip0_29_420)">
<rect width="1728" height="1117" rx="40" fill="url(#paint0_linear_29_420)"/>
<path d="M126 140C126 117.909 143.909 100 166 100H1728V1117H126V140Z" fill="white"/>
<path d="M289.909 206H277.587V169.636H290.158C293.768 169.636 296.869 170.364 299.462 171.82C302.066 173.264 304.066 175.342 305.463 178.053C306.86 180.763 307.558 184.007 307.558 187.783C307.558 191.571 306.854 194.826 305.445 197.548C304.049 200.271 302.03 202.36 299.391 203.816C296.763 205.272 293.602 206 289.909 206ZM284.174 200.3H289.589C292.123 200.3 294.236 199.839 295.928 198.915C297.621 197.98 298.893 196.589 299.746 194.743C300.598 192.884 301.024 190.564 301.024 187.783C301.024 185.001 300.598 182.693 299.746 180.858C298.893 179.011 297.633 177.632 295.964 176.721C294.307 175.798 292.247 175.336 289.785 175.336H284.174V200.3ZM321.381 206.55C319.653 206.55 318.096 206.243 316.711 205.627C315.338 205 314.249 204.076 313.444 202.857C312.651 201.638 312.255 200.135 312.255 198.347C312.255 196.808 312.539 195.536 313.107 194.53C313.675 193.524 314.45 192.719 315.433 192.115C316.415 191.511 317.522 191.056 318.753 190.748C319.996 190.428 321.28 190.197 322.606 190.055C324.204 189.89 325.5 189.742 326.495 189.612C327.489 189.469 328.211 189.256 328.661 188.972C329.123 188.676 329.353 188.221 329.353 187.605V187.499C329.353 186.161 328.957 185.125 328.164 184.391C327.371 183.657 326.228 183.29 324.737 183.29C323.163 183.29 321.914 183.634 320.99 184.32C320.079 185.007 319.463 185.818 319.144 186.753L313.142 185.901C313.616 184.243 314.397 182.858 315.486 181.746C316.575 180.621 317.907 179.781 319.481 179.224C321.056 178.656 322.796 178.372 324.701 178.372C326.015 178.372 327.323 178.526 328.625 178.834C329.927 179.142 331.117 179.651 332.194 180.361C333.271 181.059 334.136 182.012 334.787 183.219C335.449 184.427 335.781 185.936 335.781 187.747V206H329.602V202.254H329.389C328.998 203.011 328.448 203.721 327.738 204.384C327.039 205.035 326.157 205.562 325.092 205.964C324.038 206.355 322.801 206.55 321.381 206.55ZM323.05 201.827C324.34 201.827 325.459 201.573 326.406 201.064C327.353 200.543 328.081 199.857 328.59 199.004C329.111 198.152 329.371 197.223 329.371 196.217V193.003C329.17 193.169 328.827 193.322 328.341 193.464C327.868 193.607 327.335 193.731 326.743 193.837C326.151 193.944 325.565 194.039 324.985 194.121C324.405 194.204 323.902 194.275 323.476 194.335C322.517 194.465 321.659 194.678 320.902 194.974C320.144 195.27 319.546 195.684 319.108 196.217C318.67 196.737 318.451 197.412 318.451 198.241C318.451 199.424 318.883 200.318 319.748 200.922C320.612 201.526 321.712 201.827 323.05 201.827ZM363.799 185.936L357.94 186.575C357.774 185.983 357.484 185.427 357.07 184.906C356.667 184.385 356.123 183.965 355.436 183.646C354.75 183.326 353.909 183.166 352.915 183.166C351.578 183.166 350.453 183.456 349.542 184.036C348.642 184.616 348.198 185.368 348.21 186.291C348.198 187.084 348.488 187.729 349.08 188.227C349.684 188.724 350.678 189.132 352.063 189.452L356.715 190.446C359.295 191.002 361.213 191.884 362.468 193.092C363.734 194.299 364.373 195.879 364.385 197.832C364.373 199.549 363.87 201.064 362.876 202.378C361.894 203.68 360.526 204.698 358.775 205.432C357.023 206.166 355.01 206.533 352.738 206.533C349.4 206.533 346.712 205.834 344.676 204.438C342.641 203.029 341.427 201.07 341.037 198.56L347.304 197.957C347.588 199.188 348.192 200.117 349.115 200.744C350.039 201.372 351.24 201.685 352.72 201.685C354.247 201.685 355.472 201.372 356.395 200.744C357.33 200.117 357.798 199.342 357.798 198.418C357.798 197.637 357.496 196.992 356.892 196.483C356.301 195.974 355.377 195.583 354.123 195.311L349.471 194.335C346.855 193.79 344.919 192.873 343.664 191.582C342.41 190.28 341.788 188.635 341.8 186.646C341.788 184.965 342.244 183.509 343.167 182.278C344.102 181.036 345.399 180.077 347.056 179.402C348.725 178.715 350.648 178.372 352.826 178.372C356.022 178.372 358.538 179.053 360.373 180.414C362.219 181.775 363.361 183.616 363.799 185.936ZM376.113 190.02V206H369.685V169.636H375.971V183.362H376.29C376.93 181.823 377.918 180.609 379.256 179.722C380.605 178.822 382.321 178.372 384.405 178.372C386.299 178.372 387.95 178.769 389.359 179.562C390.767 180.355 391.856 181.515 392.626 183.042C393.407 184.569 393.798 186.433 393.798 188.635V206H387.37V189.629C387.37 187.795 386.897 186.368 385.95 185.35C385.014 184.32 383.701 183.805 382.008 183.805C380.871 183.805 379.853 184.054 378.954 184.551C378.066 185.036 377.368 185.741 376.859 186.664C376.362 187.587 376.113 188.706 376.113 190.02ZM400.634 206V169.636H407.061V183.237H407.327C407.659 182.574 408.126 181.87 408.73 181.124C409.334 180.367 410.151 179.722 411.18 179.189C412.21 178.644 413.524 178.372 415.122 178.372C417.229 178.372 419.129 178.911 420.822 179.988C422.526 181.053 423.876 182.634 424.87 184.729C425.876 186.812 426.379 189.369 426.379 192.399C426.379 195.394 425.888 197.939 424.906 200.034C423.923 202.129 422.585 203.727 420.893 204.828C419.2 205.929 417.282 206.479 415.14 206.479C413.577 206.479 412.281 206.219 411.251 205.698C410.222 205.177 409.393 204.55 408.766 203.816C408.15 203.07 407.671 202.366 407.327 201.703H406.955V206H400.634ZM406.937 192.364C406.937 194.127 407.185 195.672 407.683 196.998C408.192 198.324 408.92 199.359 409.866 200.105C410.825 200.839 411.985 201.206 413.347 201.206C414.767 201.206 415.957 200.827 416.915 200.07C417.874 199.3 418.596 198.253 419.082 196.927C419.579 195.589 419.827 194.068 419.827 192.364C419.827 190.671 419.585 189.168 419.099 187.854C418.614 186.54 417.892 185.51 416.933 184.764C415.974 184.018 414.779 183.646 413.347 183.646C411.973 183.646 410.808 184.007 409.849 184.729C408.89 185.451 408.162 186.463 407.665 187.765C407.179 189.067 406.937 190.6 406.937 192.364ZM443.74 206.533C441.077 206.533 438.768 205.947 436.815 204.775C434.862 203.603 433.347 201.964 432.27 199.857C431.204 197.75 430.672 195.287 430.672 192.47C430.672 189.653 431.204 187.185 432.27 185.066C433.347 182.947 434.862 181.302 436.815 180.13C438.768 178.958 441.077 178.372 443.74 178.372C446.403 178.372 448.711 178.958 450.665 180.13C452.618 181.302 454.127 182.947 455.192 185.066C456.269 187.185 456.808 189.653 456.808 192.47C456.808 195.287 456.269 197.75 455.192 199.857C454.127 201.964 452.618 203.603 450.665 204.775C448.711 205.947 446.403 206.533 443.74 206.533ZM443.775 201.384C445.22 201.384 446.427 200.987 447.398 200.194C448.368 199.389 449.09 198.312 449.564 196.962C450.049 195.613 450.292 194.11 450.292 192.452C450.292 190.783 450.049 189.274 449.564 187.925C449.09 186.563 448.368 185.48 447.398 184.675C446.427 183.871 445.22 183.468 443.775 183.468C442.296 183.468 441.065 183.871 440.082 184.675C439.112 185.48 438.384 186.563 437.898 187.925C437.425 189.274 437.188 190.783 437.188 192.452C437.188 194.11 437.425 195.613 437.898 196.962C438.384 198.312 439.112 199.389 440.082 200.194C441.065 200.987 442.296 201.384 443.775 201.384ZM470.112 206.55C468.383 206.55 466.827 206.243 465.442 205.627C464.069 205 462.98 204.076 462.175 202.857C461.382 201.638 460.985 200.135 460.985 198.347C460.985 196.808 461.269 195.536 461.837 194.53C462.406 193.524 463.181 192.719 464.163 192.115C465.146 191.511 466.253 191.056 467.484 190.748C468.727 190.428 470.011 190.197 471.337 190.055C472.935 189.89 474.231 189.742 475.225 189.612C476.219 189.469 476.942 189.256 477.391 188.972C477.853 188.676 478.084 188.221 478.084 187.605V187.499C478.084 186.161 477.687 185.125 476.894 184.391C476.101 183.657 474.959 183.29 473.467 183.29C471.893 183.29 470.644 183.634 469.721 184.32C468.809 185.007 468.194 185.818 467.874 186.753L461.873 185.901C462.346 184.243 463.128 182.858 464.217 181.746C465.306 180.621 466.637 179.781 468.212 179.224C469.786 178.656 471.526 178.372 473.432 178.372C474.746 178.372 476.054 178.526 477.356 178.834C478.658 179.142 479.848 179.651 480.925 180.361C482.002 181.059 482.866 182.012 483.517 183.219C484.18 184.427 484.511 185.936 484.511 187.747V206H478.332V202.254H478.119C477.729 203.011 477.178 203.721 476.468 204.384C475.77 205.035 474.888 205.562 473.822 205.964C472.769 206.355 471.532 206.55 470.112 206.55ZM471.781 201.827C473.071 201.827 474.189 201.573 475.136 201.064C476.083 200.543 476.811 199.857 477.32 199.004C477.841 198.152 478.102 197.223 478.102 196.217V193.003C477.9 193.169 477.557 193.322 477.072 193.464C476.598 193.607 476.066 193.731 475.474 193.837C474.882 193.944 474.296 194.039 473.716 194.121C473.136 194.204 472.633 194.275 472.207 194.335C471.248 194.465 470.39 194.678 469.632 194.974C468.875 195.27 468.277 195.684 467.839 196.217C467.401 196.737 467.182 197.412 467.182 198.241C467.182 199.424 467.614 200.318 468.478 200.922C469.342 201.526 470.443 201.827 471.781 201.827ZM490.974 206V178.727H497.207V183.273H497.491C497.988 181.698 498.84 180.485 500.048 179.633C501.267 178.769 502.658 178.337 504.22 178.337C504.575 178.337 504.972 178.354 505.41 178.39C505.86 178.414 506.232 178.455 506.528 178.514V184.427C506.256 184.332 505.824 184.249 505.232 184.178C504.652 184.095 504.09 184.054 503.545 184.054C502.374 184.054 501.32 184.308 500.385 184.817C499.462 185.315 498.734 186.007 498.201 186.895C497.668 187.783 497.402 188.807 497.402 189.967V206H490.974ZM519.796 206.479C517.654 206.479 515.736 205.929 514.044 204.828C512.351 203.727 511.013 202.129 510.031 200.034C509.048 197.939 508.557 195.394 508.557 192.399C508.557 189.369 509.054 186.812 510.048 184.729C511.055 182.634 512.41 181.053 514.115 179.988C515.819 178.911 517.719 178.372 519.814 178.372C521.412 178.372 522.726 178.644 523.756 179.189C524.786 179.722 525.602 180.367 526.206 181.124C526.81 181.87 527.277 182.574 527.609 183.237H527.875V169.636H534.32V206H527.999V201.703H527.609C527.277 202.366 526.798 203.07 526.171 203.816C525.543 204.55 524.715 205.177 523.685 205.698C522.655 206.219 521.359 206.479 519.796 206.479ZM521.59 201.206C522.951 201.206 524.111 200.839 525.07 200.105C526.029 199.359 526.757 198.324 527.254 196.998C527.751 195.672 527.999 194.127 527.999 192.364C527.999 190.6 527.751 189.067 527.254 187.765C526.768 186.463 526.046 185.451 525.088 184.729C524.141 184.007 522.975 183.646 521.59 183.646C520.157 183.646 518.962 184.018 518.003 184.764C517.044 185.51 516.322 186.54 515.837 187.854C515.352 189.168 515.109 190.671 515.109 192.364C515.109 194.068 515.352 195.589 515.837 196.927C516.334 198.253 517.062 199.3 518.021 200.07C518.991 200.827 520.181 201.206 521.59 201.206Z" fill="black"/>
<rect x="274" y="331" width="656" height="813" rx="12" fill="white"/>
<path d="M351.624 1044.45C350.984 1044.45 350.44 1044.29 349.992 1043.96C349.552 1043.63 349.22 1043.13 348.996 1042.49C348.772 1041.84 348.66 1041.05 348.66 1040.11C348.66 1039.17 348.772 1038.37 348.996 1037.73C349.22 1037.09 349.552 1036.6 349.992 1036.27C350.44 1035.94 350.984 1035.78 351.624 1035.78C352.272 1035.78 352.816 1035.94 353.256 1036.27C353.696 1036.6 354.028 1037.08 354.252 1037.72C354.476 1038.36 354.588 1039.15 354.588 1040.1C354.588 1041.04 354.476 1041.84 354.252 1042.49C354.028 1043.13 353.696 1043.63 353.256 1043.96C352.816 1044.29 352.272 1044.45 351.624 1044.45ZM351.624 1043.6C352.296 1043.6 352.792 1043.32 353.112 1042.75C353.44 1042.18 353.604 1041.3 353.604 1040.1C353.604 1038.9 353.444 1038.02 353.124 1037.47C352.804 1036.91 352.304 1036.63 351.624 1036.63C350.96 1036.63 350.464 1036.91 350.136 1037.47C349.808 1038.03 349.644 1038.91 349.644 1040.1C349.644 1041.3 349.804 1042.18 350.124 1042.75C350.452 1043.32 350.952 1043.6 351.624 1043.6Z" fill="#7C828A"/>
<path d="M334.713 883.831V883.087L337.605 879.967C337.877 879.671 338.097 879.395 338.265 879.139C338.433 878.875 338.557 878.619 338.637 878.371C338.717 878.123 338.757 877.871 338.757 877.615C338.757 877.135 338.609 876.771 338.313 876.523C338.025 876.267 337.601 876.139 337.041 876.139C336.609 876.139 336.205 876.219 335.829 876.379C335.461 876.531 335.109 876.771 334.773 877.099L334.401 876.331C334.713 876.011 335.109 875.755 335.589 875.563C336.077 875.363 336.589 875.263 337.125 875.263C337.693 875.263 338.173 875.351 338.565 875.527C338.957 875.703 339.253 875.963 339.453 876.307C339.653 876.643 339.753 877.055 339.753 877.543C339.753 877.799 339.721 878.051 339.657 878.299C339.601 878.539 339.509 878.783 339.381 879.031C339.261 879.271 339.105 879.519 338.913 879.775C338.729 880.031 338.505 880.295 338.241 880.567L335.697 883.267V882.991H340.101V883.831H334.713ZM344.608 883.939C344.248 883.939 343.896 883.899 343.552 883.819C343.208 883.739 342.884 883.623 342.58 883.471C342.284 883.319 342.02 883.139 341.788 882.931L342.16 882.151C342.544 882.463 342.932 882.695 343.324 882.847C343.724 882.991 344.148 883.063 344.596 883.063C345.188 883.063 345.648 882.899 345.976 882.571C346.312 882.243 346.48 881.811 346.48 881.275C346.48 880.723 346.32 880.271 346 879.919C345.68 879.567 345.24 879.391 344.68 879.391C344.272 879.391 343.912 879.475 343.6 879.643C343.296 879.803 343.02 880.055 342.772 880.399H342.052V875.371H346.96V876.211H343.024V879.583H342.76C342.968 879.247 343.256 878.991 343.624 878.815C343.992 878.631 344.404 878.539 344.86 878.539C345.396 878.539 345.856 878.651 346.24 878.875C346.632 879.099 346.932 879.415 347.14 879.823C347.356 880.223 347.464 880.691 347.464 881.227C347.464 881.755 347.348 882.223 347.116 882.631C346.884 883.039 346.556 883.359 346.132 883.591C345.708 883.823 345.2 883.939 344.608 883.939ZM351.624 883.939C350.984 883.939 350.44 883.775 349.992 883.447C349.552 883.111 349.22 882.619 348.996 881.971C348.772 881.323 348.66 880.531 348.66 879.595C348.66 878.651 348.772 877.859 348.996 877.219C349.22 876.571 349.552 876.083 349.992 875.755C350.44 875.427 350.984 875.263 351.624 875.263C352.272 875.263 352.816 875.427 353.256 875.755C353.696 876.083 354.028 876.567 354.252 877.207C354.476 877.847 354.588 878.639 354.588 879.583C354.588 880.527 354.476 881.323 354.252 881.971C354.028 882.619 353.696 883.111 353.256 883.447C352.816 883.775 352.272 883.939 351.624 883.939ZM351.624 883.087C352.296 883.087 352.792 882.803 353.112 882.235C353.44 881.667 353.604 880.783 353.604 879.583C353.604 878.383 353.444 877.507 353.124 876.955C352.804 876.395 352.304 876.115 351.624 876.115C350.96 876.115 350.464 876.395 350.136 876.955C349.808 877.515 349.644 878.391 349.644 879.583C349.644 880.783 349.804 881.667 350.124 882.235C350.452 882.803 350.952 883.087 351.624 883.087Z" fill="#7C828A"/>
<path d="M337.413 723.423C337.053 723.423 336.701 723.383 336.357 723.303C336.013 723.223 335.689 723.107 335.385 722.955C335.089 722.803 334.825 722.623 334.593 722.415L334.965 721.635C335.349 721.947 335.737 722.179 336.129 722.331C336.529 722.475 336.953 722.547 337.401 722.547C337.993 722.547 338.453 722.383 338.781 722.055C339.117 721.727 339.285 721.295 339.285 720.759C339.285 720.207 339.125 719.755 338.805 719.403C338.485 719.051 338.045 718.875 337.485 718.875C337.077 718.875 336.717 718.959 336.405 719.127C336.101 719.287 335.825 719.539 335.577 719.883H334.857V714.855H339.765V715.695H335.829V719.067H335.565C335.773 718.731 336.061 718.475 336.429 718.299C336.797 718.115 337.209 718.023 337.665 718.023C338.201 718.023 338.661 718.135 339.045 718.359C339.437 718.583 339.737 718.899 339.945 719.307C340.161 719.707 340.269 720.175 340.269 720.711C340.269 721.239 340.153 721.707 339.921 722.115C339.689 722.523 339.361 722.843 338.937 723.075C338.513 723.307 338.005 723.423 337.413 723.423ZM344.428 723.423C343.788 723.423 343.244 723.259 342.796 722.931C342.356 722.595 342.024 722.103 341.8 721.455C341.576 720.807 341.464 720.015 341.464 719.079C341.464 718.135 341.576 717.343 341.8 716.703C342.024 716.055 342.356 715.567 342.796 715.239C343.244 714.911 343.788 714.747 344.428 714.747C345.076 714.747 345.62 714.911 346.06 715.239C346.5 715.567 346.832 716.051 347.056 716.691C347.28 717.331 347.392 718.123 347.392 719.067C347.392 720.011 347.28 720.807 347.056 721.455C346.832 722.103 346.5 722.595 346.06 722.931C345.62 723.259 345.076 723.423 344.428 723.423ZM344.428 722.571C345.1 722.571 345.596 722.287 345.916 721.719C346.244 721.151 346.408 720.267 346.408 719.067C346.408 717.867 346.248 716.991 345.928 716.439C345.608 715.879 345.108 715.599 344.428 715.599C343.764 715.599 343.268 715.879 342.94 716.439C342.612 716.999 342.448 717.875 342.448 719.067C342.448 720.267 342.608 721.151 342.928 721.719C343.256 722.287 343.756 722.571 344.428 722.571ZM351.624 723.423C350.984 723.423 350.44 723.259 349.992 722.931C349.552 722.595 349.22 722.103 348.996 721.455C348.772 720.807 348.66 720.015 348.66 719.079C348.66 718.135 348.772 717.343 348.996 716.703C349.22 716.055 349.552 715.567 349.992 715.239C350.44 714.911 350.984 714.747 351.624 714.747C352.272 714.747 352.816 714.911 353.256 715.239C353.696 715.567 354.028 716.051 354.252 716.691C354.476 717.331 354.588 718.123 354.588 719.067C354.588 720.011 354.476 720.807 354.252 721.455C354.028 722.103 353.696 722.595 353.256 722.931C352.816 723.259 352.272 723.423 351.624 723.423ZM351.624 722.571C352.296 722.571 352.792 722.287 353.112 721.719C353.44 721.151 353.604 720.267 353.604 719.067C353.604 717.867 353.444 716.991 353.124 716.439C352.804 715.879 352.304 715.599 351.624 715.599C350.96 715.599 350.464 715.879 350.136 716.439C349.808 716.999 349.644 717.875 349.644 719.067C349.644 720.267 349.804 721.151 350.124 721.719C350.452 722.287 350.952 722.571 351.624 722.571Z" fill="#7C828A"/>
<path d="M334.977 583.646L339.129 575.606V576.038H334.437V575.186H340.029V575.93L336.069 583.646H334.977ZM344.608 583.754C344.248 583.754 343.896 583.714 343.552 583.634C343.208 583.554 342.884 583.438 342.58 583.286C342.284 583.134 342.02 582.954 341.788 582.746L342.16 581.966C342.544 582.278 342.932 582.51 343.324 582.662C343.724 582.806 344.148 582.878 344.596 582.878C345.188 582.878 345.648 582.714 345.976 582.386C346.312 582.058 346.48 581.626 346.48 581.09C346.48 580.538 346.32 580.086 346 579.734C345.68 579.382 345.24 579.206 344.68 579.206C344.272 579.206 343.912 579.29 343.6 579.458C343.296 579.618 343.02 579.87 342.772 580.214H342.052V575.186H346.96V576.026H343.024V579.398H342.76C342.968 579.062 343.256 578.806 343.624 578.63C343.992 578.446 344.404 578.354 344.86 578.354C345.396 578.354 345.856 578.466 346.24 578.69C346.632 578.914 346.932 579.23 347.14 579.638C347.356 580.038 347.464 580.506 347.464 581.042C347.464 581.57 347.348 582.038 347.116 582.446C346.884 582.854 346.556 583.174 346.132 583.406C345.708 583.638 345.2 583.754 344.608 583.754ZM351.624 583.754C350.984 583.754 350.44 583.59 349.992 583.262C349.552 582.926 349.22 582.434 348.996 581.786C348.772 581.138 348.66 580.346 348.66 579.41C348.66 578.466 348.772 577.674 348.996 577.034C349.22 576.386 349.552 575.898 349.992 575.57C350.44 575.242 350.984 575.078 351.624 575.078C352.272 575.078 352.816 575.242 353.256 575.57C353.696 575.898 354.028 576.382 354.252 577.022C354.476 577.662 354.588 578.454 354.588 579.398C354.588 580.342 354.476 581.138 354.252 581.786C354.028 582.434 353.696 582.926 353.256 583.262C352.816 583.59 352.272 583.754 351.624 583.754ZM351.624 582.902C352.296 582.902 352.792 582.618 353.112 582.05C353.44 581.482 353.604 580.598 353.604 579.398C353.604 578.198 353.444 577.322 353.124 576.77C352.804 576.21 352.304 575.93 351.624 575.93C350.96 575.93 350.464 576.21 350.136 576.77C349.808 577.33 349.644 578.206 349.644 579.398C349.644 580.598 349.804 581.482 350.124 582.05C350.452 582.618 350.952 582.902 351.624 582.902Z" fill="#7C828A"/>
<path d="M390.085 1098.29V1077.14H393.955L401.605 1091.06H400.585L408.205 1077.14H412.015V1098.29H407.785V1084.25H408.445L402.325 1095.11H399.715L393.565 1084.22H394.285V1098.29H390.085Z" fill="black"/>
<path d="M620.518 1098.29V1080.98H613.528V1077.14H632.158V1080.98H625.168V1098.29H620.518Z" fill="black"/>
<path d="M774.931 1098.62C773.831 1098.62 772.761 1098.52 771.721 1098.32C770.701 1098.14 769.751 1097.88 768.871 1097.54C767.991 1097.18 767.221 1096.76 766.561 1096.28L767.911 1092.62C768.551 1093.06 769.241 1093.44 769.981 1093.76C770.721 1094.08 771.511 1094.33 772.351 1094.51C773.191 1094.67 774.051 1094.75 774.931 1094.75C776.391 1094.75 777.431 1094.53 778.051 1094.09C778.671 1093.63 778.981 1093.06 778.981 1092.38C778.981 1092 778.881 1091.67 778.681 1091.39C778.501 1091.11 778.191 1090.87 777.751 1090.67C777.331 1090.45 776.751 1090.27 776.011 1090.13L772.621 1089.41C770.701 1089.01 769.271 1088.33 768.331 1087.37C767.411 1086.39 766.951 1085.11 766.951 1083.53C766.951 1082.17 767.311 1080.99 768.031 1079.99C768.771 1078.99 769.781 1078.21 771.061 1077.65C772.361 1077.09 773.851 1076.81 775.531 1076.81C776.511 1076.81 777.451 1076.91 778.351 1077.11C779.251 1077.29 780.081 1077.56 780.841 1077.92C781.601 1078.28 782.261 1078.71 782.821 1079.21L781.471 1082.63C780.671 1081.99 779.771 1081.51 778.771 1081.19C777.771 1080.85 776.681 1080.68 775.501 1080.68C774.661 1080.68 773.941 1080.79 773.341 1081.01C772.761 1081.23 772.311 1081.54 771.991 1081.94C771.691 1082.34 771.541 1082.8 771.541 1083.32C771.541 1083.9 771.751 1084.37 772.171 1084.73C772.591 1085.09 773.321 1085.38 774.361 1085.6L777.751 1086.32C779.711 1086.74 781.171 1087.42 782.131 1088.36C783.091 1089.28 783.571 1090.5 783.571 1092.02C783.571 1093.34 783.211 1094.5 782.491 1095.5C781.791 1096.48 780.791 1097.25 779.491 1097.81C778.211 1098.35 776.691 1098.62 774.931 1098.62Z" fill="black"/>
<path d="M850.944 1098.62C849.844 1098.62 848.774 1098.52 847.734 1098.32C846.714 1098.14 845.764 1097.88 844.884 1097.54C844.004 1097.18 843.234 1096.76 842.574 1096.28L843.924 1092.62C844.564 1093.06 845.254 1093.44 845.994 1093.76C846.734 1094.08 847.524 1094.33 848.364 1094.51C849.204 1094.67 850.064 1094.75 850.944 1094.75C852.404 1094.75 853.444 1094.53 854.064 1094.09C854.684 1093.63 854.994 1093.06 854.994 1092.38C854.994 1092 854.894 1091.67 854.694 1091.39C854.514 1091.11 854.204 1090.87 853.764 1090.67C853.344 1090.45 852.764 1090.27 852.024 1090.13L848.634 1089.41C846.714 1089.01 845.284 1088.33 844.344 1087.37C843.424 1086.39 842.964 1085.11 842.964 1083.53C842.964 1082.17 843.324 1080.99 844.044 1079.99C844.784 1078.99 845.794 1078.21 847.074 1077.65C848.374 1077.09 849.864 1076.81 851.544 1076.81C852.524 1076.81 853.464 1076.91 854.364 1077.11C855.264 1077.29 856.094 1077.56 856.854 1077.92C857.614 1078.28 858.274 1078.71 858.834 1079.21L857.484 1082.63C856.684 1081.99 855.784 1081.51 854.784 1081.19C853.784 1080.85 852.694 1080.68 851.514 1080.68C850.674 1080.68 849.954 1080.79 849.354 1081.01C848.774 1081.23 848.324 1081.54 848.004 1081.94C847.704 1082.34 847.554 1082.8 847.554 1083.32C847.554 1083.9 847.764 1084.37 848.184 1084.73C848.604 1085.09 849.334 1085.38 850.374 1085.6L853.764 1086.32C855.724 1086.74 857.184 1087.42 858.144 1088.36C859.104 1089.28 859.584 1090.5 859.584 1092.02C859.584 1093.34 859.224 1094.5 858.504 1095.5C857.804 1096.48 856.804 1097.25 855.504 1097.81C854.224 1098.35 852.704 1098.62 850.944 1098.62Z" fill="black"/>
<path d="M474.74 1098.29V1080.98H467.75V1077.14H486.38V1080.98H479.39V1098.29H474.74Z" fill="black"/>
<path d="M692.413 1098.29V1077.14H706.693V1080.77H697.063V1085.93H706.033V1089.56H697.063V1098.29H692.413Z" fill="black"/>
<path d="M541.175 1098.29L533.645 1077.14H538.415L543.905 1093.46H542.615L548.405 1077.14H551.765L557.315 1093.46H556.205L561.785 1077.14H566.285L558.695 1098.29H554.915L549.605 1083.26H550.325L544.955 1098.29H541.175Z" fill="black"/>
<path d="M354.178 757.304H870.648" stroke="#7C828A" stroke-dasharray="1 3"/>
<rect x="830.038" y="806.292" width="41.6508" height="245.985" rx="4" fill="#D9D9D9"/>
<rect x="755.067" y="862.577" width="41.6508" height="189.7" rx="4" fill="#D9D9D9"/>
<rect width="41.6508" height="377.315" transform="translate(680.095 674.961)" fill="#126DFB"/>
<rect x="680.095" y="674.961" width="41.6508" height="377.315" rx="4" fill="#147AD6"/>
<rect x="605.124" y="820.885" width="41.6508" height="231.392" rx="4" fill="#D9D9D9"/>
<rect width="41.6508" height="460.7" transform="translate(530.152 591.577)" fill="#126DFB"/>
<rect x="530.152" y="591.577" width="41.6508" height="460.7" rx="4" fill="#147AD6"/>
<rect width="41.6508" height="323.115" transform="translate(455.181 729.162)" fill="#126DFB"/>
<rect x="455.181" y="729.162" width="41.6508" height="323.115" rx="4" fill="#147AD6"/>
<rect x="380.21" y="889.677" width="41.6508" height="162.6" rx="4" fill="#D9D9D9"/>
<path fill-rule="evenodd" clip-rule="evenodd" d="M852.987 406.396C852.038 407.346 850.88 407.821 849.513 407.821C848.146 407.821 846.989 407.346 846.039 406.396C845.09 405.446 844.616 404.287 844.616 402.919C844.616 401.551 845.09 400.392 846.039 399.442C846.989 398.492 848.146 398.017 849.513 398.017C850.88 398.017 852.038 398.492 852.987 399.442C853.936 400.392 854.41 401.551 854.41 402.919C854.41 404.287 853.936 405.446 852.987 406.396ZM864.091 407.821C865.458 407.821 866.615 407.346 867.564 406.396C868.514 405.446 868.988 404.287 868.988 402.919C868.988 401.551 868.514 400.392 867.564 399.442C866.615 398.492 865.458 398.017 864.091 398.017C862.724 398.017 861.566 398.492 860.617 399.442C859.668 400.392 859.194 401.551 859.194 402.919C859.194 404.287 859.668 405.446 860.617 406.396C861.566 407.346 862.724 407.821 864.091 407.821ZM878.669 407.821C880.035 407.821 881.193 407.346 882.142 406.396C883.091 405.446 883.566 404.287 883.566 402.919C883.566 401.551 883.091 400.392 882.142 399.442C881.193 398.492 880.035 398.017 878.669 398.017C877.302 398.017 876.144 398.492 875.195 399.442C874.246 400.392 873.771 401.551 873.771 402.919C873.771 404.287 874.246 405.446 875.195 406.396C876.144 407.346 877.302 407.821 878.669 407.821Z" fill="black"/>
<path d="M310.801 488.738V460.538H320.321C323.387 460.538 325.974 461.085 328.081 462.178C330.214 463.245 331.827 464.832 332.921 466.938C334.041 469.018 334.601 471.578 334.601 474.618C334.601 477.658 334.041 480.232 332.921 482.338C331.827 484.445 330.214 486.045 328.081 487.138C325.974 488.205 323.387 488.738 320.321 488.738H310.801ZM314.081 485.938H320.081C323.787 485.938 326.547 484.992 328.361 483.098C330.201 481.205 331.121 478.378 331.121 474.618C331.121 470.858 330.201 468.045 328.361 466.178C326.521 464.285 323.761 463.338 320.081 463.338H314.081V485.938ZM346.168 489.098C344.835 489.098 343.635 488.845 342.568 488.338C341.528 487.805 340.701 487.085 340.088 486.178C339.475 485.272 339.168 484.258 339.168 483.138C339.168 481.698 339.528 480.565 340.248 479.738C340.995 478.912 342.208 478.325 343.888 477.978C345.595 477.632 347.915 477.458 350.848 477.458H352.648V479.578H350.888C349.261 479.578 347.901 479.632 346.808 479.738C345.715 479.845 344.848 480.032 344.208 480.298C343.568 480.565 343.115 480.912 342.848 481.338C342.581 481.765 342.448 482.298 342.448 482.938C342.448 484.032 342.821 484.925 343.568 485.618C344.341 486.312 345.381 486.658 346.688 486.658C347.755 486.658 348.688 486.405 349.488 485.898C350.315 485.392 350.955 484.698 351.408 483.818C351.888 482.938 352.128 481.925 352.128 480.778V476.218C352.128 474.565 351.795 473.378 351.128 472.658C350.461 471.912 349.368 471.538 347.848 471.538C346.675 471.538 345.541 471.712 344.448 472.058C343.355 472.378 342.235 472.912 341.088 473.658L339.968 471.298C340.661 470.818 341.448 470.405 342.328 470.058C343.208 469.685 344.128 469.405 345.088 469.218C346.048 469.032 346.968 468.938 347.848 468.938C349.528 468.938 350.915 469.218 352.008 469.778C353.101 470.312 353.915 471.138 354.448 472.258C354.981 473.352 355.248 474.765 355.248 476.498V488.738H352.208V484.218H352.568C352.355 485.232 351.941 486.098 351.328 486.818C350.741 487.538 350.008 488.098 349.128 488.498C348.248 488.898 347.261 489.098 346.168 489.098ZM360.859 464.458V460.818H364.859V464.458H360.859ZM361.259 488.738V469.298H364.499V488.738H361.259ZM376.516 489.098C374.543 489.098 373.049 488.512 372.036 487.338C371.049 486.165 370.556 484.485 370.556 482.298V460.538H373.796V482.058C373.796 482.992 373.916 483.778 374.156 484.418C374.423 485.058 374.809 485.538 375.316 485.858C375.823 486.178 376.449 486.338 377.196 486.338C377.516 486.338 377.823 486.325 378.116 486.298C378.436 486.245 378.729 486.178 378.996 486.098L378.916 488.818C378.489 488.898 378.076 488.965 377.676 489.018C377.303 489.072 376.916 489.098 376.516 489.098ZM384.202 495.938L387.842 487.738V489.138L379.322 469.298H382.842L389.802 486.338H388.722L395.762 469.298H399.162L387.602 495.938H384.202ZM422.342 489.098C420.876 489.098 419.489 488.965 418.182 488.698C416.902 488.432 415.716 488.058 414.622 487.578C413.556 487.072 412.582 486.458 411.702 485.738L412.862 483.098C413.769 483.765 414.689 484.338 415.622 484.818C416.582 485.272 417.609 485.618 418.702 485.858C419.822 486.072 421.036 486.178 422.342 486.178C424.742 486.178 426.516 485.738 427.662 484.858C428.836 483.952 429.422 482.765 429.422 481.298C429.422 480.525 429.236 479.858 428.862 479.298C428.516 478.738 427.929 478.258 427.102 477.858C426.302 477.458 425.249 477.125 423.942 476.858L419.782 476.018C417.276 475.485 415.396 474.618 414.142 473.418C412.916 472.192 412.302 470.565 412.302 468.538C412.302 466.858 412.729 465.392 413.582 464.138C414.462 462.885 415.676 461.912 417.222 461.218C418.796 460.525 420.582 460.178 422.582 460.178C423.862 460.178 425.076 460.312 426.222 460.578C427.369 460.845 428.422 461.245 429.382 461.778C430.369 462.285 431.236 462.912 431.982 463.658L430.822 466.218C429.622 465.125 428.356 464.338 427.022 463.858C425.689 463.352 424.196 463.098 422.542 463.098C421.129 463.098 419.902 463.312 418.862 463.738C417.849 464.165 417.049 464.792 416.462 465.618C415.902 466.418 415.622 467.352 415.622 468.418C415.622 469.698 416.009 470.712 416.782 471.458C417.582 472.205 418.876 472.752 420.662 473.098L424.822 473.978C427.516 474.538 429.502 475.392 430.782 476.538C432.089 477.658 432.742 479.192 432.742 481.138C432.742 482.685 432.316 484.072 431.462 485.298C430.636 486.498 429.436 487.432 427.862 488.098C426.316 488.765 424.476 489.098 422.342 489.098ZM437.392 495.938V469.298H440.552V473.898H440.152C440.579 472.378 441.419 471.178 442.672 470.298C443.952 469.392 445.472 468.938 447.232 468.938C448.965 468.938 450.472 469.352 451.752 470.178C453.059 470.978 454.059 472.138 454.752 473.658C455.472 475.152 455.832 476.938 455.832 479.018C455.832 481.072 455.472 482.858 454.752 484.378C454.059 485.872 453.072 487.032 451.792 487.858C450.512 488.685 448.992 489.098 447.232 489.098C445.472 489.098 443.965 488.658 442.712 487.778C441.459 486.872 440.605 485.672 440.152 484.178H440.632V495.938H437.392ZM446.552 486.498C448.392 486.498 449.845 485.858 450.912 484.578C452.005 483.272 452.552 481.418 452.552 479.018C452.552 476.592 452.005 474.738 450.912 473.458C449.845 472.178 448.392 471.538 446.552 471.538C444.739 471.538 443.285 472.178 442.192 473.458C441.099 474.738 440.552 476.592 440.552 479.018C440.552 481.418 441.099 483.272 442.192 484.578C443.285 485.858 444.739 486.498 446.552 486.498ZM469.472 489.098C467.419 489.098 465.646 488.698 464.152 487.898C462.686 487.072 461.539 485.912 460.712 484.418C459.912 482.925 459.512 481.138 459.512 479.058C459.512 477.032 459.912 475.272 460.712 473.778C461.512 472.258 462.606 471.072 463.992 470.218C465.406 469.365 467.032 468.938 468.872 468.938C470.632 468.938 472.139 469.325 473.392 470.098C474.646 470.872 475.606 471.965 476.272 473.378C476.966 474.792 477.312 476.485 477.312 478.458V479.698H461.992V477.578H475.152L474.512 478.098C474.512 475.965 474.032 474.312 473.072 473.138C472.139 471.938 470.766 471.338 468.952 471.338C467.592 471.338 466.432 471.658 465.472 472.298C464.539 472.912 463.832 473.778 463.352 474.898C462.872 475.992 462.632 477.272 462.632 478.738V478.978C462.632 480.605 462.886 481.978 463.392 483.098C463.926 484.218 464.712 485.072 465.752 485.658C466.792 486.218 468.032 486.498 469.472 486.498C470.619 486.498 471.726 486.325 472.792 485.978C473.886 485.605 474.912 485.005 475.872 484.178L476.992 486.458C476.112 487.258 474.992 487.898 473.632 488.378C472.272 488.858 470.886 489.098 469.472 489.098ZM482.001 488.738V469.298H485.161V473.618H484.721C485.281 472.072 486.188 470.912 487.441 470.138C488.721 469.338 490.188 468.938 491.841 468.938C493.388 468.938 494.668 469.218 495.681 469.778C496.721 470.312 497.495 471.152 498.001 472.298C498.508 473.445 498.761 474.885 498.761 476.618V488.738H495.521V476.818C495.521 475.618 495.361 474.632 495.041 473.858C494.748 473.085 494.268 472.512 493.601 472.138C492.961 471.765 492.121 471.578 491.081 471.578C489.908 471.578 488.881 471.832 488.001 472.338C487.121 472.845 486.441 473.552 485.961 474.458C485.481 475.365 485.241 476.432 485.241 477.658V488.738H482.001ZM512.136 489.098C510.402 489.098 508.882 488.685 507.576 487.858C506.296 487.032 505.296 485.872 504.576 484.378C503.882 482.858 503.536 481.072 503.536 479.018C503.536 476.938 503.882 475.152 504.576 473.658C505.296 472.138 506.296 470.978 507.576 470.178C508.882 469.352 510.402 468.938 512.136 468.938C513.896 468.938 515.402 469.378 516.656 470.258C517.909 471.138 518.749 472.325 519.176 473.818H518.736V460.538H521.976V488.738H518.816V484.098H519.216C518.789 485.618 517.936 486.832 516.656 487.738C515.402 488.645 513.896 489.098 512.136 489.098ZM512.816 486.498C514.656 486.498 516.109 485.858 517.176 484.578C518.269 483.272 518.816 481.418 518.816 479.018C518.816 476.592 518.269 474.738 517.176 473.458C516.109 472.178 514.656 471.538 512.816 471.538C511.002 471.538 509.549 472.178 508.456 473.458C507.362 474.738 506.816 476.592 506.816 479.018C506.816 481.418 507.362 483.272 508.456 484.578C509.549 485.858 511.002 486.498 512.816 486.498ZM527.656 464.458V460.818H531.656V464.458H527.656ZM528.056 488.738V469.298H531.296V488.738H528.056ZM537.353 488.738V469.298H540.513V473.618H540.073C540.633 472.072 541.539 470.912 542.793 470.138C544.073 469.338 545.539 468.938 547.193 468.938C548.739 468.938 550.019 469.218 551.033 469.778C552.073 470.312 552.846 471.152 553.353 472.298C553.859 473.445 554.113 474.885 554.113 476.618V488.738H550.873V476.818C550.873 475.618 550.713 474.632 550.393 473.858C550.099 473.085 549.619 472.512 548.953 472.138C548.313 471.765 547.473 471.578 546.433 471.578C545.259 471.578 544.233 471.832 543.353 472.338C542.473 472.845 541.793 473.552 541.313 474.458C540.833 475.365 540.593 476.432 540.593 477.658V488.738H537.353ZM568.687 496.298C567.007 496.298 565.421 496.072 563.927 495.618C562.461 495.192 561.154 494.538 560.007 493.658L561.087 491.298C561.887 491.858 562.674 492.312 563.447 492.658C564.247 493.032 565.061 493.298 565.887 493.458C566.741 493.618 567.621 493.698 568.527 493.698C570.421 493.698 571.847 493.192 572.807 492.178C573.794 491.165 574.287 489.698 574.287 487.778V483.258H574.687C574.287 484.805 573.434 486.032 572.127 486.938C570.847 487.845 569.341 488.298 567.607 488.298C565.821 488.298 564.274 487.898 562.967 487.098C561.661 486.272 560.647 485.125 559.927 483.658C559.234 482.192 558.887 480.498 558.887 478.578C558.887 476.658 559.234 474.978 559.927 473.538C560.647 472.072 561.661 470.938 562.967 470.138C564.274 469.338 565.821 468.938 567.607 468.938C569.367 468.938 570.887 469.392 572.167 470.298C573.447 471.178 574.274 472.378 574.647 473.898H574.287V469.298H577.447V487.338C577.447 489.312 577.114 490.965 576.447 492.298C575.807 493.632 574.834 494.632 573.527 495.298C572.221 495.965 570.607 496.298 568.687 496.298ZM568.207 485.658C570.074 485.658 571.554 485.018 572.647 483.738C573.741 482.458 574.287 480.738 574.287 478.578C574.287 476.418 573.741 474.712 572.647 473.458C571.554 472.178 570.074 471.538 568.207 471.538C566.367 471.538 564.901 472.178 563.807 473.458C562.714 474.712 562.167 476.418 562.167 478.578C562.167 480.738 562.714 482.458 563.807 483.738C564.901 485.018 566.367 485.658 568.207 485.658ZM316.481 544.098C315.147 544.098 313.947 543.845 312.881 543.338C311.841 542.805 311.014 542.085 310.401 541.178C309.787 540.272 309.481 539.258 309.481 538.138C309.481 536.698 309.841 535.565 310.561 534.738C311.307 533.912 312.521 533.325 314.201 532.978C315.907 532.632 318.227 532.458 321.161 532.458H322.961V534.578H321.201C319.574 534.578 318.214 534.632 317.121 534.738C316.027 534.845 315.161 535.032 314.521 535.298C313.881 535.565 313.427 535.912 313.161 536.338C312.894 536.765 312.761 537.298 312.761 537.938C312.761 539.032 313.134 539.925 313.881 540.618C314.654 541.312 315.694 541.658 317.001 541.658C318.067 541.658 319.001 541.405 319.801 540.898C320.627 540.392 321.267 539.698 321.721 538.818C322.201 537.938 322.441 536.925 322.441 535.778V531.218C322.441 529.565 322.107 528.378 321.441 527.658C320.774 526.912 319.681 526.538 318.161 526.538C316.987 526.538 315.854 526.712 314.761 527.058C313.667 527.378 312.547 527.912 311.401 528.658L310.281 526.298C310.974 525.818 311.761 525.405 312.641 525.058C313.521 524.685 314.441 524.405 315.401 524.218C316.361 524.032 317.281 523.938 318.161 523.938C319.841 523.938 321.227 524.218 322.321 524.778C323.414 525.312 324.227 526.138 324.761 527.258C325.294 528.352 325.561 529.765 325.561 531.498V543.738H322.521V539.218H322.881C322.667 540.232 322.254 541.098 321.641 541.818C321.054 542.538 320.321 543.098 319.441 543.498C318.561 543.898 317.574 544.098 316.481 544.098ZM337.096 543.738L328.736 524.298H332.256L339.216 541.338H338.136L345.216 524.298H348.536L340.136 543.738H337.096ZM360.449 544.098C358.395 544.098 356.622 543.698 355.129 542.898C353.662 542.072 352.515 540.912 351.689 539.418C350.889 537.925 350.489 536.138 350.489 534.058C350.489 532.032 350.889 530.272 351.689 528.778C352.489 527.258 353.582 526.072 354.969 525.218C356.382 524.365 358.009 523.938 359.849 523.938C361.609 523.938 363.115 524.325 364.369 525.098C365.622 525.872 366.582 526.965 367.249 528.378C367.942 529.792 368.289 531.485 368.289 533.458V534.698H352.969V532.578H366.129L365.489 533.098C365.489 530.965 365.009 529.312 364.049 528.138C363.115 526.938 361.742 526.338 359.929 526.338C358.569 526.338 357.409 526.658 356.449 527.298C355.515 527.912 354.809 528.778 354.329 529.898C353.849 530.992 353.609 532.272 353.609 533.738V533.978C353.609 535.605 353.862 536.978 354.369 538.098C354.902 539.218 355.689 540.072 356.729 540.658C357.769 541.218 359.009 541.498 360.449 541.498C361.595 541.498 362.702 541.325 363.769 540.978C364.862 540.605 365.889 540.005 366.849 539.178L367.969 541.458C367.089 542.258 365.969 542.898 364.609 543.378C363.249 543.858 361.862 544.098 360.449 544.098ZM372.978 543.738V524.298H376.138V528.898H375.738C376.191 527.325 376.978 526.138 378.098 525.338C379.218 524.512 380.698 524.032 382.538 523.898L383.698 523.778L383.938 526.578L381.898 526.818C380.084 526.978 378.684 527.565 377.698 528.578C376.738 529.565 376.258 530.925 376.258 532.658V543.738H372.978ZM393.238 544.098C391.905 544.098 390.705 543.845 389.638 543.338C388.598 542.805 387.772 542.085 387.158 541.178C386.545 540.272 386.238 539.258 386.238 538.138C386.238 536.698 386.598 535.565 387.318 534.738C388.065 533.912 389.278 533.325 390.958 532.978C392.665 532.632 394.985 532.458 397.918 532.458H399.718V534.578H397.958C396.332 534.578 394.972 534.632 393.878 534.738C392.785 534.845 391.918 535.032 391.278 535.298C390.638 535.565 390.185 535.912 389.918 536.338C389.652 536.765 389.518 537.298 389.518 537.938C389.518 539.032 389.892 539.925 390.638 540.618C391.412 541.312 392.452 541.658 393.758 541.658C394.825 541.658 395.758 541.405 396.558 540.898C397.385 540.392 398.025 539.698 398.478 538.818C398.958 537.938 399.198 536.925 399.198 535.778V531.218C399.198 529.565 398.865 528.378 398.198 527.658C397.532 526.912 396.438 526.538 394.918 526.538C393.745 526.538 392.612 526.712 391.518 527.058C390.425 527.378 389.305 527.912 388.158 528.658L387.038 526.298C387.732 525.818 388.518 525.405 389.398 525.058C390.278 524.685 391.198 524.405 392.158 524.218C393.118 524.032 394.038 523.938 394.918 523.938C396.598 523.938 397.985 524.218 399.078 524.778C400.172 525.312 400.985 526.138 401.518 527.258C402.052 528.352 402.318 529.765 402.318 531.498V543.738H399.278V539.218H399.638C399.425 540.232 399.012 541.098 398.398 541.818C397.812 542.538 397.078 543.098 396.198 543.498C395.318 543.898 394.332 544.098 393.238 544.098ZM416.929 551.298C415.249 551.298 413.663 551.072 412.169 550.618C410.703 550.192 409.396 549.538 408.249 548.658L409.329 546.298C410.129 546.858 410.916 547.312 411.689 547.658C412.489 548.032 413.303 548.298 414.129 548.458C414.983 548.618 415.863 548.698 416.769 548.698C418.663 548.698 420.089 548.192 421.049 547.178C422.036 546.165 422.529 544.698 422.529 542.778V538.258H422.929C422.529 539.805 421.676 541.032 420.369 541.938C419.089 542.845 417.583 543.298 415.849 543.298C414.063 543.298 412.516 542.898 411.209 542.098C409.903 541.272 408.889 540.125 408.169 538.658C407.476 537.192 407.129 535.498 407.129 533.578C407.129 531.658 407.476 529.978 408.169 528.538C408.889 527.072 409.903 525.938 411.209 525.138C412.516 524.338 414.063 523.938 415.849 523.938C417.609 523.938 419.129 524.392 420.409 525.298C421.689 526.178 422.516 527.378 422.889 528.898H422.529V524.298H425.689V542.338C425.689 544.312 425.356 545.965 424.689 547.298C424.049 548.632 423.076 549.632 421.769 550.298C420.463 550.965 418.849 551.298 416.929 551.298ZM416.449 540.658C418.316 540.658 419.796 540.018 420.889 538.738C421.983 537.458 422.529 535.738 422.529 533.578C422.529 531.418 421.983 529.712 420.889 528.458C419.796 527.178 418.316 526.538 416.449 526.538C414.609 526.538 413.143 527.178 412.049 528.458C410.956 529.712 410.409 531.418 410.409 533.578C410.409 535.738 410.956 537.458 412.049 538.738C413.143 540.018 414.609 540.658 416.449 540.658ZM440.527 544.098C438.474 544.098 436.7 543.698 435.207 542.898C433.74 542.072 432.594 540.912 431.767 539.418C430.967 537.925 430.567 536.138 430.567 534.058C430.567 532.032 430.967 530.272 431.767 528.778C432.567 527.258 433.66 526.072 435.047 525.218C436.46 524.365 438.087 523.938 439.927 523.938C441.687 523.938 443.194 524.325 444.447 525.098C445.7 525.872 446.66 526.965 447.327 528.378C448.02 529.792 448.367 531.485 448.367 533.458V534.698H433.047V532.578H446.207L445.567 533.098C445.567 530.965 445.087 529.312 444.127 528.138C443.194 526.938 441.82 526.338 440.007 526.338C438.647 526.338 437.487 526.658 436.527 527.298C435.594 527.912 434.887 528.778 434.407 529.898C433.927 530.992 433.687 532.272 433.687 533.738V533.978C433.687 535.605 433.94 536.978 434.447 538.098C434.98 539.218 435.767 540.072 436.807 540.658C437.847 541.218 439.087 541.498 440.527 541.498C441.674 541.498 442.78 541.325 443.847 540.978C444.94 540.605 445.967 540.005 446.927 539.178L448.047 541.458C447.167 542.258 446.047 542.898 444.687 543.378C443.327 543.858 441.94 544.098 440.527 544.098Z" fill="#7C828A"/>
<path d="M320.321 422.188V415.638L321.471 416.738C319.037 416.672 316.737 416.305 314.571 415.638C312.437 414.938 310.587 413.972 309.021 412.738L310.971 407.688C312.004 408.455 313.104 409.122 314.271 409.688C315.471 410.222 316.721 410.638 318.021 410.938C319.354 411.205 320.771 411.338 322.271 411.338C324.704 411.338 326.487 410.905 327.621 410.038C328.754 409.172 329.321 408.088 329.321 406.788C329.321 405.622 328.937 404.688 328.171 403.988C327.404 403.288 326.037 402.722 324.071 402.288L318.771 401.138C315.771 400.472 313.504 399.372 311.971 397.838C310.471 396.272 309.721 394.205 309.721 391.638C309.721 389.672 310.204 387.922 311.171 386.388C312.137 384.822 313.487 383.572 315.221 382.638C316.954 381.705 318.987 381.155 321.321 380.988L320.321 381.738V375.438H325.321V381.738L324.271 380.938C326.171 381.038 328.037 381.422 329.871 382.088C331.737 382.755 333.287 383.722 334.521 384.988L332.621 389.788C331.354 388.622 329.904 387.755 328.271 387.188C326.637 386.588 324.854 386.288 322.921 386.288C320.854 386.288 319.187 386.772 317.921 387.738C316.687 388.672 316.071 389.905 316.071 391.438C316.071 392.572 316.454 393.488 317.221 394.188C317.987 394.888 319.221 395.422 320.921 395.788L326.221 396.938C329.421 397.638 331.787 398.755 333.321 400.288C334.887 401.788 335.671 403.788 335.671 406.288C335.671 408.222 335.187 409.938 334.221 411.438C333.254 412.905 331.921 414.088 330.221 414.988C328.554 415.855 326.604 416.405 324.371 416.638L325.321 415.588V422.188H320.321ZM368.228 416.438V409.738H352.878V405.038L369.328 381.188H374.628V404.438H379.578V409.738H374.628V416.438H368.228ZM368.228 404.438V388.838H369.678L357.878 406.138V404.438H368.228ZM385.058 416.438L402.108 384.338V386.538H383.508V381.188H408.058V385.988L392.108 416.438H385.058ZM427.039 416.938C424.139 416.938 421.655 416.255 419.589 414.888C417.555 413.488 416.005 411.488 414.939 408.888C413.872 406.288 413.339 403.138 413.339 399.438C413.339 395.438 413.939 392.055 415.139 389.288C416.339 386.488 418.072 384.355 420.339 382.888C422.605 381.422 425.322 380.688 428.489 380.688C429.722 380.688 430.955 380.855 432.189 381.188C433.455 381.488 434.639 381.938 435.739 382.538C436.872 383.105 437.872 383.805 438.739 384.638L436.639 389.438C435.405 388.305 434.089 387.472 432.689 386.938C431.289 386.372 429.855 386.088 428.389 386.088C426.955 386.088 425.672 386.355 424.539 386.888C423.439 387.388 422.505 388.155 421.739 389.188C420.972 390.188 420.389 391.455 419.989 392.988C419.622 394.488 419.439 396.238 419.439 398.238V401.988H418.839C419.105 400.288 419.655 398.838 420.489 397.638C421.355 396.405 422.455 395.472 423.789 394.838C425.122 394.172 426.605 393.838 428.239 393.838C430.272 393.838 432.072 394.322 433.639 395.288C435.205 396.255 436.439 397.588 437.339 399.288C438.239 400.988 438.689 402.938 438.689 405.138C438.689 407.405 438.189 409.438 437.189 411.238C436.222 413.005 434.855 414.405 433.089 415.438C431.355 416.438 429.339 416.938 427.039 416.938ZM426.689 411.838C427.889 411.838 428.939 411.572 429.839 411.038C430.772 410.505 431.489 409.755 431.989 408.788C432.489 407.788 432.739 406.655 432.739 405.388C432.739 404.088 432.489 402.955 431.989 401.988C431.489 401.022 430.772 400.272 429.839 399.738C428.939 399.172 427.889 398.888 426.689 398.888C425.489 398.888 424.439 399.172 423.539 399.738C422.639 400.272 421.922 401.022 421.389 401.988C420.889 402.955 420.639 404.088 420.639 405.388C420.639 406.655 420.889 407.788 421.389 408.788C421.922 409.755 422.639 410.505 423.539 411.038C424.439 411.572 425.489 411.838 426.689 411.838Z" fill="black"/>
<rect x="1000" y="375" width="648" height="725" rx="12" fill="white"/>
<path fill-rule="evenodd" clip-rule="evenodd" d="M1326.55 586.544C1429.89 586.544 1520.81 654.935 1550.01 754.456C1579.19 853.875 1539.84 960.78 1453.24 1017.18C1367.34 1073.1 1255.32 1066.09 1177.04 1000.24L1174.68 998.225L1228.52 936.103C1279.16 979.854 1352.28 984.833 1408.28 948.364C1464.44 911.797 1490.03 842.257 1471.05 777.552C1452.28 713.594 1394.43 669.584 1328.55 668.71L1326.55 668.697V586.544Z" fill="#126DFB"/>
<path fill-rule="evenodd" clip-rule="evenodd" d="M1325.03 586.544H1322.97V668.697H1325.03V586.544ZM1315.05 586.755L1313 586.843L1316.49 668.921L1318.55 668.834L1315.05 586.755ZM1305.1 587.39L1303.05 587.565L1310.04 669.421L1312.09 669.246L1305.1 587.39ZM1295.14 588.453L1293.1 588.716L1303.6 670.197L1305.64 669.935L1295.14 588.453ZM1285.23 589.942L1283.21 590.291L1297.2 671.248L1299.23 670.899L1285.23 589.942ZM1275.46 591.841L1273.45 592.276L1290.89 672.563L1292.9 672.128L1275.46 591.841ZM1265.72 594.17L1263.73 594.691L1284.6 674.157L1286.59 673.635L1265.72 594.17ZM1256.1 596.91L1254.13 597.516L1278.4 676.015L1280.37 675.409L1256.1 596.91ZM1246.59 600.065L1244.65 600.754L1272.27 678.142L1274.21 677.453L1246.59 600.065ZM1237.22 603.627L1235.31 604.399L1266.23 680.533L1268.13 679.761L1237.22 603.627ZM1228.14 607.528L1226.26 608.38L1260.37 683.142L1262.25 682.29L1228.14 607.528ZM1219.12 611.863L1217.29 612.793L1254.56 686.033L1256.4 685.102L1219.12 611.863ZM1210.31 616.571L1208.52 617.578L1248.89 689.166L1250.68 688.158L1210.31 616.571ZM1201.7 621.654L1199.95 622.736L1243.34 692.541L1245.09 691.458L1201.7 621.654ZM1193.32 627.095L1191.62 628.251L1237.95 696.149L1239.65 694.993L1193.32 627.095ZM1185.17 632.897L1183.52 634.125L1232.7 699.991L1234.35 698.763L1185.17 632.897ZM1177.28 639.033L1175.69 640.329L1227.63 704.047L1229.22 702.75L1177.28 639.033ZM1169.64 645.515L1168.1 646.878L1222.72 708.326L1224.26 706.963L1169.64 645.515ZM1162.29 652.313L1160.81 653.74L1218 712.808L1219.48 711.38L1162.29 652.313ZM1155.29 659.368L1153.87 660.856L1213.51 717.453L1214.93 715.964L1155.29 659.368ZM1148.67 666.611L1147.32 668.158L1209.28 722.216L1210.63 720.67L1148.67 666.611ZM1142.27 674.252L1140.98 675.854L1205.19 727.235L1206.47 725.633L1142.27 674.252ZM1136.18 682.167L1134.97 683.823L1201.3 732.43L1202.52 730.774L1136.18 682.167ZM1130.45 690.333L1129.3 692.039L1197.65 737.784L1198.79 736.078L1130.45 690.333ZM1125.06 698.739L1123.99 700.492L1194.22 743.292L1195.29 741.539L1125.06 698.739ZM1120.03 707.374L1119.03 709.171L1191.03 748.947L1192.03 747.15L1120.03 707.374ZM1115.38 716.194L1114.46 718.031L1188.09 754.724L1189 752.886L1115.38 716.194ZM1111.11 725.218L1110.27 727.092L1185.38 760.636L1186.22 758.761L1111.11 725.218ZM1107.22 734.401L1106.46 736.309L1182.93 766.657L1183.69 764.748L1107.22 734.401ZM1103.73 743.736L1103.05 745.675L1180.73 772.784L1181.41 770.845L1103.73 743.736ZM1100.64 753.19L1100.05 755.156L1178.8 778.978L1179.39 777.013L1100.64 753.19ZM1097.95 762.781L1097.44 764.77L1177.13 785.25L1177.64 783.261L1097.95 762.781ZM1095.67 772.477L1095.24 774.486L1175.73 791.583L1176.16 789.574L1095.67 772.477ZM1093.8 782.284L1093.46 784.309L1174.59 797.981L1174.94 795.956L1093.8 782.284ZM1092.35 792.102L1092.1 794.14L1173.74 804.381L1174 802.343L1092.35 792.102ZM1091.32 802.02L1091.15 804.067L1173.15 810.843L1173.32 808.796L1091.32 802.02ZM1090.7 811.992L1090.62 814.044L1172.84 817.338L1172.92 815.286L1090.7 811.992ZM1090.51 821.967L1090.52 824.021L1172.81 823.833L1172.8 821.78L1090.51 821.967ZM1090.75 831.951L1090.84 834.003L1173.05 830.333L1172.95 828.281L1090.75 831.951ZM1091.4 841.792L1091.58 843.838L1173.55 836.738L1173.38 834.692L1091.4 841.792ZM1092.47 851.683L1092.73 853.72L1174.34 843.175L1174.07 841.138L1092.47 851.683ZM1093.96 861.541L1094.31 863.565L1175.39 849.588L1175.04 847.564L1093.96 861.541ZM1095.87 871.336L1096.3 873.344L1176.72 855.957L1176.29 853.949L1095.87 871.336ZM1098.18 881.022L1098.7 883.009L1178.32 862.251L1177.8 860.263L1098.18 881.022ZM1100.92 890.633L1101.52 892.597L1180.18 868.492L1179.58 866.529L1100.92 890.633ZM1104.05 900.108L1104.74 902.045L1182.31 874.64L1181.62 872.704L1104.05 900.108ZM1107.59 909.451L1108.35 911.356L1184.69 880.695L1183.93 878.789L1107.59 909.451ZM1111.52 918.646L1112.37 920.518L1187.34 886.648L1186.49 884.777L1111.52 918.646ZM1115.78 927.544L1116.71 929.378L1190.19 892.401L1189.26 890.567L1115.78 927.544ZM1120.4 936.243L1121.41 938.036L1193.27 898.019L1192.27 896.225L1120.4 936.243ZM1125.45 944.85L1126.53 946.6L1196.63 903.57L1195.55 901.82L1125.45 944.85ZM1130.87 953.232L1132.02 954.934L1200.22 908.968L1199.07 907.266L1130.87 953.232ZM1136.63 961.375L1137.85 963.027L1204.03 914.207L1202.81 912.555L1136.63 961.375ZM1142.75 969.284L1144.04 970.882L1208.07 919.289L1206.78 917.69L1142.75 969.284ZM1149.19 976.917L1150.55 978.459L1212.33 924.189L1210.97 922.647L1149.19 976.917ZM1155.95 984.266L1157.37 985.749L1216.78 928.905L1215.36 927.422L1155.95 984.266ZM1163.02 991.321L1164.5 992.742L1221.44 933.43L1219.95 932.009L1163.02 991.321ZM1170.38 998.073L1171.92 999.429L1226.29 937.76L1224.75 936.403L1170.38 998.073Z" fill="#126DFB"/>
<path d="M1292.38 829.471C1291.09 829.471 1289.81 829.324 1288.55 829.031C1287.32 828.738 1286.16 828.312 1285.08 827.755C1283.99 827.198 1283.02 826.523 1282.17 825.731L1283.27 823.531C1284.71 824.734 1286.16 825.614 1287.63 826.171C1289.09 826.728 1290.68 827.007 1292.38 827.007C1294.67 827.007 1296.47 826.347 1297.79 825.027C1299.11 823.707 1299.77 821.991 1299.77 819.879C1299.77 817.65 1299.14 815.831 1297.88 814.423C1296.62 813.015 1294.89 812.311 1292.69 812.311C1291.07 812.311 1289.67 812.634 1288.46 813.279C1287.26 813.924 1286.2 814.951 1285.3 816.359H1283.18V798.099H1300.65V800.475H1285.87V813.939H1285.08C1285.84 812.648 1286.91 811.651 1288.29 810.947C1289.7 810.214 1291.28 809.847 1293.04 809.847C1294.98 809.847 1296.65 810.258 1298.06 811.079C1299.46 811.9 1300.55 813.044 1301.31 814.511C1302.1 815.978 1302.5 817.694 1302.5 819.659C1302.5 821.595 1302.09 823.296 1301.27 824.763C1300.45 826.23 1299.27 827.388 1297.75 828.239C1296.25 829.06 1294.46 829.471 1292.38 829.471ZM1317.93 829.471C1314.49 829.471 1311.82 828.723 1309.92 827.227C1308.01 825.731 1307.06 823.648 1307.06 820.979C1307.06 819.512 1307.35 818.222 1307.94 817.107C1308.55 815.992 1309.39 815.083 1310.45 814.379C1311.5 813.675 1312.72 813.235 1314.1 813.059V813.587C1312.84 813.294 1311.72 812.795 1310.75 812.091C1309.82 811.358 1309.08 810.463 1308.55 809.407C1308.06 808.351 1307.81 807.192 1307.81 805.931C1307.81 803.35 1308.72 801.34 1310.53 799.903C1312.38 798.466 1314.85 797.747 1317.93 797.747C1321.01 797.747 1323.46 798.466 1325.27 799.903C1327.12 801.34 1328.05 803.35 1328.05 805.931C1328.05 807.192 1327.78 808.351 1327.25 809.407C1326.76 810.463 1326.04 811.358 1325.1 812.091C1324.19 812.795 1323.07 813.294 1321.75 813.587V813.059C1323.16 813.235 1324.39 813.675 1325.45 814.379C1326.51 815.083 1327.33 816.007 1327.91 817.151C1328.5 818.266 1328.79 819.542 1328.79 820.979C1328.79 823.648 1327.84 825.731 1325.93 827.227C1324.03 828.723 1321.36 829.471 1317.93 829.471ZM1317.93 827.139C1320.62 827.139 1322.65 826.626 1324 825.599C1325.38 824.543 1326.07 822.959 1326.07 820.847C1326.07 818.735 1325.38 817.166 1324 816.139C1322.65 815.112 1320.62 814.599 1317.93 814.599C1315.26 814.599 1313.23 815.112 1311.85 816.139C1310.48 817.166 1309.79 818.735 1309.79 820.847C1309.79 822.959 1310.48 824.543 1311.85 825.599C1313.23 826.626 1315.26 827.139 1317.93 827.139ZM1317.93 812.223C1320.27 812.223 1322.09 811.68 1323.38 810.595C1324.7 809.51 1325.36 808.014 1325.36 806.107C1325.36 804.2 1324.7 802.719 1323.38 801.663C1322.09 800.607 1320.27 800.079 1317.93 800.079C1315.61 800.079 1313.79 800.607 1312.47 801.663C1311.15 802.719 1310.49 804.2 1310.49 806.107C1310.49 808.014 1311.15 809.51 1312.47 810.595C1313.79 811.68 1315.61 812.223 1317.93 812.223ZM1343.25 830.131L1341.27 828.987L1359.53 797.087L1361.56 798.231L1343.25 830.131ZM1341.1 816.711C1339.6 816.711 1338.3 816.344 1337.18 815.611C1336.1 814.878 1335.26 813.807 1334.67 812.399C1334.09 810.962 1333.79 809.231 1333.79 807.207C1333.79 804.215 1334.44 801.898 1335.73 800.255C1337.05 798.583 1338.84 797.747 1341.1 797.747C1342.62 797.747 1343.93 798.128 1345.01 798.891C1346.1 799.624 1346.93 800.695 1347.52 802.103C1348.14 803.511 1348.44 805.212 1348.44 807.207C1348.44 809.231 1348.15 810.947 1347.56 812.355C1346.98 813.763 1346.14 814.848 1345.06 815.611C1343.97 816.344 1342.65 816.711 1341.1 816.711ZM1341.1 814.643C1342.62 814.643 1343.81 814.027 1344.66 812.795C1345.54 811.534 1345.98 809.671 1345.98 807.207C1345.98 804.802 1345.54 802.983 1344.66 801.751C1343.81 800.49 1342.62 799.859 1341.1 799.859C1339.6 799.859 1338.41 800.49 1337.53 801.751C1336.68 802.983 1336.26 804.802 1336.26 807.207C1336.26 809.671 1336.68 811.534 1337.53 812.795C1338.41 814.027 1339.6 814.643 1341.1 814.643ZM1361.69 829.471C1360.19 829.471 1358.89 829.104 1357.77 828.371C1356.69 827.638 1355.85 826.567 1355.26 825.159C1354.68 823.722 1354.38 821.991 1354.38 819.967C1354.38 816.975 1355.03 814.658 1356.32 813.015C1357.64 811.343 1359.43 810.507 1361.69 810.507C1363.21 810.507 1364.52 810.888 1365.6 811.651C1366.69 812.384 1367.53 813.455 1368.11 814.863C1368.73 816.271 1369.04 817.972 1369.04 819.967C1369.04 821.991 1368.74 823.722 1368.16 825.159C1367.57 826.567 1366.73 827.638 1365.65 828.371C1364.56 829.104 1363.24 829.471 1361.69 829.471ZM1361.69 827.403C1363.21 827.403 1364.4 826.787 1365.25 825.555C1366.13 824.294 1366.57 822.431 1366.57 819.967C1366.57 817.562 1366.13 815.743 1365.25 814.511C1364.4 813.25 1363.21 812.619 1361.69 812.619C1360.19 812.619 1359 813.25 1358.12 814.511C1357.27 815.743 1356.85 817.562 1356.85 819.967C1356.85 822.431 1357.27 824.294 1358.12 825.555C1359 826.787 1360.19 827.403 1361.69 827.403Z" fill="black"/>
<path d="M1262.44 510.122V509.002H1265.02V499.978H1265.71L1262.99 501.706L1262.43 500.73L1265.39 498.842H1266.33V509.002H1268.75V510.122H1262.44ZM1275.09 510.266C1274.61 510.266 1274.15 510.212 1273.69 510.106C1273.23 509.999 1272.8 509.844 1272.39 509.642C1272 509.439 1271.64 509.199 1271.33 508.922L1271.83 507.882C1272.34 508.298 1272.86 508.607 1273.38 508.81C1273.92 509.002 1274.48 509.098 1275.08 509.098C1275.87 509.098 1276.48 508.879 1276.92 508.442C1277.37 508.004 1277.59 507.428 1277.59 506.714C1277.59 505.978 1277.38 505.375 1276.95 504.906C1276.52 504.436 1275.94 504.202 1275.19 504.202C1274.65 504.202 1274.17 504.314 1273.75 504.538C1273.35 504.751 1272.98 505.087 1272.65 505.546H1271.69V498.842H1278.23V499.962H1272.98V504.458H1272.63C1272.91 504.01 1273.29 503.668 1273.78 503.434C1274.27 503.188 1274.82 503.066 1275.43 503.066C1276.15 503.066 1276.76 503.215 1277.27 503.514C1277.79 503.812 1278.19 504.234 1278.47 504.778C1278.76 505.311 1278.9 505.935 1278.9 506.65C1278.9 507.354 1278.75 507.978 1278.44 508.522C1278.13 509.066 1277.69 509.492 1277.13 509.802C1276.56 510.111 1275.88 510.266 1275.09 510.266ZM1284.06 510.122L1289.04 498.842H1290.16L1295.13 510.122H1293.77L1292.38 506.906L1293.02 507.242H1286.14L1286.8 506.906L1285.42 510.122H1284.06ZM1289.58 500.378L1287.01 506.442L1286.62 506.138H1292.54L1292.19 506.442L1289.61 500.378H1289.58ZM1296.63 513.002V502.346H1297.89V504.186H1297.73C1297.9 503.578 1298.24 503.098 1298.74 502.746C1299.25 502.383 1299.86 502.202 1300.57 502.202C1301.26 502.202 1301.86 502.367 1302.37 502.698C1302.9 503.018 1303.3 503.482 1303.57 504.09C1303.86 504.687 1304.01 505.402 1304.01 506.234C1304.01 507.055 1303.86 507.77 1303.57 508.378C1303.3 508.975 1302.9 509.439 1302.39 509.77C1301.88 510.1 1301.27 510.266 1300.57 510.266C1299.86 510.266 1299.26 510.09 1298.76 509.738C1298.26 509.375 1297.92 508.895 1297.73 508.298H1297.93V513.002H1296.63ZM1300.29 509.226C1301.03 509.226 1301.61 508.97 1302.04 508.458C1302.48 507.935 1302.69 507.194 1302.69 506.234C1302.69 505.263 1302.48 504.522 1302.04 504.01C1301.61 503.498 1301.03 503.242 1300.29 503.242C1299.57 503.242 1298.99 503.498 1298.55 504.01C1298.11 504.522 1297.89 505.263 1297.89 506.234C1297.89 507.194 1298.11 507.935 1298.55 508.458C1298.99 508.97 1299.57 509.226 1300.29 509.226ZM1305.96 510.122V502.346H1307.22V504.186H1307.06C1307.24 503.556 1307.56 503.082 1308.01 502.762C1308.45 502.431 1309.05 502.239 1309.78 502.186L1310.25 502.138L1310.34 503.258L1309.53 503.354C1308.8 503.418 1308.24 503.652 1307.85 504.058C1307.46 504.452 1307.27 504.996 1307.27 505.69V510.122H1305.96ZM1311.53 500.41V498.954H1313.13V500.41H1311.53ZM1311.69 510.122V502.346H1312.99V510.122H1311.69ZM1317.8 510.266C1317.01 510.266 1316.41 510.031 1316 509.562C1315.61 509.092 1315.41 508.42 1315.41 507.546V498.842H1316.71V507.45C1316.71 507.823 1316.76 508.138 1316.85 508.394C1316.96 508.65 1317.11 508.842 1317.32 508.97C1317.52 509.098 1317.77 509.162 1318.07 509.162C1318.2 509.162 1318.32 509.156 1318.44 509.146C1318.56 509.124 1318.68 509.098 1318.79 509.066L1318.76 510.154C1318.58 510.186 1318.42 510.212 1318.26 510.234C1318.11 510.255 1317.96 510.266 1317.8 510.266ZM1324.19 506.394V505.322H1328.67V506.394H1324.19ZM1335.91 510.122V509.002H1338.49V499.978H1339.18L1336.46 501.706L1335.9 500.73L1338.86 498.842H1339.8V509.002H1342.22V510.122H1335.91ZM1348.56 510.266C1348.08 510.266 1347.61 510.212 1347.16 510.106C1346.7 509.999 1346.26 509.844 1345.86 509.642C1345.46 509.439 1345.11 509.199 1344.8 508.922L1345.3 507.882C1345.81 508.298 1346.33 508.607 1346.85 508.81C1347.38 509.002 1347.95 509.098 1348.55 509.098C1349.34 509.098 1349.95 508.879 1350.39 508.442C1350.84 508.004 1351.06 507.428 1351.06 506.714C1351.06 505.978 1350.85 505.375 1350.42 504.906C1349.99 504.436 1349.41 504.202 1348.66 504.202C1348.12 504.202 1347.64 504.314 1347.22 504.538C1346.81 504.751 1346.45 505.087 1346.12 505.546H1345.16V498.842H1351.7V499.962H1346.45V504.458H1346.1C1346.38 504.01 1346.76 503.668 1347.25 503.434C1347.74 503.188 1348.29 503.066 1348.9 503.066C1349.61 503.066 1350.23 503.215 1350.74 503.514C1351.26 503.812 1351.66 504.234 1351.94 504.778C1352.23 505.311 1352.37 505.935 1352.37 506.65C1352.37 507.354 1352.22 507.978 1351.91 508.522C1351.6 509.066 1351.16 509.492 1350.6 509.802C1350.03 510.111 1349.35 510.266 1348.56 510.266ZM1358.65 510.122V498.842H1359.75L1364.33 507.434H1363.85L1368.39 498.842H1369.5V510.122H1368.28V500.602H1368.67L1364.52 508.378H1363.66L1359.47 500.586H1359.85V510.122H1358.65ZM1374.58 510.266C1374.04 510.266 1373.56 510.164 1373.14 509.962C1372.72 509.748 1372.39 509.46 1372.15 509.098C1371.9 508.735 1371.78 508.33 1371.78 507.882C1371.78 507.306 1371.92 506.852 1372.21 506.522C1372.51 506.191 1372.99 505.956 1373.67 505.818C1374.35 505.679 1375.28 505.61 1376.45 505.61H1377.17V506.458H1376.47C1375.82 506.458 1375.27 506.479 1374.83 506.522C1374.4 506.564 1374.05 506.639 1373.79 506.746C1373.54 506.852 1373.36 506.991 1373.25 507.162C1373.14 507.332 1373.09 507.546 1373.09 507.802C1373.09 508.239 1373.24 508.596 1373.54 508.874C1373.85 509.151 1374.26 509.29 1374.79 509.29C1375.21 509.29 1375.59 509.188 1375.91 508.986C1376.24 508.783 1376.49 508.506 1376.67 508.154C1376.87 507.802 1376.96 507.396 1376.96 506.938V505.114C1376.96 504.452 1376.83 503.978 1376.56 503.69C1376.3 503.391 1375.86 503.242 1375.25 503.242C1374.78 503.242 1374.33 503.311 1373.89 503.45C1373.45 503.578 1373 503.791 1372.55 504.09L1372.1 503.146C1372.38 502.954 1372.69 502.788 1373.04 502.65C1373.39 502.5 1373.76 502.388 1374.15 502.314C1374.53 502.239 1374.9 502.202 1375.25 502.202C1375.92 502.202 1376.48 502.314 1376.91 502.538C1377.35 502.751 1377.68 503.082 1377.89 503.53C1378.1 503.967 1378.21 504.532 1378.21 505.226V510.122H1376.99V508.314H1377.14C1377.05 508.719 1376.89 509.066 1376.64 509.354C1376.41 509.642 1376.11 509.866 1375.76 510.026C1375.41 510.186 1375.02 510.266 1374.58 510.266ZM1381.43 513.002L1382.89 509.722V510.282L1379.48 502.346H1380.89L1383.67 509.162H1383.24L1386.06 502.346H1387.42L1382.79 513.002H1381.43Z" fill="#7C828A"/>
<path d="M1201.01 461.184V432.984H1211.49C1214.63 432.984 1217.3 433.531 1219.49 434.624C1221.7 435.717 1223.38 437.317 1224.53 439.424C1225.7 441.504 1226.29 444.051 1226.29 447.064C1226.29 450.077 1225.7 452.637 1224.53 454.744C1223.38 456.851 1221.7 458.451 1219.49 459.544C1217.3 460.637 1214.63 461.184 1211.49 461.184H1201.01ZM1206.13 456.944H1211.17C1214.45 456.944 1216.89 456.131 1218.49 454.504C1220.11 452.851 1220.93 450.371 1220.93 447.064C1220.93 443.757 1220.11 441.291 1218.49 439.664C1216.86 438.037 1214.42 437.224 1211.17 437.224H1206.13V456.944ZM1240.63 461.584C1238.42 461.584 1236.51 461.171 1234.91 460.344C1233.31 459.517 1232.07 458.344 1231.19 456.824C1230.34 455.304 1229.91 453.504 1229.91 451.424C1229.91 449.397 1230.33 447.624 1231.15 446.104C1232.01 444.584 1233.17 443.397 1234.63 442.544C1236.13 441.664 1237.82 441.224 1239.71 441.224C1241.58 441.224 1243.18 441.624 1244.51 442.424C1245.85 443.224 1246.87 444.357 1247.59 445.824C1248.34 447.291 1248.71 449.037 1248.71 451.064V452.544H1233.95V449.664H1245.19L1244.55 450.264C1244.55 448.451 1244.15 447.064 1243.35 446.104C1242.55 445.117 1241.41 444.624 1239.91 444.624C1238.79 444.624 1237.83 444.891 1237.03 445.424C1236.26 445.931 1235.66 446.664 1235.23 447.624C1234.83 448.557 1234.63 449.677 1234.63 450.984V451.264C1234.63 452.731 1234.86 453.944 1235.31 454.904C1235.77 455.864 1236.45 456.584 1237.35 457.064C1238.26 457.544 1239.38 457.784 1240.71 457.784C1241.81 457.784 1242.9 457.624 1243.99 457.304C1245.09 456.957 1246.09 456.424 1246.99 455.704L1248.39 459.064C1247.46 459.837 1246.29 460.451 1244.87 460.904C1243.46 461.357 1242.05 461.584 1240.63 461.584ZM1259.47 461.584C1257.15 461.584 1255.43 460.957 1254.31 459.704C1253.22 458.424 1252.67 456.557 1252.67 454.104V432.984H1257.67V453.864C1257.67 454.637 1257.78 455.304 1257.99 455.864C1258.23 456.397 1258.58 456.797 1259.03 457.064C1259.49 457.331 1260.05 457.464 1260.71 457.464C1261.01 457.464 1261.3 457.451 1261.59 457.424C1261.89 457.397 1262.17 457.344 1262.43 457.264L1262.35 461.224C1261.87 461.331 1261.39 461.411 1260.91 461.464C1260.46 461.544 1259.98 461.584 1259.47 461.584ZM1265.13 437.424V432.544H1270.73V437.424H1265.13ZM1265.45 461.184V441.624H1270.45V461.184H1265.45ZM1281.4 461.184L1272.92 441.624H1278.24L1284.28 456.784H1283.08L1289.32 441.624H1294.32L1285.72 461.184H1281.4ZM1305.99 461.584C1303.77 461.584 1301.87 461.171 1300.27 460.344C1298.67 459.517 1297.43 458.344 1296.55 456.824C1295.69 455.304 1295.27 453.504 1295.27 451.424C1295.27 449.397 1295.68 447.624 1296.51 446.104C1297.36 444.584 1298.52 443.397 1299.99 442.544C1301.48 441.664 1303.17 441.224 1305.07 441.224C1306.93 441.224 1308.53 441.624 1309.87 442.424C1311.2 443.224 1312.23 444.357 1312.95 445.824C1313.69 447.291 1314.07 449.037 1314.07 451.064V452.544H1299.31V449.664H1310.55L1309.91 450.264C1309.91 448.451 1309.51 447.064 1308.71 446.104C1307.91 445.117 1306.76 444.624 1305.27 444.624C1304.15 444.624 1303.19 444.891 1302.39 445.424C1301.61 445.931 1301.01 446.664 1300.59 447.624C1300.19 448.557 1299.99 449.677 1299.99 450.984V451.264C1299.99 452.731 1300.21 453.944 1300.67 454.904C1301.12 455.864 1301.8 456.584 1302.71 457.064C1303.61 457.544 1304.73 457.784 1306.07 457.784C1307.16 457.784 1308.25 457.624 1309.35 457.304C1310.44 456.957 1311.44 456.424 1312.35 455.704L1313.75 459.064C1312.81 459.837 1311.64 460.451 1310.23 460.904C1308.81 461.357 1307.4 461.584 1305.99 461.584ZM1318.03 461.184V441.624H1322.91V446.344H1322.51C1322.88 444.744 1323.61 443.531 1324.71 442.704C1325.8 441.851 1327.25 441.357 1329.07 441.224L1330.59 441.104L1330.91 445.344L1328.03 445.624C1326.4 445.784 1325.17 446.291 1324.35 447.144C1323.52 447.971 1323.11 449.144 1323.11 450.664V461.184H1318.03ZM1336.66 468.384L1340.74 459.384V461.464L1332.14 441.624H1337.46L1343.54 456.784H1342.34L1348.54 441.624H1353.58L1341.82 468.384H1336.66ZM1367.22 461.184V432.984H1379.46C1382.55 432.984 1384.94 433.731 1386.62 435.224C1388.3 436.691 1389.14 438.757 1389.14 441.424C1389.14 443.157 1388.75 444.651 1387.98 445.904C1387.23 447.157 1386.14 448.117 1384.7 448.784C1383.26 449.451 1381.51 449.784 1379.46 449.784L1379.82 449.184H1381.14C1382.23 449.184 1383.18 449.451 1383.98 449.984C1384.8 450.517 1385.52 451.357 1386.14 452.504L1390.86 461.184H1385.22L1380.34 452.184C1380.02 451.597 1379.66 451.144 1379.26 450.824C1378.86 450.477 1378.4 450.237 1377.9 450.104C1377.39 449.971 1376.8 449.904 1376.14 449.904H1372.34V461.184H1367.22ZM1372.34 446.104H1378.58C1380.42 446.104 1381.8 445.731 1382.74 444.984C1383.7 444.211 1384.18 443.064 1384.18 441.544C1384.18 440.051 1383.7 438.931 1382.74 438.184C1381.8 437.411 1380.42 437.024 1378.58 437.024H1372.34V446.104ZM1400.4 461.584C1398.99 461.584 1397.72 461.317 1396.6 460.784C1395.51 460.224 1394.64 459.477 1394 458.544C1393.39 457.611 1393.08 456.557 1393.08 455.384C1393.08 453.944 1393.46 452.811 1394.2 451.984C1394.95 451.131 1396.16 450.517 1397.84 450.144C1399.52 449.771 1401.78 449.584 1404.6 449.584H1406.6V452.464H1404.64C1403.39 452.464 1402.34 452.517 1401.48 452.624C1400.63 452.704 1399.94 452.851 1399.4 453.064C1398.9 453.251 1398.52 453.517 1398.28 453.864C1398.07 454.211 1397.96 454.637 1397.96 455.144C1397.96 456.024 1398.27 456.744 1398.88 457.304C1399.5 457.864 1400.35 458.144 1401.44 458.144C1402.32 458.144 1403.1 457.944 1403.76 457.544C1404.46 457.117 1405 456.544 1405.4 455.824C1405.8 455.104 1406 454.277 1406 453.344V448.744C1406 447.411 1405.71 446.451 1405.12 445.864C1404.54 445.277 1403.55 444.984 1402.16 444.984C1401.07 444.984 1399.95 445.157 1398.8 445.504C1397.66 445.824 1396.5 446.331 1395.32 447.024L1393.88 443.624C1394.58 443.144 1395.39 442.731 1396.32 442.384C1397.28 442.011 1398.28 441.731 1399.32 441.544C1400.39 441.331 1401.39 441.224 1402.32 441.224C1404.24 441.224 1405.82 441.517 1407.04 442.104C1408.3 442.691 1409.23 443.584 1409.84 444.784C1410.46 445.957 1410.76 447.477 1410.76 449.344V461.184H1406.08V457.024H1406.4C1406.22 457.957 1405.84 458.771 1405.28 459.464C1404.75 460.131 1404.07 460.651 1403.24 461.024C1402.42 461.397 1401.47 461.584 1400.4 461.584ZM1424.8 461.584C1422.18 461.584 1420.24 460.931 1418.96 459.624C1417.68 458.317 1417.04 456.411 1417.04 453.904V445.384H1413.28V441.624H1417.04V435.784H1422.04V441.624H1427.96V445.384H1422.04V453.624C1422.04 454.904 1422.32 455.864 1422.88 456.504C1423.44 457.144 1424.34 457.464 1425.6 457.464C1425.97 457.464 1426.36 457.424 1426.76 457.344C1427.16 457.237 1427.57 457.131 1428 457.024L1428.76 460.704C1428.28 460.971 1427.66 461.184 1426.92 461.344C1426.2 461.504 1425.49 461.584 1424.8 461.584ZM1440.63 461.584C1438.42 461.584 1436.51 461.171 1434.91 460.344C1433.31 459.517 1432.07 458.344 1431.19 456.824C1430.34 455.304 1429.91 453.504 1429.91 451.424C1429.91 449.397 1430.33 447.624 1431.15 446.104C1432.01 444.584 1433.17 443.397 1434.63 442.544C1436.13 441.664 1437.82 441.224 1439.71 441.224C1441.58 441.224 1443.18 441.624 1444.51 442.424C1445.85 443.224 1446.87 444.357 1447.59 445.824C1448.34 447.291 1448.71 449.037 1448.71 451.064V452.544H1433.95V449.664H1445.19L1444.55 450.264C1444.55 448.451 1444.15 447.064 1443.35 446.104C1442.55 445.117 1441.41 444.624 1439.91 444.624C1438.79 444.624 1437.83 444.891 1437.03 445.424C1436.26 445.931 1435.66 446.664 1435.23 447.624C1434.83 448.557 1434.63 449.677 1434.63 450.984V451.264C1434.63 452.731 1434.86 453.944 1435.31 454.904C1435.77 455.864 1436.45 456.584 1437.35 457.064C1438.26 457.544 1439.38 457.784 1440.71 457.784C1441.81 457.784 1442.9 457.624 1443.99 457.304C1445.09 456.957 1446.09 456.424 1446.99 455.704L1448.39 459.064C1447.46 459.837 1446.29 460.451 1444.87 460.904C1443.46 461.357 1442.05 461.584 1440.63 461.584Z" fill="black"/>
</g>
<defs>
<linearGradient id="paint0_linear_29_420" x1="0" y1="558.5" x2="1728" y2="558.5" gradientUnits="userSpaceOnUse">
<stop offset="0.5625" stop-color="#7FB1FF" stop-opacity="0.8"/>
</linearGradient>
<clipPath id="clip0_29_420">
<rect width="1728" height="1117" rx="40" fill="white"/>
</clipPath>
</defs>
</svg>
