<svg width="1728" height="1117" viewBox="0 0 1728 1117" fill="none" xmlns="http://www.w3.org/2000/svg">
<rect width="1728" height="1117" rx="40" fill="url(#paint0_linear_27_134)"/>
<path d="M126 140C126 117.909 143.909 100 166 100H1728V1117H126V140Z" fill="white"/>
<rect x="274" y="254" width="200" height="496" rx="30" fill="#126DFB"/>
<rect x="555.5" y="308" width="200" height="442" rx="30" fill="#126DFB"/>
<rect x="837" y="405" width="200" height="345" rx="30" fill="#126DFB"/>
<rect x="1118.5" y="490" width="200" height="260" rx="30" fill="#126DFB"/>
<rect x="1400" y="529" width="200" height="221" rx="30" fill="#126DFB"/>
<path d="M278.403 833.636H283.659L296.017 863.821H296.443L308.801 833.636H314.057V870H309.938V842.372H309.582L298.219 870H294.241L282.878 842.372H282.523V870H278.403V833.636ZM333.147 870.568C330.685 870.568 328.525 869.982 326.666 868.81C324.82 867.638 323.376 865.999 322.334 863.892C321.304 861.785 320.789 859.323 320.789 856.506C320.789 853.665 321.304 851.185 322.334 849.066C323.376 846.947 324.82 845.302 326.666 844.13C328.525 842.958 330.685 842.372 333.147 842.372C335.609 842.372 337.764 842.958 339.61 844.13C341.469 845.302 342.913 846.947 343.943 849.066C344.984 851.185 345.505 853.665 345.505 856.506C345.505 859.323 344.984 861.785 343.943 863.892C342.913 865.999 341.469 867.638 339.61 868.81C337.764 869.982 335.609 870.568 333.147 870.568ZM333.147 866.804C335.017 866.804 336.556 866.325 337.764 865.366C338.971 864.407 339.865 863.146 340.445 861.584C341.025 860.021 341.315 858.329 341.315 856.506C341.315 854.683 341.025 852.984 340.445 851.41C339.865 849.835 338.971 848.563 337.764 847.592C336.556 846.622 335.017 846.136 333.147 846.136C331.277 846.136 329.738 846.622 328.531 847.592C327.323 848.563 326.43 849.835 325.85 851.41C325.27 852.984 324.98 854.683 324.98 856.506C324.98 858.329 325.27 860.021 325.85 861.584C326.43 863.146 327.323 864.407 328.531 865.366C329.738 866.325 331.277 866.804 333.147 866.804ZM355.842 853.594V870H351.652V842.727H355.7V846.989H356.055C356.694 845.604 357.665 844.491 358.967 843.651C360.269 842.798 361.95 842.372 364.01 842.372C365.856 842.372 367.472 842.751 368.857 843.509C370.242 844.254 371.319 845.391 372.088 846.918C372.858 848.433 373.243 850.35 373.243 852.67V870H369.052V852.955C369.052 850.812 368.496 849.143 367.383 847.947C366.27 846.74 364.743 846.136 362.802 846.136C361.465 846.136 360.269 846.426 359.216 847.006C358.174 847.586 357.351 848.433 356.748 849.545C356.144 850.658 355.842 852.008 355.842 853.594Z" fill="black"/>
<path d="M584.415 837.543V833.636H611.688V837.543H600.253V870H595.849V837.543H584.415ZM631.142 858.849V842.727H635.332V870H631.142V865.384H630.858C630.219 866.768 629.224 867.946 627.875 868.917C626.525 869.876 624.821 870.355 622.761 870.355C621.057 870.355 619.541 869.982 618.216 869.237C616.89 868.479 615.848 867.343 615.091 865.827C614.333 864.3 613.954 862.377 613.954 860.057V842.727H618.145V859.773C618.145 861.761 618.701 863.348 619.814 864.531C620.938 865.715 622.371 866.307 624.111 866.307C625.152 866.307 626.212 866.04 627.289 865.508C628.378 864.975 629.289 864.158 630.023 863.058C630.769 861.957 631.142 860.554 631.142 858.849ZM654.192 870.568C651.564 870.568 649.297 869.988 647.391 868.828C645.497 867.656 644.036 866.023 643.006 863.928C641.988 861.821 641.479 859.37 641.479 856.577C641.479 853.783 641.988 851.321 643.006 849.19C644.036 847.048 645.468 845.379 647.303 844.183C649.149 842.976 651.304 842.372 653.766 842.372C655.186 842.372 656.589 842.609 657.974 843.082C659.359 843.556 660.619 844.325 661.756 845.391C662.892 846.444 663.798 847.841 664.472 849.581C665.147 851.321 665.484 853.464 665.484 856.009V857.784H644.462V854.162H661.223C661.223 852.623 660.915 851.25 660.3 850.043C659.696 848.835 658.832 847.882 657.707 847.184C656.595 846.486 655.281 846.136 653.766 846.136C652.097 846.136 650.652 846.551 649.433 847.379C648.226 848.196 647.297 849.261 646.646 850.575C645.995 851.889 645.669 853.298 645.669 854.801V857.216C645.669 859.276 646.024 861.022 646.734 862.454C647.456 863.874 648.457 864.957 649.735 865.703C651.013 866.437 652.499 866.804 654.192 866.804C655.293 866.804 656.287 866.65 657.175 866.342C658.074 866.023 658.85 865.549 659.501 864.922C660.152 864.283 660.655 863.49 661.01 862.543L665.058 863.679C664.632 865.052 663.916 866.259 662.91 867.301C661.904 868.331 660.661 869.136 659.181 869.716C657.701 870.284 656.038 870.568 654.192 870.568Z" fill="black"/>
<path d="M884.009 870L874.065 833.636H878.54L886.139 863.253H886.494L894.236 833.636H899.207L906.949 863.253H907.304L914.903 833.636H919.378L909.435 870H904.889L896.864 841.023H896.58L888.554 870H884.009ZM932.942 870.568C930.314 870.568 928.047 869.988 926.141 868.828C924.247 867.656 922.786 866.023 921.756 863.928C920.738 861.821 920.229 859.37 920.229 856.577C920.229 853.783 920.738 851.321 921.756 849.19C922.786 847.048 924.218 845.379 926.053 844.183C927.899 842.976 930.054 842.372 932.516 842.372C933.936 842.372 935.339 842.609 936.724 843.082C938.109 843.556 939.369 844.325 940.506 845.391C941.642 846.444 942.548 847.841 943.222 849.581C943.897 851.321 944.234 853.464 944.234 856.009V857.784H923.212V854.162H939.973C939.973 852.623 939.665 851.25 939.05 850.043C938.446 848.835 937.582 847.882 936.457 847.184C935.345 846.486 934.031 846.136 932.516 846.136C930.847 846.136 929.402 846.551 928.183 847.379C926.976 848.196 926.047 849.261 925.396 850.575C924.745 851.889 924.419 853.298 924.419 854.801V857.216C924.419 859.276 924.774 861.022 925.484 862.454C926.206 863.874 927.207 864.957 928.485 865.703C929.763 866.437 931.249 866.804 932.942 866.804C934.043 866.804 935.037 866.65 935.925 866.342C936.824 866.023 937.6 865.549 938.251 864.922C938.902 864.283 939.405 863.49 939.76 862.543L943.808 863.679C943.382 865.052 942.666 866.259 941.66 867.301C940.654 868.331 939.411 869.136 937.931 869.716C936.451 870.284 934.788 870.568 932.942 870.568ZM960.657 870.568C958.384 870.568 956.378 869.994 954.638 868.846C952.898 867.686 951.536 866.052 950.554 863.945C949.571 861.826 949.08 859.323 949.08 856.435C949.08 853.57 949.571 851.084 950.554 848.977C951.536 846.87 952.904 845.243 954.656 844.094C956.407 842.946 958.432 842.372 960.728 842.372C962.504 842.372 963.906 842.668 964.936 843.26C965.978 843.84 966.771 844.503 967.315 845.249C967.872 845.982 968.304 846.586 968.612 847.06H968.967V833.636H973.157V870H969.109V865.81H968.612C968.304 866.307 967.866 866.934 967.298 867.692C966.729 868.437 965.919 869.106 964.865 869.698C963.812 870.278 962.409 870.568 960.657 870.568ZM961.225 866.804C962.906 866.804 964.326 866.366 965.487 865.49C966.647 864.602 967.528 863.377 968.132 861.815C968.736 860.24 969.038 858.423 969.038 856.364C969.038 854.328 968.742 852.546 968.15 851.019C967.558 849.48 966.682 848.285 965.522 847.433C964.362 846.568 962.93 846.136 961.225 846.136C959.45 846.136 957.97 846.592 956.786 847.504C955.614 848.403 954.732 849.628 954.141 851.179C953.561 852.718 953.271 854.446 953.271 856.364C953.271 858.305 953.567 860.069 954.158 861.655C954.762 863.229 955.65 864.484 956.822 865.419C958.005 866.342 959.473 866.804 961.225 866.804Z" fill="black"/>
<path d="M1184.41 837.543V833.636H1211.69V837.543H1200.25V870H1195.85V837.543H1184.41ZM1221.86 853.594V870H1217.67V833.636H1221.86V846.989H1222.21C1222.85 845.58 1223.81 844.461 1225.09 843.633C1226.38 842.792 1228.09 842.372 1230.24 842.372C1232.09 842.372 1233.72 842.745 1235.12 843.491C1236.52 844.225 1237.6 845.355 1238.37 846.882C1239.15 848.397 1239.54 850.327 1239.54 852.67V870H1235.35V852.955C1235.35 850.788 1234.79 849.113 1233.66 847.93C1232.55 846.734 1231.01 846.136 1229.03 846.136C1227.66 846.136 1226.42 846.426 1225.34 847.006C1224.26 847.586 1223.41 848.433 1222.78 849.545C1222.16 850.658 1221.86 852.008 1221.86 853.594ZM1264.14 858.849V842.727H1268.33V870H1264.14V865.384H1263.86C1263.22 866.768 1262.23 867.946 1260.88 868.917C1259.53 869.876 1257.82 870.355 1255.76 870.355C1254.06 870.355 1252.54 869.982 1251.22 869.237C1249.89 868.479 1248.85 867.343 1248.09 865.827C1247.34 864.3 1246.96 862.377 1246.96 860.057V842.727H1251.15V859.773C1251.15 861.761 1251.7 863.348 1252.82 864.531C1253.94 865.715 1255.37 866.307 1257.11 866.307C1258.15 866.307 1259.21 866.04 1260.29 865.508C1261.38 864.975 1262.29 864.158 1263.03 863.058C1263.77 861.957 1264.14 860.554 1264.14 858.849Z" fill="black"/>
<path d="M1481.4 870V833.636H1503.21V837.543H1485.81V849.83H1501.57V853.736H1485.81V870H1481.4ZM1509.64 870V842.727H1513.69V846.847H1513.97C1514.47 845.497 1515.37 844.402 1516.67 843.562C1517.97 842.721 1519.44 842.301 1521.07 842.301C1521.38 842.301 1521.77 842.307 1522.23 842.319C1522.69 842.331 1523.04 842.348 1523.27 842.372V846.634C1523.13 846.598 1522.81 846.545 1522.3 846.474C1521.8 846.391 1521.27 846.349 1520.72 846.349C1519.39 846.349 1518.21 846.628 1517.17 847.184C1516.14 847.728 1515.32 848.486 1514.72 849.457C1514.12 850.415 1513.83 851.51 1513.83 852.741V870H1509.64ZM1527.99 870V842.727H1532.18V870H1527.99ZM1530.12 838.182C1529.31 838.182 1528.6 837.904 1528.01 837.347C1527.43 836.791 1527.14 836.122 1527.14 835.341C1527.14 834.56 1527.43 833.891 1528.01 833.335C1528.6 832.778 1529.31 832.5 1530.12 832.5C1530.94 832.5 1531.64 832.778 1532.22 833.335C1532.81 833.891 1533.11 834.56 1533.11 835.341C1533.11 836.122 1532.81 836.791 1532.22 837.347C1531.64 837.904 1530.94 838.182 1530.12 838.182Z" fill="black"/>
<path d="M275.989 1003.16V997.636H305.001V1003.16H293.762V1034H287.228V1003.16H275.989ZM318.002 1034.53C315.338 1034.53 313.03 1033.95 311.077 1032.77C309.124 1031.6 307.609 1029.96 306.531 1027.86C305.466 1025.75 304.933 1023.29 304.933 1020.47C304.933 1017.65 305.466 1015.18 306.531 1013.07C307.609 1010.95 309.124 1009.3 311.077 1008.13C313.03 1006.96 315.338 1006.37 318.002 1006.37C320.665 1006.37 322.973 1006.96 324.926 1008.13C326.879 1009.3 328.389 1010.95 329.454 1013.07C330.531 1015.18 331.07 1017.65 331.07 1020.47C331.07 1023.29 330.531 1025.75 329.454 1027.86C328.389 1029.96 326.879 1031.6 324.926 1032.77C322.973 1033.95 320.665 1034.53 318.002 1034.53ZM318.037 1029.38C319.481 1029.38 320.689 1028.99 321.659 1028.19C322.63 1027.39 323.352 1026.31 323.825 1024.96C324.311 1023.61 324.553 1022.11 324.553 1020.45C324.553 1018.78 324.311 1017.27 323.825 1015.92C323.352 1014.56 322.63 1013.48 321.659 1012.68C320.689 1011.87 319.481 1011.47 318.037 1011.47C316.557 1011.47 315.326 1011.87 314.344 1012.68C313.373 1013.48 312.645 1014.56 312.16 1015.92C311.686 1017.27 311.45 1018.78 311.45 1020.45C311.45 1022.11 311.686 1023.61 312.16 1024.96C312.645 1026.31 313.373 1027.39 314.344 1028.19C315.326 1028.99 316.557 1029.38 318.037 1029.38ZM349.894 1006.73V1011.7H334.216V1006.73H349.894ZM338.086 1000.19H344.514V1025.8C344.514 1026.66 344.644 1027.32 344.904 1027.79C345.177 1028.24 345.532 1028.54 345.97 1028.71C346.408 1028.87 346.893 1028.96 347.426 1028.96C347.828 1028.96 348.195 1028.93 348.527 1028.87C348.87 1028.81 349.13 1028.76 349.308 1028.71L350.391 1033.73C350.048 1033.85 349.556 1033.98 348.917 1034.12C348.29 1034.27 347.52 1034.35 346.609 1034.37C344.999 1034.42 343.549 1034.18 342.259 1033.64C340.969 1033.1 339.945 1032.26 339.187 1031.12C338.441 1029.99 338.074 1028.57 338.086 1026.86V1000.19ZM362.867 1034.55C361.139 1034.55 359.583 1034.24 358.198 1033.63C356.825 1033 355.735 1032.08 354.931 1030.86C354.137 1029.64 353.741 1028.13 353.741 1026.35C353.741 1024.81 354.025 1023.54 354.593 1022.53C355.161 1021.52 355.937 1020.72 356.919 1020.12C357.902 1019.51 359.008 1019.06 360.24 1018.75C361.482 1018.43 362.767 1018.2 364.093 1018.06C365.691 1017.89 366.987 1017.74 367.981 1017.61C368.975 1017.47 369.697 1017.26 370.147 1016.97C370.609 1016.68 370.84 1016.22 370.84 1015.61V1015.5C370.84 1014.16 370.443 1013.13 369.65 1012.39C368.857 1011.66 367.715 1011.29 366.223 1011.29C364.649 1011.29 363.4 1011.63 362.477 1012.32C361.565 1013.01 360.95 1013.82 360.63 1014.75L354.629 1013.9C355.102 1012.24 355.883 1010.86 356.972 1009.75C358.061 1008.62 359.393 1007.78 360.968 1007.22C362.542 1006.66 364.282 1006.37 366.188 1006.37C367.502 1006.37 368.81 1006.53 370.112 1006.83C371.414 1007.14 372.603 1007.65 373.681 1008.36C374.758 1009.06 375.622 1010.01 376.273 1011.22C376.936 1012.43 377.267 1013.94 377.267 1015.75V1034H371.088V1030.25H370.875C370.485 1031.01 369.934 1031.72 369.224 1032.38C368.526 1033.04 367.644 1033.56 366.578 1033.96C365.525 1034.36 364.288 1034.55 362.867 1034.55ZM364.536 1029.83C365.827 1029.83 366.945 1029.57 367.892 1029.06C368.839 1028.54 369.567 1027.86 370.076 1027C370.597 1026.15 370.857 1025.22 370.857 1024.22V1021C370.656 1021.17 370.313 1021.32 369.828 1021.46C369.354 1021.61 368.821 1021.73 368.23 1021.84C367.638 1021.94 367.052 1022.04 366.472 1022.12C365.892 1022.2 365.389 1022.28 364.963 1022.33C364.004 1022.46 363.146 1022.68 362.388 1022.97C361.63 1023.27 361.033 1023.68 360.595 1024.22C360.157 1024.74 359.938 1025.41 359.938 1026.24C359.938 1027.42 360.37 1028.32 361.234 1028.92C362.098 1029.53 363.199 1029.83 364.536 1029.83ZM389.908 997.636V1034H383.48V997.636H389.908ZM428.466 1007.63C428.3 1006.08 427.602 1004.87 426.371 1004.01C425.152 1003.15 423.565 1002.71 421.612 1002.71C420.239 1002.71 419.061 1002.92 418.079 1003.34C417.096 1003.75 416.345 1004.31 415.824 1005.02C415.303 1005.73 415.037 1006.54 415.025 1007.46C415.025 1008.21 415.196 1008.87 415.54 1009.43C415.895 1009.98 416.374 1010.46 416.978 1010.85C417.582 1011.23 418.25 1011.54 418.984 1011.81C419.718 1012.07 420.458 1012.28 421.204 1012.46L424.613 1013.31C425.986 1013.63 427.306 1014.07 428.572 1014.61C429.851 1015.16 430.993 1015.84 431.999 1016.67C433.017 1017.5 433.822 1018.5 434.414 1019.67C435.006 1020.84 435.302 1022.22 435.302 1023.79C435.302 1025.92 434.757 1027.8 433.668 1029.42C432.579 1031.03 431.005 1032.29 428.945 1033.2C426.897 1034.1 424.418 1034.55 421.506 1034.55C418.677 1034.55 416.22 1034.11 414.137 1033.24C412.066 1032.36 410.444 1031.08 409.272 1029.4C408.112 1027.72 407.485 1025.67 407.39 1023.26H413.871C413.965 1024.52 414.356 1025.58 415.043 1026.42C415.729 1027.26 416.623 1027.89 417.724 1028.3C418.836 1028.71 420.079 1028.92 421.452 1028.92C422.885 1028.92 424.139 1028.71 425.217 1028.28C426.306 1027.84 427.158 1027.24 427.773 1026.47C428.389 1025.69 428.703 1024.78 428.714 1023.74C428.703 1022.79 428.424 1022.01 427.88 1021.39C427.335 1020.77 426.572 1020.25 425.589 1019.83C424.619 1019.4 423.482 1019.03 422.18 1018.69L418.043 1017.63C415.049 1016.86 412.681 1015.69 410.941 1014.13C409.213 1012.56 408.349 1010.47 408.349 1007.86C408.349 1005.72 408.929 1003.84 410.089 1002.24C411.261 1000.63 412.853 999.376 414.865 998.489C416.877 997.589 419.156 997.139 421.701 997.139C424.281 997.139 426.542 997.589 428.484 998.489C430.437 999.376 431.97 1000.61 433.082 1002.2C434.195 1003.77 434.769 1005.58 434.805 1007.63H428.466ZM448.488 1034.55C446.76 1034.55 445.204 1034.24 443.819 1033.63C442.446 1033 441.357 1032.08 440.552 1030.86C439.759 1029.64 439.362 1028.13 439.362 1026.35C439.362 1024.81 439.646 1023.54 440.214 1022.53C440.782 1021.52 441.558 1020.72 442.54 1020.12C443.523 1019.51 444.63 1019.06 445.861 1018.75C447.104 1018.43 448.388 1018.2 449.714 1018.06C451.312 1017.89 452.608 1017.74 453.602 1017.61C454.596 1017.47 455.318 1017.26 455.768 1016.97C456.23 1016.68 456.461 1016.22 456.461 1015.61V1015.5C456.461 1014.16 456.064 1013.13 455.271 1012.39C454.478 1011.66 453.336 1011.29 451.844 1011.29C450.27 1011.29 449.021 1011.63 448.098 1012.32C447.186 1013.01 446.571 1013.82 446.251 1014.75L440.25 1013.9C440.723 1012.24 441.505 1010.86 442.594 1009.75C443.683 1008.62 445.014 1007.78 446.589 1007.22C448.163 1006.66 449.903 1006.37 451.809 1006.37C453.123 1006.37 454.431 1006.53 455.733 1006.83C457.035 1007.14 458.224 1007.65 459.302 1008.36C460.379 1009.06 461.243 1010.01 461.894 1011.22C462.557 1012.43 462.888 1013.94 462.888 1015.75V1034H456.709V1030.25H456.496C456.106 1031.01 455.555 1031.72 454.845 1032.38C454.147 1033.04 453.265 1033.56 452.199 1033.96C451.146 1034.36 449.909 1034.55 448.488 1034.55ZM450.157 1029.83C451.448 1029.83 452.566 1029.57 453.513 1029.06C454.46 1028.54 455.188 1027.86 455.697 1027C456.218 1026.15 456.479 1025.22 456.479 1024.22V1021C456.277 1021.17 455.934 1021.32 455.449 1021.46C454.975 1021.61 454.443 1021.73 453.851 1021.84C453.259 1021.94 452.673 1022.04 452.093 1022.12C451.513 1022.2 451.01 1022.28 450.584 1022.33C449.625 1022.46 448.767 1022.68 448.009 1022.97C447.251 1023.27 446.654 1023.68 446.216 1024.22C445.778 1024.74 445.559 1025.41 445.559 1026.24C445.559 1027.42 445.991 1028.32 446.855 1028.92C447.719 1029.53 448.82 1029.83 450.157 1029.83ZM492.486 1006.73L482.773 1034H475.671L465.959 1006.73H472.812L479.08 1026.99H479.364L485.65 1006.73H492.486ZM496.683 1034V1006.73H503.111V1034H496.683ZM499.915 1002.86C498.897 1002.86 498.021 1002.52 497.287 1001.84C496.553 1001.16 496.186 1000.34 496.186 999.376C496.186 998.406 496.553 997.583 497.287 996.908C498.021 996.222 498.897 995.879 499.915 995.879C500.945 995.879 501.821 996.222 502.543 996.908C503.277 997.583 503.644 998.406 503.644 999.376C503.644 1000.34 503.277 1001.16 502.543 1001.84C501.821 1002.52 500.945 1002.86 499.915 1002.86ZM515.898 1018.02V1034H509.471V1006.73H515.614V1011.36H515.934C516.561 1009.83 517.561 1008.62 518.934 1007.72C520.319 1006.82 522.03 1006.37 524.066 1006.37C525.948 1006.37 527.587 1006.77 528.984 1007.58C530.393 1008.38 531.482 1009.55 532.251 1011.08C533.032 1012.6 533.417 1014.46 533.405 1016.63V1034H526.978V1017.63C526.978 1015.81 526.504 1014.38 525.557 1013.35C524.622 1012.32 523.326 1011.81 521.669 1011.81C520.544 1011.81 519.544 1012.05 518.668 1012.55C517.804 1013.04 517.123 1013.74 516.626 1014.66C516.141 1015.59 515.898 1016.71 515.898 1018.02ZM551.55 1044.8C549.242 1044.8 547.259 1044.48 545.602 1043.85C543.945 1043.24 542.613 1042.41 541.607 1041.37C540.601 1040.33 539.902 1039.17 539.512 1037.91L545.3 1036.5C545.56 1037.04 545.939 1037.56 546.436 1038.08C546.934 1038.62 547.602 1039.05 548.443 1039.4C549.295 1039.75 550.366 1039.93 551.657 1039.93C553.48 1039.93 554.989 1039.49 556.184 1038.6C557.38 1037.72 557.978 1036.28 557.978 1034.27V1029.1H557.658C557.327 1029.76 556.841 1030.44 556.202 1031.14C555.575 1031.84 554.74 1032.43 553.699 1032.9C552.669 1033.37 551.373 1033.61 549.81 1033.61C547.715 1033.61 545.815 1033.12 544.11 1032.14C542.418 1031.14 541.068 1029.66 540.062 1027.7C539.068 1025.72 538.571 1023.25 538.571 1020.27C538.571 1017.28 539.068 1014.75 540.062 1012.69C541.068 1010.62 542.424 1009.05 544.128 1007.99C545.833 1006.91 547.733 1006.37 549.828 1006.37C551.426 1006.37 552.74 1006.64 553.77 1007.19C554.811 1007.72 555.64 1008.37 556.255 1009.12C556.871 1009.87 557.338 1010.57 557.658 1011.24H558.013V1006.73H564.352V1034.44C564.352 1036.78 563.796 1038.71 562.683 1040.23C561.57 1041.76 560.049 1042.9 558.12 1043.66C556.19 1044.42 554 1044.8 551.55 1044.8ZM551.603 1028.57C552.965 1028.57 554.125 1028.24 555.083 1027.57C556.042 1026.91 556.77 1025.96 557.267 1024.71C557.765 1023.47 558.013 1021.98 558.013 1020.24C558.013 1018.52 557.765 1017.02 557.267 1015.73C556.782 1014.44 556.06 1013.44 555.101 1012.73C554.154 1012.01 552.988 1011.65 551.603 1011.65C550.171 1011.65 548.975 1012.02 548.017 1012.76C547.058 1013.51 546.336 1014.53 545.85 1015.84C545.365 1017.13 545.123 1018.59 545.123 1020.24C545.123 1021.91 545.365 1023.37 545.85 1024.62C546.348 1025.87 547.076 1026.84 548.034 1027.54C549.005 1028.22 550.195 1028.57 551.603 1028.57ZM581.528 1003.16V997.636H610.54V1003.16H599.301V1034H592.767V1003.16H581.528ZM615.599 1034V1006.73H622.027V1034H615.599ZM618.831 1002.86C617.813 1002.86 616.937 1002.52 616.203 1001.84C615.469 1001.16 615.102 1000.34 615.102 999.376C615.102 998.406 615.469 997.583 616.203 996.908C616.937 996.222 617.813 995.879 618.831 995.879C619.861 995.879 620.737 996.222 621.459 996.908C622.193 997.583 622.56 998.406 622.56 999.376C622.56 1000.34 622.193 1001.16 621.459 1001.84C620.737 1002.52 619.861 1002.86 618.831 1002.86ZM628.387 1034V1006.73H634.53V1011.36H634.85C635.418 1009.8 636.359 1008.58 637.673 1007.7C638.987 1006.82 640.555 1006.37 642.378 1006.37C644.225 1006.37 645.781 1006.82 647.048 1007.72C648.326 1008.61 649.226 1009.82 649.747 1011.36H650.031C650.634 1009.85 651.652 1008.64 653.085 1007.74C654.529 1006.83 656.239 1006.37 658.216 1006.37C660.726 1006.37 662.773 1007.17 664.36 1008.75C665.946 1010.34 666.739 1012.65 666.739 1015.69V1034H660.294V1016.69C660.294 1015 659.844 1013.76 658.944 1012.98C658.044 1012.18 656.944 1011.79 655.642 1011.79C654.091 1011.79 652.878 1012.27 652.002 1013.24C651.137 1014.2 650.705 1015.45 650.705 1016.99V1034H644.402V1016.42C644.402 1015.01 643.976 1013.89 643.124 1013.05C642.283 1012.21 641.182 1011.79 639.821 1011.79C638.898 1011.79 638.057 1012.02 637.3 1012.5C636.542 1012.96 635.939 1013.62 635.489 1014.47C635.039 1015.31 634.814 1016.29 634.814 1017.42V1034H628.387ZM685.083 1034.53C682.349 1034.53 679.988 1033.96 677.999 1032.83C676.022 1031.68 674.501 1030.06 673.436 1027.96C672.37 1025.86 671.838 1023.38 671.838 1020.52C671.838 1017.72 672.37 1015.26 673.436 1013.14C674.513 1011.01 676.016 1009.35 677.946 1008.17C679.875 1006.97 682.142 1006.37 684.746 1006.37C686.427 1006.37 688.013 1006.64 689.505 1007.19C691.008 1007.72 692.334 1008.55 693.482 1009.67C694.642 1010.8 695.553 1012.23 696.216 1013.97C696.879 1015.7 697.211 1017.76 697.211 1020.15V1022.12H674.856V1017.79H691.049C691.038 1016.56 690.771 1015.46 690.25 1014.5C689.73 1013.53 689.002 1012.77 688.066 1012.21C687.143 1011.66 686.066 1011.38 684.835 1011.38C683.521 1011.38 682.367 1011.7 681.373 1012.34C680.378 1012.97 679.603 1013.79 679.047 1014.82C678.502 1015.84 678.224 1016.96 678.212 1018.18V1021.96C678.212 1023.55 678.502 1024.91 679.082 1026.05C679.662 1027.17 680.473 1028.03 681.515 1028.64C682.556 1029.23 683.775 1029.53 685.172 1029.53C686.107 1029.53 686.954 1029.4 687.711 1029.13C688.469 1028.86 689.126 1028.47 689.682 1027.95C690.239 1027.42 690.659 1026.78 690.943 1026.01L696.944 1026.68C696.565 1028.27 695.843 1029.66 694.778 1030.84C693.725 1032.01 692.375 1032.92 690.73 1033.57C689.084 1034.21 687.202 1034.53 685.083 1034.53Z" fill="black"/>
<path d="M1292.55 1034.5C1290.81 1034.49 1289.11 1034.18 1287.45 1033.59C1285.8 1032.99 1284.3 1032.01 1282.98 1030.66C1281.65 1029.3 1280.6 1027.5 1279.82 1025.25C1279.04 1022.99 1278.65 1020.19 1278.66 1016.85C1278.66 1013.73 1278.99 1010.96 1279.66 1008.52C1280.32 1006.08 1281.27 1004.02 1282.52 1002.34C1283.76 1000.65 1285.26 999.359 1287.01 998.471C1288.77 997.583 1290.74 997.139 1292.92 997.139C1295.21 997.139 1297.23 997.589 1298.99 998.489C1300.77 999.388 1302.2 1000.62 1303.29 1002.18C1304.38 1003.73 1305.05 1005.48 1305.31 1007.44H1298.83C1298.5 1006.04 1297.82 1004.93 1296.79 1004.1C1295.77 1003.26 1294.48 1002.84 1292.92 1002.84C1290.4 1002.84 1288.46 1003.93 1287.1 1006.12C1285.75 1008.31 1285.07 1011.32 1285.06 1015.14H1285.3C1285.88 1014.1 1286.64 1013.21 1287.56 1012.46C1288.48 1011.72 1289.52 1011.14 1290.68 1010.74C1291.86 1010.33 1293.09 1010.12 1294.39 1010.12C1296.53 1010.12 1298.44 1010.63 1300.13 1011.65C1301.83 1012.66 1303.18 1014.07 1304.18 1015.85C1305.17 1017.63 1305.66 1019.67 1305.65 1021.96C1305.66 1024.35 1305.12 1026.5 1304.02 1028.41C1302.92 1030.3 1301.38 1031.79 1299.42 1032.88C1297.45 1033.97 1295.16 1034.51 1292.55 1034.5ZM1292.51 1029.17C1293.8 1029.17 1294.96 1028.86 1295.98 1028.23C1296.99 1027.6 1297.8 1026.76 1298.39 1025.69C1298.98 1024.62 1299.27 1023.43 1299.26 1022.1C1299.27 1020.8 1298.99 1019.62 1298.41 1018.57C1297.84 1017.52 1297.05 1016.68 1296.05 1016.07C1295.04 1015.45 1293.89 1015.14 1292.6 1015.14C1291.64 1015.14 1290.75 1015.33 1289.92 1015.69C1289.09 1016.06 1288.37 1016.57 1287.75 1017.22C1287.14 1017.86 1286.65 1018.61 1286.3 1019.46C1285.96 1020.3 1285.78 1021.2 1285.77 1022.16C1285.78 1023.42 1286.07 1024.59 1286.65 1025.65C1287.23 1026.72 1288.03 1027.57 1289.05 1028.21C1290.07 1028.85 1291.22 1029.17 1292.51 1029.17ZM1323.91 1034V997.636H1330.5V1013.03H1347.35V997.636H1353.95V1034H1347.35V1018.55H1330.5V1034H1323.91ZM1372.48 1034.53C1369.82 1034.53 1367.51 1033.95 1365.56 1032.77C1363.6 1031.6 1362.09 1029.96 1361.01 1027.86C1359.94 1025.75 1359.41 1023.29 1359.41 1020.47C1359.41 1017.65 1359.94 1015.18 1361.01 1013.07C1362.09 1010.95 1363.6 1009.3 1365.56 1008.13C1367.51 1006.96 1369.82 1006.37 1372.48 1006.37C1375.14 1006.37 1377.45 1006.96 1379.4 1008.13C1381.36 1009.3 1382.87 1010.95 1383.93 1013.07C1385.01 1015.18 1385.55 1017.65 1385.55 1020.47C1385.55 1023.29 1385.01 1025.75 1383.93 1027.86C1382.87 1029.96 1381.36 1031.6 1379.4 1032.77C1377.45 1033.95 1375.14 1034.53 1372.48 1034.53ZM1372.52 1029.38C1373.96 1029.38 1375.17 1028.99 1376.14 1028.19C1377.11 1027.39 1377.83 1026.31 1378.3 1024.96C1378.79 1023.61 1379.03 1022.11 1379.03 1020.45C1379.03 1018.78 1378.79 1017.27 1378.3 1015.92C1377.83 1014.56 1377.11 1013.48 1376.14 1012.68C1375.17 1011.87 1373.96 1011.47 1372.52 1011.47C1371.04 1011.47 1369.8 1011.87 1368.82 1012.68C1367.85 1013.48 1367.12 1014.56 1366.64 1015.92C1366.17 1017.27 1365.93 1018.78 1365.93 1020.45C1365.93 1022.11 1366.17 1023.61 1366.64 1024.96C1367.12 1026.31 1367.85 1027.39 1368.82 1028.19C1369.8 1028.99 1371.04 1029.38 1372.52 1029.38ZM1408.14 1022.53V1006.73H1414.56V1034H1408.33V1029.15H1408.05C1407.43 1030.68 1406.42 1031.93 1405.01 1032.9C1403.61 1033.87 1401.89 1034.36 1399.84 1034.36C1398.06 1034.36 1396.48 1033.96 1395.1 1033.17C1393.74 1032.36 1392.68 1031.19 1391.91 1029.67C1391.14 1028.13 1390.75 1026.27 1390.75 1024.09V1006.73H1397.18V1023.1C1397.18 1024.83 1397.65 1026.2 1398.6 1027.22C1399.55 1028.24 1400.79 1028.74 1402.33 1028.74C1403.28 1028.74 1404.19 1028.51 1405.08 1028.05C1405.97 1027.59 1406.7 1026.9 1407.27 1025.99C1407.85 1025.07 1408.14 1023.91 1408.14 1022.53ZM1420.92 1034V1006.73H1427.16V1011.27H1427.44C1427.94 1009.7 1428.79 1008.49 1430 1007.63C1431.22 1006.77 1432.61 1006.34 1434.17 1006.34C1434.52 1006.34 1434.92 1006.35 1435.36 1006.39C1435.81 1006.41 1436.18 1006.46 1436.48 1006.51V1012.43C1436.21 1012.33 1435.77 1012.25 1435.18 1012.18C1434.6 1012.1 1434.04 1012.05 1433.49 1012.05C1432.32 1012.05 1431.27 1012.31 1430.33 1012.82C1429.41 1013.31 1428.68 1014.01 1428.15 1014.89C1427.62 1015.78 1427.35 1016.81 1427.35 1017.97V1034H1420.92ZM1462.05 1013.94L1456.19 1014.58C1456.03 1013.98 1455.74 1013.43 1455.32 1012.91C1454.92 1012.39 1454.38 1011.97 1453.69 1011.65C1453 1011.33 1452.16 1011.17 1451.17 1011.17C1449.83 1011.17 1448.71 1011.46 1447.8 1012.04C1446.9 1012.62 1446.45 1013.37 1446.46 1014.29C1446.45 1015.08 1446.74 1015.73 1447.33 1016.23C1447.94 1016.72 1448.93 1017.13 1450.32 1017.45L1454.97 1018.45C1457.55 1019 1459.47 1019.88 1460.72 1021.09C1461.99 1022.3 1462.63 1023.88 1462.64 1025.83C1462.63 1027.55 1462.12 1029.06 1461.13 1030.38C1460.15 1031.68 1458.78 1032.7 1457.03 1033.43C1455.28 1034.17 1453.26 1034.53 1450.99 1034.53C1447.65 1034.53 1444.97 1033.83 1442.93 1032.44C1440.89 1031.03 1439.68 1029.07 1439.29 1026.56L1445.56 1025.96C1445.84 1027.19 1446.45 1028.12 1447.37 1028.74C1448.29 1029.37 1449.49 1029.69 1450.97 1029.69C1452.5 1029.69 1453.73 1029.37 1454.65 1028.74C1455.58 1028.12 1456.05 1027.34 1456.05 1026.42C1456.05 1025.64 1455.75 1024.99 1455.15 1024.48C1454.55 1023.97 1453.63 1023.58 1452.38 1023.31L1447.72 1022.33C1445.11 1021.79 1443.17 1020.87 1441.92 1019.58C1440.66 1018.28 1440.04 1016.63 1440.05 1014.65C1440.04 1012.97 1440.5 1011.51 1441.42 1010.28C1442.36 1009.04 1443.65 1008.08 1445.31 1007.4C1446.98 1006.72 1448.9 1006.37 1451.08 1006.37C1454.28 1006.37 1456.79 1007.05 1458.63 1008.41C1460.47 1009.78 1461.62 1011.62 1462.05 1013.94ZM1494.69 995.932L1482.97 1039.47H1477.34L1489.06 995.932H1494.69ZM1523.3 1034H1510.97V997.636H1523.54C1527.15 997.636 1530.26 998.364 1532.85 999.82C1535.45 1001.26 1537.45 1003.34 1538.85 1006.05C1540.25 1008.76 1540.94 1012.01 1540.94 1015.78C1540.94 1019.57 1540.24 1022.83 1538.83 1025.55C1537.44 1028.27 1535.42 1030.36 1532.78 1031.82C1530.15 1033.27 1526.99 1034 1523.3 1034ZM1517.56 1028.3H1522.98C1525.51 1028.3 1527.62 1027.84 1529.31 1026.92C1531.01 1025.98 1532.28 1024.59 1533.13 1022.74C1533.98 1020.88 1534.41 1018.56 1534.41 1015.78C1534.41 1013 1533.98 1010.69 1533.13 1008.86C1532.28 1007.01 1531.02 1005.63 1529.35 1004.72C1527.69 1003.8 1525.63 1003.34 1523.17 1003.34H1517.56V1028.3ZM1554.52 1034.55C1552.79 1034.55 1551.23 1034.24 1549.85 1033.63C1548.47 1033 1547.39 1032.08 1546.58 1030.86C1545.79 1029.64 1545.39 1028.13 1545.39 1026.35C1545.39 1024.81 1545.68 1023.54 1546.24 1022.53C1546.81 1021.52 1547.59 1020.72 1548.57 1020.12C1549.55 1019.51 1550.66 1019.06 1551.89 1018.75C1553.13 1018.43 1554.42 1018.2 1555.74 1018.06C1557.34 1017.89 1558.64 1017.74 1559.63 1017.61C1560.63 1017.47 1561.35 1017.26 1561.8 1016.97C1562.26 1016.68 1562.49 1016.22 1562.49 1015.61V1015.5C1562.49 1014.16 1562.09 1013.13 1561.3 1012.39C1560.51 1011.66 1559.37 1011.29 1557.87 1011.29C1556.3 1011.29 1555.05 1011.63 1554.13 1012.32C1553.22 1013.01 1552.6 1013.82 1552.28 1014.75L1546.28 1013.9C1546.75 1012.24 1547.53 1010.86 1548.62 1009.75C1549.71 1008.62 1551.04 1007.78 1552.62 1007.22C1554.19 1006.66 1555.93 1006.37 1557.84 1006.37C1559.15 1006.37 1560.46 1006.53 1561.76 1006.83C1563.06 1007.14 1564.25 1007.65 1565.33 1008.36C1566.41 1009.06 1567.27 1010.01 1567.92 1011.22C1568.59 1012.43 1568.92 1013.94 1568.92 1015.75V1034H1562.74V1030.25H1562.53C1562.13 1031.01 1561.58 1031.72 1560.87 1032.38C1560.18 1033.04 1559.29 1033.56 1558.23 1033.96C1557.18 1034.36 1555.94 1034.55 1554.52 1034.55ZM1556.19 1029.83C1557.48 1029.83 1558.6 1029.57 1559.54 1029.06C1560.49 1028.54 1561.22 1027.86 1561.73 1027C1562.25 1026.15 1562.51 1025.22 1562.51 1024.22V1021C1562.31 1021.17 1561.96 1021.32 1561.48 1021.46C1561 1021.61 1560.47 1021.73 1559.88 1021.84C1559.29 1021.94 1558.7 1022.04 1558.12 1022.12C1557.54 1022.2 1557.04 1022.28 1556.61 1022.33C1555.65 1022.46 1554.8 1022.68 1554.04 1022.97C1553.28 1023.27 1552.68 1023.68 1552.25 1024.22C1551.81 1024.74 1551.59 1025.41 1551.59 1026.24C1551.59 1027.42 1552.02 1028.32 1552.88 1028.92C1553.75 1029.53 1554.85 1029.83 1556.19 1029.83ZM1578.15 1044.23C1577.27 1044.23 1576.46 1044.16 1575.72 1044.01C1574.98 1043.88 1574.4 1043.73 1573.96 1043.55L1575.45 1038.55C1576.39 1038.82 1577.22 1038.95 1577.95 1038.94C1578.69 1038.92 1579.33 1038.69 1579.89 1038.24C1580.46 1037.81 1580.94 1037.07 1581.33 1036.04L1581.88 1034.57L1571.99 1006.73H1578.81L1585.09 1027.32H1585.38L1591.68 1006.73H1598.51L1587.6 1037.3C1587.09 1038.75 1586.41 1039.98 1585.57 1041.01C1584.73 1042.06 1583.7 1042.85 1582.48 1043.39C1581.27 1043.95 1579.83 1044.23 1578.15 1044.23Z" fill="black"/>
<defs>
<linearGradient id="paint0_linear_27_134" x1="0" y1="558.5" x2="1728" y2="558.5" gradientUnits="userSpaceOnUse">
<stop offset="0.5625" stop-color="#7FB1FF" stop-opacity="0.8"/>
</linearGradient>
</defs>
</svg>
