<svg width="1728" height="1117" viewBox="0 0 1728 1117" fill="none" xmlns="http://www.w3.org/2000/svg">
<g clip-path="url(#clip0_6_2)">
<rect width="1728" height="1117" rx="40" fill="url(#paint0_linear_6_2)"/>
<rect x="126" y="100" width="1672" height="1117" rx="40" fill="white"/>
<g clip-path="url(#clip1_6_2)">
<rect x="274" y="254" width="1379" height="809" rx="40" fill="white"/>
<path d="M294.52 314.96C291.12 314.96 288.16 314.34 285.64 313.1C283.16 311.86 281.2 310.14 279.76 307.94C278.32 305.74 277.48 303.18 277.24 300.26L283.9 299.84C284.18 301.84 284.76 303.54 285.64 304.94C286.52 306.3 287.7 307.34 289.18 308.06C290.7 308.74 292.52 309.08 294.64 309.08C296.48 309.08 298.04 308.86 299.32 308.42C300.64 307.94 301.64 307.24 302.32 306.32C303 305.4 303.34 304.28 303.34 302.96C303.34 301.76 303.04 300.7 302.44 299.78C301.88 298.82 300.78 297.96 299.14 297.2C297.54 296.4 295.18 295.62 292.06 294.86C288.66 294.02 285.94 293.1 283.9 292.1C281.86 291.1 280.38 289.86 279.46 288.38C278.58 286.86 278.14 285 278.14 282.8C278.14 280.36 278.72 278.22 279.88 276.38C281.08 274.5 282.78 273.04 284.98 272C287.18 270.96 289.82 270.44 292.9 270.44C296.14 270.44 298.9 271.04 301.18 272.24C303.5 273.44 305.32 275.08 306.64 277.16C308 279.24 308.84 281.62 309.16 284.3L302.5 284.66C302.3 283.02 301.8 281.58 301 280.34C300.2 279.06 299.12 278.08 297.76 277.4C296.4 276.68 294.74 276.32 292.78 276.32C290.3 276.32 288.34 276.9 286.9 278.06C285.5 279.18 284.8 280.68 284.8 282.56C284.8 283.76 285.08 284.78 285.64 285.62C286.24 286.42 287.28 287.12 288.76 287.72C290.28 288.32 292.42 288.96 295.18 289.64C298.86 290.48 301.78 291.52 303.94 292.76C306.14 293.96 307.7 295.38 308.62 297.02C309.54 298.66 310 300.52 310 302.6C310 305.12 309.34 307.32 308.02 309.2C306.74 311.04 304.94 312.46 302.62 313.46C300.3 314.46 297.6 314.96 294.52 314.96ZM316.879 314V271.4H323.239V289.28L322.459 289.16C322.819 287.36 323.479 285.9 324.439 284.78C325.399 283.62 326.579 282.76 327.979 282.2C329.379 281.64 330.919 281.36 332.599 281.36C334.919 281.36 336.879 281.88 338.479 282.92C340.079 283.92 341.279 285.34 342.079 287.18C342.919 289.02 343.339 291.12 343.339 293.48V314H336.979V295.16C336.979 292.28 336.479 290.16 335.479 288.8C334.519 287.4 332.999 286.7 330.919 286.7C328.599 286.7 326.739 287.44 325.339 288.92C323.939 290.36 323.239 292.48 323.239 295.28V314H316.879ZM360.624 314.72C357.304 314.72 354.644 313.96 352.644 312.44C350.684 310.92 349.704 308.78 349.704 306.02C349.704 303.26 350.524 301.12 352.164 299.6C353.844 298.04 356.424 296.92 359.904 296.24L370.884 294.14C370.884 291.66 370.304 289.82 369.144 288.62C367.984 287.38 366.264 286.76 363.984 286.76C361.944 286.76 360.344 287.22 359.184 288.14C358.024 289.02 357.224 290.34 356.784 292.1L350.244 291.68C350.844 288.48 352.324 285.96 354.684 284.12C357.084 282.28 360.184 281.36 363.984 281.36C368.304 281.36 371.584 282.52 373.824 284.84C376.104 287.12 377.244 290.34 377.244 294.5V306.92C377.244 307.68 377.364 308.22 377.604 308.54C377.884 308.82 378.324 308.96 378.924 308.96H380.064V314C379.864 314.04 379.544 314.08 379.104 314.12C378.664 314.16 378.204 314.18 377.724 314.18C376.364 314.18 375.184 313.96 374.184 313.52C373.224 313.08 372.504 312.36 372.024 311.36C371.544 310.32 371.304 308.94 371.304 307.22L371.964 307.52C371.644 308.92 370.944 310.16 369.864 311.24C368.824 312.32 367.484 313.18 365.844 313.82C364.244 314.42 362.504 314.72 360.624 314.72ZM361.644 309.68C363.564 309.68 365.204 309.32 366.564 308.6C367.924 307.84 368.984 306.8 369.744 305.48C370.504 304.16 370.884 302.66 370.884 300.98V298.94L361.524 300.74C359.604 301.1 358.244 301.68 357.444 302.48C356.684 303.24 356.304 304.22 356.304 305.42C356.304 306.78 356.764 307.84 357.684 308.6C358.644 309.32 359.964 309.68 361.644 309.68ZM385.434 314V282.08H391.254L391.494 290.54L390.954 290.36C391.394 287.48 392.274 285.38 393.594 284.06C394.954 282.74 396.774 282.08 399.054 282.08H402.114V287.78H399.054C397.454 287.78 396.114 288.04 395.034 288.56C393.954 289.08 393.134 289.88 392.574 290.96C392.054 292.04 391.794 293.44 391.794 295.16V314H385.434ZM419.785 314.72C416.665 314.72 413.965 314.04 411.685 312.68C409.445 311.32 407.705 309.38 406.465 306.86C405.265 304.34 404.665 301.4 404.665 298.04C404.665 294.68 405.265 291.76 406.465 289.28C407.705 286.76 409.445 284.82 411.685 283.46C413.925 282.06 416.565 281.36 419.605 281.36C422.485 281.36 425.025 282.04 427.225 283.4C429.425 284.72 431.125 286.64 432.325 289.16C433.565 291.68 434.185 294.72 434.185 298.28V299.9H411.265C411.425 303.02 412.245 305.36 413.725 306.92C415.245 308.48 417.285 309.26 419.845 309.26C421.725 309.26 423.285 308.82 424.525 307.94C425.765 307.06 426.625 305.88 427.105 304.4L433.705 304.82C432.865 307.78 431.205 310.18 428.725 312.02C426.285 313.82 423.305 314.72 419.785 314.72ZM411.265 295.1H427.465C427.265 292.26 426.445 290.16 425.005 288.8C423.605 287.44 421.805 286.76 419.605 286.76C417.325 286.76 415.445 287.48 413.965 288.92C412.525 290.32 411.625 292.38 411.265 295.1ZM456.465 314V271.4H473.445C476.485 271.4 479.105 271.92 481.305 272.96C483.505 274 485.205 275.48 486.405 277.4C487.605 279.32 488.205 281.6 488.205 284.24C488.205 286.16 487.765 287.88 486.885 289.4C486.045 290.92 484.905 292.14 483.465 293.06C482.065 293.94 480.565 294.44 478.965 294.56L478.665 294.02C481.345 294.02 483.425 294.64 484.905 295.88C486.385 297.08 487.245 298.98 487.485 301.58L488.625 314H482.085L481.065 302.42C480.945 300.7 480.365 299.44 479.325 298.64C478.285 297.8 476.585 297.38 474.225 297.38H462.945V314H456.465ZM462.945 291.44H473.565C476.005 291.44 477.925 290.84 479.325 289.64C480.765 288.4 481.485 286.66 481.485 284.42C481.485 282.14 480.765 280.4 479.325 279.2C477.885 277.96 475.785 277.34 473.025 277.34H462.945V291.44ZM508.906 314.72C505.786 314.72 503.086 314.04 500.806 312.68C498.566 311.32 496.826 309.38 495.586 306.86C494.386 304.34 493.786 301.4 493.786 298.04C493.786 294.68 494.386 291.76 495.586 289.28C496.826 286.76 498.566 284.82 500.806 283.46C503.046 282.06 505.686 281.36 508.726 281.36C511.606 281.36 514.146 282.04 516.346 283.4C518.546 284.72 520.246 286.64 521.446 289.16C522.686 291.68 523.306 294.72 523.306 298.28V299.9H500.386C500.546 303.02 501.366 305.36 502.846 306.92C504.366 308.48 506.406 309.26 508.966 309.26C510.846 309.26 512.406 308.82 513.646 307.94C514.886 307.06 515.746 305.88 516.226 304.4L522.826 304.82C521.986 307.78 520.326 310.18 517.846 312.02C515.406 313.82 512.426 314.72 508.906 314.72ZM500.386 295.1H516.586C516.386 292.26 515.566 290.16 514.126 288.8C512.726 287.44 510.926 286.76 508.726 286.76C506.446 286.76 504.566 287.48 503.086 288.92C501.646 290.32 500.746 292.38 500.386 295.1ZM529.75 323V282.08H535.75L535.93 288.92L535.21 288.56C536.01 286.2 537.33 284.42 539.17 283.22C541.01 281.98 543.13 281.36 545.53 281.36C548.65 281.36 551.21 282.14 553.21 283.7C555.25 285.22 556.75 287.24 557.71 289.76C558.71 292.28 559.21 295.04 559.21 298.04C559.21 301.04 558.71 303.8 557.71 306.32C556.75 308.84 555.25 310.88 553.21 312.44C551.21 313.96 548.65 314.72 545.53 314.72C543.93 314.72 542.43 314.44 541.03 313.88C539.63 313.32 538.43 312.54 537.43 311.54C536.47 310.5 535.79 309.28 535.39 307.88L536.11 307.16V323H529.75ZM544.39 309.2C546.95 309.2 548.95 308.22 550.39 306.26C551.87 304.3 552.61 301.56 552.61 298.04C552.61 294.52 551.87 291.78 550.39 289.82C548.95 287.86 546.95 286.88 544.39 286.88C542.71 286.88 541.25 287.3 540.01 288.14C538.77 288.94 537.81 290.18 537.13 291.86C536.45 293.54 536.11 295.6 536.11 298.04C536.11 300.48 536.43 302.54 537.07 304.22C537.75 305.9 538.71 307.16 539.95 308C541.23 308.8 542.71 309.2 544.39 309.2ZM578.808 314.72C575.768 314.72 573.108 314.04 570.828 312.68C568.548 311.32 566.788 309.38 565.548 306.86C564.308 304.34 563.688 301.4 563.688 298.04C563.688 294.64 564.308 291.7 565.548 289.22C566.788 286.74 568.548 284.82 570.828 283.46C573.108 282.06 575.768 281.36 578.808 281.36C581.848 281.36 584.508 282.06 586.788 283.46C589.068 284.82 590.828 286.74 592.068 289.22C593.308 291.7 593.928 294.64 593.928 298.04C593.928 301.4 593.308 304.34 592.068 306.86C590.828 309.38 589.068 311.32 586.788 312.68C584.508 314.04 581.848 314.72 578.808 314.72ZM578.808 309.2C581.528 309.2 583.628 308.22 585.108 306.26C586.588 304.26 587.328 301.52 587.328 298.04C587.328 294.56 586.588 291.84 585.108 289.88C583.628 287.88 581.528 286.88 578.808 286.88C576.128 286.88 574.028 287.88 572.508 289.88C571.028 291.84 570.288 294.56 570.288 298.04C570.288 301.52 571.028 304.26 572.508 306.26C574.028 308.22 576.128 309.2 578.808 309.2ZM600.355 314V282.08H606.175L606.415 290.54L605.875 290.36C606.315 287.48 607.195 285.38 608.515 284.06C609.875 282.74 611.695 282.08 613.975 282.08H617.035V287.78H613.975C612.375 287.78 611.035 288.04 609.955 288.56C608.875 289.08 608.055 289.88 607.495 290.96C606.975 292.04 606.715 293.44 606.715 295.16V314H600.355ZM633.572 314C630.532 314 628.292 313.3 626.852 311.9C625.412 310.5 624.692 308.32 624.692 305.36V274.58H631.052V304.88C631.052 306.36 631.372 307.38 632.012 307.94C632.652 308.5 633.632 308.78 634.952 308.78H639.512V314H633.572ZM619.832 287.3V282.08H639.512V287.3H619.832Z" fill="black"/>
<rect x="274.5" y="370.5" width="1378" height="148" rx="9.5" stroke="#464646"/>
<circle cx="374" cy="689" r="100" fill="#126DFB" fill-opacity="0.3" stroke="#5F9EFF" stroke-width="5"/>
<g clip-path="url(#clip2_6_2)">
<path d="M418.46 753.705C418.075 753.994 417.633 754.284 417.247 754.573C416.806 754.863 416.42 755.152 415.979 755.384C415.593 755.615 415.263 755.847 414.877 756.079C414.822 756.136 414.766 756.136 414.711 756.194C413.443 757.005 412.12 757.757 410.797 758.452C410.411 758.684 409.97 758.915 409.584 759.089C409.584 759.089 409.529 759.147 409.473 759.147L408.15 759.841C407.268 760.304 406.331 760.71 405.449 761.115C405.007 761.347 404.511 761.52 404.07 761.694C403.629 761.868 403.133 762.099 402.692 762.273C402.251 762.446 401.754 762.678 401.313 762.852H401.258C400.817 763.025 400.321 763.199 399.88 763.373C398.887 763.72 397.84 764.067 396.847 764.415C396.517 764.53 396.131 764.646 395.8 764.762C394.752 765.109 393.705 765.399 392.657 765.63C392.271 765.746 391.885 765.804 391.444 765.92C390.452 766.151 389.404 766.383 388.412 766.614C388.191 766.672 388.026 766.672 387.805 766.73C387.474 766.788 387.088 766.846 386.758 766.904C386.261 766.962 385.82 767.078 385.324 767.135C385.104 767.193 384.883 767.193 384.662 767.251C384.387 767.309 384.056 767.367 383.725 767.367C382.843 767.483 381.906 767.599 381.024 767.714C380.748 767.772 380.417 767.772 380.141 767.83H380.086C379.7 767.888 379.314 767.888 378.928 767.946C378.542 768.004 378.157 768.004 377.771 768.004C377.55 768.004 377.274 768.062 377.054 768.062C376.613 768.062 376.227 768.12 375.841 768.12C375.289 768.12 374.793 768.178 374.242 768.178H371.485C348.218 767.83 327.322 757.468 312.38 741.027C312.38 741.027 312.38 740.969 312.325 740.969C310.671 739.406 312.104 731.07 318.776 725.802C327.156 719.145 347.226 714.977 347.226 714.977C347.226 714.977 355 713.645 383.835 719.955C400.707 723.66 413.553 729.044 420.721 743.632C422.21 746.642 423.698 751.274 418.46 753.705Z" fill="white"/>
<path d="M384.001 719.319C394.587 721.576 405.89 724.008 414.601 731.36C417.523 733.849 419.453 737.496 421.052 741.027C421.824 742.764 422.596 744.559 423.202 746.469C423.533 747.742 424.029 749.19 423.753 750.695C423.698 751.1 423.368 751.621 423.092 751.911C421.824 753.242 420.445 754.052 419.067 755.094C410.962 760.999 401.644 765.167 391.996 767.367C370.493 772.288 347.226 768.467 328.314 756.6C322.029 752.605 316.239 747.742 311.277 742.011C310.726 741.317 310.726 740.159 310.726 739.406C310.781 737.67 311.222 735.991 311.774 734.428C313.097 730.839 314.806 727.249 317.728 724.76C319.823 723.255 322.084 721.981 324.4 720.939C331.677 717.698 339.341 715.44 347.226 714.514C347.887 714.456 347.997 715.44 347.336 715.556C339.782 717.177 332.284 719.608 325.282 722.908C322.745 724.239 320.044 725.397 318.004 727.481C316.074 729.681 314.696 732.402 313.593 735.18C312.876 736.859 312.38 739.522 312.601 740.854C316.074 745.195 320.154 749.016 324.565 752.316C348.714 770.03 385.379 771.188 411.072 756.426C413.388 755.094 415.649 753.589 417.799 752.026C418.846 751.274 419.949 750.637 420.776 749.769C420.831 749.711 420.776 749.769 420.776 749.826C420.776 749.884 420.721 749.942 420.721 749.942C420.776 749.248 420.556 748.321 420.28 747.395C419.288 744.038 417.689 740.506 415.979 737.438C413.278 732.865 408.702 729.97 404.07 727.655C400.872 726.092 397.509 724.876 394.091 723.718C390.672 722.56 387.199 721.576 383.725 720.708C382.843 720.476 383.119 719.145 384.001 719.319Z" fill="black"/>
</g>
<g clip-path="url(#clip3_6_2)">
<path d="M436.765 789.597H297.328C297.328 789.597 305.543 771.42 309.182 750.695C311.718 736.339 313.593 727.945 320.705 723.313C325.723 720.072 336.474 716.714 341.106 714.977C344.248 713.82 344.91 714.804 347.17 714.167C347.17 714.456 347.226 714.688 347.226 714.977C347.226 714.977 353.18 733.56 368.673 740.159C381.299 745.543 388.798 741.954 389.955 735.991C390.672 732.171 388.412 725.919 387.254 723.892C386.592 723.313 386.151 722.445 385.931 721.577L385.489 719.666C386.537 719.435 387.53 719.145 388.522 718.798C388.853 718.682 389.128 718.567 389.459 718.451C395.8 720.187 409.363 725.803 415.373 731.592C417.744 733.907 423.368 745.485 427.006 762.273C431.197 781.319 436.765 789.597 436.765 789.597Z" fill="black"/>
<path d="M438.034 790.291C396.517 790.581 338.239 791.275 297.383 791.102C296.391 791.102 295.674 789.944 296.115 789.018C301.022 777.671 304.882 765.572 307.363 753.358C307.638 751.795 308.245 748.726 308.521 747.163C309.789 740.796 310.781 734.486 314.034 728.639C315.137 726.728 316.57 724.934 318.28 723.486C319.934 722.097 321.863 721.055 323.793 720.129C329.968 717.35 336.199 715.15 342.539 713.124C344.028 712.777 345.516 713.182 346.95 712.835C347.777 712.603 348.659 713.24 348.714 714.166L348.769 714.977L347.281 713.529C347.887 713.529 348.439 713.935 348.604 714.514C349.045 715.845 349.652 717.234 350.258 718.566C352.133 722.56 354.448 726.323 357.26 729.623C360.954 734.022 365.586 737.496 370.879 739.464C376.227 741.548 385.765 743.343 388.412 736.627C388.853 735.412 388.798 734.138 388.632 732.807C388.246 730.086 387.364 727.191 386.096 724.76L386.372 725.107C385.49 723.892 385.159 722.444 385.269 721.055V719.666C385.269 719.55 385.379 719.434 385.49 719.434C386.151 719.203 386.758 718.913 387.419 718.682C388.026 718.392 388.632 718.103 389.239 717.755C389.404 717.64 389.57 717.698 389.735 717.755C393.374 718.74 396.847 720.071 400.321 721.576C405.504 723.834 410.631 726.381 415.097 730.028C416.696 731.244 417.854 733.038 418.791 734.833C420.666 738.306 422.155 741.895 423.478 745.543C425.793 751.91 427.503 758.51 428.991 765.167C430.866 772.519 433.126 779.813 436.6 786.529L437.758 788.613L437.868 788.728V788.786C438.199 789.076 438.254 789.886 438.034 790.291ZM435.497 788.902C435.222 789.191 435.277 790.002 435.497 790.291V790.233L435.387 790.06C431.528 783.402 429.102 775.935 427.117 768.467C426.124 764.82 425.408 760.883 424.415 757.178C422.485 749.884 420.115 742.532 416.641 735.875C416.035 734.775 415.373 733.559 414.546 732.691C412.947 731.128 411.072 729.854 409.198 728.639C406.11 726.728 402.802 725.05 399.439 723.602C396.076 722.155 392.657 720.824 389.184 719.839L390.011 719.782C388.522 719.897 387.088 719.955 385.655 719.897L385.875 719.55C386.206 720.129 386.592 721.113 386.923 721.634C387.309 722.155 387.75 722.56 388.246 722.792C388.357 722.908 388.467 723.023 388.522 723.139C390.507 727.134 392.492 733.096 391.058 737.554C387.75 746.295 376.668 744.906 369.886 742.185C364.207 740.159 359.08 736.28 355.11 731.533C351.14 726.786 347.997 721.345 345.902 715.44L347.226 716.424C346.454 716.424 345.847 715.845 345.792 715.035L345.737 714.282L347.501 715.613C346.95 715.787 346.288 715.845 345.682 715.903C344.138 715.845 343.09 715.787 341.657 716.366C339.782 717.061 337.853 717.755 335.923 718.392C332.118 719.724 328.369 721.113 324.785 722.792C316.625 726.207 314.255 733.038 312.38 741.548C311.498 745.485 310.781 749.942 310.009 753.937C307.473 766.441 303.613 778.54 298.596 790.233L297.328 788.092C337.301 788.092 394.973 788.497 435.497 788.902Z" fill="black"/>
<path d="M363.932 746.237C344.91 737.264 337.522 721.229 338.955 716.887C338.955 716.887 338.955 716.829 339.01 716.771C340.003 714.629 341.602 712.893 343.587 711.677C344.689 710.982 345.902 710.346 346.895 709.998C361.947 706.062 381.906 712.719 388.632 718.797C391.058 721.866 393.539 724.934 394.477 733.038C395.8 744.732 383.615 755.558 363.932 746.237Z" fill="white"/>
<path d="M363.656 746.874C354.117 742.359 345.186 735.296 340.113 725.513C339.121 723.487 338.238 721.403 337.963 719.029C337.908 718.219 337.853 717.234 338.238 716.424C339.396 713.993 341.491 712.082 343.807 710.924C345.571 709.94 347.501 709.246 349.431 708.609C352.188 708.088 354.945 707.914 357.756 707.972C366.964 708.262 376.116 710.809 384.277 715.266C384.883 715.614 385.49 715.961 386.096 716.366C386.317 716.482 386.482 716.656 386.758 716.598C387.033 716.54 387.254 716.656 387.474 716.771C388.136 717.177 388.687 717.698 389.294 718.276C390.783 720.187 392.271 722.213 393.264 724.529C394.256 726.844 394.807 729.333 395.138 731.765C396.02 736.743 394.421 742.301 390.727 745.716C383.229 752.779 371.981 750.868 363.656 746.874ZM364.152 745.658C370.327 748.495 377.385 750.29 383.946 748.09C389.239 746.411 393.594 741.374 393.76 735.47C393.815 731.996 393.043 728.349 391.72 725.165C391.003 723.197 389.018 720.708 388.026 719.434C387.419 718.913 386.758 718.508 386.206 717.987L386.041 717.64C385.931 717.35 385.71 717.292 385.545 717.119C384.993 716.771 384.387 716.424 383.78 716.077C378.984 713.472 373.691 711.966 368.398 710.867C362.222 709.651 355.882 709.304 349.652 710.23C348.769 710.346 347.832 710.23 346.95 710.461C346.288 710.751 345.075 711.33 344.303 711.909C342.319 713.124 340.83 714.919 339.782 717.061L339.727 717.119C339.727 717.177 339.672 717.292 339.672 717.35C339.396 719.782 340.499 722.271 341.547 724.529C342.484 726.381 343.587 728.176 344.855 729.912C349.927 736.801 356.709 742.127 364.152 745.658Z" fill="black"/>
</g>
<path d="M389.183 734.717C388.025 740.68 380.527 744.269 367.901 738.885C354.779 733.328 349.1 720.071 347.666 716.135C355.44 700.852 350.037 690.258 350.037 690.258C367.956 688.637 383.614 710.635 383.614 710.635L386.04 721.518C386.261 722.445 386.702 723.255 387.364 723.834C388.521 725.976 389.9 730.897 389.183 734.717Z" fill="white"/>
<path d="M347.391 716.308C348.439 714.629 349.1 712.661 349.541 710.751C350.368 706.756 350.644 702.704 350.699 698.652V697.147C350.534 695.642 350.037 694.079 349.486 692.689C348.769 690.837 351.361 689.679 352.188 691.531C352.298 691.763 352.298 692.168 352.298 692.4C352.463 700.273 352.794 710.403 348.053 716.945C347.722 717.292 347.06 716.771 347.391 716.308ZM384.221 710.519C385.048 711.04 385.324 711.735 385.434 712.43C385.765 713.819 385.654 715.324 385.985 716.771C386.261 718.161 387.088 719.492 387.308 720.939C387.584 722.445 388.411 725.629 388.742 727.192C388.852 727.539 388.632 727.944 388.246 728.002C388.025 728.06 387.86 728.002 387.694 727.886C386.978 727.249 386.647 726.613 386.206 725.802C385.489 724.413 384.993 723.139 384.552 721.576C384.166 720.187 384.331 718.682 384 717.234C383.725 715.845 382.953 714.514 382.677 713.066C382.512 712.372 382.457 711.619 382.953 710.751C383.284 710.403 383.835 710.288 384.221 710.519Z" fill="black"/>
<path d="M388.191 725.802C377.66 725.223 369.059 721.75 360.679 706.062C367.736 712.603 376.061 715.093 384.828 716.25L385.986 721.576C386.206 722.502 387.53 725.223 388.191 725.802Z" fill="black"/>
<path d="M387.75 723.66C389.625 727.365 390.727 731.996 389.57 736.107C388.687 739.001 386.151 741.143 383.394 741.953C376.999 743.748 369.611 740.911 363.932 737.728C356.929 733.617 351.747 726.728 348.439 719.203C348.218 718.624 348.99 718.161 349.321 718.74C350.479 721.171 351.802 723.545 353.29 725.686C354.779 727.886 356.488 729.912 358.418 731.707C364.042 737.033 371.651 740.333 379.259 740.333C387.088 740.101 390.066 735.759 388.246 727.77C387.971 726.497 387.53 725.165 386.923 724.066C386.592 723.602 387.419 723.081 387.75 723.66Z" fill="black"/>
<path d="M409.087 654.135C410.08 658.997 406.772 664.207 406.772 677.175C406.772 690.431 404.456 704.846 394.918 714.861C386.702 723.487 377.274 723.139 366.192 714.05C364.648 712.777 359.245 708.493 357.867 707.046C356.268 705.367 355.386 704.151 354.614 702.878C353.952 701.72 354.117 695.005 353.18 693.442C350.754 689.216 350.258 693.789 347.115 690.084C342.76 685.106 337.522 675.091 340.113 657.376C344.303 628.663 365.972 625.305 382.016 628.489C398.171 631.731 406.441 641.341 409.087 654.135Z" fill="white"/>
<path d="M349.872 695.236C348.604 693.037 347.005 691.068 345.516 689.042C344.028 686.9 342.815 684.643 341.822 682.211C336.199 667.912 337.026 649.214 347.005 637.173C353.842 628.953 364.648 626.232 374.573 626.811C384.497 627.447 394.807 630.11 402.14 637.636C406.386 641.978 409.087 647.767 410.3 653.787C410.686 655.698 410.411 657.782 409.97 659.576C408.702 664.613 407.489 669.418 407.378 674.628C407.433 682.385 407.213 690.316 405.063 697.784C403.519 702.762 401.699 707.741 398.832 712.082C395.855 716.482 391.389 720.013 386.261 721.055C375.951 723.255 366.302 716.424 359.466 709.014C359.19 708.667 359.576 708.262 359.907 708.493C363.821 711.619 367.846 714.514 372.202 716.482C384.773 722.56 395.193 716.945 400.707 704.209C405.338 694.947 406.662 684.932 406.276 674.57C406.276 671.965 406.386 669.36 406.717 666.755C407.047 662.992 408.26 659.229 408.205 655.524C407.268 649.503 404.622 643.714 400.652 639.257C391.224 628.779 373.139 625.711 360.458 630.458C345.516 636.015 341.492 651.819 340.664 666.928C340.113 675.959 342.649 684.816 349.155 691.01L351.747 693.847C352.629 695.121 350.754 696.626 349.872 695.236Z" fill="black"/>
<path d="M356.378 676.827C356.378 676.827 354.669 668.144 346.619 669.186C339.672 670.112 337.246 687.595 353.015 692.458" fill="white"/>
<path d="M352.298 684.874C351.03 684.122 350.148 682.848 350.093 681.285C350.148 680.127 350.313 678.796 350.037 677.638C349.872 676.538 348.769 676.249 347.942 676.306C347.06 676.48 346.509 677.638 346.343 678.564C346.343 678.622 346.288 678.796 346.288 678.854C346.233 679.143 345.792 679.143 345.682 678.854C344.965 676.596 346.564 674.107 348.88 674.396C352.133 674.628 352.574 678.217 351.967 680.938C351.636 682.095 352.077 683.137 352.684 684.122L352.794 684.295C353.07 684.643 352.629 685.106 352.298 684.874ZM396.406 670.691C397.233 674.801 398.777 678.622 400.707 682.211C402.416 686.611 398.005 690.779 394.091 690.605C393.65 690.605 393.594 689.968 393.98 689.853C396.461 689.042 398.722 687.305 399.108 684.643C399.273 683.832 399.053 683.137 398.667 682.443C396.847 678.854 395.745 674.743 396.02 670.691C396.02 670.402 396.406 670.402 396.406 670.691Z" fill="black"/>
<path d="M356.102 676.885C354.834 673.47 352.077 670.228 348.383 670.286C348.053 670.228 347.501 670.344 347.17 670.344C346.233 670.402 345.461 670.749 344.744 671.444C341.216 675.149 341.822 681.69 344.689 685.8C345.682 687.248 346.95 688.521 348.383 689.563C349.817 690.605 351.416 691.416 353.125 692.11C353.511 692.226 353.346 692.863 352.96 692.805C349.266 691.995 345.737 690.084 343.311 686.9C339.562 682.153 338.79 674.222 343.256 669.591C344.248 668.665 345.627 667.97 347.005 667.97C347.446 667.97 348.108 667.855 348.549 667.97C350.864 668.086 353.07 669.302 354.503 671.212C355.772 672.833 356.488 674.801 356.709 676.77C356.709 677.117 356.213 677.233 356.102 676.885Z" fill="black"/>
<path d="M416.2 658.013C414.656 663.05 410.962 667.276 408.591 670.112C409.143 667.391 408.646 665.77 408.757 663.86C408.922 661.255 409.804 658.36 409.639 657.203C409.529 656.161 409.308 655.177 409.087 654.135C408.812 652.861 408.481 651.645 408.095 650.43C399.439 659.287 384.607 650.545 384.607 650.545C384.607 650.545 381.465 653.266 375.951 652.629C370.052 651.993 368.453 648.172 368.453 648.172C366.854 659.866 356.323 655.408 358.253 667.044C358.804 670.228 358.804 673.296 356.213 676.48C355.772 674.859 353.621 668.26 346.564 669.186C339.893 670.054 337.356 686.263 351.14 691.821C350.975 697.205 351.526 704.499 350.975 702.588C347.115 690.084 339.396 692.052 335.757 682.616C334.048 678.101 334.324 674.107 335.206 671.154C336.088 668.318 336.033 665.249 335.151 662.413C334.158 659.113 333.387 654.135 335.206 648.114C338.294 637.81 344.91 635.436 346.619 634.22C348.328 633.005 347.501 621.89 359.466 618.416C369.004 615.638 376.172 621.485 378.267 621.079C380.362 620.674 395.028 610.543 406.331 620.095C417.247 629.358 413.167 640.299 413.167 640.299C413.167 640.299 419.949 645.798 416.2 658.013Z" fill="black"/>
<path d="M380.693 673.47C377.715 673.238 374.959 671.907 372.643 669.938C372.202 669.591 372.698 668.896 373.139 669.244C374.848 670.402 376.723 671.212 378.763 671.559C379.425 671.675 380.141 671.733 380.748 671.733C381.851 671.733 381.851 673.528 380.693 673.47ZM396.902 672.659C398.611 672.428 400.596 672.138 401.919 670.865C402.03 670.691 402.305 670.691 402.416 670.865C402.912 671.386 401.644 672.254 401.313 672.544C400.045 673.412 398.611 673.991 397.178 674.396C396.737 674.512 396.295 674.222 396.185 673.759C396.02 673.238 396.406 672.717 396.902 672.659ZM383.339 668.144C384.387 668.781 385.71 667.912 385.765 666.581C385.765 665.886 385.655 665.134 385.214 664.497C383.891 662.644 377.44 659.808 372.974 661.023C369.114 662.065 378.542 665.249 383.339 668.144ZM400.266 668.839C399.494 669.475 398.226 668.723 398.06 667.507C397.95 666.87 398.005 666.176 398.28 665.597C399.163 663.86 403.243 661.487 406.551 662.644C409.418 663.744 403.96 666.002 400.266 668.839Z" fill="black"/>
<path d="M374.462 670.633C374.021 671.038 373.746 671.675 373.691 672.312L373.635 673.933C373.58 675.322 374.573 676.48 375.841 676.538C377.164 676.596 378.267 675.554 378.322 674.222L378.377 672.601V672.428C376.888 672.312 375.675 671.675 374.462 670.633ZM397.068 673.412V673.528L397.013 675.033C396.958 676.306 397.895 677.406 399.108 677.464C400.321 677.522 401.369 676.538 401.424 675.264L401.479 673.759C401.534 673.18 401.313 672.659 401.038 672.254C399.825 673.007 398.446 673.18 397.068 673.412Z" fill="black"/>
<path d="M390.948 696.163C391.003 697.089 390.341 698.71 389.128 699.868C382.898 695.873 380.086 697.957 380.086 697.957C377.881 694.426 378.377 689.621 383.725 693.268C387.419 695.815 389.735 696.22 390.948 696.163Z" fill="black"/>
<path d="M389.073 699.925C387.749 701.141 385.765 701.894 383.063 700.736C381.795 700.215 380.802 699.173 380.031 698.015C380.086 698.015 382.842 695.931 389.073 699.925Z" fill="white"/>
<path d="M391.996 695.989C391.996 695.989 389.68 697.32 383.725 693.326C376.613 688.521 378.046 698.594 383.064 700.736C388.301 702.994 391.003 698.073 390.948 696.22" stroke="black" stroke-width="3" stroke-miterlimit="10" stroke-linecap="round" stroke-linejoin="round"/>
<path d="M380.086 698.015C380.086 698.015 382.898 695.931 389.128 699.925" stroke="black" stroke-width="3" stroke-miterlimit="10" stroke-linecap="round" stroke-linejoin="round"/>
<g filter="url(#filter0_d_6_2)">
<mask id="path-35-inside-1_6_2" fill="white">
<path d="M1315 642.84C1315 638.422 1318.58 634.84 1323 634.84H1605C1609.42 634.84 1613 638.422 1613 642.84V737.84C1613 742.259 1609.42 745.84 1605 745.84H1323C1318.58 745.84 1315 742.259 1315 737.84V642.84Z"/>
</mask>
<path d="M1315 642.84C1315 638.422 1318.58 634.84 1323 634.84H1605C1609.42 634.84 1613 638.422 1613 642.84V737.84C1613 742.259 1609.42 745.84 1605 745.84H1323C1318.58 745.84 1315 742.259 1315 737.84V642.84Z" fill="white" shape-rendering="crispEdges"/>
<path d="M1323 634.84V635.84H1605V634.84V633.84H1323V634.84ZM1613 642.84H1612V737.84H1613H1614V642.84H1613ZM1605 745.84V744.84H1323V745.84V746.84H1605V745.84ZM1315 737.84H1316V642.84H1315H1314V737.84H1315ZM1323 745.84V744.84C1319.13 744.84 1316 741.706 1316 737.84H1315H1314C1314 742.811 1318.03 746.84 1323 746.84V745.84ZM1613 737.84H1612C1612 741.706 1608.87 744.84 1605 744.84V745.84V746.84C1609.97 746.84 1614 742.811 1614 737.84H1613ZM1605 634.84V635.84C1608.87 635.84 1612 638.974 1612 642.84H1613H1614C1614 637.87 1609.97 633.84 1605 633.84V634.84ZM1323 634.84V633.84C1318.03 633.84 1314 637.87 1314 642.84H1315H1316C1316 638.974 1319.13 635.84 1323 635.84V634.84Z" fill="#8C8C8C" mask="url(#path-35-inside-1_6_2)"/>
<path d="M1368.6 706.34V673.613H1389.11V677.864H1373.53V687.835H1388.04V692.07H1373.53V702.09H1389.31V706.34H1368.6ZM1404.51 706.82C1402.53 706.82 1400.76 706.314 1399.21 705.302C1397.66 704.279 1396.45 702.825 1395.57 700.939C1394.69 699.043 1394.26 696.768 1394.26 694.116C1394.26 691.463 1394.7 689.194 1395.58 687.308C1396.48 685.422 1397.7 683.979 1399.26 682.977C1400.81 681.976 1402.58 681.475 1404.55 681.475C1406.07 681.475 1407.3 681.731 1408.22 682.242C1409.16 682.743 1409.88 683.329 1410.4 684C1410.92 684.671 1411.32 685.263 1411.61 685.774H1411.9V673.613H1416.68V706.34H1412.01V702.521H1411.61C1411.32 703.043 1410.91 703.64 1410.36 704.311C1409.83 704.982 1409.1 705.568 1408.16 706.069C1407.22 706.569 1406.01 706.82 1404.51 706.82ZM1405.57 702.745C1406.94 702.745 1408.11 702.383 1409.05 701.658C1410.01 700.923 1410.74 699.906 1411.23 698.606C1411.73 697.306 1411.98 695.793 1411.98 694.068C1411.98 692.363 1411.73 690.872 1411.24 689.593C1410.75 688.315 1410.03 687.319 1409.09 686.605C1408.14 685.891 1406.97 685.534 1405.57 685.534C1404.13 685.534 1402.93 685.907 1401.97 686.653C1401.02 687.399 1400.29 688.416 1399.8 689.705C1399.32 690.994 1399.08 692.448 1399.08 694.068C1399.08 695.708 1399.33 697.184 1399.82 698.494C1400.31 699.804 1401.03 700.843 1401.99 701.61C1402.96 702.367 1404.15 702.745 1405.57 702.745ZM1423.5 706.34V681.795H1428.27V706.34H1423.5ZM1425.91 678.008C1425.08 678.008 1424.36 677.731 1423.77 677.177C1423.18 676.612 1422.89 675.941 1422.89 675.163C1422.89 674.375 1423.18 673.704 1423.77 673.15C1424.36 672.585 1425.08 672.303 1425.91 672.303C1426.74 672.303 1427.45 672.585 1428.03 673.15C1428.63 673.704 1428.93 674.375 1428.93 675.163C1428.93 675.941 1428.63 676.612 1428.03 677.177C1427.45 677.731 1426.74 678.008 1425.91 678.008ZM1446.16 681.795V685.63H1432.75V681.795H1446.16ZM1436.35 675.914H1441.13V699.133C1441.13 700.06 1441.26 700.758 1441.54 701.227C1441.82 701.685 1442.17 701.999 1442.61 702.17C1443.06 702.329 1443.54 702.409 1444.07 702.409C1444.45 702.409 1444.78 702.383 1445.07 702.329C1445.36 702.276 1445.58 702.233 1445.74 702.201L1446.61 706.149C1446.33 706.255 1445.94 706.362 1445.42 706.468C1444.91 706.585 1444.27 706.649 1443.51 706.66C1442.25 706.681 1441.08 706.458 1439.99 705.989C1438.9 705.52 1438.03 704.796 1437.35 703.815C1436.68 702.835 1436.35 701.605 1436.35 700.124V675.914ZM1461.52 706.836C1459.22 706.836 1457.21 706.308 1455.5 705.254C1453.78 704.199 1452.45 702.723 1451.5 700.827C1450.55 698.931 1450.08 696.715 1450.08 694.179C1450.08 691.633 1450.55 689.407 1451.5 687.5C1452.45 685.593 1453.78 684.112 1455.5 683.057C1457.21 682.003 1459.22 681.475 1461.52 681.475C1463.82 681.475 1465.83 682.003 1467.54 683.057C1469.26 684.112 1470.59 685.593 1471.54 687.5C1472.49 689.407 1472.96 691.633 1472.96 694.179C1472.96 696.715 1472.49 698.931 1471.54 700.827C1470.59 702.723 1469.26 704.199 1467.54 705.254C1465.83 706.308 1463.82 706.836 1461.52 706.836ZM1461.54 702.825C1463.03 702.825 1464.26 702.431 1465.24 701.642C1466.22 700.854 1466.95 699.804 1467.42 698.494C1467.9 697.184 1468.14 695.74 1468.14 694.163C1468.14 692.597 1467.9 691.159 1467.42 689.849C1466.95 688.528 1466.22 687.468 1465.24 686.669C1464.26 685.87 1463.03 685.47 1461.54 685.47C1460.03 685.47 1458.79 685.87 1457.8 686.669C1456.82 687.468 1456.09 688.528 1455.61 689.849C1455.14 691.159 1454.9 692.597 1454.9 694.163C1454.9 695.74 1455.14 697.184 1455.61 698.494C1456.09 699.804 1456.82 700.854 1457.8 701.642C1458.79 702.431 1460.03 702.825 1461.54 702.825ZM1478.3 706.34V681.795H1482.91V685.694H1483.17C1483.62 684.373 1484.4 683.334 1485.53 682.578C1486.67 681.811 1487.96 681.427 1489.4 681.427C1489.7 681.427 1490.05 681.438 1490.46 681.459C1490.87 681.481 1491.2 681.507 1491.43 681.539V686.11C1491.24 686.056 1490.9 685.998 1490.41 685.934C1489.92 685.859 1489.43 685.822 1488.94 685.822C1487.81 685.822 1486.8 686.062 1485.92 686.541C1485.04 687.01 1484.35 687.665 1483.84 688.507C1483.33 689.337 1483.07 690.286 1483.07 691.351V706.34H1478.3Z" fill="#0A0A0A"/>
<path d="M1518 682.84L1533 697.84L1548 682.84" stroke="#0F172A" stroke-width="1.33333" stroke-linecap="round" stroke-linejoin="round"/>
</g>
<ellipse cx="374" cy="929.681" rx="100" ry="99.9999" fill="#126DFB" fill-opacity="0.3" stroke="#5F9EFF" stroke-width="5"/>
<g clip-path="url(#clip4_6_2)">
<path d="M421.317 994.606C420.932 994.882 420.49 995.157 420.104 995.433C419.663 995.709 419.277 995.984 418.836 996.205C418.45 996.426 418.12 996.646 417.734 996.867C417.679 996.922 417.623 996.922 417.568 996.977C416.3 997.749 414.977 998.466 413.654 999.127C413.268 999.348 412.827 999.568 412.441 999.734C412.441 999.734 412.386 999.789 412.33 999.789L411.007 1000.45C410.125 1000.89 409.188 1001.28 408.306 1001.66C407.864 1001.88 407.368 1002.05 406.927 1002.21C406.486 1002.38 405.99 1002.6 405.549 1002.77C405.108 1002.93 404.611 1003.15 404.17 1003.32H404.115C403.674 1003.48 403.178 1003.65 402.737 1003.81C401.744 1004.14 400.697 1004.48 399.704 1004.81C399.374 1004.92 398.988 1005.03 398.657 1005.14C397.609 1005.47 396.562 1005.74 395.514 1005.96C395.128 1006.07 394.742 1006.13 394.301 1006.24C393.309 1006.46 392.261 1006.68 391.269 1006.9C391.048 1006.96 390.883 1006.96 390.662 1007.01C390.331 1007.07 389.945 1007.12 389.615 1007.18C389.118 1007.23 388.677 1007.34 388.181 1007.4C387.961 1007.45 387.74 1007.45 387.519 1007.51C387.244 1007.56 386.913 1007.62 386.582 1007.62C385.7 1007.73 384.763 1007.84 383.881 1007.95C383.605 1008 383.274 1008 382.998 1008.06H382.943C382.557 1008.11 382.171 1008.11 381.785 1008.17C381.399 1008.22 381.014 1008.22 380.628 1008.22C380.407 1008.22 380.131 1008.28 379.911 1008.28C379.47 1008.28 379.084 1008.33 378.698 1008.33C378.146 1008.33 377.65 1008.39 377.099 1008.39H374.342C351.075 1008.06 330.179 998.19 315.237 982.531C315.237 982.531 315.237 982.476 315.182 982.476C313.528 980.988 314.961 973.048 321.633 968.031C330.013 961.69 350.083 957.721 350.083 957.721C350.083 957.721 357.857 956.452 386.692 962.462C403.564 965.991 416.41 971.118 423.578 985.013C425.067 987.88 426.555 992.29 421.317 994.606Z" fill="white"/>
<path d="M386.858 961.856C397.444 964.006 408.747 966.322 417.458 973.324C420.38 975.695 422.31 979.168 423.909 982.531C424.681 984.185 425.453 985.895 426.059 987.714C426.39 988.927 426.886 990.306 426.61 991.739C426.555 992.125 426.225 992.621 425.949 992.897C424.681 994.165 423.302 994.937 421.924 995.929C413.819 1001.55 404.501 1005.52 394.853 1007.62C373.35 1012.3 350.083 1008.67 331.171 997.363C324.886 993.558 319.096 988.927 314.134 983.469C313.583 982.807 313.583 981.704 313.583 980.988C313.638 979.334 314.079 977.735 314.631 976.246C315.954 972.828 317.663 969.409 320.585 967.038C322.68 965.605 324.941 964.392 327.257 963.399C334.534 960.312 342.198 958.162 350.083 957.279C350.744 957.224 350.854 958.162 350.193 958.272C342.639 959.816 335.141 962.131 328.139 965.274C325.602 966.542 322.901 967.645 320.861 969.63C318.931 971.725 317.553 974.316 316.45 976.963C315.733 978.562 315.237 981.098 315.458 982.366C318.931 986.501 323.011 990.14 327.422 993.283C351.571 1010.15 388.236 1011.26 413.929 997.197C416.245 995.929 418.506 994.496 420.656 993.007C421.703 992.29 422.806 991.684 423.633 990.857C423.688 990.802 423.633 990.857 423.633 990.912C423.633 990.967 423.578 991.022 423.578 991.022C423.633 990.361 423.413 989.478 423.137 988.596C422.145 985.398 420.546 982.035 418.836 979.113C416.135 974.757 411.559 972.001 406.927 969.795C403.729 968.307 400.366 967.149 396.948 966.046C393.529 964.943 390.056 964.006 386.582 963.179C385.7 962.958 385.976 961.69 386.858 961.856Z" fill="black"/>
</g>
<g clip-path="url(#clip5_6_2)">
<path d="M355.376 962.848C355.376 962.848 354.273 956.011 352.398 956.397C347.932 957.445 333.487 960.477 324.665 965.219C322.735 966.267 321.357 967.094 319.703 968.637C316.67 971.504 314.575 978.948 312.039 987.99C306.636 1007.34 300.185 1028.73 300.185 1028.73H439.622C439.622 1028.73 430.911 1018.31 428.154 999.899C425.563 982.587 420.435 976.356 419.553 975.254C417.127 972.221 405.99 966.101 400.587 963.785C392.316 960.257 383.991 967.645 381.62 967.48C377.43 967.369 355.376 962.848 355.376 962.848Z" fill="black" stroke="black" stroke-width="5.126" stroke-miterlimit="10" stroke-linecap="round" stroke-linejoin="round"/>
<path d="M327.477 1028.79L324.996 1008.33M423.799 1001.39C423.799 1001.39 422.145 1005.41 422.641 1009.44C423.138 1013.46 424.571 1019.36 422.531 1028.79" stroke="white" stroke-width="3" stroke-miterlimit="10" stroke-linecap="round" stroke-linejoin="round"/>
<path d="M348.98 950.829C348.98 950.829 345.01 952.262 344.293 953.034C343.577 953.806 343.246 954.302 343.246 954.302C343.246 954.302 341.261 956.507 340.158 961.856C339.662 964.116 340.82 967.81 339.938 970.732C337.401 978.837 349.421 991.298 369.27 998.631C384.322 1004.2 400.917 999.127 403.233 988.651C405.438 978.562 404.115 973.985 403.068 970.732C400.973 964.447 400.311 962.683 397.499 960.257C395.735 958.713 394.522 961.911 387.905 963.73C385.865 964.282 383.384 964.723 380.186 964.833C361.165 965.55 360.724 954.026 357.857 950.994C357.195 950.332 353.446 949.23 348.98 950.829Z" fill="white"/>
<path d="M349.311 951.601C347.877 952.152 346.223 952.703 344.955 953.585C344.624 953.916 344.238 954.412 343.907 954.798C342.805 956.232 342.088 958.051 341.537 959.761C340.93 961.58 340.71 963.234 340.93 965.164C341.04 966.873 341.206 968.748 340.82 970.457C340.158 972.387 340.324 974.427 341.095 976.356C345.506 987.714 366.623 998.686 378.367 999.789C386.968 1000.67 398.932 998.3 402.185 989.313C403.84 982.917 404.501 975.97 402.075 969.74C401.138 967.094 400.366 964.171 398.602 962.021C398.326 961.69 397.995 961.359 397.664 961.029L397.168 960.588C397.003 960.477 396.892 960.367 396.727 960.367C396.01 960.257 395.128 960.974 394.467 961.36C389.504 964.612 383.329 965.44 377.485 965.219C371.64 965.109 365.355 963.344 361.716 958.492C359.897 956.342 359.07 953.585 357.416 951.435L357.36 951.38L357.25 951.325C354.714 950.277 351.737 950.663 349.311 951.601ZM348.87 950.388C351.737 949.34 355.32 948.789 358.077 950.332C358.794 950.994 359.235 951.986 359.676 952.869C360.503 954.633 361.275 956.342 362.378 957.886C365.631 962.793 371.806 964.392 377.43 964.392C381.234 964.447 385.149 964.116 388.732 962.903C390.552 962.297 392.261 961.47 393.86 960.422C394.963 959.705 396.507 958.603 397.72 959.761C399.098 960.863 400.256 962.297 401.028 963.841C402.296 966.542 403.178 969.299 404.115 972.111C405.769 977.9 404.997 983.965 403.674 989.699C400.256 999.734 387.63 1002.33 378.257 1001.33C366.789 1000.12 349.862 991.133 342.805 981.98C340.434 978.837 338.284 974.868 339.331 970.788C339.938 969.023 339.772 967.149 339.607 965.219C339.331 963.289 339.607 961.194 340.268 959.319C340.82 957.445 341.757 955.35 342.86 953.971C343.411 953.255 344.073 952.428 344.845 952.042C346.113 951.38 347.436 950.774 348.87 950.388Z" fill="black"/>
<path d="M388.016 964.502C383.275 965.55 378.423 965.55 373.626 965.164C367.23 964.613 360.724 962.517 356.148 957.831C354.99 956.728 353.943 955.405 352.895 954.357C352.564 954.027 352.564 953.475 352.895 953.144C353.226 952.814 353.832 952.814 354.108 953.2C355.156 954.523 356.038 955.736 357.085 956.894C362.378 962.848 370.704 964.557 378.368 964.337C381.455 964.227 384.598 963.951 387.575 962.959C388.678 962.573 389.174 964.227 388.016 964.502Z" fill="black"/>
<path d="M397.885 958.272C402.903 962.462 411.614 973.434 409.519 997.969C408.471 1010.1 414.371 1015.12 413.048 1017.05C412.827 1017.38 412.551 1017.54 412.331 1017.6C411.394 1017.82 410.511 1018.26 410.07 1019.14C409.905 1019.53 409.629 1019.8 409.243 1020.02C408.913 1020.24 408.527 1020.24 408.196 1020.19C407.038 1019.91 405.77 1020.57 405.053 1021.57C404.777 1021.95 404.447 1022.23 403.95 1022.34C403.62 1022.45 403.289 1022.39 403.068 1022.34C402.131 1022.06 401.083 1022.34 400.256 1023C400.036 1023.17 399.815 1023.28 399.54 1023.28C399.043 1023.28 398.657 1023.06 398.327 1022.73C397.555 1022.01 396.452 1021.73 395.349 1022.12C395.239 1022.17 395.184 1022.17 395.074 1022.17C394.302 1022.28 393.695 1021.68 393.254 1020.63C392.813 1019.64 391.765 1019.2 390.663 1019.31C390.442 1019.31 390.222 1019.31 389.946 1019.25C387.796 1018.76 385.039 1015.78 384.984 1012.14C384.929 1008.56 385.756 1002.33 387.134 999.403C391.379 990.416 392.923 983.965 393.144 979.113C393.585 970.236 387.961 962.297 388.512 962.131C394.136 960.974 397.885 958.272 397.885 958.272Z" fill="white"/>
<path d="M397.885 957.445C399.319 958.217 400.477 959.65 401.58 960.863C407.258 967.645 409.629 976.522 410.291 985.233C410.511 988.596 410.567 992.015 410.291 995.378L410.126 997.914C409.74 1001.99 410.126 1006.18 411.504 1010.04C412.055 1011.59 412.717 1013.08 413.378 1014.68C413.764 1015.56 414.04 1016.88 413.213 1017.65C412.937 1018.04 412.331 1018.15 411.835 1018.31C411.338 1018.48 410.897 1018.76 410.622 1019.2C410.181 1020.13 409.188 1020.96 408.085 1020.74C407.258 1020.52 406.376 1020.91 405.77 1021.51C405.163 1022.34 404.336 1023.06 403.234 1022.89C402.517 1022.73 401.8 1022.61 401.083 1023C400.808 1023.11 400.587 1023.33 400.367 1023.5C399.705 1023.88 398.878 1023.77 398.271 1023.39C397.83 1023.11 397.72 1022.84 397.334 1022.67C396.783 1022.39 396.066 1022.34 395.459 1022.56C394.081 1023 393.089 1021.79 392.648 1020.69C392.262 1019.86 391.214 1019.69 390.387 1019.8C389.781 1019.8 389.174 1019.58 388.623 1019.31C386.252 1017.98 384.708 1015.5 384.377 1012.8C384.212 1010.21 384.543 1007.67 384.929 1005.14C385.204 1003.48 385.59 1001.77 386.142 1000.17C386.748 998.576 387.52 997.142 388.182 995.543C390.663 989.478 392.978 982.917 392.537 976.246C392.096 971.67 390.387 967.369 388.237 963.344C388.016 962.848 387.465 961.966 388.237 961.69C391.269 960.973 394.191 959.705 396.783 957.941C397.224 957.776 397.5 957.445 397.885 957.445ZM397.83 959.099C397.941 959.099 398.051 959.099 398.161 959.044C398.327 958.933 398.216 958.989 398.216 958.989C396.728 959.816 395.184 960.532 393.585 961.139C392.041 961.69 389.836 962.352 388.568 962.572C388.678 962.517 388.788 962.407 388.788 962.242C388.898 962.683 389.45 963.675 389.615 964.116C395.735 976.301 394.798 983.855 389.615 996.15C389.009 997.638 388.182 999.182 387.575 1000.73C386.417 1004.14 385.921 1007.89 385.811 1011.53C385.645 1014.34 387.41 1017.65 390.166 1018.42H390.442C391.324 1018.37 392.207 1018.53 392.923 1019.09C393.309 1019.36 393.64 1019.8 393.861 1020.3C394.081 1020.8 394.357 1021.46 394.908 1021.35C396.121 1020.96 397.5 1021.13 398.492 1022.01C398.878 1022.39 399.154 1022.61 399.65 1022.45C400.311 1021.95 401.083 1021.57 401.965 1021.51C402.682 1021.4 403.399 1021.95 404.061 1021.51C404.391 1021.29 404.557 1020.96 404.833 1020.69C405.66 1019.86 406.873 1019.31 408.085 1019.58C408.857 1019.8 409.298 1019.2 409.574 1018.59C410.126 1017.76 411.063 1017.32 412 1017.1C412.827 1016.77 412.441 1015.83 412.221 1015.12C411.614 1013.63 410.897 1012.03 410.346 1010.43C409.795 1008.83 409.354 1007.18 409.133 1005.47C408.582 1002.16 408.857 998.686 409.078 995.323C409.298 992.015 409.243 988.651 409.023 985.343C408.306 976.797 405.77 967.921 399.87 961.47C399.374 960.863 398.712 960.312 398.161 959.761C398.106 959.54 397.996 959.375 397.83 959.099Z" fill="black"/>
<path d="M389.89 993.724C380.131 994.11 369.766 992.456 361.826 986.501C361.496 986.281 361.881 985.729 362.212 986.005C368.112 990.195 375.39 991.849 382.557 992.235C384.928 992.345 387.409 992.345 389.725 992.125C390.883 992.015 391.048 993.614 389.89 993.724ZM394.577 963.675C397.058 966.266 398.382 969.905 398.216 973.489C398.216 973.655 397.941 973.71 397.885 973.544C397.114 971.063 396.231 968.692 395.074 966.432C394.688 965.66 394.302 964.888 393.971 964.116C393.916 963.73 394.357 963.455 394.577 963.675ZM400.587 1022.67C398.382 1016.16 399.484 1009.05 400.918 1002.49C402.241 996.095 403.399 989.423 402.627 982.917C402.517 982.476 403.234 982.256 403.344 982.752C404.281 989.423 403.344 996.15 402.131 1002.71C401.469 1005.96 400.973 1009.22 400.918 1012.47C400.863 1015.61 401.028 1018.92 402.186 1021.9C402.572 1023 401.083 1023.72 400.587 1022.67ZM340.82 964.282C342.75 968.362 345.065 972.497 348.373 975.584C348.649 975.805 348.318 976.301 347.987 976.025C344.238 973.103 341.592 969.078 339.276 964.998C338.835 964.006 340.379 963.234 340.82 964.282ZM392.868 976.742C389.835 984.792 381.234 984.296 374.618 981.153C374.397 981.043 374.287 980.822 374.397 980.602C374.508 980.381 374.728 980.271 374.949 980.381C376.492 980.988 378.091 981.539 379.69 981.815C384.487 982.862 389.67 981.318 391.269 976.301C391.544 975.198 393.143 975.695 392.868 976.742Z" fill="black"/>
</g>
<path d="M392.041 976.522C390.883 982.201 383.384 985.619 370.758 980.491C357.636 975.198 351.957 962.572 350.524 958.823C358.298 944.268 352.894 934.178 352.894 934.178C370.813 932.634 386.472 953.585 386.472 953.585L388.898 963.951C389.118 964.833 389.559 965.605 390.221 966.156C391.379 968.196 392.757 972.883 392.041 976.522Z" fill="white"/>
<path d="M350.248 958.989C351.296 957.39 351.958 955.515 352.399 953.696C353.226 949.891 353.501 946.032 353.557 942.172V940.739C353.391 939.305 352.895 937.817 352.344 936.494C351.627 934.729 354.218 933.626 355.045 935.391C355.156 935.611 355.156 935.997 355.156 936.218C355.321 943.716 355.652 953.365 350.91 959.595C350.579 959.926 349.918 959.43 350.248 958.989ZM387.078 953.475C387.905 953.971 388.181 954.633 388.291 955.295C388.622 956.618 388.512 958.051 388.843 959.43C389.118 960.753 389.945 962.021 390.166 963.4C390.442 964.833 391.269 967.866 391.599 969.354C391.71 969.685 391.489 970.071 391.103 970.126C390.883 970.181 390.717 970.126 390.552 970.016C389.835 969.409 389.504 968.803 389.063 968.031C388.346 966.708 387.85 965.495 387.409 964.006C387.023 962.683 387.189 961.249 386.858 959.871C386.582 958.548 385.81 957.28 385.535 955.901C385.369 955.24 385.314 954.523 385.81 953.696C386.141 953.365 386.692 953.255 387.078 953.475Z" fill="black"/>
<path d="M391.049 968.031C380.518 967.48 371.917 964.171 363.536 949.23C370.593 955.46 378.919 957.831 387.685 958.934L388.843 964.006C389.064 964.888 390.387 967.48 391.049 968.031Z" fill="black"/>
<path d="M390.608 965.991C392.482 969.52 393.585 973.93 392.427 977.845C391.545 980.602 389.009 982.642 386.252 983.414C379.856 985.123 372.468 982.421 366.789 979.389C359.787 975.474 354.604 968.913 351.296 961.745C351.076 961.194 351.847 960.753 352.178 961.304C353.336 963.62 354.659 965.881 356.148 967.921C357.637 970.016 359.346 971.946 361.276 973.655C366.899 978.727 374.508 981.87 382.117 981.87C389.946 981.649 392.923 977.514 391.104 969.906C390.828 968.693 390.387 967.424 389.781 966.377C389.45 965.936 390.277 965.44 390.608 965.991Z" fill="black"/>
<path d="M411.944 899.773C412.937 904.405 412.165 907.492 411.724 920.284C406.651 941.456 407.037 953.199 404.225 956.011C402.02 958.217 388.843 961.084 379.084 958.603C374.122 957.335 369.931 954.468 366.513 952.428C362.212 949.836 358.959 941.401 355.872 936.273C353.446 932.248 353.17 937.541 350.027 934.068C345.672 929.326 340.434 919.787 343.025 902.916C347.215 875.569 368.884 872.371 384.928 875.404C401.028 878.436 409.298 887.588 411.944 899.773Z" fill="white"/>
<path d="M352.729 938.919C350.799 935.722 348.043 933.075 346.278 929.767C340.93 919.732 339.827 907.547 342.915 896.631C349.366 873.364 372.743 869.945 393.033 876.782C404.391 880.641 412.386 890.235 413.543 902.31C413.654 906.169 412.661 909.753 412.606 913.557C412.33 923.592 409.188 933.241 407.975 942.889C407.699 945.922 407.699 949.119 407.258 952.207C407.148 952.869 407.037 953.475 406.817 954.192C406.321 955.681 405.218 956.728 404.005 957.555C399.429 960.367 394.246 960.863 389.063 961.139C378.257 961.58 368.773 958.437 362.323 949.45C362.102 949.119 362.543 948.734 362.819 949.064C370.042 956.783 378.698 959.264 388.953 958.768C393.309 958.548 402.627 957.721 404.556 953.475C405.494 950.002 405.494 946.363 406.045 942.724C406.651 938.423 408.306 932.413 409.298 928.168C410.401 923.371 411.338 918.519 411.393 913.612C411.448 911.131 411.448 908.65 411.448 906.169C411.559 903.688 411.062 901.538 410.456 899.167C408.25 889.739 401.469 881.91 392.316 878.436C383.329 874.962 372.909 874.08 363.701 877.113C354.328 880.09 347.932 888.14 345.506 897.513C344.238 902.144 343.577 906.996 343.246 911.793C342.97 916.645 343.466 921.607 345.396 926.128C346.774 929.546 349.035 932.524 351.682 935.005L354.273 937.706C355.486 938.809 353.611 940.243 352.729 938.919Z" fill="black"/>
<path d="M359.235 921.386C359.235 921.386 357.526 913.116 349.476 914.109C342.529 914.991 340.103 931.642 355.872 936.273" fill="white"/>
<path d="M355.156 929.05C353.887 928.333 353.005 927.12 352.95 925.632C353.005 924.529 353.171 923.261 352.895 922.158C352.73 921.111 351.627 920.835 350.8 920.89C349.918 921.055 349.366 922.158 349.201 923.04C349.201 923.096 349.146 923.261 349.146 923.316C349.091 923.592 348.65 923.592 348.539 923.316C347.823 921.166 349.421 918.795 351.737 919.071C354.99 919.291 355.431 922.71 354.825 925.301C354.494 926.404 354.935 927.396 355.542 928.333L355.652 928.499C355.927 928.83 355.486 929.271 355.156 929.05ZM399.263 915.542C400.09 919.457 401.634 923.095 403.564 926.514C405.273 930.704 400.862 934.674 396.948 934.509C396.507 934.509 396.451 933.902 396.837 933.792C399.318 933.02 401.579 931.366 401.965 928.83C402.13 928.058 401.91 927.396 401.524 926.734C399.704 923.316 398.602 919.401 398.877 915.542C398.877 915.266 399.263 915.266 399.263 915.542Z" fill="black"/>
<path d="M358.959 921.441C357.691 918.188 354.934 915.101 351.24 915.156C350.91 915.101 350.358 915.211 350.027 915.211C349.09 915.266 348.318 915.597 347.601 916.259C344.073 919.787 344.679 926.018 347.546 929.932C348.539 931.311 349.807 932.524 351.24 933.516C352.674 934.509 354.273 935.28 355.982 935.942C356.368 936.052 356.203 936.659 355.817 936.604C352.123 935.832 348.594 934.012 346.168 930.98C342.419 926.459 341.647 918.905 346.113 914.494C347.105 913.612 348.484 912.951 349.862 912.951C350.303 912.951 350.965 912.84 351.406 912.951C353.721 913.061 355.927 914.219 357.36 916.038C358.629 917.582 359.345 919.457 359.566 921.331C359.566 921.662 359.07 921.772 358.959 921.441Z" fill="black"/>
<path d="M419.057 903.467C417.513 908.264 413.819 912.289 411.448 914.991C412 912.399 411.503 910.856 411.614 909.036C411.779 906.555 412.661 903.798 412.496 902.696C412.386 901.703 412.165 900.766 411.944 899.773C411.669 898.56 411.338 897.403 410.952 896.245C402.296 904.68 387.464 896.355 387.464 896.355C387.464 896.355 384.322 898.946 378.808 898.34C372.909 897.733 371.31 894.094 371.31 894.094C369.711 905.232 359.18 900.986 361.11 912.069C361.661 915.101 361.661 918.023 359.07 921.056C358.629 919.512 356.478 913.226 349.421 914.109C342.75 914.936 340.213 930.374 353.997 935.666C353.832 940.794 354.383 947.741 353.832 945.922C349.972 934.012 342.253 935.887 338.614 926.9C336.905 922.599 337.181 918.795 338.063 915.983C338.945 913.282 338.89 910.359 338.008 907.658C337.015 904.515 336.244 899.773 338.063 894.039C341.151 884.225 347.767 881.965 349.476 880.807C351.185 879.649 350.358 869.063 362.323 865.755C371.861 863.108 379.029 868.677 381.124 868.291C383.219 867.905 397.885 858.257 409.188 867.354C420.105 876.175 416.024 886.596 416.024 886.596C416.024 886.596 422.806 891.834 419.057 903.467Z" fill="black"/>
<path d="M383.55 918.189C380.572 917.968 377.816 916.7 375.5 914.825C375.059 914.494 375.555 913.833 375.996 914.164C377.705 915.266 379.58 916.038 381.62 916.369C382.282 916.479 382.998 916.534 383.605 916.534C384.708 916.534 384.708 918.244 383.55 918.189ZM399.759 917.417C401.468 917.196 403.453 916.92 404.776 915.707C404.887 915.542 405.162 915.542 405.272 915.707C405.769 916.204 404.501 917.031 404.17 917.306C402.902 918.133 401.468 918.685 400.035 919.071C399.594 919.181 399.152 918.905 399.042 918.464C398.877 917.968 399.263 917.472 399.759 917.417ZM386.196 913.116C387.244 913.723 388.567 912.896 388.622 911.627C388.622 910.966 388.512 910.249 388.071 909.643C386.748 907.878 380.297 905.177 375.831 906.334C371.971 907.327 381.399 910.359 386.196 913.116ZM403.123 913.778C402.351 914.384 401.083 913.667 400.917 912.51C400.807 911.903 400.862 911.241 401.137 910.69C402.02 909.036 406.1 906.776 409.408 907.878C412.275 908.926 406.817 911.076 403.123 913.778Z" fill="black"/>
<path d="M377.319 915.487C376.878 915.873 376.603 916.479 376.548 917.086L376.492 918.63C376.437 919.953 377.43 921.055 378.698 921.111C380.021 921.166 381.124 920.173 381.179 918.905L381.234 917.361V917.196C379.745 917.086 378.532 916.479 377.319 915.487ZM399.925 918.133V918.244L399.87 919.677C399.815 920.89 400.752 921.938 401.965 921.993C403.178 922.048 404.226 921.111 404.281 919.898L404.336 918.464C404.391 917.913 404.17 917.417 403.895 917.031C402.682 917.747 401.303 917.913 399.925 918.133Z" fill="black"/>
<path d="M395.569 939.746C394.632 940.408 393.254 939.857 392.261 940.298C391.544 940.518 390.387 941.511 388.732 941.401C387.409 941.29 386.748 940.629 385.645 940.132C384.487 939.746 383.274 939.03 382.502 938.092C382.337 937.927 382.337 937.706 382.502 937.541C382.723 937.321 382.943 937.486 383.164 937.596C383.66 937.872 384.046 938.092 384.432 938.203C384.818 938.313 385.204 938.203 385.81 938.203C386.417 938.148 387.299 938.423 387.85 938.864C388.236 939.14 388.677 939.305 389.008 939.361C389.89 939.526 390.993 938.809 391.93 938.699C392.592 938.589 393.309 938.644 393.86 938.809C394.411 938.975 394.797 939.085 395.238 938.975C395.735 938.864 396.01 939.526 395.569 939.746Z" fill="black"/>
<path d="M402.957 949.23C401.91 950.663 401.358 951.049 400.421 950.994C399.374 950.939 398.491 949.285 395.404 949.23C392.868 949.175 388.732 950.553 383.495 951.656C377.375 952.924 366.568 947.851 364.197 940.243C363.536 938.092 362.984 935.887 362.433 934.012C362.267 933.461 361.551 933.296 361.22 933.737C360.834 934.233 360.448 934.674 360.007 935.06C359.456 935.611 359.125 936.383 359.125 937.155C359.125 938.148 359.18 939.03 359.18 939.636C359.566 944.488 360.172 946.032 362.378 949.175C364.583 952.317 372.302 960.808 382.337 961.58C392.427 962.297 397.995 961.47 403.619 955.019C408.691 949.175 408.857 937.045 408.857 937.045C406.155 945.205 404.336 947.3 402.957 949.23Z" fill="black"/>
<path d="M387.63 928.003C385.094 928.058 377.265 928.113 374.839 928.168C370.649 928.223 367.506 924.584 367.892 920.449C367.947 919.071 367.892 917.141 367.947 915.763C368.057 912.179 371.255 909.146 374.839 909.257L384.157 909.367C384.874 909.367 386.914 909.422 387.63 909.422C390.608 909.367 393.42 911.572 394.081 914.494C394.302 915.321 394.247 916.204 394.247 916.92V921.607C394.191 925.08 391.104 928.058 387.63 928.003ZM387.63 926.79C390.497 926.9 393.144 924.419 393.199 921.552C393.254 920.063 393.199 918.464 393.199 916.92C393.53 913.557 390.994 910.47 387.575 910.58C385.204 910.635 377.265 910.69 374.784 910.745C371.806 910.745 369.27 913.447 369.491 916.424V918.188C369.546 919.401 369.38 921.497 369.656 922.599C370.208 924.915 372.413 926.679 374.784 926.679H375.942C377.541 926.679 385.976 926.79 387.63 926.79ZM409.849 910.855L405.494 910.911C404.281 910.966 402.847 910.745 401.8 911.462C400.807 912.124 400.366 913.337 400.421 914.494C400.421 915.928 400.421 917.417 400.366 918.85L400.311 918.63C401.083 921.331 402.13 923.923 403.729 926.183L403.178 925.852C403.619 925.963 404.391 925.963 404.832 925.963C406.486 926.018 408.416 926.128 410.07 926.128C411.614 926.128 413.102 924.97 413.433 923.426C413.543 922.985 413.543 922.213 413.543 921.772C413.543 919.401 413.598 917.086 413.488 914.715C413.598 912.62 412 910.745 409.849 910.855ZM409.849 909.201C412.771 909.201 414.811 912.013 414.315 914.77C414.205 917.141 414.26 919.457 414.26 921.827C414.536 924.584 412.882 927.065 410.015 927.286C408.802 927.341 407.644 927.341 406.486 927.396C405.88 927.396 404.391 927.506 403.84 927.506C403.564 927.561 403.123 927.506 402.847 927.506C402.627 927.506 402.406 927.341 402.296 927.176C400.587 924.639 399.374 921.827 398.657 918.905C398.657 917.031 398.491 915.156 398.657 913.281C398.988 911.076 400.972 909.201 403.233 909.146C404.777 909.091 408.306 909.201 409.849 909.201Z" fill="black"/>
<path d="M393.64 914.274C395.128 913.612 396.782 913.337 398.436 913.447C398.988 913.502 399.539 913.668 400.035 914.109L400.752 914.715C401.469 915.322 400.587 916.369 399.87 915.763C398.988 914.991 397.94 915.101 396.893 915.156C395.845 915.266 394.852 915.487 393.86 915.873C392.923 916.259 392.316 914.88 393.198 914.439L393.64 914.274ZM368.829 916.259C368.443 917.141 368.002 917.251 367.285 917.196L365.686 917.251C362.488 917.251 359.235 917.196 356.037 916.7C354.934 916.645 354.879 915.101 355.982 915.046L368.773 914.605C369.159 914.605 369.435 914.991 369.27 915.322L368.829 916.259Z" fill="black"/>
<g filter="url(#filter1_d_6_2)">
<mask id="path-74-inside-2_6_2" fill="white">
<path d="M1315 882.452C1315 878.034 1318.58 874.452 1323 874.452H1605C1609.42 874.452 1613 878.034 1613 882.452V977.452C1613 981.87 1609.42 985.452 1605 985.452H1323C1318.58 985.452 1315 981.87 1315 977.452V882.452Z"/>
</mask>
<path d="M1315 882.452C1315 878.034 1318.58 874.452 1323 874.452H1605C1609.42 874.452 1613 878.034 1613 882.452V977.452C1613 981.87 1609.42 985.452 1605 985.452H1323C1318.58 985.452 1315 981.87 1315 977.452V882.452Z" fill="white" shape-rendering="crispEdges"/>
<path d="M1323 874.452V875.452H1605V874.452V873.452H1323V874.452ZM1613 882.452H1612V977.452H1613H1614V882.452H1613ZM1605 985.452V984.452H1323V985.452V986.452H1605V985.452ZM1315 977.452H1316V882.452H1315H1314V977.452H1315ZM1323 985.452V984.452C1319.13 984.452 1316 981.318 1316 977.452H1315H1314C1314 982.423 1318.03 986.452 1323 986.452V985.452ZM1613 977.452H1612C1612 981.318 1608.87 984.452 1605 984.452V985.452V986.452C1609.97 986.452 1614 982.423 1614 977.452H1613ZM1605 874.452V875.452C1608.87 875.452 1612 878.586 1612 882.452H1613H1614C1614 877.482 1609.97 873.452 1605 873.452V874.452ZM1323 874.452V873.452C1318.03 873.452 1314 877.482 1314 882.452H1315H1316C1316 878.586 1319.13 875.452 1323 875.452V874.452Z" fill="#8C8C8C" mask="url(#path-74-inside-2_6_2)"/>
<path d="M1368.6 945.952V913.225H1389.11V917.476H1373.53V927.447H1388.04V931.682H1373.53V941.701H1389.31V945.952H1368.6ZM1404.51 946.432C1402.53 946.432 1400.76 945.926 1399.21 944.913C1397.66 943.891 1396.45 942.437 1395.57 940.551C1394.69 938.655 1394.26 936.38 1394.26 933.727C1394.26 931.075 1394.7 928.805 1395.58 926.92C1396.48 925.034 1397.7 923.591 1399.26 922.589C1400.81 921.588 1402.58 921.087 1404.55 921.087C1406.07 921.087 1407.3 921.343 1408.22 921.854C1409.16 922.355 1409.88 922.941 1410.4 923.612C1410.92 924.283 1411.32 924.874 1411.61 925.386H1411.9V913.225H1416.68V945.952H1412.01V942.133H1411.61C1411.32 942.655 1410.91 943.252 1410.36 943.923C1409.83 944.594 1409.1 945.18 1408.16 945.68C1407.22 946.181 1406.01 946.432 1404.51 946.432ZM1405.57 942.357C1406.94 942.357 1408.11 941.994 1409.05 941.27C1410.01 940.535 1410.74 939.517 1411.23 938.218C1411.73 936.918 1411.98 935.405 1411.98 933.679C1411.98 931.975 1411.73 930.483 1411.24 929.205C1410.75 927.927 1410.03 926.93 1409.09 926.217C1408.14 925.503 1406.97 925.146 1405.57 925.146C1404.13 925.146 1402.93 925.519 1401.97 926.265C1401.02 927.01 1400.29 928.028 1399.8 929.317C1399.32 930.606 1399.08 932.06 1399.08 933.679C1399.08 935.32 1399.33 936.796 1399.82 938.106C1400.31 939.416 1401.03 940.455 1401.99 941.222C1402.96 941.978 1404.15 942.357 1405.57 942.357ZM1423.5 945.952V921.407H1428.27V945.952H1423.5ZM1425.91 917.619C1425.08 917.619 1424.36 917.342 1423.77 916.788C1423.18 916.224 1422.89 915.553 1422.89 914.775C1422.89 913.987 1423.18 913.315 1423.77 912.761C1424.36 912.197 1425.08 911.915 1425.91 911.915C1426.74 911.915 1427.45 912.197 1428.03 912.761C1428.63 913.315 1428.93 913.987 1428.93 914.775C1428.93 915.553 1428.63 916.224 1428.03 916.788C1427.45 917.342 1426.74 917.619 1425.91 917.619ZM1446.16 921.407V925.242H1432.75V921.407H1446.16ZM1436.35 915.526H1441.13V938.745C1441.13 939.672 1441.26 940.37 1441.54 940.839C1441.82 941.297 1442.17 941.611 1442.61 941.781C1443.06 941.941 1443.54 942.021 1444.07 942.021C1444.45 942.021 1444.78 941.994 1445.07 941.941C1445.36 941.888 1445.58 941.845 1445.74 941.813L1446.61 945.76C1446.33 945.867 1445.94 945.973 1445.42 946.08C1444.91 946.197 1444.27 946.261 1443.51 946.272C1442.25 946.293 1441.08 946.069 1439.99 945.601C1438.9 945.132 1438.03 944.407 1437.35 943.427C1436.68 942.447 1436.35 941.217 1436.35 939.736V915.526ZM1461.52 946.448C1459.22 946.448 1457.21 945.92 1455.5 944.866C1453.78 943.811 1452.45 942.335 1451.5 940.439C1450.55 938.543 1450.08 936.327 1450.08 933.791C1450.08 931.245 1450.55 929.019 1451.5 927.112C1452.45 925.205 1453.78 923.724 1455.5 922.669C1457.21 921.614 1459.22 921.087 1461.52 921.087C1463.82 921.087 1465.83 921.614 1467.54 922.669C1469.26 923.724 1470.59 925.205 1471.54 927.112C1472.49 929.019 1472.96 931.245 1472.96 933.791C1472.96 936.327 1472.49 938.543 1471.54 940.439C1470.59 942.335 1469.26 943.811 1467.54 944.866C1465.83 945.92 1463.82 946.448 1461.52 946.448ZM1461.54 942.437C1463.03 942.437 1464.26 942.042 1465.24 941.254C1466.22 940.466 1466.95 939.416 1467.42 938.106C1467.9 936.796 1468.14 935.352 1468.14 933.775C1468.14 932.209 1467.9 930.771 1467.42 929.461C1466.95 928.14 1466.22 927.08 1465.24 926.281C1464.26 925.482 1463.03 925.082 1461.54 925.082C1460.03 925.082 1458.79 925.482 1457.8 926.281C1456.82 927.08 1456.09 928.14 1455.61 929.461C1455.14 930.771 1454.9 932.209 1454.9 933.775C1454.9 935.352 1455.14 936.796 1455.61 938.106C1456.09 939.416 1456.82 940.466 1457.8 941.254C1458.79 942.042 1460.03 942.437 1461.54 942.437ZM1478.3 945.952V921.407H1482.91V925.306H1483.17C1483.62 923.985 1484.4 922.946 1485.53 922.19C1486.67 921.423 1487.96 921.039 1489.4 921.039C1489.7 921.039 1490.05 921.05 1490.46 921.071C1490.87 921.092 1491.2 921.119 1491.43 921.151V925.721C1491.24 925.668 1490.9 925.609 1490.41 925.546C1489.92 925.471 1489.43 925.434 1488.94 925.434C1487.81 925.434 1486.8 925.673 1485.92 926.153C1485.04 926.622 1484.35 927.277 1483.84 928.118C1483.33 928.949 1483.07 929.897 1483.07 930.963V945.952H1478.3Z" fill="#0A0A0A"/>
<path d="M1518 922.452L1533 937.452L1548 922.452" stroke="#0F172A" stroke-width="1.33333" stroke-linecap="round" stroke-linejoin="round"/>
</g>
</g>
</g>
<defs>
<filter id="filter0_d_6_2" x="1313" y="633.84" width="302" height="115" filterUnits="userSpaceOnUse" color-interpolation-filters="sRGB">
<feFlood flood-opacity="0" result="BackgroundImageFix"/>
<feColorMatrix in="SourceAlpha" type="matrix" values="0 0 0 0 0 0 0 0 0 0 0 0 0 0 0 0 0 0 127 0" result="hardAlpha"/>
<feOffset dy="1"/>
<feGaussianBlur stdDeviation="1"/>
<feComposite in2="hardAlpha" operator="out"/>
<feColorMatrix type="matrix" values="0 0 0 0 0 0 0 0 0 0 0 0 0 0 0 0 0 0 0.1 0"/>
<feBlend mode="normal" in2="BackgroundImageFix" result="effect1_dropShadow_6_2"/>
<feBlend mode="normal" in="SourceGraphic" in2="effect1_dropShadow_6_2" result="shape"/>
</filter>
<filter id="filter1_d_6_2" x="1313" y="873.452" width="302" height="115" filterUnits="userSpaceOnUse" color-interpolation-filters="sRGB">
<feFlood flood-opacity="0" result="BackgroundImageFix"/>
<feColorMatrix in="SourceAlpha" type="matrix" values="0 0 0 0 0 0 0 0 0 0 0 0 0 0 0 0 0 0 127 0" result="hardAlpha"/>
<feOffset dy="1"/>
<feGaussianBlur stdDeviation="1"/>
<feComposite in2="hardAlpha" operator="out"/>
<feColorMatrix type="matrix" values="0 0 0 0 0 0 0 0 0 0 0 0 0 0 0 0 0 0 0.1 0"/>
<feBlend mode="normal" in2="BackgroundImageFix" result="effect1_dropShadow_6_2"/>
<feBlend mode="normal" in="SourceGraphic" in2="effect1_dropShadow_6_2" result="shape"/>
</filter>
<linearGradient id="paint0_linear_6_2" x1="0" y1="558.5" x2="1728" y2="558.5" gradientUnits="userSpaceOnUse">
<stop offset="0.5625" stop-color="#7FB1FF" stop-opacity="0.8"/>
</linearGradient>
<clipPath id="clip0_6_2">
<rect width="1728" height="1117" rx="40" fill="white"/>
</clipPath>
<clipPath id="clip1_6_2">
<rect x="274" y="254" width="1379" height="809" rx="40" fill="white"/>
</clipPath>
<clipPath id="clip2_6_2">
<rect x="288.286" y="592.54" width="168.714" height="177.143" rx="84.3571" fill="white"/>
</clipPath>
<clipPath id="clip3_6_2">
<rect x="288.286" y="592.54" width="168.714" height="199.141" rx="84.3571" fill="white"/>
</clipPath>
<clipPath id="clip4_6_2">
<rect x="291.143" y="841.109" width="168.714" height="168.714" rx="84.357" fill="white"/>
</clipPath>
<clipPath id="clip5_6_2">
<rect x="291.143" y="841.109" width="168.714" height="189.114" rx="84.3571" fill="white"/>
</clipPath>
</defs>
</svg>
