<svg width="1728" height="1117" viewBox="0 0 1728 1117" fill="none" xmlns="http://www.w3.org/2000/svg">
<g clip-path="url(#clip0_27_159)">
<rect width="1728" height="1117" fill="url(#paint0_linear_27_159)"/>
<g clip-path="url(#clip1_27_159)">
<path d="M154 159C154 136.909 171.909 119 194 119H1728V1169H154V159Z" fill="white"/>
<g filter="url(#filter0_d_27_159)">
<path d="M154 169C154 146.909 171.909 129 194 129L1718 129C1723.52 129 1728 133.477 1728 139V1119C1728 1124.52 1723.52 1129 1718 1129H164C158.477 1129 154 1124.52 154 1119V169Z" fill="white"/>
<path d="M1718 128.5C1723.8 128.5 1728.5 133.201 1728.5 139V1119C1728.5 1124.8 1723.8 1129.5 1718 1129.5H164C158.201 1129.5 153.5 1124.8 153.5 1119V169L153.514 167.955C154.068 146.07 171.982 128.5 194 128.5L1718 128.5Z" stroke="black" stroke-opacity="0.1"/>
<rect x="202" y="185.5" width="48" height="48" rx="24" fill="white"/>
<path d="M229 216.5L222 209.5L229 202.5" stroke="#292A34" stroke-width="2"/>
<path d="M862.904 191.636H870.503V216.991C870.503 219.335 869.976 221.371 868.923 223.099C867.881 224.828 866.431 226.159 864.573 227.094C862.714 228.03 860.554 228.497 858.092 228.497C855.902 228.497 853.913 228.112 852.126 227.343C850.35 226.562 848.942 225.378 847.9 223.792C846.859 222.194 846.344 220.187 846.355 217.773H854.008C854.032 218.732 854.227 219.554 854.594 220.241C854.973 220.915 855.488 221.436 856.139 221.803C856.802 222.158 857.583 222.336 858.483 222.336C859.43 222.336 860.229 222.135 860.88 221.732C861.542 221.318 862.046 220.714 862.389 219.921C862.732 219.128 862.904 218.152 862.904 216.991V191.636ZM883.495 228.515C881.755 228.515 880.204 228.213 878.843 227.609C877.481 226.994 876.404 226.088 875.611 224.893C874.83 223.685 874.439 222.182 874.439 220.383C874.439 218.868 874.717 217.595 875.274 216.565C875.83 215.536 876.588 214.707 877.547 214.08C878.505 213.452 879.594 212.979 880.814 212.659C882.045 212.339 883.335 212.115 884.684 211.984C886.27 211.819 887.549 211.665 888.52 211.523C889.49 211.369 890.194 211.144 890.632 210.848C891.07 210.552 891.289 210.114 891.289 209.534V209.428C891.289 208.303 890.934 207.433 890.224 206.817C889.526 206.202 888.531 205.894 887.241 205.894C885.88 205.894 884.797 206.196 883.992 206.8C883.187 207.392 882.654 208.137 882.394 209.037L875.398 208.469C875.753 206.812 876.452 205.379 877.493 204.172C878.535 202.953 879.878 202.018 881.524 201.366C883.181 200.704 885.099 200.372 887.277 200.372C888.792 200.372 890.242 200.55 891.627 200.905C893.024 201.26 894.261 201.81 895.338 202.556C896.427 203.302 897.285 204.261 897.912 205.433C898.54 206.593 898.853 207.983 898.853 209.605V228H891.68V224.218H891.467C891.029 225.07 890.443 225.822 889.709 226.473C888.975 227.112 888.093 227.615 887.064 227.982C886.034 228.337 884.844 228.515 883.495 228.515ZM885.661 223.295C886.774 223.295 887.756 223.076 888.608 222.638C889.461 222.188 890.129 221.584 890.615 220.827C891.1 220.069 891.343 219.211 891.343 218.252V215.358C891.106 215.512 890.78 215.654 890.366 215.784C889.964 215.902 889.508 216.015 888.999 216.121C888.49 216.216 887.981 216.305 887.472 216.388C886.963 216.459 886.501 216.524 886.087 216.583C885.199 216.713 884.424 216.92 883.761 217.205C883.098 217.489 882.583 217.873 882.216 218.359C881.849 218.832 881.666 219.424 881.666 220.134C881.666 221.164 882.039 221.951 882.784 222.496C883.542 223.028 884.501 223.295 885.661 223.295ZM911.286 212.233V228H903.722V200.727H910.93V205.539H911.25C911.854 203.953 912.866 202.698 914.286 201.775C915.707 200.84 917.429 200.372 919.453 200.372C921.347 200.372 922.998 200.786 924.407 201.615C925.816 202.444 926.911 203.627 927.692 205.166C928.473 206.693 928.864 208.516 928.864 210.635V228H921.3V211.984C921.312 210.315 920.885 209.013 920.021 208.078C919.157 207.131 917.968 206.658 916.452 206.658C915.434 206.658 914.535 206.877 913.754 207.315C912.984 207.753 912.38 208.392 911.942 209.232C911.516 210.061 911.297 211.061 911.286 212.233ZM951.314 216.388V200.727H958.878V228H951.616V223.046H951.332C950.717 224.644 949.693 225.929 948.26 226.899C946.84 227.87 945.106 228.355 943.058 228.355C941.235 228.355 939.631 227.941 938.246 227.112C936.861 226.284 935.778 225.106 934.997 223.579C934.228 222.052 933.837 220.223 933.825 218.092V200.727H941.389V216.743C941.401 218.353 941.833 219.625 942.685 220.56C943.537 221.496 944.68 221.963 946.112 221.963C947.023 221.963 947.876 221.756 948.669 221.342C949.462 220.915 950.101 220.288 950.586 219.46C951.084 218.631 951.326 217.607 951.314 216.388ZM971.706 228.515C969.966 228.515 968.415 228.213 967.054 227.609C965.692 226.994 964.615 226.088 963.822 224.893C963.041 223.685 962.65 222.182 962.65 220.383C962.65 218.868 962.928 217.595 963.485 216.565C964.041 215.536 964.799 214.707 965.757 214.08C966.716 213.452 967.805 212.979 969.025 212.659C970.256 212.339 971.546 212.115 972.895 211.984C974.481 211.819 975.76 211.665 976.73 211.523C977.701 211.369 978.405 211.144 978.843 210.848C979.281 210.552 979.5 210.114 979.5 209.534V209.428C979.5 208.303 979.145 207.433 978.435 206.817C977.737 206.202 976.742 205.894 975.452 205.894C974.091 205.894 973.008 206.196 972.203 206.8C971.398 207.392 970.865 208.137 970.605 209.037L963.609 208.469C963.964 206.812 964.663 205.379 965.704 204.172C966.746 202.953 968.089 202.018 969.735 201.366C971.392 200.704 973.31 200.372 975.488 200.372C977.003 200.372 978.453 200.55 979.838 200.905C981.234 201.26 982.471 201.81 983.549 202.556C984.638 203.302 985.496 204.261 986.123 205.433C986.751 206.593 987.064 207.983 987.064 209.605V228H979.891V224.218H979.678C979.24 225.07 978.654 225.822 977.92 226.473C977.186 227.112 976.304 227.615 975.275 227.982C974.245 228.337 973.055 228.515 971.706 228.515ZM973.872 223.295C974.984 223.295 975.967 223.076 976.819 222.638C977.672 222.188 978.34 221.584 978.826 220.827C979.311 220.069 979.554 219.211 979.554 218.252V215.358C979.317 215.512 978.991 215.654 978.577 215.784C978.175 215.902 977.719 216.015 977.21 216.121C976.701 216.216 976.192 216.305 975.683 216.388C975.174 216.459 974.712 216.524 974.298 216.583C973.41 216.713 972.635 216.92 971.972 217.205C971.309 217.489 970.794 217.873 970.427 218.359C970.06 218.832 969.877 219.424 969.877 220.134C969.877 221.164 970.25 221.951 970.995 222.496C971.753 223.028 972.712 223.295 973.872 223.295ZM991.933 228V200.727H999.266V205.486H999.55C1000.05 203.793 1000.88 202.515 1002.05 201.651C1003.23 200.775 1004.57 200.337 1006.1 200.337C1006.48 200.337 1006.89 200.36 1007.33 200.408C1007.76 200.455 1008.15 200.52 1008.48 200.603V207.315C1008.13 207.208 1007.63 207.113 1007.01 207.031C1006.38 206.948 1005.81 206.906 1005.28 206.906C1004.17 206.906 1003.18 207.149 1002.3 207.634C1001.44 208.108 1000.75 208.771 1000.24 209.623C999.745 210.475 999.496 211.458 999.496 212.57V228H991.933ZM1016.89 238.227C1015.93 238.227 1015.03 238.15 1014.19 237.996C1013.36 237.854 1012.68 237.671 1012.13 237.446L1013.84 231.8C1014.73 232.072 1015.52 232.22 1016.23 232.244C1016.96 232.267 1017.58 232.102 1018.1 231.746C1018.63 231.391 1019.06 230.788 1019.39 229.935L1019.84 228.781L1010.06 200.727H1018.01L1023.66 220.756H1023.94L1029.64 200.727H1037.65L1027.05 230.947C1026.54 232.415 1025.85 233.694 1024.97 234.783C1024.11 235.884 1023.01 236.73 1021.69 237.322C1020.36 237.925 1018.76 238.227 1016.89 238.227Z" fill="#292A34"/>
<rect x="1632" y="185.5" width="48" height="48" rx="24" fill="white"/>
<path d="M1653 216.5L1660 209.5L1653 202.5" stroke="#292A34" stroke-width="2"/>
<rect x="202" y="258" width="1478" height="1" fill="black" fill-opacity="0.1"/>
<g opacity="0.5">
<path d="M276.161 284.909H281.488L290.749 307.523H291.09L300.352 284.909H305.678V314H301.502V292.949H301.232L292.653 313.957H289.187L280.607 292.935H280.338V314H276.161V284.909ZM337.33 299.455C337.33 302.561 336.762 305.231 335.625 307.466C334.489 309.691 332.931 311.405 330.952 312.608C328.982 313.801 326.743 314.398 324.233 314.398C321.714 314.398 319.465 313.801 317.486 312.608C315.516 311.405 313.963 309.687 312.827 307.452C311.691 305.217 311.122 302.551 311.122 299.455C311.122 296.348 311.691 293.683 312.827 291.457C313.963 289.223 315.516 287.509 317.486 286.315C319.465 285.113 321.714 284.511 324.233 284.511C326.743 284.511 328.982 285.113 330.952 286.315C332.931 287.509 334.489 289.223 335.625 291.457C336.762 293.683 337.33 296.348 337.33 299.455ZM332.983 299.455C332.983 297.087 332.6 295.094 331.833 293.474C331.075 291.846 330.033 290.615 328.708 289.781C327.391 288.938 325.9 288.517 324.233 288.517C322.557 288.517 321.061 288.938 319.745 289.781C318.428 290.615 317.387 291.846 316.62 293.474C315.862 295.094 315.483 297.087 315.483 299.455C315.483 301.822 315.862 303.82 316.62 305.449C317.387 307.068 318.428 308.299 319.745 309.142C321.061 309.975 322.557 310.392 324.233 310.392C325.9 310.392 327.391 309.975 328.708 309.142C330.033 308.299 331.075 307.068 331.833 305.449C332.6 303.82 332.983 301.822 332.983 299.455Z" fill="#292A34"/>
<path d="M491.845 288.688V284.909H514.359V288.688H505.283V314H500.908V288.688H491.845ZM538.042 284.909H542.445V304.043C542.445 306.079 541.967 307.883 541.011 309.455C540.054 311.017 538.709 312.248 536.976 313.148C535.243 314.038 533.212 314.483 530.883 314.483C528.563 314.483 526.536 314.038 524.803 313.148C523.07 312.248 521.725 311.017 520.769 309.455C519.813 307.883 519.334 306.079 519.334 304.043V284.909H523.724V303.688C523.724 305.004 524.012 306.173 524.59 307.196C525.177 308.219 526.006 309.024 527.076 309.611C528.146 310.188 529.415 310.477 530.883 310.477C532.36 310.477 533.634 310.188 534.704 309.611C535.783 309.024 536.607 308.219 537.175 307.196C537.753 306.173 538.042 305.004 538.042 303.688V284.909Z" fill="#292A34"/>
<path d="M706.719 314L698.651 284.909H703.267L708.935 307.438H709.205L715.1 284.909H719.674L725.568 307.452H725.838L731.492 284.909H736.122L728.04 314H723.622L717.5 292.21H717.273L711.151 314H706.719ZM740.125 314V284.909H758.363V288.688H744.514V297.551H757.411V301.315H744.514V310.222H758.534V314H740.125Z" fill="#292A34"/>
<path d="M914.89 288.688V284.909H937.405V288.688H928.328V314H923.953V288.688H914.89ZM942.38 314V284.909H946.769V297.551H961.272V284.909H965.675V314H961.272V301.315H946.769V314H942.38Z" fill="#292A34"/>
<path d="M1131.16 314V284.909H1149.2V288.688H1135.55V297.551H1147.91V301.315H1135.55V314H1131.16ZM1154.6 314V284.909H1164.96C1167.22 284.909 1169.09 285.297 1170.58 286.074C1172.07 286.85 1173.19 287.925 1173.93 289.298C1174.67 290.662 1175.04 292.239 1175.04 294.028C1175.04 295.809 1174.66 297.376 1173.91 298.73C1173.18 300.075 1172.06 301.121 1170.56 301.869C1169.07 302.617 1167.2 302.991 1164.95 302.991H1157.1V299.213H1164.55C1165.97 299.213 1167.13 299.009 1168.02 298.602C1168.92 298.195 1169.58 297.603 1169.99 296.827C1170.41 296.05 1170.62 295.117 1170.62 294.028C1170.62 292.93 1170.41 291.978 1169.98 291.173C1169.56 290.368 1168.9 289.753 1168 289.327C1167.11 288.891 1165.95 288.673 1164.5 288.673H1158.98V314H1154.6ZM1168.96 300.875L1176.14 314H1171.14L1164.1 300.875H1168.96Z" fill="#292A34"/>
<path d="M1356.45 292.551C1356.3 291.206 1355.67 290.165 1354.57 289.426C1353.47 288.678 1352.09 288.304 1350.42 288.304C1349.23 288.304 1348.2 288.493 1347.33 288.872C1346.46 289.241 1345.78 289.753 1345.3 290.406C1344.82 291.05 1344.59 291.784 1344.59 292.608C1344.59 293.299 1344.75 293.896 1345.07 294.398C1345.4 294.9 1345.83 295.321 1346.36 295.662C1346.9 295.993 1347.48 296.273 1348.1 296.5C1348.71 296.718 1349.3 296.898 1349.87 297.04L1352.71 297.778C1353.64 298.006 1354.59 298.313 1355.57 298.702C1356.54 299.09 1357.45 299.601 1358.28 300.236C1359.11 300.87 1359.79 301.656 1360.3 302.594C1360.82 303.531 1361.08 304.653 1361.08 305.96C1361.08 307.608 1360.65 309.071 1359.8 310.349C1358.96 311.628 1357.73 312.636 1356.12 313.375C1354.52 314.114 1352.58 314.483 1350.31 314.483C1348.13 314.483 1346.25 314.137 1344.66 313.446C1343.07 312.755 1341.82 311.775 1340.92 310.506C1340.02 309.227 1339.53 307.712 1339.43 305.96H1343.83C1343.92 307.011 1344.26 307.887 1344.86 308.588C1345.46 309.279 1346.23 309.795 1347.17 310.136C1348.12 310.468 1349.16 310.634 1350.28 310.634C1351.52 310.634 1352.63 310.439 1353.59 310.051C1354.57 309.653 1355.33 309.104 1355.89 308.403C1356.45 307.693 1356.73 306.865 1356.73 305.918C1356.73 305.056 1356.49 304.35 1355.99 303.801C1355.51 303.252 1354.85 302.797 1354.02 302.438C1353.19 302.078 1352.26 301.76 1351.22 301.486L1347.78 300.548C1345.45 299.914 1343.61 298.981 1342.24 297.75C1340.89 296.519 1340.21 294.89 1340.21 292.864C1340.21 291.187 1340.67 289.724 1341.58 288.474C1342.48 287.224 1343.72 286.254 1345.27 285.562C1346.82 284.862 1348.57 284.511 1350.52 284.511C1352.49 284.511 1354.23 284.857 1355.74 285.548C1357.25 286.24 1358.45 287.191 1359.32 288.403C1360.19 289.606 1360.64 290.989 1360.68 292.551H1356.45ZM1368.55 314H1363.89L1374.36 284.909H1379.43L1389.9 314H1385.24L1377.01 290.193H1376.78L1368.55 314ZM1369.33 302.608H1384.44V306.301H1369.33V302.608Z" fill="#292A34"/>
<path d="M1567.16 292.551C1567.01 291.206 1566.38 290.165 1565.28 289.426C1564.19 288.678 1562.8 288.304 1561.14 288.304C1559.94 288.304 1558.91 288.493 1558.04 288.872C1557.17 289.241 1556.49 289.753 1556.01 290.406C1555.54 291.05 1555.3 291.784 1555.3 292.608C1555.3 293.299 1555.46 293.896 1555.78 294.398C1556.11 294.9 1556.54 295.321 1557.07 295.662C1557.61 295.993 1558.19 296.273 1558.81 296.5C1559.42 296.718 1560.01 296.898 1560.58 297.04L1563.42 297.778C1564.35 298.006 1565.3 298.313 1566.28 298.702C1567.25 299.09 1568.16 299.601 1568.99 300.236C1569.83 300.87 1570.5 301.656 1571.01 302.594C1571.53 303.531 1571.79 304.653 1571.79 305.96C1571.79 307.608 1571.36 309.071 1570.51 310.349C1569.67 311.628 1568.44 312.636 1566.83 313.375C1565.23 314.114 1563.3 314.483 1561.02 314.483C1558.85 314.483 1556.96 314.137 1555.37 313.446C1553.78 312.755 1552.53 311.775 1551.63 310.506C1550.73 309.227 1550.24 307.712 1550.14 305.96H1554.55C1554.63 307.011 1554.97 307.887 1555.57 308.588C1556.17 309.279 1556.95 309.795 1557.88 310.136C1558.83 310.468 1559.87 310.634 1560.99 310.634C1562.24 310.634 1563.34 310.439 1564.3 310.051C1565.28 309.653 1566.05 309.104 1566.61 308.403C1567.16 307.693 1567.44 306.865 1567.44 305.918C1567.44 305.056 1567.2 304.35 1566.71 303.801C1566.22 303.252 1565.56 302.797 1564.73 302.438C1563.91 302.078 1562.97 301.76 1561.93 301.486L1558.49 300.548C1556.17 299.914 1554.32 298.981 1552.96 297.75C1551.6 296.519 1550.92 294.89 1550.92 292.864C1550.92 291.187 1551.38 289.724 1552.29 288.474C1553.2 287.224 1554.43 286.254 1555.98 285.562C1557.53 284.862 1559.29 284.511 1561.24 284.511C1563.21 284.511 1564.94 284.857 1566.45 285.548C1567.96 286.24 1569.16 287.191 1570.03 288.403C1570.9 289.606 1571.35 290.989 1571.39 292.551H1567.16ZM1595.74 284.909H1600.15V304.043C1600.15 306.079 1599.67 307.883 1598.71 309.455C1597.76 311.017 1596.41 312.248 1594.68 313.148C1592.94 314.038 1590.91 314.483 1588.58 314.483C1586.26 314.483 1584.24 314.038 1582.5 313.148C1580.77 312.248 1579.43 311.017 1578.47 309.455C1577.51 307.883 1577.04 306.079 1577.04 304.043V284.909H1581.42V303.688C1581.42 305.004 1581.71 306.173 1582.29 307.196C1582.88 308.219 1583.71 309.024 1584.78 309.611C1585.85 310.188 1587.12 310.477 1588.58 310.477C1590.06 310.477 1591.33 310.188 1592.4 309.611C1593.48 309.024 1594.31 308.219 1594.88 307.196C1595.45 306.173 1595.74 305.004 1595.74 303.688V284.909Z" fill="#292A34"/>
</g>
<path opacity="0.1" d="M1366.33 404.854V419.4H1364.13V407.056H1364.05L1360.57 409.329V407.227L1364.2 404.854H1366.33Z" fill="#292A34"/>
<path opacity="0.1" d="M1570.98 419.4V417.809L1575.9 412.71C1576.43 412.156 1576.86 411.67 1577.2 411.254C1577.55 410.832 1577.81 410.432 1577.98 410.053C1578.15 409.675 1578.23 409.272 1578.23 408.846C1578.23 408.363 1578.12 407.946 1577.89 407.596C1577.66 407.241 1577.35 406.969 1576.96 406.779C1576.57 406.585 1576.13 406.488 1575.63 406.488C1575.11 406.488 1574.66 406.595 1574.27 406.808C1573.88 407.021 1573.58 407.321 1573.37 407.71C1573.17 408.098 1573.06 408.552 1573.06 409.073H1570.97C1570.97 408.188 1571.17 407.414 1571.58 406.751C1571.98 406.088 1572.54 405.574 1573.25 405.21C1573.96 404.84 1574.77 404.656 1575.68 404.656C1576.59 404.656 1577.39 404.838 1578.09 405.202C1578.79 405.562 1579.34 406.055 1579.73 406.68C1580.12 407.3 1580.32 408.001 1580.32 408.782C1580.32 409.322 1580.22 409.85 1580.01 410.366C1579.82 410.882 1579.47 411.457 1578.97 412.092C1578.47 412.721 1577.78 413.486 1576.9 414.386L1574.01 417.411V417.518H1580.55V419.4H1570.98Z" fill="#292A34"/>
<path opacity="0.1" d="M306.303 568.399C305.328 568.399 304.457 568.23 303.69 567.894C302.928 567.558 302.324 567.092 301.879 566.495C301.438 565.894 301.202 565.198 301.169 564.407H303.399C303.427 564.838 303.571 565.212 303.832 565.529C304.097 565.842 304.443 566.083 304.869 566.254C305.295 566.424 305.768 566.509 306.289 566.509C306.862 566.509 307.369 566.41 307.809 566.211C308.254 566.012 308.602 565.735 308.853 565.38C309.104 565.02 309.23 564.606 309.23 564.137C309.23 563.65 309.104 563.221 308.853 562.852C308.607 562.478 308.245 562.184 307.767 561.971C307.293 561.758 306.72 561.651 306.048 561.651H304.819V559.862H306.048C306.588 559.862 307.061 559.765 307.468 559.57C307.88 559.376 308.202 559.106 308.434 558.761C308.666 558.41 308.782 558.001 308.782 557.532C308.782 557.082 308.68 556.692 308.477 556.36C308.278 556.024 307.994 555.761 307.624 555.572C307.26 555.382 306.829 555.288 306.332 555.288C305.858 555.288 305.416 555.375 305.004 555.551C304.597 555.721 304.265 555.967 304.009 556.289C303.754 556.606 303.616 556.988 303.597 557.433H301.474C301.498 556.647 301.73 555.955 302.17 555.359C302.615 554.762 303.202 554.296 303.931 553.96C304.66 553.623 305.47 553.455 306.36 553.455C307.293 553.455 308.098 553.638 308.775 554.002C309.457 554.362 309.982 554.843 310.352 555.444C310.726 556.045 310.91 556.703 310.906 557.418C310.91 558.233 310.683 558.924 310.224 559.492C309.769 560.061 309.163 560.442 308.406 560.636V560.749C309.372 560.896 310.12 561.28 310.65 561.9C311.185 562.52 311.45 563.29 311.446 564.208C311.45 565.008 311.228 565.726 310.778 566.36C310.333 566.995 309.724 567.494 308.953 567.859C308.181 568.219 307.298 568.399 306.303 568.399Z" fill="#292A34"/>
<path opacity="0.1" d="M512.408 565.359V563.583L518.693 553.654H520.093V556.268H519.205L514.709 563.384V563.498H523.324V565.359H512.408ZM519.304 568.2V564.819L519.318 564.009V553.654H521.399V568.2H519.304Z" fill="#292A34"/>
<path opacity="0.1" d="M729.428 568.399C728.538 568.399 727.737 568.228 727.027 567.887C726.322 567.542 725.758 567.068 725.337 566.467C724.915 565.865 724.69 565.179 724.662 564.407H726.793C726.845 565.032 727.122 565.546 727.624 565.948C728.126 566.351 728.727 566.552 729.428 566.552C729.986 566.552 730.481 566.424 730.912 566.168C731.348 565.908 731.689 565.551 731.935 565.096C732.186 564.641 732.311 564.123 732.311 563.541C732.311 562.949 732.183 562.421 731.928 561.957C731.672 561.493 731.319 561.128 730.869 560.863C730.424 560.598 729.913 560.463 729.335 560.458C728.895 560.458 728.452 560.534 728.007 560.686C727.562 560.837 727.202 561.036 726.928 561.282L724.918 560.984L725.735 553.654H733.732V555.536H727.56L727.098 559.606H727.183C727.467 559.331 727.844 559.102 728.313 558.917C728.786 558.732 729.293 558.64 729.833 558.64C730.718 558.64 731.506 558.851 732.198 559.272C732.894 559.694 733.44 560.269 733.838 560.998C734.241 561.722 734.44 562.556 734.435 563.498C734.44 564.44 734.226 565.281 733.796 566.019C733.369 566.758 732.778 567.34 732.02 567.766C731.267 568.188 730.403 568.399 729.428 568.399Z" fill="#292A34"/>
<rect x="837.714" y="489.8" width="206.571" height="143.8" rx="3" stroke="black" stroke-opacity="0.7" stroke-width="2"/>
<path d="M941.3 579.697C939.678 579.673 938.08 579.377 936.506 578.809C934.943 578.241 933.523 577.294 932.244 575.968C930.966 574.642 929.942 572.861 929.173 570.624C928.415 568.386 928.036 565.593 928.036 562.243C928.036 559.071 928.35 556.253 928.977 553.791C929.617 551.329 930.534 549.252 931.729 547.559C932.925 545.855 934.369 544.558 936.062 543.671C937.755 542.783 939.654 542.339 941.761 542.339C943.928 542.339 945.851 542.765 947.532 543.617C949.213 544.47 950.574 545.647 951.616 547.151C952.669 548.654 953.338 550.364 953.622 552.282H948.207C947.84 550.767 947.112 549.53 946.023 548.571C944.934 547.612 943.513 547.133 941.761 547.133C939.098 547.133 937.021 548.293 935.529 550.613C934.05 552.933 933.304 556.159 933.292 560.29H933.558C934.186 559.26 934.955 558.384 935.867 557.662C936.79 556.928 937.82 556.366 938.956 555.975C940.104 555.573 941.312 555.372 942.578 555.372C944.685 555.372 946.591 555.886 948.295 556.916C950.012 557.934 951.379 559.343 952.397 561.142C953.415 562.941 953.924 565.001 953.924 567.321C953.924 569.641 953.397 571.742 952.344 573.624C951.302 575.507 949.834 576.998 947.94 578.099C946.046 579.188 943.833 579.721 941.3 579.697ZM941.282 575.08C942.679 575.08 943.928 574.737 945.028 574.051C946.129 573.364 946.999 572.441 947.639 571.281C948.278 570.121 948.597 568.824 948.597 567.392C948.597 565.995 948.284 564.723 947.656 563.575C947.041 562.427 946.188 561.515 945.099 560.84C944.022 560.166 942.791 559.828 941.406 559.828C940.353 559.828 939.376 560.029 938.477 560.432C937.589 560.834 936.808 561.391 936.133 562.101C935.458 562.811 934.925 563.628 934.535 564.551C934.156 565.463 933.967 566.427 933.967 567.445C933.967 568.807 934.28 570.067 934.908 571.227C935.547 572.387 936.417 573.323 937.518 574.033C938.63 574.731 939.885 575.08 941.282 575.08Z" fill="#292A34"/>
<path d="M1142.82 579.2L1158.69 547.808V547.541H1140.33V542.836H1164.37V547.701L1148.55 579.2H1142.82Z" fill="#292A34"/>
<rect x="1259.86" y="488.8" width="208.571" height="145.8" rx="4" fill="#E8EBEF" fill-opacity="0.4"/>
<path d="M1364.13 579.697C1361.59 579.697 1359.34 579.259 1357.38 578.383C1355.44 577.507 1353.92 576.3 1352.82 574.761C1351.72 573.222 1351.18 571.47 1351.19 569.505C1351.18 567.966 1351.49 566.552 1352.13 565.261C1352.78 563.959 1353.66 562.876 1354.77 562.012C1355.89 561.136 1357.13 560.58 1358.5 560.343V560.13C1356.69 559.692 1355.24 558.721 1354.15 557.218C1353.06 555.715 1352.53 553.987 1352.54 552.034C1352.53 550.175 1353.02 548.518 1354.01 547.062C1355.02 545.594 1356.4 544.44 1358.15 543.6C1359.9 542.759 1361.89 542.339 1364.13 542.339C1366.35 542.339 1368.32 542.765 1370.06 543.617C1371.81 544.458 1373.19 545.612 1374.2 547.08C1375.21 548.536 1375.71 550.187 1375.73 552.034C1375.71 553.987 1375.16 555.715 1374.06 557.218C1372.96 558.721 1371.52 559.692 1369.76 560.13V560.343C1371.12 560.58 1372.35 561.136 1373.44 562.012C1374.54 562.876 1375.41 563.959 1376.06 565.261C1376.73 566.552 1377.06 567.966 1377.08 569.505C1377.06 571.47 1376.51 573.222 1375.41 574.761C1374.31 576.3 1372.78 577.507 1370.83 578.383C1368.88 579.259 1366.65 579.697 1364.13 579.697ZM1364.13 575.205C1365.64 575.205 1366.94 574.956 1368.04 574.459C1369.14 573.95 1369.99 573.246 1370.59 572.346C1371.2 571.435 1371.51 570.369 1371.52 569.15C1371.51 567.883 1371.17 566.765 1370.52 565.794C1369.88 564.824 1369.01 564.06 1367.91 563.504C1366.81 562.947 1365.55 562.669 1364.13 562.669C1362.7 562.669 1361.43 562.947 1360.31 563.504C1359.2 564.06 1358.33 564.824 1357.69 565.794C1357.05 566.765 1356.73 567.883 1356.75 569.15C1356.73 570.369 1357.02 571.435 1357.62 572.346C1358.22 573.246 1359.08 573.95 1360.19 574.459C1361.3 574.956 1362.62 575.205 1364.13 575.205ZM1364.13 558.284C1365.34 558.284 1366.41 558.041 1367.35 557.556C1368.28 557.07 1369.01 556.395 1369.55 555.531C1370.09 554.667 1370.37 553.655 1370.38 552.495C1370.37 551.359 1370.1 550.364 1369.57 549.512C1369.04 548.66 1368.32 548.003 1367.38 547.541C1366.45 547.068 1365.36 546.831 1364.13 546.831C1362.88 546.831 1361.78 547.068 1360.83 547.541C1359.89 548.003 1359.17 548.66 1358.65 549.512C1358.12 550.364 1357.87 551.359 1357.88 552.495C1357.87 553.655 1358.13 554.667 1358.66 555.531C1359.2 556.395 1359.93 557.07 1360.86 557.556C1361.81 558.041 1362.9 558.284 1364.13 558.284Z" fill="#292A34"/>
<rect x="1471.43" y="488.8" width="208.571" height="145.8" rx="4" fill="#E8EBEF" fill-opacity="0.4"/>
<path d="M1575.41 542.339C1577.03 542.351 1578.63 542.647 1580.2 543.227C1581.78 543.807 1583.2 544.754 1584.47 546.068C1585.74 547.382 1586.76 549.157 1587.52 551.394C1588.29 553.62 1588.68 556.39 1588.69 559.704C1588.69 562.888 1588.37 565.723 1587.73 568.209C1587.09 570.683 1586.18 572.772 1584.98 574.477C1583.8 576.181 1582.36 577.477 1580.67 578.365C1578.97 579.253 1577.07 579.697 1574.95 579.697C1572.78 579.697 1570.86 579.271 1569.18 578.418C1567.5 577.566 1566.13 576.388 1565.08 574.885C1564.02 573.37 1563.37 571.63 1563.11 569.665H1568.52C1568.88 571.227 1569.6 572.494 1570.69 573.465C1571.79 574.423 1573.21 574.903 1574.95 574.903C1577.61 574.903 1579.69 573.743 1581.18 571.423C1582.67 569.091 1583.42 565.836 1583.44 561.657H1583.15C1582.54 562.675 1581.77 563.551 1580.84 564.285C1579.93 565.019 1578.91 565.587 1577.77 565.989C1576.64 566.392 1575.42 566.593 1574.13 566.593C1572.04 566.593 1570.13 566.078 1568.41 565.048C1566.7 564.019 1565.33 562.604 1564.31 560.805C1563.29 559.006 1562.79 556.952 1562.79 554.644C1562.79 552.347 1563.31 550.264 1564.35 548.394C1565.4 546.523 1566.87 545.044 1568.75 543.955C1570.65 542.854 1572.87 542.315 1575.41 542.339ZM1575.43 546.955C1574.04 546.955 1572.79 547.299 1571.68 547.985C1570.58 548.66 1569.71 549.577 1569.07 550.737C1568.43 551.886 1568.11 553.164 1568.11 554.573C1568.11 555.981 1568.42 557.26 1569.04 558.408C1569.66 559.544 1570.52 560.45 1571.59 561.124C1572.68 561.787 1573.92 562.119 1575.32 562.119C1576.36 562.119 1577.33 561.918 1578.23 561.515C1579.13 561.113 1579.92 560.556 1580.59 559.846C1581.27 559.124 1581.8 558.307 1582.18 557.396C1582.55 556.484 1582.74 555.525 1582.74 554.519C1582.74 553.182 1582.42 551.939 1581.78 550.791C1581.16 549.642 1580.29 548.719 1579.19 548.021C1578.09 547.311 1576.84 546.955 1575.43 546.955Z" fill="#292A34"/>
<path d="M295.626 691.636V728H290.121V697.141H289.908L281.208 702.822V697.567L290.281 691.636H295.626ZM318.122 728.604C315.317 728.592 312.92 727.852 310.931 726.384C308.942 724.916 307.421 722.78 306.368 719.974C305.314 717.169 304.788 713.79 304.788 709.836C304.788 705.894 305.314 702.527 306.368 699.733C307.433 696.939 308.96 694.809 310.949 693.341C312.949 691.873 315.34 691.139 318.122 691.139C320.904 691.139 323.289 691.879 325.278 693.359C327.266 694.826 328.787 696.957 329.841 699.751C330.906 702.532 331.439 705.894 331.439 709.836C331.439 713.801 330.912 717.187 329.859 719.992C328.805 722.786 327.284 724.922 325.295 726.402C323.307 727.87 320.916 728.604 318.122 728.604ZM318.122 723.863C320.584 723.863 322.508 722.661 323.893 720.259C325.289 717.856 325.988 714.381 325.988 709.836C325.988 706.817 325.668 704.267 325.029 702.183C324.402 700.088 323.496 698.502 322.312 697.425C321.141 696.336 319.744 695.791 318.122 695.791C315.672 695.791 313.748 696.999 312.351 699.413C310.955 701.828 310.25 705.302 310.239 709.836C310.239 712.866 310.552 715.429 311.18 717.524C311.819 719.607 312.724 721.188 313.896 722.265C315.068 723.33 316.477 723.863 318.122 723.863Z" fill="#292A34"/>
<path d="M511.518 691.636V728H506.014V697.141H505.801L497.101 702.822V697.567L506.174 691.636H511.518ZM535.151 691.636V728H529.647V697.141H529.434L520.734 702.822V697.567L529.807 691.636H535.151Z" fill="#292A34"/>
<path d="M719.574 691.636V728H714.07V697.141H713.857L705.157 702.822V697.567L714.23 691.636H719.574ZM729.411 728V724.023L741.716 711.274C743.029 709.889 744.113 708.676 744.965 707.634C745.829 706.581 746.474 705.58 746.9 704.634C747.326 703.687 747.539 702.68 747.539 701.615C747.539 700.408 747.255 699.366 746.687 698.49C746.119 697.602 745.344 696.922 744.361 696.448C743.379 695.963 742.272 695.72 741.041 695.72C739.739 695.72 738.602 695.987 737.632 696.519C736.661 697.052 735.915 697.804 735.394 698.774C734.874 699.745 734.613 700.881 734.613 702.183H729.375C729.375 699.97 729.884 698.034 730.902 696.377C731.92 694.72 733.317 693.436 735.093 692.524C736.868 691.601 738.886 691.139 741.147 691.139C743.432 691.139 745.444 691.595 747.184 692.506C748.936 693.406 750.303 694.637 751.286 696.2C752.268 697.75 752.76 699.502 752.76 701.455C752.76 702.805 752.505 704.125 751.996 705.415C751.499 706.705 750.629 708.143 749.386 709.729C748.143 711.304 746.415 713.215 744.201 715.464L736.975 723.028V723.295H753.345V728H729.411Z" fill="#292A34"/>
<path d="M930.364 691.636V728H924.86V697.141H924.647L915.947 702.822V697.567L925.02 691.636H930.364ZM952.861 728.497C950.422 728.497 948.244 728.077 946.327 727.237C944.421 726.396 942.912 725.23 941.799 723.739C940.698 722.235 940.106 720.495 940.024 718.518H945.599C945.67 719.596 946.031 720.531 946.682 721.324C947.345 722.105 948.209 722.709 949.274 723.135C950.34 723.561 951.523 723.774 952.825 723.774C954.258 723.774 955.524 723.526 956.625 723.028C957.738 722.531 958.608 721.839 959.235 720.951C959.863 720.051 960.176 719.016 960.176 717.844C960.176 716.625 959.863 715.553 959.235 714.63C958.62 713.695 957.714 712.961 956.519 712.428C955.335 711.896 953.903 711.629 952.222 711.629H949.15V707.155H952.222C953.571 707.155 954.755 706.912 955.773 706.427C956.803 705.942 957.608 705.267 958.188 704.403C958.768 703.527 959.058 702.503 959.058 701.331C959.058 700.206 958.803 699.23 958.294 698.401C957.797 697.561 957.087 696.904 956.163 696.43C955.252 695.957 954.175 695.72 952.932 695.72C951.748 695.72 950.641 695.939 949.612 696.377C948.594 696.803 947.765 697.419 947.126 698.224C946.487 699.017 946.143 699.97 946.096 701.082H940.787C940.846 699.117 941.426 697.389 942.527 695.898C943.64 694.406 945.108 693.24 946.931 692.4C948.753 691.559 950.778 691.139 953.003 691.139C955.335 691.139 957.347 691.595 959.04 692.506C960.744 693.406 962.058 694.607 962.982 696.111C963.917 697.614 964.378 699.259 964.367 701.047C964.378 703.083 963.81 704.811 962.662 706.232C961.526 707.652 960.011 708.605 958.117 709.09V709.374C960.531 709.741 962.402 710.7 963.727 712.251C965.065 713.801 965.728 715.725 965.716 718.021C965.728 720.022 965.172 721.815 964.047 723.401C962.934 724.987 961.413 726.236 959.484 727.148C957.554 728.047 955.347 728.497 952.861 728.497Z" fill="#292A34"/>
<path d="M1141.69 691.636V728H1136.19V697.141H1135.97L1127.27 702.822V697.567L1136.35 691.636H1141.69ZM1150.76 720.898V716.459L1166.48 691.636H1169.98V698.17H1167.76L1156.52 715.962V716.246H1178.06V720.898H1150.76ZM1168.01 728V719.548L1168.04 717.524V691.636H1173.24V728H1168.01Z" fill="#292A34"/>
<rect x="1259.86" y="637.6" width="208.571" height="145.8" rx="4" fill="#E8EBEF" fill-opacity="0.4"/>
<path d="M1354.12 691.636V728H1348.61V697.141H1348.4L1339.7 702.822V697.567L1348.77 691.636H1354.12ZM1375.96 728.497C1373.73 728.497 1371.73 728.071 1369.96 727.219C1368.19 726.355 1366.78 725.171 1365.73 723.668C1364.68 722.164 1364.11 720.448 1364.04 718.518H1369.37C1369.5 720.081 1370.19 721.365 1371.45 722.371C1372.7 723.378 1374.21 723.881 1375.96 723.881C1377.35 723.881 1378.59 723.561 1379.67 722.922C1380.76 722.271 1381.61 721.377 1382.22 720.241C1382.85 719.104 1383.17 717.808 1383.17 716.352C1383.17 714.873 1382.85 713.553 1382.21 712.393C1381.57 711.233 1380.69 710.321 1379.56 709.658C1378.45 708.996 1377.17 708.658 1375.73 708.646C1374.63 708.646 1373.52 708.836 1372.41 709.214C1371.29 709.593 1370.39 710.09 1369.71 710.706L1364.68 709.96L1366.72 691.636H1386.72V696.342H1371.29L1370.13 706.516H1370.35C1371.06 705.829 1372 705.255 1373.17 704.793C1374.35 704.332 1375.62 704.101 1376.97 704.101C1379.18 704.101 1381.15 704.628 1382.88 705.681C1384.62 706.735 1385.99 708.173 1386.98 709.996C1387.99 711.807 1388.49 713.89 1388.47 716.246C1388.49 718.601 1387.95 720.702 1386.88 722.549C1385.81 724.396 1384.33 725.852 1382.44 726.917C1380.56 727.97 1378.4 728.497 1375.96 728.497Z" fill="#292A34"/>
<rect x="1471.43" y="637.6" width="208.571" height="145.8" rx="4" fill="#E8EBEF" fill-opacity="0.4"/>
<path d="M1565.3 691.636V728H1559.79V697.141H1559.58L1550.88 702.822V697.567L1559.95 691.636H1565.3ZM1587.83 728.497C1586.21 728.473 1584.61 728.178 1583.04 727.609C1581.47 727.041 1580.05 726.094 1578.77 724.768C1577.5 723.443 1576.47 721.661 1575.7 719.424C1574.95 717.187 1574.57 714.393 1574.57 711.043C1574.57 707.871 1574.88 705.054 1575.51 702.592C1576.15 700.129 1577.06 698.052 1578.26 696.359C1579.46 694.655 1580.9 693.359 1582.59 692.471C1584.29 691.583 1586.19 691.139 1588.29 691.139C1590.46 691.139 1592.38 691.565 1594.06 692.418C1595.74 693.27 1597.1 694.448 1598.15 695.951C1599.2 697.454 1599.87 699.165 1600.15 701.082H1594.74C1594.37 699.567 1593.64 698.33 1592.55 697.371C1591.46 696.413 1590.04 695.933 1588.29 695.933C1585.63 695.933 1583.55 697.093 1582.06 699.413C1580.58 701.733 1579.83 704.959 1579.82 709.09H1580.09C1580.72 708.06 1581.49 707.184 1582.4 706.462C1583.32 705.728 1584.35 705.166 1585.49 704.776C1586.63 704.373 1587.84 704.172 1589.11 704.172C1591.22 704.172 1593.12 704.687 1594.83 705.717C1596.54 706.735 1597.91 708.143 1598.93 709.942C1599.95 711.742 1600.45 713.801 1600.45 716.121C1600.45 718.442 1599.93 720.543 1598.87 722.425C1597.83 724.307 1596.36 725.798 1594.47 726.899C1592.58 727.988 1590.36 728.521 1587.83 728.497ZM1587.81 723.881C1589.21 723.881 1590.46 723.537 1591.56 722.851C1592.66 722.164 1593.53 721.241 1594.17 720.081C1594.81 718.921 1595.13 717.625 1595.13 716.192C1595.13 714.796 1594.81 713.523 1594.19 712.375C1593.57 711.227 1592.72 710.315 1591.63 709.641C1590.55 708.966 1589.32 708.629 1587.94 708.629C1586.88 708.629 1585.91 708.83 1585.01 709.232C1584.12 709.635 1583.34 710.191 1582.66 710.901C1581.99 711.612 1581.46 712.428 1581.07 713.352C1580.69 714.263 1580.5 715.228 1580.5 716.246C1580.5 717.607 1580.81 718.868 1581.44 720.028C1582.08 721.188 1582.95 722.123 1584.05 722.833C1585.16 723.531 1586.42 723.881 1587.81 723.881Z" fill="#292A34"/>
<path d="M297.286 840.436V876.8H291.782V845.94H291.568L282.868 851.622V846.367L291.941 840.436H297.286ZM308.348 876.8L324.221 845.408V845.141H305.862V840.436H329.903V845.301L314.083 876.8H308.348Z" fill="#292A34"/>
<path d="M507.539 840.436V876.8H502.035V845.94H501.822L493.121 851.622V846.367L502.194 840.436H507.539ZM529.662 877.297C527.118 877.297 524.868 876.859 522.915 875.983C520.974 875.107 519.453 873.9 518.352 872.361C517.251 870.822 516.707 869.07 516.719 867.105C516.707 865.566 517.02 864.152 517.66 862.862C518.311 861.56 519.193 860.476 520.305 859.612C521.418 858.736 522.661 858.18 524.034 857.943V857.73C522.223 857.292 520.773 856.322 519.684 854.818C518.595 853.315 518.056 851.587 518.068 849.634C518.056 847.775 518.547 846.118 519.542 844.662C520.548 843.194 521.927 842.04 523.679 841.2C525.431 840.359 527.425 839.939 529.662 839.939C531.876 839.939 533.853 840.365 535.593 841.217C537.345 842.058 538.724 843.212 539.73 844.68C540.736 846.136 541.245 847.787 541.257 849.634C541.245 851.587 540.689 853.315 539.588 854.818C538.487 856.322 537.055 857.292 535.291 857.73V857.943C536.652 858.18 537.877 858.736 538.966 859.612C540.067 860.476 540.943 861.56 541.594 862.862C542.257 864.152 542.595 865.566 542.606 867.105C542.595 869.07 542.038 870.822 540.937 872.361C539.836 873.9 538.31 875.107 536.356 875.983C534.415 876.859 532.184 877.297 529.662 877.297ZM529.662 872.805C531.166 872.805 532.468 872.556 533.569 872.059C534.67 871.55 535.522 870.846 536.126 869.946C536.729 869.035 537.037 867.969 537.049 866.75C537.037 865.484 536.706 864.365 536.055 863.394C535.415 862.424 534.545 861.66 533.444 861.104C532.344 860.547 531.083 860.269 529.662 860.269C528.23 860.269 526.958 860.547 525.845 861.104C524.732 861.66 523.856 862.424 523.217 863.394C522.578 864.365 522.264 865.484 522.276 866.75C522.264 867.969 522.554 869.035 523.146 869.946C523.75 870.846 524.608 871.55 525.721 872.059C526.833 872.556 528.147 872.805 529.662 872.805ZM529.662 855.884C530.87 855.884 531.941 855.641 532.876 855.156C533.811 854.67 534.545 853.996 535.078 853.131C535.622 852.267 535.901 851.255 535.912 850.095C535.901 848.959 535.628 847.965 535.096 847.112C534.575 846.26 533.847 845.603 532.912 845.141C531.977 844.668 530.894 844.431 529.662 844.431C528.408 844.431 527.307 844.668 526.36 845.141C525.425 845.603 524.697 846.26 524.176 847.112C523.655 847.965 523.401 848.959 523.412 850.095C523.401 851.255 523.661 852.267 524.194 853.131C524.726 853.996 525.46 854.67 526.395 855.156C527.342 855.641 528.431 855.884 529.662 855.884Z" fill="#292A34"/>
<rect x="625.143" y="786.4" width="208.571" height="145.8" rx="4" fill="#FFA800"/>
<path d="M719.461 840.436V876.8H711.773V847.734H711.56L703.232 852.954V846.136L712.234 840.436H719.461ZM741.261 839.939C743.131 839.939 744.93 840.253 746.658 840.88C748.398 841.507 749.949 842.508 751.31 843.881C752.683 845.254 753.766 847.077 754.56 849.35C755.364 851.61 755.773 854.386 755.785 857.677C755.785 860.766 755.435 863.524 754.737 865.951C754.051 868.366 753.062 870.42 751.772 872.112C750.482 873.805 748.925 875.095 747.102 875.983C745.279 876.859 743.243 877.297 740.994 877.297C738.568 877.297 736.425 876.829 734.567 875.894C732.708 874.947 731.211 873.663 730.074 872.041C728.95 870.408 728.269 868.573 728.033 866.537H735.614C735.91 867.863 736.532 868.893 737.479 869.627C738.426 870.349 739.597 870.71 740.994 870.71C743.362 870.71 745.161 869.68 746.392 867.62C747.623 865.549 748.244 862.714 748.256 859.115H748.008C747.463 860.18 746.729 861.098 745.806 861.867C744.883 862.625 743.823 863.211 742.628 863.625C741.444 864.039 740.183 864.247 738.846 864.247C736.703 864.247 734.792 863.743 733.111 862.737C731.43 861.731 730.104 860.346 729.133 858.582C728.163 856.819 727.677 854.806 727.677 852.546C727.666 850.107 728.228 847.935 729.364 846.029C730.501 844.123 732.087 842.632 734.123 841.555C736.171 840.466 738.55 839.927 741.261 839.939ZM741.314 845.976C740.118 845.976 739.053 846.26 738.118 846.828C737.194 847.396 736.461 848.16 735.916 849.119C735.383 850.078 735.123 851.149 735.135 852.332C735.135 853.528 735.395 854.605 735.916 855.564C736.449 856.511 737.171 857.269 738.082 857.837C739.006 858.393 740.059 858.671 741.243 858.671C742.131 858.671 742.953 858.506 743.711 858.174C744.468 857.843 745.125 857.387 745.682 856.807C746.25 856.215 746.694 855.534 747.013 854.765C747.333 853.996 747.493 853.179 747.493 852.315C747.481 851.167 747.209 850.113 746.676 849.154C746.143 848.195 745.409 847.426 744.474 846.846C743.539 846.266 742.486 845.976 741.314 845.976Z" fill="white"/>
<g clip-path="url(#clip2_27_159)">
<rect opacity="0.2" x="836.714" y="786.4" width="208.571" height="145.8" fill="#FFA800"/>
<path d="M913.028 876.8V872.823L925.333 860.074C926.647 858.689 927.73 857.476 928.582 856.434C929.446 855.381 930.091 854.38 930.518 853.433C930.944 852.486 931.157 851.48 931.157 850.415C931.157 849.207 930.873 848.166 930.305 847.29C929.736 846.402 928.961 845.721 927.979 845.248C926.996 844.763 925.889 844.52 924.658 844.52C923.356 844.52 922.22 844.786 921.249 845.319C920.279 845.852 919.533 846.603 919.012 847.574C918.491 848.545 918.231 849.681 918.231 850.983H912.993C912.993 848.77 913.502 846.834 914.52 845.177C915.538 843.52 916.935 842.235 918.71 841.324C920.486 840.401 922.504 839.939 924.765 839.939C927.049 839.939 929.062 840.395 930.802 841.306C932.554 842.206 933.921 843.437 934.903 844.999C935.886 846.55 936.377 848.302 936.377 850.255C936.377 851.604 936.122 852.924 935.613 854.215C935.116 855.505 934.246 856.943 933.003 858.529C931.761 860.104 930.032 862.015 927.819 864.264L920.592 871.828V872.095H936.963V876.8H913.028ZM956.352 877.403C953.547 877.392 951.15 876.652 949.161 875.184C947.172 873.716 945.651 871.58 944.598 868.774C943.544 865.969 943.018 862.589 943.018 858.636C943.018 854.694 943.544 851.326 944.598 848.533C945.663 845.739 947.19 843.609 949.179 842.141C951.179 840.673 953.57 839.939 956.352 839.939C959.134 839.939 961.519 840.679 963.508 842.158C965.496 843.626 967.017 845.757 968.071 848.551C969.136 851.332 969.669 854.694 969.669 858.636C969.669 862.601 969.142 865.987 968.089 868.792C967.035 871.586 965.514 873.722 963.525 875.202C961.537 876.67 959.146 877.403 956.352 877.403ZM956.352 872.663C958.814 872.663 960.738 871.461 962.123 869.058C963.52 866.655 964.218 863.181 964.218 858.636C964.218 855.617 963.898 853.066 963.259 850.983C962.632 848.888 961.726 847.302 960.542 846.225C959.371 845.136 957.974 844.591 956.352 844.591C953.902 844.591 951.978 845.798 950.582 848.213C949.185 850.628 948.48 854.102 948.469 858.636C948.469 861.666 948.782 864.229 949.41 866.324C950.049 868.407 950.954 869.988 952.126 871.065C953.298 872.13 954.707 872.663 956.352 872.663Z" fill="#292A34"/>
</g>
<g clip-path="url(#clip3_27_159)">
<rect opacity="0.2" x="1048.29" y="786.4" width="208.571" height="145.8" fill="#FFA800"/>
<path d="M1128.92 876.8V872.823L1141.23 860.074C1142.54 858.689 1143.62 857.476 1144.47 856.434C1145.34 855.381 1145.98 854.38 1146.41 853.433C1146.84 852.486 1147.05 851.48 1147.05 850.415C1147.05 849.207 1146.77 848.166 1146.2 847.29C1145.63 846.402 1144.85 845.721 1143.87 845.248C1142.89 844.763 1141.78 844.52 1140.55 844.52C1139.25 844.52 1138.11 844.786 1137.14 845.319C1136.17 845.852 1135.43 846.603 1134.9 847.574C1134.38 848.545 1134.12 849.681 1134.12 850.983H1128.89C1128.89 848.77 1129.39 846.834 1130.41 845.177C1131.43 843.52 1132.83 842.235 1134.6 841.324C1136.38 840.401 1138.4 839.939 1140.66 839.939C1142.94 839.939 1144.95 840.395 1146.69 841.306C1148.45 842.206 1149.81 843.437 1150.8 844.999C1151.78 846.55 1152.27 848.302 1152.27 850.255C1152.27 851.604 1152.02 852.924 1151.51 854.215C1151.01 855.505 1150.14 856.943 1148.9 858.529C1147.65 860.104 1145.92 862.015 1143.71 864.264L1136.48 871.828V872.095H1152.86V876.8H1128.92ZM1173.38 840.436V876.8H1167.88V845.94H1167.66L1158.96 851.622V846.367L1168.04 840.436H1173.38Z" fill="#292A34"/>
</g>
<g clip-path="url(#clip4_27_159)">
<rect opacity="0.2" x="1259.86" y="786.4" width="208.571" height="145.8" fill="#FFA800"/>
<path d="M1336.98 876.8V872.823L1349.28 860.074C1350.6 858.689 1351.68 857.476 1352.53 856.434C1353.39 855.381 1354.04 854.38 1354.47 853.433C1354.89 852.486 1355.11 851.48 1355.11 850.415C1355.11 849.207 1354.82 848.166 1354.25 847.29C1353.68 846.402 1352.91 845.721 1351.93 845.248C1350.94 844.763 1349.84 844.52 1348.61 844.52C1347.3 844.52 1346.17 844.786 1345.2 845.319C1344.23 845.852 1343.48 846.603 1342.96 847.574C1342.44 848.545 1342.18 849.681 1342.18 850.983H1336.94C1336.94 848.77 1337.45 846.834 1338.47 845.177C1339.49 843.52 1340.88 842.235 1342.66 841.324C1344.43 840.401 1346.45 839.939 1348.71 839.939C1351 839.939 1353.01 840.395 1354.75 841.306C1356.5 842.206 1357.87 843.437 1358.85 844.999C1359.83 846.55 1360.33 848.302 1360.33 850.255C1360.33 851.604 1360.07 852.924 1359.56 854.215C1359.06 855.505 1358.19 856.943 1356.95 858.529C1355.71 860.104 1353.98 862.015 1351.77 864.264L1344.54 871.828V872.095H1360.91V876.8H1336.98ZM1367.64 876.8V872.823L1379.95 860.074C1381.26 858.689 1382.34 857.476 1383.19 856.434C1384.06 855.381 1384.7 854.38 1385.13 853.433C1385.56 852.486 1385.77 851.48 1385.77 850.415C1385.77 849.207 1385.49 848.166 1384.92 847.29C1384.35 846.402 1383.57 845.721 1382.59 845.248C1381.61 844.763 1380.5 844.52 1379.27 844.52C1377.97 844.52 1376.83 844.786 1375.86 845.319C1374.89 845.852 1374.15 846.603 1373.62 847.574C1373.1 848.545 1372.84 849.681 1372.84 850.983H1367.61C1367.61 848.77 1368.11 846.834 1369.13 845.177C1370.15 843.52 1371.55 842.235 1373.32 841.324C1375.1 840.401 1377.12 839.939 1379.38 839.939C1381.66 839.939 1383.67 840.395 1385.41 841.306C1387.17 842.206 1388.53 843.437 1389.52 844.999C1390.5 846.55 1390.99 848.302 1390.99 850.255C1390.99 851.604 1390.74 852.924 1390.23 854.215C1389.73 855.505 1388.86 856.943 1387.62 858.529C1386.37 860.104 1384.64 862.015 1382.43 864.264L1375.2 871.828V872.095H1391.58V876.8H1367.64Z" fill="#292A34"/>
</g>
<rect x="1471.43" y="786.4" width="208.571" height="145.8" rx="4" fill="#FFA800"/>
<path d="M1546.44 876.8V871.26L1559.38 859.275C1560.48 858.21 1561.4 857.251 1562.15 856.399C1562.91 855.546 1563.48 854.712 1563.87 853.895C1564.26 853.066 1564.46 852.173 1564.46 851.214C1564.46 850.149 1564.21 849.231 1563.73 848.462C1563.24 847.68 1562.58 847.083 1561.74 846.668C1560.9 846.242 1559.95 846.029 1558.88 846.029C1557.77 846.029 1556.8 846.254 1555.97 846.704C1555.14 847.154 1554.5 847.799 1554.05 848.639C1553.6 849.48 1553.38 850.48 1553.38 851.64H1546.08C1546.08 849.261 1546.62 847.195 1547.7 845.443C1548.77 843.691 1550.28 842.336 1552.22 841.377C1554.16 840.418 1556.4 839.939 1558.94 839.939C1561.54 839.939 1563.81 840.401 1565.74 841.324C1567.68 842.235 1569.19 843.502 1570.26 845.124C1571.34 846.745 1571.88 848.604 1571.88 850.699C1571.88 852.072 1571.61 853.427 1571.06 854.765C1570.53 856.103 1569.58 857.588 1568.2 859.222C1566.83 860.843 1564.9 862.791 1562.4 865.063L1557.09 870.266V870.514H1572.36V876.8H1546.44ZM1591.37 877.297C1588.72 877.297 1586.36 876.841 1584.29 875.93C1582.23 875.006 1580.6 873.74 1579.4 872.13C1578.22 870.508 1577.61 868.638 1577.57 866.519H1585.32C1585.36 867.407 1585.65 868.188 1586.19 868.863C1586.73 869.526 1587.45 870.041 1588.35 870.408C1589.25 870.775 1590.26 870.958 1591.39 870.958C1592.56 870.958 1593.6 870.751 1594.5 870.337C1595.4 869.922 1596.1 869.348 1596.61 868.614C1597.12 867.881 1597.37 867.034 1597.37 866.075C1597.37 865.105 1597.1 864.247 1596.56 863.501C1596.02 862.743 1595.25 862.151 1594.25 861.725C1593.25 861.299 1592.07 861.086 1590.7 861.086H1587.3V855.44H1590.7C1591.86 855.44 1592.88 855.238 1593.77 854.836C1594.67 854.434 1595.37 853.877 1595.86 853.167C1596.36 852.445 1596.61 851.604 1596.61 850.646C1596.61 849.734 1596.39 848.935 1595.95 848.249C1595.53 847.55 1594.92 847.006 1594.14 846.615C1593.37 846.225 1592.47 846.029 1591.44 846.029C1590.4 846.029 1589.45 846.219 1588.58 846.597C1587.72 846.964 1587.03 847.491 1586.51 848.178C1585.98 848.864 1585.71 849.669 1585.67 850.592H1578.3C1578.34 848.497 1578.94 846.651 1580.1 845.053C1581.26 843.455 1582.82 842.206 1584.78 841.306C1586.76 840.395 1588.99 839.939 1591.48 839.939C1593.99 839.939 1596.18 840.395 1598.06 841.306C1599.95 842.218 1601.41 843.449 1602.45 844.999C1603.5 846.538 1604.02 848.266 1604.01 850.184C1604.02 852.22 1603.39 853.919 1602.11 855.28C1600.85 856.641 1599.19 857.505 1597.16 857.872V858.156C1599.83 858.5 1601.87 859.429 1603.27 860.944C1604.68 862.447 1605.37 864.329 1605.36 866.59C1605.37 868.662 1604.78 870.502 1603.57 872.112C1602.37 873.722 1600.72 874.989 1598.61 875.912C1596.51 876.835 1594.09 877.297 1591.37 877.297Z" fill="white"/>
<path d="M278.485 1025.6V1021.62L290.789 1008.87C292.103 1007.49 293.186 1006.28 294.039 1005.23C294.903 1004.18 295.548 1003.18 295.974 1002.23C296.4 1001.29 296.613 1000.28 296.613 999.215C296.613 998.008 296.329 996.966 295.761 996.09C295.193 995.202 294.418 994.522 293.435 994.048C292.453 993.563 291.346 993.32 290.115 993.32C288.813 993.32 287.676 993.587 286.706 994.119C285.735 994.652 284.989 995.404 284.468 996.374C283.948 997.345 283.687 998.481 283.687 999.783H278.449C278.449 997.57 278.958 995.634 279.976 993.977C280.994 992.32 282.391 991.036 284.167 990.124C285.942 989.201 287.96 988.739 290.221 988.739C292.506 988.739 294.518 989.195 296.258 990.106C298.01 991.006 299.377 992.237 300.36 993.8C301.342 995.35 301.833 997.102 301.833 999.055C301.833 1000.4 301.579 1001.72 301.07 1003.01C300.573 1004.31 299.703 1005.74 298.46 1007.33C297.217 1008.9 295.489 1010.82 293.275 1013.06L286.049 1020.63V1020.89H302.419V1025.6H278.485ZM307.604 1018.5V1014.06L323.318 989.236H326.816V995.771H324.596L313.357 1013.56V1013.85H334.895V1018.5H307.604ZM324.845 1025.6V1017.15L324.88 1015.12V989.236H330.083V1025.6H324.845Z" fill="#292A34"/>
<path d="M490.52 1025.6V1021.62L502.825 1008.87C504.139 1007.49 505.222 1006.28 506.074 1005.23C506.938 1004.18 507.583 1003.18 508.009 1002.23C508.436 1001.29 508.649 1000.28 508.649 999.215C508.649 998.008 508.365 996.966 507.796 996.09C507.228 995.202 506.453 994.522 505.47 994.048C504.488 993.563 503.381 993.32 502.15 993.32C500.848 993.32 499.712 993.587 498.741 994.119C497.77 994.652 497.025 995.404 496.504 996.374C495.983 997.345 495.723 998.481 495.723 999.783H490.485C490.485 997.57 490.994 995.634 492.012 993.977C493.03 992.32 494.426 991.036 496.202 990.124C497.977 989.201 499.996 988.739 502.257 988.739C504.541 988.739 506.553 989.195 508.294 990.106C510.045 991.006 511.413 992.237 512.395 993.8C513.378 995.35 513.869 997.102 513.869 999.055C513.869 1000.4 513.614 1001.72 513.105 1003.01C512.608 1004.31 511.738 1005.74 510.495 1007.33C509.252 1008.9 507.524 1010.82 505.311 1013.06L498.084 1020.63V1020.89H514.455V1025.6H490.52ZM533.187 1026.1C530.962 1026.1 528.961 1025.67 527.186 1024.82C525.422 1023.95 524.013 1022.77 522.96 1021.27C521.906 1019.76 521.344 1018.05 521.273 1016.12H526.6C526.73 1017.68 527.422 1018.97 528.677 1019.97C529.932 1020.98 531.435 1021.48 533.187 1021.48C534.584 1021.48 535.821 1021.16 536.898 1020.52C537.987 1019.87 538.839 1018.98 539.455 1017.84C540.082 1016.7 540.396 1015.41 540.396 1013.95C540.396 1012.47 540.076 1011.15 539.437 1009.99C538.798 1008.83 537.916 1007.92 536.791 1007.26C535.679 1006.6 534.4 1006.26 532.956 1006.25C531.855 1006.25 530.749 1006.44 529.636 1006.81C528.523 1007.19 527.624 1007.69 526.937 1008.31L521.912 1007.56L523.954 989.236H543.947V993.942H528.517L527.363 1004.12H527.576C528.286 1003.43 529.227 1002.86 530.399 1002.39C531.583 1001.93 532.85 1001.7 534.199 1001.7C536.413 1001.7 538.383 1002.23 540.112 1003.28C541.852 1004.33 543.219 1005.77 544.213 1007.6C545.219 1009.41 545.717 1011.49 545.705 1013.85C545.717 1016.2 545.184 1018.3 544.107 1020.15C543.041 1022 541.562 1023.45 539.668 1024.52C537.786 1025.57 535.625 1026.1 533.187 1026.1Z" fill="#292A34"/>
<path d="M701.701 1025.6V1021.62L714.006 1008.87C715.319 1007.49 716.403 1006.28 717.255 1005.23C718.119 1004.18 718.764 1003.18 719.19 1002.23C719.616 1001.29 719.829 1000.28 719.829 999.215C719.829 998.008 719.545 996.966 718.977 996.09C718.409 995.202 717.634 994.522 716.651 994.048C715.669 993.563 714.562 993.32 713.331 993.32C712.029 993.32 710.892 993.587 709.922 994.119C708.951 994.652 708.205 995.404 707.685 996.374C707.164 997.345 706.903 998.481 706.903 999.783H701.665C701.665 997.57 702.174 995.634 703.192 993.977C704.21 992.32 705.607 991.036 707.383 990.124C709.158 989.201 711.176 988.739 713.437 988.739C715.722 988.739 717.734 989.195 719.474 990.106C721.226 991.006 722.593 992.237 723.576 993.8C724.558 995.35 725.05 997.102 725.05 999.055C725.05 1000.4 724.795 1001.72 724.286 1003.01C723.789 1004.31 722.919 1005.74 721.676 1007.33C720.433 1008.9 718.705 1010.82 716.491 1013.06L709.265 1020.63V1020.89H725.636V1025.6H701.701ZM745.06 1026.1C743.439 1026.07 741.841 1025.78 740.266 1025.21C738.704 1024.64 737.283 1023.69 736.005 1022.37C734.726 1021.04 733.703 1019.26 732.933 1017.02C732.176 1014.79 731.797 1011.99 731.797 1008.64C731.797 1005.47 732.11 1002.65 732.738 1000.19C733.377 997.73 734.294 995.652 735.49 993.959C736.685 992.255 738.13 990.959 739.822 990.071C741.515 989.183 743.415 988.739 745.522 988.739C747.688 988.739 749.612 989.165 751.292 990.018C752.973 990.87 754.335 992.048 755.376 993.551C756.43 995.054 757.099 996.765 757.383 998.682H751.967C751.6 997.167 750.872 995.93 749.783 994.972C748.694 994.013 747.274 993.533 745.522 993.533C742.859 993.533 740.781 994.693 739.29 997.013C737.81 999.334 737.064 1002.56 737.052 1006.69H737.319C737.946 1005.66 738.716 1004.78 739.627 1004.06C740.55 1003.33 741.58 1002.77 742.716 1002.38C743.865 1001.97 745.072 1001.77 746.339 1001.77C748.446 1001.77 750.351 1002.29 752.056 1003.32C753.772 1004.33 755.14 1005.74 756.158 1007.54C757.176 1009.34 757.685 1011.4 757.685 1013.72C757.685 1016.04 757.158 1018.14 756.104 1020.02C755.063 1021.91 753.595 1023.4 751.701 1024.5C749.807 1025.59 747.593 1026.12 745.06 1026.1ZM745.042 1021.48C746.439 1021.48 747.688 1021.14 748.789 1020.45C749.89 1019.76 750.76 1018.84 751.399 1017.68C752.038 1016.52 752.358 1015.22 752.358 1013.79C752.358 1012.4 752.044 1011.12 751.417 1009.98C750.801 1008.83 749.949 1007.92 748.86 1007.24C747.783 1006.57 746.552 1006.23 745.167 1006.23C744.113 1006.23 743.137 1006.43 742.237 1006.83C741.349 1007.23 740.568 1007.79 739.893 1008.5C739.219 1009.21 738.686 1010.03 738.295 1010.95C737.917 1011.86 737.727 1012.83 737.727 1013.85C737.727 1015.21 738.041 1016.47 738.668 1017.63C739.307 1018.79 740.177 1019.72 741.278 1020.43C742.391 1021.13 743.646 1021.48 745.042 1021.48Z" fill="#292A34"/>
<path d="M914.688 1025.6V1021.62L926.993 1008.87C928.307 1007.49 929.39 1006.28 930.242 1005.23C931.107 1004.18 931.752 1003.18 932.178 1002.23C932.604 1001.29 932.817 1000.28 932.817 999.215C932.817 998.008 932.533 996.966 931.965 996.09C931.397 995.202 930.621 994.522 929.639 994.048C928.656 993.563 927.549 993.32 926.318 993.32C925.016 993.32 923.88 993.587 922.909 994.119C921.939 994.652 921.193 995.404 920.672 996.374C920.151 997.345 919.891 998.481 919.891 999.783H914.653C914.653 997.57 915.162 995.634 916.18 993.977C917.198 992.32 918.595 991.036 920.37 990.124C922.146 989.201 924.164 988.739 926.425 988.739C928.709 988.739 930.722 989.195 932.462 990.106C934.214 991.006 935.581 992.237 936.563 993.8C937.546 995.35 938.037 997.102 938.037 999.055C938.037 1000.4 937.783 1001.72 937.274 1003.01C936.776 1004.31 935.906 1005.74 934.664 1007.33C933.421 1008.9 931.692 1010.82 929.479 1013.06L922.252 1020.63V1020.89H938.623V1025.6H914.688ZM946.578 1025.6L962.451 994.208V993.942H944.092V989.236H968.133V994.102L952.313 1025.6H946.578Z" fill="#292A34"/>
<path d="M1124.94 1025.6V1021.62L1137.25 1008.87C1138.56 1007.49 1139.64 1006.28 1140.5 1005.23C1141.36 1004.18 1142 1003.18 1142.43 1002.23C1142.86 1001.29 1143.07 1000.28 1143.07 999.215C1143.07 998.008 1142.79 996.966 1142.22 996.09C1141.65 995.202 1140.87 994.522 1139.89 994.048C1138.91 993.563 1137.8 993.32 1136.57 993.32C1135.27 993.32 1134.13 993.587 1133.16 994.119C1132.19 994.652 1131.45 995.404 1130.93 996.374C1130.4 997.345 1130.14 998.481 1130.14 999.783H1124.91C1124.91 997.57 1125.41 995.634 1126.43 993.977C1127.45 992.32 1128.85 991.036 1130.62 990.124C1132.4 989.201 1134.42 988.739 1136.68 988.739C1138.96 988.739 1140.97 989.195 1142.71 990.106C1144.47 991.006 1145.83 992.237 1146.82 993.8C1147.8 995.35 1148.29 997.102 1148.29 999.055C1148.29 1000.4 1148.04 1001.72 1147.53 1003.01C1147.03 1004.31 1146.16 1005.74 1144.92 1007.33C1143.67 1008.9 1141.95 1010.82 1139.73 1013.06L1132.51 1020.63V1020.89H1148.88V1025.6H1124.94ZM1167.89 1026.1C1165.35 1026.1 1163.1 1025.66 1161.15 1024.78C1159.2 1023.91 1157.68 1022.7 1156.58 1021.16C1155.48 1019.62 1154.94 1017.87 1154.95 1015.91C1154.94 1014.37 1155.25 1012.95 1155.89 1011.66C1156.54 1010.36 1157.42 1009.28 1158.54 1008.41C1159.65 1007.54 1160.89 1006.98 1162.26 1006.74V1006.53C1160.45 1006.09 1159 1005.12 1157.91 1003.62C1156.82 1002.12 1156.29 1000.39 1156.3 998.434C1156.29 996.575 1156.78 994.918 1157.77 993.462C1158.78 991.995 1160.16 990.84 1161.91 990C1163.66 989.16 1165.66 988.739 1167.89 988.739C1170.11 988.739 1172.08 989.165 1173.82 990.018C1175.57 990.858 1176.95 992.012 1177.96 993.48C1178.97 994.936 1179.48 996.587 1179.49 998.434C1179.48 1000.39 1178.92 1002.12 1177.82 1003.62C1176.72 1005.12 1175.28 1006.09 1173.52 1006.53V1006.74C1174.88 1006.98 1176.11 1007.54 1177.2 1008.41C1178.3 1009.28 1179.17 1010.36 1179.82 1011.66C1180.49 1012.95 1180.82 1014.37 1180.84 1015.91C1180.82 1017.87 1180.27 1019.62 1179.17 1021.16C1178.07 1022.7 1176.54 1023.91 1174.59 1024.78C1172.65 1025.66 1170.41 1026.1 1167.89 1026.1ZM1167.89 1021.61C1169.4 1021.61 1170.7 1021.36 1171.8 1020.86C1172.9 1020.35 1173.75 1019.65 1174.36 1018.75C1174.96 1017.83 1175.27 1016.77 1175.28 1015.55C1175.27 1014.28 1174.94 1013.17 1174.28 1012.19C1173.65 1011.22 1172.78 1010.46 1171.67 1009.9C1170.57 1009.35 1169.31 1009.07 1167.89 1009.07C1166.46 1009.07 1165.19 1009.35 1164.07 1009.9C1162.96 1010.46 1162.09 1011.22 1161.45 1012.19C1160.81 1013.17 1160.49 1014.28 1160.51 1015.55C1160.49 1016.77 1160.78 1017.83 1161.38 1018.75C1161.98 1019.65 1162.84 1020.35 1163.95 1020.86C1165.06 1021.36 1166.38 1021.61 1167.89 1021.61ZM1167.89 1004.68C1169.1 1004.68 1170.17 1004.44 1171.11 1003.96C1172.04 1003.47 1172.78 1002.8 1173.31 1001.93C1173.85 1001.07 1174.13 1000.06 1174.14 998.896C1174.13 997.759 1173.86 996.765 1173.33 995.913C1172.8 995.06 1172.08 994.403 1171.14 993.942C1170.21 993.468 1169.12 993.231 1167.89 993.231C1166.64 993.231 1165.54 993.468 1164.59 993.942C1163.65 994.403 1162.93 995.06 1162.41 995.913C1161.89 996.765 1161.63 997.759 1161.64 998.896C1161.63 1000.06 1161.89 1001.07 1162.42 1001.93C1162.96 1002.8 1163.69 1003.47 1164.63 1003.96C1165.57 1004.44 1166.66 1004.68 1167.89 1004.68Z" fill="#292A34"/>
<rect x="1259.86" y="935.2" width="208.571" height="145.8" rx="4" fill="#E8EBEF" fill-opacity="0.4"/>
<path d="M1336.42 1025.6V1021.62L1348.72 1008.87C1350.03 1007.49 1351.12 1006.28 1351.97 1005.23C1352.83 1004.18 1353.48 1003.18 1353.9 1002.23C1354.33 1001.29 1354.54 1000.28 1354.54 999.215C1354.54 998.008 1354.26 996.966 1353.69 996.09C1353.12 995.202 1352.35 994.522 1351.37 994.048C1350.38 993.563 1349.28 993.32 1348.05 993.32C1346.74 993.32 1345.61 993.587 1344.64 994.119C1343.67 994.652 1342.92 995.404 1342.4 996.374C1341.88 997.345 1341.62 998.481 1341.62 999.783H1336.38C1336.38 997.57 1336.89 995.634 1337.91 993.977C1338.92 992.32 1340.32 991.036 1342.1 990.124C1343.87 989.201 1345.89 988.739 1348.15 988.739C1350.44 988.739 1352.45 989.195 1354.19 990.106C1355.94 991.006 1357.31 992.237 1358.29 993.8C1359.27 995.35 1359.76 997.102 1359.76 999.055C1359.76 1000.4 1359.51 1001.72 1359 1003.01C1358.5 1004.31 1357.63 1005.74 1356.39 1007.33C1355.15 1008.9 1353.42 1010.82 1351.21 1013.06L1343.98 1020.63V1020.89H1360.35V1025.6H1336.42ZM1379.17 988.739C1380.79 988.751 1382.39 989.047 1383.96 989.627C1385.54 990.207 1386.96 991.154 1388.23 992.468C1389.5 993.782 1390.52 995.557 1391.28 997.795C1392.05 1000.02 1392.44 1002.79 1392.45 1006.1C1392.45 1009.29 1392.13 1012.12 1391.49 1014.61C1390.85 1017.08 1389.94 1019.17 1388.74 1020.88C1387.56 1022.58 1386.12 1023.88 1384.43 1024.77C1382.73 1025.65 1380.83 1026.1 1378.71 1026.1C1376.54 1026.1 1374.62 1025.67 1372.94 1024.82C1371.26 1023.97 1369.89 1022.79 1368.84 1021.29C1367.78 1019.77 1367.13 1018.03 1366.87 1016.07H1372.28C1372.64 1017.63 1373.36 1018.89 1374.45 1019.87C1375.55 1020.82 1376.97 1021.3 1378.71 1021.3C1381.37 1021.3 1383.45 1020.14 1384.94 1017.82C1386.43 1015.49 1387.18 1012.24 1387.2 1008.06H1386.91C1386.3 1009.08 1385.53 1009.95 1384.6 1010.69C1383.69 1011.42 1382.67 1011.99 1381.53 1012.39C1380.4 1012.79 1379.18 1012.99 1377.89 1012.99C1375.8 1012.99 1373.89 1012.48 1372.18 1011.45C1370.46 1010.42 1369.09 1009 1368.07 1007.21C1367.06 1005.41 1366.55 1003.35 1366.55 1001.04C1366.55 998.748 1367.07 996.664 1368.11 994.794C1369.16 992.924 1370.63 991.444 1372.51 990.355C1374.41 989.254 1376.63 988.716 1379.17 988.739ZM1379.19 993.356C1377.8 993.356 1376.55 993.699 1375.44 994.386C1374.34 995.06 1373.47 995.978 1372.83 997.138C1372.19 998.286 1371.87 999.564 1371.87 1000.97C1371.87 1002.38 1372.18 1003.66 1372.8 1004.81C1373.42 1005.94 1374.28 1006.85 1375.35 1007.52C1376.44 1008.19 1377.69 1008.52 1379.08 1008.52C1380.12 1008.52 1381.09 1008.32 1381.99 1007.92C1382.89 1007.51 1383.68 1006.96 1384.36 1006.25C1385.03 1005.52 1385.56 1004.71 1385.94 1003.8C1386.31 1002.88 1386.5 1001.93 1386.5 1000.92C1386.5 999.582 1386.18 998.339 1385.55 997.191C1384.92 996.043 1384.05 995.12 1382.95 994.421C1381.85 993.711 1380.6 993.356 1379.19 993.356Z" fill="#292A34"/>
<rect x="1471.43" y="935.2" width="208.571" height="145.8" rx="4" fill="#E8EBEF" fill-opacity="0.4"/>
<path d="M1559.62 1026.1C1557.18 1026.1 1555 1025.68 1553.09 1024.84C1551.18 1024 1549.67 1022.83 1548.56 1021.34C1547.46 1019.84 1546.87 1018.1 1546.78 1016.12H1552.36C1552.43 1017.2 1552.79 1018.13 1553.44 1018.92C1554.1 1019.71 1554.97 1020.31 1556.03 1020.74C1557.1 1021.16 1558.28 1021.37 1559.59 1021.37C1561.02 1021.37 1562.28 1021.13 1563.39 1020.63C1564.5 1020.13 1565.37 1019.44 1566 1018.55C1566.62 1017.65 1566.94 1016.62 1566.94 1015.44C1566.94 1014.22 1566.62 1013.15 1566 1012.23C1565.38 1011.29 1564.47 1010.56 1563.28 1010.03C1562.1 1009.5 1560.66 1009.23 1558.98 1009.23H1555.91V1004.75H1558.98C1560.33 1004.75 1561.51 1004.51 1562.53 1004.03C1563.56 1003.54 1564.37 1002.87 1564.95 1002C1565.53 1001.13 1565.82 1000.1 1565.82 998.931C1565.82 997.807 1565.56 996.83 1565.05 996.001C1564.56 995.161 1563.85 994.504 1562.92 994.03C1562.01 993.557 1560.93 993.32 1559.69 993.32C1558.51 993.32 1557.4 993.539 1556.37 993.977C1555.35 994.403 1554.53 995.019 1553.89 995.824C1553.25 996.617 1552.9 997.57 1552.86 998.682H1547.55C1547.61 996.718 1548.19 994.989 1549.29 993.498C1550.4 992.006 1551.87 990.84 1553.69 990C1555.51 989.16 1557.54 988.739 1559.76 988.739C1562.1 988.739 1564.11 989.195 1565.8 990.106C1567.5 991.006 1568.82 992.208 1569.74 993.711C1570.68 995.214 1571.14 996.86 1571.13 998.647C1571.14 1000.68 1570.57 1002.41 1569.42 1003.83C1568.29 1005.25 1566.77 1006.2 1564.88 1006.69V1006.97C1567.29 1007.34 1569.16 1008.3 1570.49 1009.85C1571.83 1011.4 1572.49 1013.33 1572.48 1015.62C1572.49 1017.62 1571.93 1019.42 1570.81 1021C1569.69 1022.59 1568.17 1023.84 1566.24 1024.75C1564.31 1025.65 1562.11 1026.1 1559.62 1026.1ZM1591.85 1026.2C1589.04 1026.19 1586.65 1025.45 1584.66 1023.98C1582.67 1022.52 1581.15 1020.38 1580.09 1017.57C1579.04 1014.77 1578.51 1011.39 1578.51 1007.44C1578.51 1003.49 1579.04 1000.13 1580.09 997.333C1581.16 994.539 1582.69 992.409 1584.67 990.941C1586.67 989.473 1589.07 988.739 1591.85 988.739C1594.63 988.739 1597.01 989.479 1599 990.959C1600.99 992.427 1602.51 994.557 1603.57 997.351C1604.63 1000.13 1605.16 1003.49 1605.16 1007.44C1605.16 1011.4 1604.64 1014.79 1603.58 1017.59C1602.53 1020.39 1601.01 1022.52 1599.02 1024C1597.03 1025.47 1594.64 1026.2 1591.85 1026.2ZM1591.85 1021.46C1594.31 1021.46 1596.23 1020.26 1597.62 1017.86C1599.01 1015.46 1599.71 1011.98 1599.71 1007.44C1599.71 1004.42 1599.39 1001.87 1598.75 999.783C1598.13 997.688 1597.22 996.102 1596.04 995.025C1594.87 993.936 1593.47 993.391 1591.85 993.391C1589.4 993.391 1587.47 994.599 1586.08 997.013C1584.68 999.428 1583.98 1002.9 1583.96 1007.44C1583.96 1010.47 1584.28 1013.03 1584.91 1015.12C1585.54 1017.21 1586.45 1018.79 1587.62 1019.87C1588.79 1020.93 1590.2 1021.46 1591.85 1021.46Z" fill="#292A34"/>
</g>
</g>
</g>
<defs>
<filter id="filter0_d_27_159" x="129" y="120" width="1624" height="1050" filterUnits="userSpaceOnUse" color-interpolation-filters="sRGB">
<feFlood flood-opacity="0" result="BackgroundImageFix"/>
<feColorMatrix in="SourceAlpha" type="matrix" values="0 0 0 0 0 0 0 0 0 0 0 0 0 0 0 0 0 0 127 0" result="hardAlpha"/>
<feOffset dy="16"/>
<feGaussianBlur stdDeviation="12"/>
<feColorMatrix type="matrix" values="0 0 0 0 0 0 0 0 0 0 0 0 0 0 0 0 0 0 0.06 0"/>
<feBlend mode="normal" in2="BackgroundImageFix" result="effect1_dropShadow_27_159"/>
<feBlend mode="normal" in="SourceGraphic" in2="effect1_dropShadow_27_159" result="shape"/>
</filter>
<linearGradient id="paint0_linear_27_159" x1="0" y1="558.5" x2="1728" y2="558.5" gradientUnits="userSpaceOnUse">
<stop offset="0.5625" stop-color="#7FB1FF" stop-opacity="0.8"/>
</linearGradient>
<clipPath id="clip0_27_159">
<rect width="1728" height="1117" fill="white"/>
</clipPath>
<clipPath id="clip1_27_159">
<path d="M154 159C154 136.909 171.909 119 194 119H1728V1169H154V159Z" fill="white"/>
</clipPath>
<clipPath id="clip2_27_159">
<rect x="836.714" y="786.4" width="208.571" height="145.8" rx="4" fill="white"/>
</clipPath>
<clipPath id="clip3_27_159">
<rect x="1048.29" y="786.4" width="208.571" height="145.8" rx="4" fill="white"/>
</clipPath>
<clipPath id="clip4_27_159">
<rect x="1259.86" y="786.4" width="208.571" height="145.8" rx="4" fill="white"/>
</clipPath>
</defs>
</svg>
