<?xml version="1.0" encoding="UTF-8"?>
<svg id="Calque_1" xmlns="http://www.w3.org/2000/svg" width="80" height="80" version="1.1" viewBox="0 0 80 80">
  <!-- Generator: Adobe Illustrator 29.0.1, SVG Export Plug-In . SVG Version: 2.1.0 Build 192)  -->
  <defs>
    <style>
      .st0 {
        fill: #fff;
      }

      .st1 {
        fill: #f80;
      }

      .st2 {
        fill: #054ada;
      }
    </style>
  </defs>
  <path class="st2" d="M12.5,12.5h55v55H12.5V12.5Z"/>
  <path class="st0" d="M42.4063423,25.5999914h-15.2074085v6.3643712h15.2074085v3.4824172l-6.0950081.6004169c-8.7503621.8406293-11.5262581,2.9420865-11.5262581,9.3664546v1.6811216c0,4.9234634,3.5605162,7.5052083,7.9658328,7.5052083,1.9914589,0,4.1639125-.4802877,6.3365031-1.6211248l3.3190674-1.6811663v2.9421341h6.396774v-22.2754588l-6.3969111-6.364374ZM42.4063423,45.0534439l-4.1035968,2.1014572c-1.5689664.9006261-3.1983409,1.3809138-4.4655875,1.3809138-1.5689664,0-2.6553541-.5404215-2.6553541-2.5217509v-1.3209618c.1207251-2.1014572,1.5086955-2.6418788,6.2157332-3.122214l5.0088051-.5404215v4.0229772Z"/>
  <g>
    <path class="st1" d="M48.8030716,25.5999914h-6.3967293v6.3643712h6.3967293v-6.3643712Z"/>
    <path class="st1" d="M55.1999827,31.9639038h-6.3967293v22.2758728h6.3967293v-22.2758728Z"/>
  </g>
</svg>