<?xml version="1.0" encoding="utf-8"?>
<!-- Generator: Adobe Illustrator 22.1.0, SVG Export Plug-In . SVG Version: 6.00 Build 0)  -->
<svg version="1.1" id="Layer_1" xmlns="http://www.w3.org/2000/svg" xmlns:xlink="http://www.w3.org/1999/xlink" x="0px" y="0px"
	 width="80px" height="80px" viewBox="0 0 80 80" style="enable-background:new 0 0 80 80;" xml:space="preserve">
<style type="text/css">
	.st0{fill:#4989F5;}
	.st1{fill:url(#SVGID_1_);}
	.st2{fill:#3C4BA6;}
	.st3{fill:#7BABF7;}
	.st4{fill:#3F51B5;}
	.st5{fill:#709BE0;}
	.st6{fill:#FFFFFF;}
</style>
<g>
	<path class="st0" d="M15.1,26.9h48.3c1.1,0,2.1,0.9,2.1,2.1v35.1c0,1.1-0.9,2.1-2.1,2.1H15.1c-1.1,0-2.1-0.9-2.1-2.1V29
		C13,27.9,13.9,26.9,15.1,26.9z"/>
	
		<linearGradient id="SVGID_1_" gradientUnits="userSpaceOnUse" x1="13.0391" y1="35.5896" x2="65.4894" y2="35.5896" gradientTransform="matrix(1 0 0 -1 0 82)">
		<stop  offset="3.000000e-02" style="stop-color:#4079D8"/>
		<stop  offset="1" style="stop-color:#4989F5"/>
	</linearGradient>
	<path class="st1" d="M62.8,26.6H15.6c-1.5,0-2.6,11.3-2.6,12.8l25.8,26.8h23.9c1.5,0,2.7-1.2,2.7-2.7V29.3
		C65.5,27.8,64.3,26.6,62.8,26.6z"/>
	<polygon class="st2" points="25,33.5 40,33.5 40,13.8 27.2,13.8 	"/>
	<polygon class="st3" points="55,33.5 40,33.5 40,13.8 52.8,13.8 	"/>
	<path class="st3" d="M65.5,17.5L65.5,17.5C65.5,17.6,65.5,17.6,65.5,17.5z"/>
	<path class="st4" d="M65.5,17.6L65.5,17.6c-0.5-2.2-2.4-3.8-4.7-3.8h-8.1L55,33.5h15L65.5,17.6z"/>
	<path class="st3" d="M14.5,17.5L14.5,17.5C14.5,17.6,14.5,17.6,14.5,17.5z"/>
	<path class="st3" d="M14.5,17.6L14.5,17.6c0.5-2.2,2.4-3.8,4.7-3.8h8.1L25,33.5H10L14.5,17.6z"/>
	<path class="st5" d="M25,33.5c0,4.1-3.4,7.5-7.5,7.5S10,37.6,10,33.5H25z"/>
	<path class="st2" d="M40,33.5c0,4.1-3.4,7.5-7.5,7.5S25,37.6,25,33.5H40z"/>
	<path class="st5" d="M55,33.5c0,4.1-3.4,7.5-7.5,7.5S40,37.6,40,33.5H55z"/>
	<path class="st2" d="M70,33.5c0,4.1-3.4,7.5-7.5,7.5S55,37.6,55,33.5H70z"/>
	<path class="st6" d="M62.5,53.8c0-0.4-0.1-0.7-0.1-1.1h-8.2c0,1.1,0,2.4,0,3.5h4.7c-0.2,1.1-0.8,2-1.7,2.6c0,0,0,0,0,0
		c-0.6,0.4-1.2,0.6-1.9,0.7c-0.7,0.1-1.4,0.1-2.1,0c-0.7-0.1-1.4-0.4-1.9-0.8c-0.9-0.6-1.5-1.5-1.9-2.4c0-0.1-0.1-0.2-0.1-0.2v0l0,0
		c-0.4-1.1-0.4-2.3,0-3.4c0.3-0.8,0.7-1.5,1.3-2c1.3-1.4,3.3-1.9,5.2-1.3c0.7,0.2,1.3,0.6,1.9,1.1l1.6-1.6c0.3-0.3,0.6-0.6,0.8-0.9
		l0,0l0,0c-0.8-0.8-1.8-1.3-2.8-1.7c-1.9-0.7-4-0.7-5.9-0.1c-0.1,0-0.1,0-0.2,0.1c-2.1,0.8-3.7,2.3-4.7,4.2
		c-0.3,0.7-0.6,1.4-0.8,2.2c-0.9,4.5,1.8,8.9,6.3,10.1c1.4,0.4,3,0.4,4.4,0c1.3-0.3,2.6-0.9,3.6-1.9c1.1-1,1.8-2.3,2.2-3.6
		C62.5,56.2,62.6,55,62.5,53.8z"/>
</g>
</svg>
