<svg xmlns="http://www.w3.org/2000/svg" viewBox="0 0 35 35" width="80" height="80"><defs><style>.cls-1{fill:#e6e7e8}.cls-2{fill:#d2d3d4}.cls-3{fill:#7c7c7c}.cls-4{fill:#5a5a5a}.cls-5{fill:#5778ff}.cls-6{fill:#fff}.cls-7{fill:#bdbdbd}.cls-8{fill:#4f4f4f}</style></defs><path class="cls-1" d="M4.44 17.03h26.12v12.11H4.44z"/><path class="cls-2" d="M30.56 17.02H4.44v-3.67l3.8-3.69h18.64l3.68 3.69v3.67z"/><path class="cls-3" d="M11.8 9.66h1.9V5.87l-1.9 1.89v1.9zm9.5 0h1.9v-1.9l-1.9-1.89v3.79z"/><path class="cls-4" d="M13.7 5.87h7.6v1.9h-7.6z"/><rect class="cls-5" x="7.47" y="13.34" width="20.07" height="7.48" rx=".9" ry=".9"/><path class="cls-6" d="M7.47 17.03h20.07v12.11H7.47z"/><circle class="cls-6" cx="9.33" cy="15.13" r=".81"/><circle class="cls-6" cx="11.78" cy="15.13" r=".81"/><path class="cls-2" d="M8.83 27.47h8.9v1.66h-8.9zm0-9.02h6.65v7.6H8.83z"/><path class="cls-7" d="M25.34 19.64l-2.62 5.34.95 4.16h3.87v-6.83l-2.2-2.67z"/><path class="cls-8" d="M19.76 25.22h3.92v3.92h-3.92z"/><path class="cls-7" d="M23.67 23.79h-3.91v-5.46l3.91 4.04v1.42z"/><path class="cls-8" d="M23.67 18.29v4.08l-2 1.19-2-1.19v-4a4.39 4.39 0 1 0 3.92-.06z"/></svg>