<svg xmlns="http://www.w3.org/2000/svg" viewBox="0 0 35 35" width="80" height="80"><defs><style>.cls-1{fill:#00aae4}</style></defs><path class="cls-1" d="M34.82 13.59H23.68v1.11a6.21 6.21 0 0 0-5.13-2.54 6.13 6.13 0 0 0-5.4 3v-1.58H9.74l-3 4.23-3.68-4.23H.2v7.82h2.7v-3.77l3.57 4.08h.66l3.29-4.08v3.77h2.69v-1.53a6.13 6.13 0 0 0 5.4 3c3.33 0 6-2.39 6-5.34a4.78 4.78 0 0 0-.16-1.19H28l-5.08 5.1h11.33v-2.59h-4.53zm-16.27 6.25a2.51 2.51 0 0 1-2.66-2.35 2.51 2.51 0 0 1 2.66-2.35 2.51 2.51 0 0 1 2.66 2.35 2.51 2.51 0 0 1-2.66 2.35z"/></svg>