<?xml version="1.0" encoding="UTF-8"?>
<svg id="Calque_1" xmlns="http://www.w3.org/2000/svg" width="80" height="80" version="1.1" viewBox="0 0 80 80">
  <!-- Generator: Adobe Illustrator 29.0.1, SVG Export Plug-In . SVG Version: 2.1.0 Build 192)  -->
  <defs>
    <style>
      .st0 {
        fill: #ff642d;
      }
    </style>
  </defs>
  <path class="st0" d="M63.6431903,39.6997693c0,1.2009241-.6004642,1.3510387-2.101619,1.3510387-1.6512679,0-1.9515-.3002307-2.101619-1.5011548-.3002321-3.1524241-2.4018453-5.8545044-6.004619-6.004619-1.0508095-.150116-1.3510387-.4503467-1.3510387-1.9515015,0-1.3510394.150116-1.9515015,1.2009227-1.9515015,6.0046219.150116,10.357973,5.103927,10.357973,10.057738ZM72.5,39.6997693c0-9.3071592-6.3048511-19.2147812-21.0161667-19.2147812h-28.9722857c-.6004613,0-1.050808.300231-1.050808.9006929,0,.3002309.150116.6004619.4503467.7505774,1.050808.9006929,2.5519628,1.801386,4.6535803,2.852194,1.9515015,1.0508084,3.6027709,1.6512701,5.1039256,2.2517321.6004613.3002307.9006934.600462.9006934.9006927,0,.4503467-.3002321.9006927-1.0508095.9006927H8.5508083c-.7505774-.1501153-1.0508083.3002314-1.0508083.7505774,0,.4503467.1501155.7505774.4503464,1.050808,1.8013857,1.9515015,4.8036952,4.3533482,9.1570442,7.0554271,3.7528862,2.4018482,8.5565826,4.953811,12.3094695,6.755195.6004613.3002321.9006934.6004613.9006934,1.0508095,0,.4503453-.3002307.7505774-1.050808.7505774h-10.6582001c-.600462,0-.9006927.3002321-.9006927.7505774,0,.3002321.1501153.6004613.4503467.9006934,2.4018482,2.2517321,6.3048497,4.5034643,11.4087768,6.7551964,6.9053125,2.8521935,13.8106249,4.6535803,21.616628,4.6535803,14.8614316,0,21.3163959-11.1085447,21.3163959-19.8152426ZM53.1351042,53.0600476c-7.2055446,0-13.3602768-5.854503-13.3602768-13.3602768,0-7.2055431,6.004619-13.0600461,13.3602768-13.0600461,7.5057767,0,13.3602768,5.8545044,13.3602768,13.0600461,0,7.3556578-5.8545001,13.3602768-13.3602768,13.3602768Z"/>
</svg>